<svg id="レイヤー_1" data-name="レイヤー 1" xmlns="http://www.w3.org/2000/svg" viewBox="0 0 1080 1920"><defs><style>.cls-1,.cls-10{stroke:#000;stroke-miterlimit:10;}.cls-2{font-size:47px;}.cls-2,.cls-3{fill:#f2f2f2;}.cls-13,.cls-2,.cls-7{font-family:Kozuka Gothic Pr6N;}.cls-4{fill:#bff41c;}.cls-5{fill:#999;}.cls-10,.cls-13,.cls-6{fill:gray;}.cls-7{font-size:53px;}.cls-8{letter-spacing:12.05px;}.cls-9{letter-spacing:-25.3px;}.cls-10{stroke-width:0.8px;}.cls-11{fill:#3cf;}.cls-12{letter-spacing:-26.36px;}.cls-13{font-size:44px;}.cls-14{letter-spacing:12.22px;}</style></defs><title>SNS-shibuya</title><rect class="cls-1" y="1804.58" width="1080" height="113.16"/><rect class="cls-1" width="1080" height="90.35"/><text class="cls-2" transform="translate(476.72 63.95) scale(1.1 1)">13:30</text><rect class="cls-3" x="465.84" y="573.43" width="7.48" height="7.48"/><rect class="cls-4" x="48.92" y="140.46" width="144.36" height="144.36" rx="28.26" ry="28.26"/><path class="cls-5" d="M151.27,251.84H141.14l-25.74-35.9-7.34,7.8v28.1H99.47V180.22h8.58v35h0.41c2-2.73,4.14-5.36,6.1-7.71l24-27.26H149.1l-27.71,30.45Z"/><path class="cls-6" d="M238.54,257.14a18.76,18.76,0,0,0-.45,3.55c0,2.28.79,3.34,2.31,3.39,3.32,0.05,6.93-4.4,6.93-11.5,0-8.8-5.3-14.89-14.82-14.89-10.31,0-18.93,8.05-18.93,20.46,0,9.91,6.65,16.11,15.89,16.11a20.59,20.59,0,0,0,9.47-2.12l0.9,2.38a23.19,23.19,0,0,1-10.93,2.38c-10.2,0-18.65-6.94-18.65-18.5,0-12.51,9-23.26,22.76-23.26,10.65,0,17.58,7.15,17.58,16.91,0,9.38-5.18,14.68-10.93,14.68-2.42,0-4.68-1.59-4.45-5.3H235c-2.31,3.66-5.24,5.3-8.9,5.3-3.49,0-6.59-2.7-6.59-7.31A14.71,14.71,0,0,1,234.42,245a16.23,16.23,0,0,1,6.37,1.17Zm-1.63-8.85a9.81,9.81,0,0,0-3.16-.48c-5.86,0-10.54,5.46-10.54,11.45,0,2.76,1.47,4.61,4.23,4.61,3.77,0,7.21-4.66,8-8.37Z"/><path class="cls-6" d="M281.41,270.65h-5.75L265.07,256.4l-2.82,3v11.23h-4.68v-42.4h4.68v27h0.11c0.73-1,1.8-2.28,2.65-3.23l9.18-10.23h5.63l-11.55,11.92Z"/><path class="cls-6" d="M305.69,263.76a38,38,0,0,0,.45,6.89h-4.28l-0.45-3.71h-0.17a10.88,10.88,0,0,1-9.07,4.35c-5.86,0-9-4-9-8.21,0-6.94,6.42-10.7,17.8-10.65,0-2.44,0-7.95-7-7.95a13.9,13.9,0,0,0-7.49,2.07l-1.13-3a18.31,18.31,0,0,1,9.35-2.44c8.68,0,10.93,5.78,10.93,11.5v11.18Zm-4.62-8.11c-5.8,0-13.07.79-13.07,6.89a5,5,0,0,0,5.3,5.35c4.56,0,7.78-3.29,7.78-6.78v-5.46Z"/><path class="cls-6" d="M340.79,256c0,10.76-7.55,15.31-14.37,15.31-7.89,0-14-5.56-14-14.89,0-9.86,6.54-15.31,14.37-15.31C335.21,241.08,340.79,247.12,340.79,256Zm-14.14-11.45c-6.65,0-9.41,6.15-9.41,11.71,0,6.41,3.77,11.61,9.3,11.61s9.47-5.19,9.47-11.71C336,251,333.36,244.53,326.65,244.53Z"/><path class="cls-6" d="M361.92,245.48a14.94,14.94,0,0,0-1.69-.11c-5.07,0-7.66,4.72-7.66,9.59v15.69h-4.68V250.41c0-3.07-.06-5.88-0.23-8.64h4.11l0.23,5.56h0.17a9.11,9.11,0,0,1,8.34-6.2,12.66,12.66,0,0,1,1.41.16v4.19Z"/><path class="cls-6" d="M369.69,236.68a2.94,2.94,0,0,1-3-3,3,3,0,0,1,3.1-3A3,3,0,1,1,369.69,236.68Zm2.37,34h-4.68V241.77h4.68v28.88Z"/><text class="cls-7" transform="translate(208.63 205.75) scale(1.1 1)">かおり</text><text class="cls-7" transform="translate(383.53 205.75) scale(0.83 1)">（スマホ落とし<tspan class="cls-8" x="371" y="0">た</tspan><tspan x="437.25" y="0">..</tspan><tspan class="cls-8" x="460.36" y="0">.</tspan><tspan x="485.16" y="0">固定見てね</tspan><tspan class="cls-9" x="750.16" y="0">）</tspan></text><text class="cls-7" transform="translate(24.88 361.85) scale(0.9 1)">【拡散希望】渋谷のハチ公前でスマホを落とし<tspan x="26.5" y="92.75">てしまいました！</tspan><tspan x="26.5" y="185.5">黄色いクマさんのカバーをしています！</tspan><tspan x="26.5" y="278.25">見かけた方、教えてくれると嬉しいです！</tspan></text><line class="cls-10" x1="2.3" y1="716.47" x2="1082.3" y2="716.47"/><rect class="cls-11" x="43.11" y="740.16" width="144.36" height="144.36" rx="28.26" ry="28.26"/><path class="cls-3" d="M148.88,854.35h-10l-29.39-42.11c-6.17-8.93-12.1-17.85-16.57-26.67l-0.48.1c0.85,10.19,1,19.53,1,33.39v35.28H83.92v-80H94.45l29.76,42.11c6.53,9.56,11.85,17.85,16.09,26.15l0.24-.11c-1-11.13-1.21-20.69-1.21-33.29V774.33h9.56v80Z"/><text class="cls-7" transform="translate(213.13 803.45) scale(1.1 1)">のっちー<tspan class="cls-12" x="212" y="0">。</tspan></text><text class="cls-13" transform="translate(213.13 863.35) scale(0.97 1)">@notti638</text><text class="cls-7" transform="translate(43.57 964.75) scale(0.9 1)">@kaori さん！スマホを見つけました！<tspan x="0" y="92.75">ハチ公前で待ってます！</tspan></text><line class="cls-10" x1="-0.06" y1="1118.61" x2="1079.94" y2="1118.61"/><rect class="cls-4" x="48.2" y="1148.12" width="144.36" height="144.36" rx="28.26" ry="28.26"/><path class="cls-5" d="M150.55,1259.5H140.42l-25.74-35.9-7.34,7.8v28.1H98.75v-71.62h8.58v35h0.41c2-2.73,4.14-5.36,6.1-7.71l24-27.26h10.55l-27.71,30.45Z"/><path class="cls-6" d="M237.82,1264.8a18.76,18.76,0,0,0-.45,3.55c0,2.28.79,3.34,2.31,3.39,3.32,0.05,6.93-4.4,6.93-11.5,0-8.8-5.3-14.89-14.82-14.89-10.31,0-18.93,8.05-18.93,20.46,0,9.91,6.65,16.11,15.89,16.11a20.59,20.59,0,0,0,9.47-2.12l0.9,2.38a23.19,23.19,0,0,1-10.93,2.38c-10.2,0-18.65-6.94-18.65-18.5,0-12.51,9-23.26,22.76-23.26,10.65,0,17.58,7.15,17.58,16.91,0,9.38-5.18,14.68-10.93,14.68-2.42,0-4.68-1.59-4.45-5.3h-0.23c-2.31,3.66-5.24,5.3-8.9,5.3-3.49,0-6.59-2.7-6.59-7.31a14.71,14.71,0,0,1,14.93-14.41,16.23,16.23,0,0,1,6.37,1.17Zm-1.63-8.85a9.81,9.81,0,0,0-3.16-.48c-5.86,0-10.54,5.46-10.54,11.45,0,2.76,1.47,4.61,4.23,4.61,3.77,0,7.21-4.66,8-8.37Z"/><path class="cls-6" d="M280.69,1278.31h-5.75l-10.59-14.26-2.82,3v11.23h-4.68v-42.4h4.68v27h0.11c0.73-1,1.8-2.28,2.65-3.23l9.18-10.23h5.63l-11.55,11.92Z"/><path class="cls-6" d="M305,1271.42a38,38,0,0,0,.45,6.89h-4.28l-0.45-3.71h-0.17a10.88,10.88,0,0,1-9.07,4.35c-5.86,0-9-4-9-8.21,0-6.94,6.42-10.7,17.8-10.65,0-2.44,0-7.95-7-7.95a13.9,13.9,0,0,0-7.49,2.07l-1.13-3a18.31,18.31,0,0,1,9.35-2.44c8.68,0,10.93,5.78,10.93,11.5v11.18Zm-4.62-8.11c-5.8,0-13.07.79-13.07,6.89a5,5,0,0,0,5.3,5.35c4.56,0,7.78-3.29,7.78-6.78v-5.46Z"/><path class="cls-6" d="M340.07,1263.63c0,10.76-7.55,15.31-14.37,15.31-7.89,0-14-5.56-14-14.89,0-9.86,6.54-15.31,14.37-15.31C334.5,1248.74,340.07,1254.78,340.07,1263.63Zm-14.14-11.45c-6.65,0-9.41,6.15-9.41,11.71,0,6.41,3.77,11.61,9.3,11.61s9.47-5.19,9.47-11.71C335.28,1258.65,332.64,1252.18,325.93,1252.18Z"/><path class="cls-6" d="M361.2,1253.14a14.94,14.94,0,0,0-1.69-.11c-5.07,0-7.66,4.72-7.66,9.59v15.69h-4.68v-20.24c0-3.07-.06-5.88-0.23-8.64h4.11l0.23,5.56h0.17a9.11,9.11,0,0,1,8.34-6.2,12.66,12.66,0,0,1,1.41.16v4.19Z"/><path class="cls-6" d="M369,1244.34a2.94,2.94,0,0,1-3-3,3,3,0,0,1,3.1-3A3,3,0,1,1,369,1244.34Zm2.37,34h-4.68v-28.88h4.68v28.88Z"/><text class="cls-7" transform="translate(207.91 1213.41) scale(1.1 1)">かおり</text><text class="cls-7" transform="translate(382.81 1213.41) scale(0.83 1)">（スマホ落とし<tspan class="cls-8" x="371" y="0">た</tspan><tspan x="437.25" y="0">..</tspan><tspan class="cls-8" x="460.36" y="0">.</tspan><tspan x="485.16" y="0">固定見てね</tspan><tspan class="cls-9" x="750.16" y="0">）</tspan></text><text class="cls-7" transform="translate(49.33 1365.17) scale(0.9 1)">@notti63<tspan class="cls-14" x="212.26" y="0">8</tspan><tspan x="254.4" y="0">さん、ありがとうございますっ！</tspan></text><path class="cls-3" d="M222.57,1886H164l29.25-51Zm-53.3-2.86h48l-24.05-42.58Z"/><path class="cls-3" d="M571.07,1860.53a31.14,31.14,0,1,1-31.14-31.14A31.1,31.1,0,0,1,571.07,1860.53Zm-59.35,0a28.21,28.21,0,1,0,28.21-28.21A28.19,28.19,0,0,0,511.73,1860.53Z"/><path class="cls-3" d="M868,1838v49.14H818.88V1838H868Zm-46.61,46.67h44.14v-44.2H821.35v44.2Z"/><line class="cls-10" x1="2.3" y1="1419.05" x2="1082.3" y2="1419.05"/></svg>