<svg id="Layer_1" data-name="Layer 1" xmlns="http://www.w3.org/2000/svg" xmlns:xlink="http://www.w3.org/1999/xlink" preserveAspectRatio="none" viewBox="0 0 613.6 851.7">
  <defs>
    <style>
      .cls-1 {
        fill: none;
      }

      .cls-2 {
        clip-path: url(#clip-path);
      }

      .cls-3 {
        clip-path: url(#clip-path-2);
      }

      .cls-4 {
        fill: #fff;
      }

      .cls-5 {
        fill: #fdf1d9;
      }

      .cls-6 {
        fill: #545454;
      }

      .cls-7 {
        fill: #9cc569;
      }

      .cls-8 {
        fill: #fde0b1;
      }

      .cls-9 {
        fill: #9bc468;
      }

      .cls-10 {
        fill: #259edc;
      }

      .cls-11 {
        fill: #202219;
      }

      .cls-12 {
        fill: #d90011;
      }

      .cls-13 {
        fill: #a2458e;
      }

      .cls-14 {
        fill: #21201d;
      }

      .cls-15 {
        fill: #111f2a;
      }

      .cls-16 {
        fill: #1a799a;
      }

      .cls-17 {
        fill: #1d1e1d;
      }

      .cls-18 {
        fill: #faf9f9;
      }

      .cls-19 {
        fill: #181919;
      }

      .cls-20 {
        fill: #c6d38f;
      }

      .cls-21 {
        fill: #251d1c;
      }

      .cls-22 {
        fill: #181818;
      }

      .cls-23 {
        fill: #5f2015;
      }

      .cls-24 {
        fill: #3b2216;
      }

      .cls-25 {
        fill: #1e1f1f;
      }

      .cls-26 {
        fill: #1e2e18;
      }

      .cls-27 {
        fill: #a3c36d;
      }

      .cls-28 {
        fill: #b9d49c;
      }

      .cls-29 {
        fill: #95bb75;
      }

      .cls-30 {
        fill: #082f46;
      }

      .cls-31 {
        fill: #202121;
      }

      .cls-32 {
        fill: #65ad93;
      }

      .cls-33 {
        fill: #286c90;
      }

      .cls-34 {
        fill: #b1c09f;
      }

      .cls-35 {
        fill: #9d5930;
      }

      .cls-36 {
        fill: #1d1d1d;
      }

      .cls-37 {
        fill: #131312;
      }

      .cls-38 {
        fill: #2b1a13;
      }

      .cls-39 {
        fill: #211f1c;
      }

      .cls-40 {
        fill: #4b1917;
      }

      .cls-41 {
        fill: #272025;
      }

      .cls-42 {
        fill: #5b1917;
      }

      .cls-43 {
        fill: #441a19;
      }

      .cls-44 {
        fill: #383127;
      }

      .cls-45 {
        fill: #0d0a09;
      }

      .cls-46 {
        fill: #fde0b0;
      }

      .cls-47 {
        fill: #1b2114;
      }

      .cls-48 {
        fill: #1d1c17;
      }

      .cls-49 {
        fill: #1d3448;
      }

      .cls-50 {
        fill: #fee0b0;
      }

      .cls-51 {
        fill: #262a29;
      }

      .cls-52 {
        fill: #241f18;
      }

      .cls-53 {
        fill: #554536;
      }

      .cls-54 {
        fill: #1e1e1e;
      }

      .cls-55 {
        fill: #202020;
      }

      .cls-56 {
        fill: #1c1d1d;
      }

      .cls-57 {
        fill: #222;
      }

      .cls-58 {
        fill: #1e1815;
      }

      .cls-59 {
        fill: #36312a;
      }

      .cls-60 {
        fill: #cdde95;
      }

      .cls-61 {
        fill: #cdde96;
      }

      .cls-62 {
        fill: #cbdd95;
      }

      .cls-63 {
        fill: #259cd9;
      }

      .cls-64 {
        fill: #077fb1;
      }

      .cls-65 {
        fill: #162312;
      }

      .cls-66 {
        fill: #579e98;
      }

      .cls-67 {
        fill: #1d1f16;
      }

      .cls-68 {
        fill: #53a09f;
      }

      .cls-69 {
        fill: #5ba2a0;
      }

      .cls-70 {
        fill: #322020;
      }

      .cls-71 {
        fill: #362026;
      }

      .cls-72 {
        fill: #14120b;
      }

      .cls-73 {
        fill: #2b2c2c;
      }

      .cls-74 {
        fill: #6c6c6c;
      }

      .cls-75 {
        fill: #2f9ad0;
      }

      .cls-76 {
        fill: #2b2117;
      }

      .cls-77 {
        fill: #9cbf7e;
      }

      .cls-78 {
        fill: #161e12;
      }

      .cls-79 {
        fill: #203218;
      }

      .cls-80 {
        fill: #2d9bd3;
      }

      .cls-81 {
        fill: #dbd7d1;
      }

      .cls-82 {
        fill: #9bc270;
      }

      .cls-83 {
        fill: #906482;
      }

      .cls-84 {
        fill: #299ad5;
      }

      .cls-85 {
        fill: #a5d0bc;
      }

      .cls-86 {
        fill: #93bd7a;
      }

      .cls-87 {
        fill: #1d2b18;
      }

      .cls-88 {
        fill: #141413;
      }

      .cls-89 {
        fill: #f9dfb0;
      }

      .cls-90 {
        fill: #fbf0da;
      }

      .cls-91 {
        fill: #f7dfb3;
      }

      .cls-92 {
        fill: #f8e0b2;
      }

      .cls-93 {
        fill: #f7dfb0;
      }

      .cls-94 {
        fill: #353028;
      }

      .cls-95 {
        fill: #f5dfbb;
      }

      .cls-96 {
        fill: #f6f6f6;
      }

      .cls-97 {
        fill: #f8f8f8;
      }

      .cls-98 {
        fill: #505050;
      }

      .cls-99 {
        fill: #484848;
      }

      .cls-100 {
        fill: #3c3b3b;
      }

      .cls-101 {
        fill: #f8f8f7;
      }

      .cls-102 {
        fill: #f5dcb3;
      }

      .cls-103 {
        fill: #f7f7f7;
      }

      .cls-104 {
        fill: #d01;
      }

      .cls-105 {
        fill: #eb6a35;
      }

      .cls-106 {
        fill: #e76a36;
      }

      .cls-107 {
        fill: #ea6b35;
      }

      .cls-108 {
        fill: #ef9970;
      }

      .cls-109 {
        fill: #f9e0b2;
      }

      .cls-110 {
        fill: #f7f8f7;
      }

      .cls-111 {
        fill: #601715;
      }

      .cls-112 {
        fill: #995837;
      }

      .cls-113 {
        fill: #9a5635;
      }

      .cls-114 {
        fill: #542018;
      }

      .cls-115 {
        fill: #cc7348;
      }

      .cls-116 {
        fill: #ddd7cf;
      }

      .cls-117 {
        fill: #fdfdfc;
      }

      .cls-118 {
        fill: #76151b;
      }

      .cls-119 {
        fill: #3396cd;
      }

      .cls-120 {
        fill: #8f0f1a;
      }

      .cls-121 {
        fill: #fcf1d9;
      }

      .cls-122 {
        fill: #cbdd93;
      }

      .cls-123 {
        fill: #6e6b6d;
      }

      .cls-124 {
        fill: #e9ebe9;
      }

      .cls-125 {
        fill: #007bb2;
      }

      .cls-126 {
        fill: #2f9bd3;
      }

      .cls-127 {
        fill: #2c9dd5;
      }

      .cls-128 {
        fill: #3196cc;
      }

      .cls-129 {
        fill: #11769a;
      }

      .cls-130 {
        fill: #2d99d1;
      }

      .cls-131 {
        fill: #272b25;
      }

      .cls-132 {
        fill: #728795;
      }

      .cls-133 {
        fill: #3a352d;
      }

      .cls-134 {
        fill: #0e0f0f;
      }

      .cls-135 {
        fill: #121212;
      }

      .cls-136 {
        fill: #322e28;
      }

      .cls-137 {
        fill: #0d0d0d;
      }

      .cls-138 {
        fill: #0c0c0d;
      }

      .cls-139 {
        fill: #101111;
      }

      .cls-140 {
        fill: #0e0e0e;
      }

      .cls-141 {
        fill: #111;
      }

      .cls-142 {
        fill: #262320;
      }

      .cls-143 {
        fill: #121313;
      }

      .cls-144 {
        fill: #141515;
      }

      .cls-145 {
        fill: #131313;
      }

      .cls-146 {
        fill: #111212;
      }

      .cls-147 {
        fill: #1a1a1a;
      }

      .cls-148 {
        fill: #1f1f1e;
      }

      .cls-149 {
        fill: #141414;
      }

      .cls-150 {
        fill: #151616;
      }

      .cls-151 {
        fill: #1b1b1b;
      }

      .cls-152 {
        fill: #252322;
      }

      .cls-153 {
        fill: #232322;
      }

      .cls-154 {
        fill: #151515;
      }

      .cls-155 {
        fill: #181918;
      }

      .cls-156 {
        fill: #1c1d1c;
      }

      .cls-157 {
        fill: #1f1f1f;
      }

      .cls-158 {
        fill: #272726;
      }

      .cls-159 {
        fill: #363535;
      }

      .cls-160 {
        fill: #2f2e2d;
      }

      .cls-161 {
        fill: #252625;
      }

      .cls-162 {
        fill: #343332;
      }

      .cls-163 {
        fill: #b8b4b3;
      }

      .cls-164 {
        fill: #2b9bd6;
      }

      .cls-165 {
        fill: #289ed7;
      }

      .cls-166 {
        fill: #1a1d23;
      }

      .cls-167 {
        fill: #192014;
      }

      .cls-168 {
        fill: #3b2620;
      }

      .cls-169 {
        fill: #a3c55e;
      }

      .cls-170 {
        fill: #1b1d13;
      }

      .cls-171 {
        fill: #aeca6f;
      }

      .cls-172 {
        fill: #7dbbbe;
      }

      .cls-173 {
        fill: #9cc07c;
      }

      .cls-174 {
        fill: #2e1c13;
      }

      .cls-175 {
        fill: #1e221d;
      }

      .cls-176 {
        fill: #c4d89a;
      }

      .cls-177 {
        fill: #a2428c;
      }

      .cls-178 {
        fill: #3f243a;
      }

      .cls-179 {
        fill: #e483a8;
      }

      .cls-180 {
        fill: #251a1a;
      }

      .cls-181 {
        fill: #21191b;
      }

      .cls-182 {
        fill: #3c3b3c;
      }

      .cls-183 {
        fill: #19120d;
      }

      .cls-184 {
        fill: #561812;
      }

      .cls-185 {
        fill: #251510;
      }

      .cls-186 {
        fill: #5f1714;
      }

      .cls-187 {
        fill: #6e1817;
      }

      .cls-188 {
        fill: #6f1416;
      }

      .cls-189 {
        fill: #b50a16;
      }

      .cls-190 {
        fill: #331b2d;
      }

      .cls-191 {
        fill: #491811;
      }

      .cls-192 {
        fill: #f5c6a6;
      }

      .cls-193 {
        fill: #3d1d38;
      }

      .cls-194 {
        fill: #696c6c;
      }

      .cls-195 {
        fill: #cd887b;
      }

      .cls-196 {
        fill: #cdde97;
      }

      .cls-197 {
        fill: #4291bf;
      }

      .cls-198 {
        fill: #bebdbc;
      }

      .cls-199 {
        fill: #edecec;
      }

      .cls-200 {
        fill: #bfbcbb;
      }

      .cls-201 {
        fill: #eae9e9;
      }

      .cls-202 {
        fill: #b5b2b2;
      }

      .cls-203 {
        fill: #e9e8e8;
      }

      .cls-204 {
        fill: #f1f0f0;
      }

      .cls-205 {
        fill: #dcdad9;
      }

      .cls-206 {
        fill: #d0cecd;
      }

      .cls-207 {
        fill: #f9efd4;
      }

      .cls-208 {
        fill: #3a93bd;
      }

      .cls-209 {
        fill: #262624;
      }

      .cls-210 {
        fill: #edebea;
      }

      .cls-211 {
        fill: #e46833;
      }

      .cls-212 {
        fill: #e16734;
      }

      .cls-213 {
        fill: #f6f9f8;
      }

      .cls-214 {
        fill: #ba5d36;
      }

      .cls-215 {
        fill: #a95a36;
      }

      .cls-216 {
        fill: #98434d;
      }

      .cls-217 {
        fill: #e6e4de;
      }

      .cls-218 {
        fill: #f5f6f5;
      }

      .cls-219 {
        fill: #ea956d;
      }
    </style>
    <clipPath id="clip-path">
      <rect class="cls-1" width="613.6" height="851.69"/>
    </clipPath>
    <clipPath id="clip-path-2">
      <rect class="cls-1" x="9.6" y="9.6" width="595.5" height="833.63"/>
    </clipPath>
  </defs>
  <title>6f7dd21b-e5e6-4fd5-83af-ea8dbd611b9f</title>
  <g class="cls-2">
    <g class="cls-3">
      <g class="cls-3">
        <path class="cls-4" d="M421.6,9.7q89.6,0,179.2-.1c3.6,0,4.3.7,4.3,4.3q-0.2,412.5,0,825.1c0,3.6-.7,4.3-4.3,4.3q-76.5-.2-153-0.1c-4.5-3.3-6.6-8.3-9.3-12.9-1.3-2.3,0-4.2,1.1-6.1l1-1.4c2.3-2.2,4.6-4.7,5.6-7.6,3-8.1,9-13.6,15.1-19.4,8-7.6,15.9-15.4,22.7-24.2a68.2,68.2,0,0,0,11.8-24.3c1.1-4,2.4-8,3.5-12,0.9-9.3,6.1-15,14.8-18.2,4-1.5,7.7-3.9,12-5.6a118.3,118.3,0,0,0-13.2-7.5c-4.2-2.1-6-5.3-5.9-10,0.2-8.7.1-17.4,0-26.2a21,21,0,0,0-.8-7.1,127.2,127.2,0,0,0-9.2-37.4,24.7,24.7,0,0,1-1.3-4.6c0.8-8.6,6.3-15.3,9.9-22.6,5.2-10.6,10.9-21.1,15.6-32a12.1,12.1,0,0,0,1.2-6.4c-2.9-22.2-1.3-44.6-4.7-66.8-1-6.7-3.2-13-5.5-19.4a7.4,7.4,0,0,0-3.3-4.1c-1.5-.9-3.3-1.8-4.1-3.4-5.3-10.7-16.1-11.8-25.7-14.8-6.8-2.1-13.9-3.2-20.4-6.2s-10.9-.2-11.7,7,1.2,11.7,6.5,15.7c1.9,1.4,3.7,3,5.7,4.3,4.2,3.3,7.8,7.3,12.7,9.7,2,1,3.7,3.2,2.3,5.4s-4,.8-5.7-0.2A112.8,112.8,0,0,1,451,471.7c-3.1-2.8-6.2-5.6-11.1-3.7-3,1.2-4.7-1.5-6.5-3.2-6.8-6.9-14-13.4-22.5-18.3-23.6-13.7-48.6-17.6-75-10.1-23,6.5-40.9,20.4-54.6,39.9-2.4,3.4-3.8,8.7-9.1,8.4s-12.2-2.6-16.4-7.4c-5.5-6.4-8.9-14.5-14.9-20.7-2.4-2.4-2.3-6.3-1.5-9.7s0.8-7.9.8-11.8,1.4-8.1,5-11.4A112.8,112.8,0,0,0,257.8,411c2.7-3.4,5.2-4.3,9-1.6,1.8,1.3,4,3.5,6.7,1.1,1.4-9.6,3.1-19.1,4.3-28.7,1-7.6,1.6-7.6,9.2-6.3,3.6,0.6,6,2.7,8.8,4.5,4.5,0.3,8.7.4,11-4.7,1.2-2.6,4-3,6.7-3.1,17.2-.1,34.5-0.4,51.7-1.3,9.7-.5,19.4.7,29,1.9,7.8,1,15.4-.8,23.1-0.8,57.5,0,115,.2,172.6-0.1a38.8,38.8,0,0,0,5.3-.3c3.5-.5,5-2.5,5-6.1,1.2-99.1.2-198.3,0.5-297.4,0-4.8-.7-9.5-1-14.2s-2.4-5.9-6.3-6.3a87.4,87.4,0,0,0-10.7-.5H453c-6.4,0-11-1.6-15.9-6.6s-7.9-11.2-14.8-13.9c-3.6-1.4-3.6-11-.7-17.1"/>
        <path class="cls-4" d="M9.7,330q0-157.6-.1-315.1c0-4.1.6-5.3,5.1-5.3q96.3,0.3,192.6.1c-2.2,5.8-7.5,8.7-11.7,12.5-9.1,8.2-18.4,16.1-27.4,24.4a17.9,17.9,0,0,0-4,5.1,6.3,6.3,0,0,1-3.7,3.3c-15.8.9-31.7,0.2-47.6,0.4H76.1c-7.4,0-7.5.1-7.5,7.8q0,57.7,0,115.4c-0.1,20.5.1,41-.1,61.5-0.3,4.6-2.7,7.6-6.8,9.5-10.3,1-16.5,7.9-22.2,15.4-13.7,18.1-23.2,38.1-27.2,60.6-0.3,1.7.5,4.3-2.7,4.4"/>
        <path class="cls-4" d="M9.7,669.3V378.8c3.7-3.6,9.1-4.6,12.4-8.8l1.4-1c7.3-5.8,6.8-5.6,10.6,3a240,240,0,0,0,17,31.2c5.6,8.8,11,17.7,17.9,25.7s7,17.5,7.7,27c0.5,6.1.6,12.3-2,18.6,6.5-3.9,9.3-10.3,12.8-16s4.4-7.2,11-2.6c8.3,5.7,17.6,8,27.4,8.3,4.6,0.2,9.2-.2,14,0.4a7.1,7.1,0,0,1-3-2.2c-0.9-1.3-2-2.7-1.2-4.3s2.9-2.1,4.6-1.7c7,1.5,14.1,2.4,20.7,5.1,3.8,1.5,7.3,3.9,11.6,4.3,1,0.1,1.5,1.1,1.6,2.2-0.2-3-.4-6,2-8.4a3.2,3.2,0,0,1,1.9-.2c7.7,6.5,10.6,22.2,6,32.3-3.5,1.9-5.1-1.2-6.7-3-4-4.7-8.5-6-14.6-4.7s-12.7,4.1-19.5,4.4c-1.9-.5-4-0.4-5.8-1-5.5-1.8-9.6-.9-11.7,5.2a6.5,6.5,0,0,1-5.2,4.5c-23.6,3.5-33.4,21.1-40.1,40.8a188.2,188.2,0,0,1-19.2,40c-3,4.8-3.8,10.4-6.1,15.4Q40.7,624.4,24,654.5c-3,5.4-7.3,9.8-11.5,14.3a2.3,2.3,0,0,1-2.7.5"/>
        <path class="cls-4" d="M144.2,843.1c-43.3,0-86.7,0-130,.1-3.6,0-4.6-.7-4.6-4.5,0.2-32.3.1-64.5,0.1-96.8a3.2,3.2,0,0,1,3.3-.5c7.2,2.3,14.8,2.5,22.2,3.4a156.6,156.6,0,0,1,18.5,3.4c8.4,2.1,16.8-1.4,24.9-4,11.9-3.8,22.8-9.8,33.4-16.7,14.3-9.3,30.3-15.6,44.4-25.2,3.4-2.3,5.9-1.1,7.7,2.3a63.5,63.5,0,0,1,2.9,7.2c1.6,6.6,4.1,13,5.7,19.6s-2.5,8.9-5.3,12.7-4.9,5.7-2,9.9c1.1,1.6.4,3.9-.3,5.8-7.8,22.9-12.3,46.6-15.9,70.4-0.7,4.5-.6,9.6-4.9,12.9"/>
        <path class="cls-5" d="M9.7,730V672.8c0.8-3.5,3.7-5.6,5.9-8,9.3-10.3,15-22.7,20.9-34.9s14.9-26.6,19.7-41.1a60.6,60.6,0,0,1,8.3-17c9.5-13,12.9-28.7,19-43.2A78.3,78.3,0,0,1,94,510.9c7.8-10,18.9-13.7,31.2-14.4,5.7-.3,8.8,3.8,11.6,8.1,4.3,6.3,7.1,13.4,10.1,20.4a7,7,0,0,1,.6,5.1c-1.3,2.5-3.2,1.5-5.1,1-7.9-2-14.7.1-19.5,6.6-3.6,4.8-8.7,7.9-11.9,13.1a128.2,128.2,0,0,0-10.7,22.3c-3.6,9.8-6.5,19.9-11.7,29.1a4,4,0,0,0-.6,1.7c-0.9,13.9-9.6,24.8-14.3,37.3A21,21,0,0,1,62.3,653a23.7,23.7,0,0,0-6.4,4.2c-5.6,5.3-5.6,9.6-.1,15,1.3,1.3,2.9,2.3,1.7,4.5s-2.7,1.2-4,1.9c16.8-7.4,34.7-9.5,52.7-10.9a54.6,54.6,0,0,0,17.2-3.7c12-3.5,24.4-5.9,35.6-12,2-1.1,4.3-2,6.8-1.1s2.1,2,1.7,3.5c-3.1,9.7-8.5,17.4-17.5,23S132.1,688,124.4,695c-3.6,3.2-9.1,3.2-13.1,6.3-9.3,7.1-20.5,11.1-30,18-5.3,3.9-11.9,5.7-16.9,10.6s-11.7,5.4-18,7.1a6.1,6.1,0,0,1-4.1-.2c-4.5-2-9.3-1.7-14-1.7-6.7,0-12.8-2-18.6-5.1"/>
        <path class="cls-6" d="M61,248.9a11.5,11.5,0,0,0,6.1-7.1c1.6-1.4-.5-3.5.9-5s5.3-.4,7.3-2.7,5.5-5.8,8.8-8.2l1.4-.9c8.5-4,17.2-7,26.7-7.7,0.8-.1-0.9-0.5-0.4-1.2s2.9-1.7,4.7-1.5c6.9,0.7,13.1-2.3,19.4-4.2,13.2-4,25.8-9.7,36-19.5,5.5-2.9,6.3-2.7,8.6,2.3-2.6,7.1-5.8,13.9-11.4,17.6-1.8,1-.6,1.5-1.2,1s0.1-.2.4-0.4a9.9,9.9,0,0,1,4.9-1.9c25.4-1.6,50.2.9,73.7,11.6,1.5,0.7,2.9,1.3,3.6,2.9-0.1,3.4-3.1,3.6-5.3,4.7s-7.4.8-10.7,2.9c-1.5,5.2-4.4,5.3-9,3.3-9.8-4.3-20.1-5.8-30.7-2.9-4.3,1.2-8.7.7-13,.7-19.2-.3-38.4-0.2-57.3,3.7-5.1,1-10.6,1.7-14.1,6.4a15,15,0,0,1-.4,1.8c-1.3,4.3,1.5,3.4,3.9,3.2a77.8,77.8,0,0,1,38.3,6,43.2,43.2,0,0,1,13.6,9.4c4.3,4.4,3.5,7-2.4,8.6a18.7,18.7,0,0,0-3.4,1c-3.8,1.8-4.2,4.2-1.4,7.4s4.5,3.1,2.8,5.7-4.4.8-6.7,0.2c-13.5-3.8-27.2-7.1-40.1-13.1-2.1-1-4.3-2.2-7.2-1.1,1.1,4.4,4.5,7.3,7.4,10.3,6,6.5,10,14.3,14.3,21.8,1,1.7,2.2,3.8.4,5.5s-3.7-.1-5.4-0.9l-2.6-1.4c-4.8-2.3-6.5-1.6-8.5,3.5s-2.2,12.1-3.1,18.1a63.5,63.5,0,0,1-3.8,15.5c-0.7,1.8-1.6,4-4.1,3.6s-2.2-2.6-2.5-4.3a82.9,82.9,0,0,0-1.9-8.1c-0.3-1.1-.6-2.6-2-2.6s-1.9,1.8-2.1,3.1c-0.5,3.9,0,8-1.1,11.8-0.5,1.6-.3,4.1-2.4,4.3s-2.5-2.3-3-3.9a124,124,0,0,1-5-25c-0.7-7.9-1.9-15.7-1.4-23.7,0.1-1.7.5-4.1-1.6-4.7s-3.1,1.5-3.9,3a49.2,49.2,0,0,0-5.4,12.5c-3.7,14.1-6.5,28.2-4.2,42.9,0.3,1.9.7,4.7-1.8,4.9s-3-2.4-3-4.4c-0.1-4.9-.1-9.8.7-14.1-1.2,1.5-.2,4-0.5,6.2s-0.3,2.5-1.7,2.8-1.7-.8-2.3-1.6-1-1.7-1.5-2.5-1.6-2.5-3.2-2.3-2.3,2-2.7,3.5c-1.1,4.8-1.8,9.7-2.5,14.6a17.8,17.8,0,0,1-.8,4.1c-0.5,1.3-.8,2.9-2.4,3.1s-2.1-1.5-2.8-2.6c-5.1-7.9-4.5-16.6-3.1-25.3,0.5-2.9.7-5.9,2-8.7,0.2-.7-1.2-0.4-0.4-0.3s0.2,0.2.2,0.5c-1.6,6.7-3.1,13.5-2.6,20.5,0.3,5.1-3,8.1-6,11.1a91.5,91.5,0,0,1-8.3,7.6l0.2,0.2c-3.3.4-4.7,3.8-7.6,4.7s-3.5,2.7-5.8.9v-6c5.3-10.9,9.1-22.2,10.2-34.3a25.4,25.4,0,0,0,.1-6.5c-0.8,1.8-2.1,3-3.1,4.6s-3,6.7-7.3,2.9v-2.4c3-5.7,2.2-12.2,3.9-18.3C19.8,294,30.1,273.8,46,256.7c4-4.3,9.4-6.3,15-7.9"/>
        <path class="cls-4" d="M162.1,53.5l1.2-3.4c13.3-10.8,25.8-22.5,38.6-33.8a44,44,0,0,1,9-6.6H407.3c4.2,4.2,5.3,10,8,15a131,131,0,0,0,15.4,22.4c1.5,1.8,3.2,3.6,2.9,6.2-2.2,2.9-5.4,2.1-8.3,2.1H167.3l-2.3-.2a3.9,3.9,0,0,1-2.9-1.7"/>
        <path class="cls-7" d="M174,843.1h-4.8c-2.6-3.6-1.4-7.6-1.4-11.4a8.3,8.3,0,0,1,.7-2c2.9-6.6.9-13.5,1.4-20.2,3.3-16.2.5-33.1,6.2-49,1.8-5.1.6-10.6,0.8-15.9,0.1-3.6-.1-7.1.3-10.7a11.2,11.2,0,0,1,1.1-3.7c7.8-8.4,14.1-18.2,23.8-24.7,13-6,25.9-12.2,39.5-16.7,2-.7,2.8-2.6,4.7-3.4,5.1,0.1,10,1.4,15,2.3,4.1,4.3.9,6.5-2.4,8.7-7.1.4-12.7,5.6-19.9,5.6s-9.2,4.2-12.6,7.6-2,6.6.8,9.1,6.9,2.3,10.3.2,4-3.7,6.5-5l1.7-.6c8.3-1.8,16.7-3.5,24.5-6.9,2-.9,3.8-2,4.7-4.1,2.7-4,6.3-7.7,2.8-13.2-0.9-1.4-.2-3.5,1-5,5.1-3.1,10.9-2.6,16.6-3.2,3.2-.3,6.7.7,10.5-1.6-2.9-1.8-5.6-1.1-8.1-1.2-5.1-.2-10.3.2-15.4-0.2-1.3-.1-3-0.3-3.2-2s1.3-1.8,2.3-2.4a22.2,22.2,0,0,1,10.1-3,12.6,12.6,0,0,0,10.9-5.9c14.2-5.5,27.8-12.2,41.3-19a7.7,7.7,0,0,0,4.4-5.2c0.4-1.3,1.1-3.5,3.1-1.2,0.8,8,2.3,16,3.1,24s-2.5,11.4-8.4,15.4c-15.1,10.1-28.8,22.2-43.2,33.4-19.1,14.8-36.6,31.4-54.2,48-5.1,4.8-9,10.5-13.7,15.6s-9.5,7.4-13.9,11.6c-2.7,2.6-5.5,5-7.5,8.2l-1,1.3c-3.6,4.4-7,8.9-10.1,13.6-1.1,1.9-1.9,3.9-3.6,5.4-5.5,4.7-9.9,10.4-14.2,16.2-3.3,3.9-6,8.5-10.5,11.4"/>
        <path class="cls-4" d="M421.6,9.7c0,2.8,0,5.6,0,8.3s-1.5,9.4,5.9,8.5a1.2,1.2,0,0,1,1,.5c1.3,7,9.4,8.3,11.8,13.8,1.8,4,4,4.6,7.7,4.6H586c14.9,0,15.5.6,16.6,15.2,0.1,1.4,0,2.8,0,4.2q0,140.1,0,280.2c0,7.4-2.4,14.8-.2,22.3,1,3.4-1.6,6-5.3,6.6a36.2,36.2,0,0,1-5.3.1H425.2c-7.7,0-15.4,1-23.1,1.1-13,.1-25.9-3.3-38.9-2.1-14.8,1.4-29.6.3-44.4,1.7-1.9.2-3.9-.5-5.8-0.6s-5.6.2-5.7,4.2-2.5,5.3-5,3.6-6.3,4.1-8.2-1.1c1-3.6-2.6-3.9-4.1-5.7s-6.3-4.5-4.8-8,5.8-2.1,8.7-1.7c14.8,2,29.7.6,44.5,1,3,0.1,5.9-.2,8.9.5,13.7,1.4,27.3.3,41,.6,7.2,0.3,14.5-.4,21.7.5,2.7,1,5.5.7,8.3,0.7H577.1c8.3,0,8.3,0,8.3-8.2q0-148.2,0-296.4c0-8.7,0-8.7-8.5-8.7H443.6c-3.3,0-7.3,1.3-9.6-2.8-5.1-8.6-12.5-15.6-17-24.6-3-5.9-6.7-11.4-7.3-18.2h11.9Z"/>
        <path class="cls-8" d="M9.7,730c10.7,4.2,22.4,2.7,33.5,5.4,4.4,1.1,10.7-.4,14.3-3.1,9.5-7,20-12.3,29.7-18.8,7.4-5,15.7-8.7,23.3-13.4,4-2.5,10.5-3.4,12-5.6,3.3-4.8,8.3-5.6,12-8.9s8.5-3.5,9.5-8.7c6.5,0.8,8.9-5.7,13.8-7.9l1.6-.8c1.2-.8,6.4-15.6,6.1-17.1s1.2-1.2,2.2-1.1a19.5,19.5,0,0,1,7.4,3.4c2,1.6,4.6-3.5,6.7.2s0.8,5.1,2.4,7.3c6.1,8.5,7.8,10.2,17.5,8.4,7.4-1.3,15-1.2,22.2,1.6,1.7,0.7,3.5,1.4,5.2.9,11.9-3.2,24-1.4,36-1.8,4.7-.2,8.7-0.6,9.6-6.3,0.1-.5.9-0.7,1.5-0.7,1.8,1.6,1.4,3.9,1.8,5.9s2.5,2.7,2,4.8c-2.3,1.9-3.1,3.6.9,3.7a151.4,151.4,0,0,0,17.2-.1,12.8,12.8,0,0,1,8.1,1.5,4.5,4.5,0,0,1-4.9,2.8c-11-1-21.7,1.6-32.3,3.7s-20.2,1-30.1-.9c-8.3-1.6-16.8-3.1-24.7-1.3s-16.7,1.5-24.8,3.3c-12.7,2.8-22.9,10.8-33.8,17.1-20.6,11.8-41.6,22.9-62,34.9-6.7,3.9-14.1,6.3-21.6,8.3a42.6,42.6,0,0,1-23.2.2c-9.1-2.5-18.8-2.1-28.2-3.4-3.9-.5-7.9-1.3-11-4.1V730Z"/>
        <path class="cls-9" d="M369.2,843.1h-8.3c-1.8-3.9-4.4-5.1-8.2-2.4-2.1,1.5-4.5,1.1-6.8.1l-6-2.5c-6-2.3-10.2-.1-13.6,4.8H254.9c-0.8-1-2.5-.3-3-1.7,0-3.7,1.7-7.1,2-10.8s2.3-3.5,4.5-4.2a28.2,28.2,0,0,1,8.3-.5c23.3,1.4,46.7.9,69.8,5,2.7,0.5,5.5.9,8.2-.1,16.4-7.1,33.8-12.1,49.3-21.3,6.3-3.7,10.4-10.1,16.9-13.6,2.5-1.3.1-3-.5-4.5s-1.3-2.5-2-3.7a21.8,21.8,0,0,1-2.1-3.8,16.9,16.9,0,0,1-.6-2.9c-1-6.4,1.6-8.7,7.5-6.3a36.4,36.4,0,0,1,19.2,17.1c2.3,4.3,1.5,8.8.6,13.3a57.2,57.2,0,0,1-1.7,7.5c-0.6,2-2.5,2.1-4,2.8-14.9,6.7-29.9,13.3-45,19.7a0.8,0.8,0,0,0-.5,1,3.4,3.4,0,0,1-.3,2.2,3.5,3.5,0,0,1-1.3.9,77.9,77.9,0,0,0-10.7,2l-0.4-.2c-0.3.4-.1,0.7,0.4,0.9a1,1,0,0,1-.4,1.2"/>
        <path class="cls-10" d="M178.8,733c-0.1,7.9.2,15.8-.3,23.7a52.9,52.9,0,0,1-3.6,15.6c-1.3,3.4-1.1,7.1-.8,10.5,0.6,9.1-1.8,17.9-2.4,26.8-2.1,3-.8,6.4-1.2,9.6s1,7.4-1.1,10.8a8,8,0,0,0-.1,1.1c-2.7,3.6.4,8.3-2.4,11.9H146.6c0-8.1,2.8-15.8,3.8-23.8a317.9,317.9,0,0,1,14.4-60.5,9.8,9.8,0,0,0,.6-4.7c-0.9-6.4,6.2-19,12.3-21.9,0.7-.4.9,0.3,1.1,0.8"/>
        <path class="cls-11" d="M9.7,739.5c11.7,5,24.6,3.1,36.6,6.1,24.1,6,43.2-5.3,62.4-16.6s42-22.8,61.9-35.9a56.5,56.5,0,0,1,21.1-8.9,22.7,22.7,0,0,1,2.3-.6c17.9-1.2,35.8-4.7,53.7.9,8.4,2.6,17.2.1,25.7-1.2s17.2-2.8,25.9-2.4a9.4,9.4,0,0,0,6.9-2.1c-7.3-1.5-14,.1-20.6-0.1h-4.2c-2.2-.1-5.3.9-6-2.2s3.5-1.7,4.4-3.6c2.8-2.7,6.5-3.3,10.2-4.2s7.5-1.3,9.4-5.5c-4.8,4.1-10.8,5.4-16.6,7.2-2.2.7-4.5,1.8-6.4-.6a11.7,11.7,0,0,1-.1-6.4c3.2-3.7,7.7-3.5,12-4,7.7-.9,15.3-2.2,21.3-7.7,1.6-.7,3.6-2,4.7.1s-0.7,3.1-1.9,3.9c-3.5,2.4-5.8,5.9-8.8,8.7-2.3,4.7-5.7,7.3-11.4,7.4s-8.6,1.6-13.4,4.4H304c1.7,0,3.8-.5,4.3,2s-1.9,3.2-3.6,3.6c-7,1.6-14.2,0-21.2,1.7-1.5.4-3.2,0.1-4.4,1.3-3.3,2.6-7.3,2.5-11.2,2.6a60.5,60.5,0,0,1-7.4.5c-5.1.7-9.9-1.3-14.9-1.9-1.6,1.3-3.4.8-5.1,0.6-12-1.9-23.9-2.6-35.9.5-5.8,1.5-12.2-.1-18.2,2-2.8,1-5.7,1.7-8.2,3.4l-3,1.8c-2.9,2-6.6,2.7-8.7,5.7s1,6.2,1.3,9.4a3.6,3.6,0,0,1-.8,2.7,1,1,0,0,1-1.4-.4c-4.5-10.6-4.5-10.4-14.5-4.7-19.7,11.2-39.3,22.5-59.2,33.3-11.9,6.5-25,10.4-38.6,9.3-4.8-.4-9.9-2.6-15.1-3.2-9.6-1.1-19.3-1.2-28.5-4.6v-2.4Z"/>
        <path class="cls-12" d="M419.2,843.1H381.1c-1.2-3.3,1.5-3.2,3.3-3.9,7.4-2.9,15.4-4.2,22.3-8.4A281.7,281.7,0,0,0,438.3,814c1.9-.4,4-0.9,5.3,1.1s0.5,3.8-.8,5.4a27.1,27.1,0,0,0-1.9,3.6h0c-6.1,7.5-14,13-21.5,19"/>
        <path class="cls-13" d="M198.3,814.4c1.6-1.1,1.4-3.2,2.4-4.6,4.8-4,7.7-9.5,11.4-14.4H212a3.8,3.8,0,0,1,1.5-.9,4.1,4.1,0,0,1,3.9,1.9,5.1,5.1,0,0,1,.6,1.7c0.3,3.1-1.5,5.6-2.3,8.4a7.4,7.4,0,0,1-3.9,4.5,17.5,17.5,0,0,0-7.5,5.6c-3.8,4.4-3.8,6.4.4,10.3,2.5,2.3,2.2,4.2.3,6.6-3.2,4.2-8,6.4-12,9.5H174c2.5-4.3,5.3-8.4,9.4-11.4,4.8-5.9,9.7-11.7,15-17.3"/>
        <path class="cls-14" d="M135.7,505.3c-6.1-8.6-10.4-8.9-21.6-5.9s-20.3,10.8-25.7,21.8-10.4,19.2-11,30.4a3.6,3.6,0,0,1-.9,1.5c-12.4,17.5-19.4,37.7-28.7,56.8-5.8,11.9-12.1,23.5-17.9,35.3S17.4,664.3,9.7,672.8v-3.6a63.1,63.1,0,0,0,12.8-15.3A502.8,502.8,0,0,0,53,593.8a270.9,270.9,0,0,1,17.3-34.2c4-6.7,5.5-14.3,8.3-21.5A140.9,140.9,0,0,1,88,517.8c6.7-11.5,15.7-19.6,29.3-21.5,4-.5,6.9-2.2,8.1-6.5s5.3-6.7,10-4.6c2.6,1.1,5.7-.8,7.7,1.8a3.3,3.3,0,0,1,.7,2.4,3,3,0,0,1-.9,1.5c-3.4.1-5.9-2.7-9.3-3s-4.4.9-5.4,3.4,0.7,3.4,2.4,4.5,6.1,3.8,5.9,8.1a2.5,2.5,0,0,1-1,1.3"/>
        <path class="cls-15" d="M178.8,733c-6.3,6.5-13.1,12-12.7,23.1,0.3,7.3-3.9,14.7-6.2,22.1-5.5,17.6-7.2,36-10.8,54-0.7,3.7-1.7,7.3-2.6,10.9h-2.4c4.2-12.6,5.2-25.9,7.5-38.9,2.8-15.4,7.2-30.3,11.7-45.2,1.1-3.5,1-3.5-2-6.6-1.3-1.4-.2-2.6.5-3.6,2.3-3.2,4.7-6.4,7-9.6s2.9-4.7,2.5-7.7a1.2,1.2,0,0,1,.8-1.8c2.3,1.5,3.8-.9,5.7-1.3a1.9,1.9,0,0,1,1.9,1.3l-1,3.3"/>
        <path class="cls-16" d="M219.2,843.1H208.5c-2.2-3.1-.1-5.6,1-8.3s0.4-4.3,1.2-6.4c2.8-2.9,1.6-7,3.4-10.2,1.5-1,2.8-.3,4.2.2s5.7,1.4,8.2,3.1c0.2,5-2.7,8.9-4.4,13.3-0.5,1-4,.4-1.7,3a5.8,5.8,0,0,1-1.2,5.3"/>
        <path class="cls-17" d="M61,248.9c-0.4.8,1,2.4-.5,2.4-10.9-.3-16.1,8.1-21.4,15-13.2,17.5-22.8,36.9-26.3,58.8a61,61,0,0,0-.6,8.2c0,2.2-.9,2.4-2.5,1.3V330c2.2-8.5,3.4-17.2,6.4-25.5A154.9,154.9,0,0,1,45,255.9c3.7-4.2,9.1-8.3,16-7"/>
        <path class="cls-18" d="M9.7,366.9V343.1c2.5-3.5,5.3-6.7,7.6-10.4,2.4-1.1,3,.6,2.9,2.2-0.7,11.2-2.8,21.9-9,31.6a1.4,1.4,0,0,1-1.6.4"/>
        <path class="cls-19" d="M210.9,9.7L167.4,48.3c-1.1,1-2.2,2.5-4.1,1.8,10.6-11.8,23.2-21.4,34.8-32l9.2-8.3h3.6Z"/>
        <path class="cls-20" d="M427.6,843.1h-6c-0.5-2.6,1.8-3.2,3.2-4.3a90.4,90.4,0,0,0,8.2-6.7c4.1-4,4.8-4,7.6,1.2,1.7,3.2,5.2,5.6,4.8,9.8h-8.3c-3.2-2.2-6.3-1.3-9.5,0"/>
        <path class="cls-21" d="M211,829c1.9,2.2,2.1,4.2-.6,5.9a60.7,60.7,0,0,0-11.4,8.2h-6c-1.1-2.7,1.5-2.7,2.7-3.5s4.7-2.7,6.6-4.8,4.1-5.5-.5-8.3-1.9-6.4-.1-9.1,5-6.1,8.9-7.4c1.9,1.7.1,2.7-.9,3.7s-3.2,3-4.6,4.7-2.2,5.7,1.4,7.7c1.5,0.9,3.4,1.2,4.4,2.9"/>
        <path class="cls-22" d="M409.7,9.7c5.7,14.8,14.5,27.7,23.9,40.4,0.7,1.2,0,1.3-1,1.2A118.3,118.3,0,0,1,407.3,9.7h2.4Z"/>
        <path class="cls-23" d="M407.6,831.3c-4.1,4.6-10.3,4.4-15.3,6.9s-8.3,1.2-11.1,4.8H369.2a1.8,1.8,0,0,1,.3-1.1c3.5-2.7,7.7-2.9,11.8-3.5h0.1a73.9,73.9,0,0,1,23.7-8.7,3.5,3.5,0,0,1,2.5,1.4"/>
        <path class="cls-24" d="M445.4,843.1c-2.6-4.1-4.3-10.3-7.9-11.8s-6.4,5.4-10.3,7.6a50,50,0,0,0-5.6,4.2h-2.4c-0.3-1.8,1.2-2.3,2.2-3.2,5.2-4.9,11.6-8.5,15.9-14.4,0.8-1.1,1.8-2.1,3.5-1.4-1.9,2.9-2.1,5.4.5,8.4s4.4,7,6.5,10.5h-2.4Z"/>
        <path class="cls-25" d="M9.7,366.9c7.3-9.9,9-21.4,9.8-33.2,0.2-2.4-1.4-.4-2.1,0a1,1,0,0,1-1.7-.2l5.2-7.6c0.1,15.9-1,31.4-11.3,44.5v-3.6Z"/>
        <path class="cls-26" d="M326.4,843.1c2.2-7,4-8.2,11.1-6.9a22.3,22.3,0,0,1,7.8,2.6c3.1,2,5.5,1.6,8.5-.2,5.5-3.2,6.9-2.2,7.1,4.5h-2.4c-1.6-2.9-3.2-2.2-4.8,0h-9.5c-6-4.5-9.9-4.5-15.5,0h-2.4Z"/>
        <path class="cls-27" d="M328.8,843.1c0.2-3.5,1.8-5.8,5.5-4.9s9.2-1.7,10,4.9H328.8Z"/>
        <path class="cls-28" d="M199,843.1c2.1-5.1,6-7.6,11.4-8.2l-1.8,8.2H199Z"/>
        <path class="cls-29" d="M219.2,843.1l0.4-6.3c4.5-1.6,8.4-.1,11.9,2.6a3.2,3.2,0,0,1-.4,3.7H219.2Z"/>
        <path class="cls-30" d="M252.7,841.5l2.3,1.6H243c-3.4-2-8,.5-11.1-3a2.8,2.8,0,0,1,.7-1.7,3.8,3.8,0,0,1,1.7-1c6.2,0.8,12.6.9,18.4,4.1"/>
        <path class="cls-31" d="M9.7,376.4c4.3,0.1,7.1-2.8,10.1-5.1,1.3-.9,2-1.7,3.3-0.5-3.8,3.7-7.8,7.1-13.4,8v-2.4Z"/>
        <path class="cls-17" d="M15.7,333.5l1.7,0.2c-2.1,3.5-4.1,7.1-7.7,9.3v-6c3.7,1.7,4.4-1.8,6.1-3.6"/>
        <path class="cls-32" d="M166.8,843.1c0.8-4-1.9-8.6,2.4-11.9v11.9h-2.4Z"/>
        <path class="cls-33" d="M232.4,839.7c3.4,1.8,7.5,1,10.7,3.4H231.1v-3.4a0.7,0.7,0,0,1,1.2,0"/>
        <path class="cls-34" d="M353.8,843.1c-1.8-4,2.4-3.6,3.5-3.7,2.9-.2,1.1,2.3,1.2,3.7h-4.8Z"/>
        <path class="cls-35" d="M427.6,843.1c3.2-2.2,6.3-5.1,9.5,0h-9.5Z"/>
        <path class="cls-36" d="M346.5,368.2c-20.3.2-40.5,0.3-61.6-1.6,3.6,6.1,8.6,9.4,13.4,12.8-1.2,1.4-3.3-.5-4.2,1.4-3.8-3.7-9-3.6-13.8-4.8L275,413.3c-2-.3-3.7-1.3-5.4-2.1-4.3-1.7-6.5-5.1-6.1-9.8,0.7-7.9,1.9-15.7,1.5-23.6a26.1,26.1,0,0,1,1.8-9.9c1.8-5.1,3.5-9.5.5-15.5s-1.3-11.6-2.5-17.4a92.2,92.2,0,0,0-15.4-34.3c-5.9-8.4-12.8-16.2-18.8-21.3,13.7,12.8,26.4,29.1,32.7,49.6,1.6,5.1,2.6,10.1,2,15.7-0.9,8.3-.3,16.6-0.3,25a19,19,0,0,1-3.4,11.2c-2.2,3.2-4.5,2.8-6.1-.7-4.9-10.5-7.2-22.1-13-32.3-2.1-3.7-.6-5.1,4.8-5.6-4.7-3.9-9.5-7.6-15.2-10.1s-7.8-8.8-11.5-13.3c-8.1-9.7-10.5-10.3-21.3-3.7a47.7,47.7,0,0,0-6.6,5c-2.8,2.5-4,5.2-2.7,8.9s1.1,7.4,1.5,11.3c2-2.3,2.8-5.8,6.6-5.8a2.6,2.6,0,0,1,1.5,2.1c-6.2,7.3-7.8,16.1-8.5,25.3-0.2,2.9-2.2,5-3.6,7.4-2,4-4.7,7.8-6.2,12.1-0.5,1.3-1.5,2.7-3,2.3s-1.5-2.2-1.3-3.5c0.9-6.2.1-12.5,0.4-19.7,0,0.2-1.3,1.4-.6,1s0.3,0.1.3,0.4c-0.3,14.3-3.6,27.7-11.5,39.7-1.3,2-2.7,5.3-5.5,4.2s-1.5-4.2-1.2-6.5a5.9,5.9,0,0,0-.1-2.9,8,8,0,0,1-.6-2.7c1.6-4.2,1.1-8.7,1.8-13,2.8-6.7,2.8-6.7-3.2-9.8-2-1-2.1-2.6-1.8-4.4-0.9-7.2-5.3-12.6-9-18.5-1.6-2.5-4.3-2.1-7-1.8-5.1.7-9.6,3.8-14.8,4.1a4.2,4.2,0,0,1-2.3-.9c-0.7-3,2-2.9,3.5-3.7,3.9-2,8.1-2.9,12.4-3.9,1.7-.4,3.4-1.2,2-3.1-5.3-7.2-10.1-14.8-16.9-21.6-1.6,3-.2,5.8-1.6,8s-1,5.7-.6,8.6c1.6,11.7-5.1,23.7-15.7,28.1-5.6,2.3-4.4-3.3-5.7-5,1.7,9.3,7,18,10.5,27.3,0.9,2.5,1.7,4.9,1.1,7.5A5.4,5.4,0,0,0,112,397c3.2,2.9,2.8,6.3,1.8,10.2,2-4.6,4.9-4.7,8.3-1.9,2.1,1.2,4.7,1.6,6,4,0.2,0.8.1,1.7,0.4,2.5,5.5,9.1,13.4,15.5,23,19.8,1.5,0.7,4,.7,3.4,3.2s-2.5,2.4-4.3,2.5c-11.2.1-21.9-2.1-30.2-6.5,17.3,9.9,37.2,18.2,59,21.7,5.3,0.8,10.6,1.6,15.8,2.7s10.8,1.9,16.1-.2a4.1,4.1,0,0,1,.8,2.7c-0.7,4.2-3.6,4.7-7,4.3-7.1-.7-14.1-1.7-21.1-2.8-2.4-.4-5-1.7-7.3.4s-0.6,7.2-1.1,9.9c-12.5-6.4-25.4-10.9-39.5-12.1,0.9,4.3,3.7,6.3,7.4,7.7-18.3,1-36.4,2-51-12.3-5.4,9.4-9.6,19.6-20.5,25.8a55.8,55.8,0,0,0,3.3-17.3,77.3,77.3,0,0,0-6-29.9c-1.9-4.7-6.8-6.8-9.6-11.1-9.1-13.8-16.5-28.6-25.1-42.7a24.6,24.6,0,0,1-3.7-12.4c-3.6.5-4.4,5.1-8,5.4a5.5,5.5,0,0,1,1-2c9.5-7,12.8-16.7,13.2-28.1,0.2-4.6,1.1-9.4,4.5-13.4-3.5,13.5-6.8,26.9,2.1,39.6,2.5-2.6,1.3-6.2,1.9-9.4s1.4-6.5,2-9.8,0.3-7.2,4.1-7.6,5,3.7,6.3,6.8a15.8,15.8,0,0,0,1.3,2c0.9-4.2-.7-8.4,3.3-12.3v22.8c3-4.1.9-6.6,0.7-9.1-0.8-17.9,1.9-35.1,9.6-51.4a12.6,12.6,0,0,1,1.8-3.1c1.4-1.6,2.4-4.1,5.1-3.4s2.6,3.6,2.5,5.9a189.8,189.8,0,0,0,4.9,45.2c0.6,2.8,1.7,5.6,2.8,9.2,1.9-6.2,1.6-11.6,2.1-16.9,0.2-2.1,0-5.2,3.3-5.5s3.4,2.5,3.9,4.8c0.9,4.1,1.9,8.2,3.1,13.2,4.3-6.1,5.2-12.5,6.1-18.8s1.1-13.3,3.4-19.7,4.2-7.4,10.4-3.8a36.5,36.5,0,0,0,7.1,3.4,86.2,86.2,0,0,0-13.5-23.5c-2.7-3.4-5.7-6.6-8.7-9.8-1.5-1.7-3.3-3.5-1.8-5.7s3.6-1,5.4-.3c8.7,3.2,17.1,7.2,26.1,9.6,7.3,1.9,14.4,4.2,21.6,6.3a10.9,10.9,0,0,0,2.8,0c-0.3-2.2-1.9-2.8-3.1-3.8s-4.5-1.8-3.6-5.2,3-5,6-6a18.5,18.5,0,0,1,3.5-.4c3.9-.4,4.4-2.1,1.8-4.9-8.5-9.1-19.4-13.4-31.4-15.1-7.8-1.1-15.6-2.5-23.5-.1-1.5.4-3.2,0.3-4-1.6s2.1-3.4,2.8-5.3a70.8,70.8,0,0,1,23.4-5.5c16.2-.9,31.9,2.4,47.8,4.3a24.2,24.2,0,0,1,12,4.9,36,36,0,0,0,15.1,6.6c10.3,2.1,18.4,8.9,26.2,12.9-4.9-3.6-10.2-9-15.5-14.1-17.2-16.4-37.8-20.7-60.4-18-7.9.9-15.8,0.8-23.7,2a114.3,114.3,0,0,0-25.1,6.7c-1.4-1.7-1.4-2.1.8-3.3,6.7-3.6,14-5.1,21.4-6.2,18.5-2.7,37-2.6,55.6-2.2a19.3,19.3,0,0,0,5.9-.5c13.5-4.1,26-1.1,38.3,5,0.7-2.1-.5-4.6,1.7-6a10.9,10.9,0,0,1,4.3.1c8.2,4.4,12.9,12.7,19.8,18.5a7.1,7.1,0,0,1,1.2,1.3A65.5,65.5,0,0,0,279.2,274c5.4,3.9,10.9,6.1,17.7,5.7a45.8,45.8,0,0,1,11.9.3c1.2,0.2,2.4.7,2.5,2.1s-0.9,2.2-2.1,2.5c-9.9,2.6-17.5,10.2-27.7,12.1-2.6.5-2.5,1.9-1.3,3.9,5.8,10.1,9,21.1,11.3,32.4,1.1,5.7,2.4,11.3,7.5,15.1,1.2,0.9,2.6,2.5,1.4,4s-3,.5-4.4-0.1c-4.7-1.9-8.7-5.3-13.5-7.4-1.4,8.1-.1,10,7.1,10s17,0.5,25.5-.9c2.8-.5,6-1,8.3,1.7a2.3,2.3,0,0,1-.9,2.7c-9.5,2-19.3,1.1-28.9,1.9-3.5.3-6.9,0.1-10.3,1.7,4.8,1.8,9.8,2.1,14.8,2.4,26.9,1.7,53.8,1.1,80.7,1.2,4.6,0,4.6.1,7.9,3-13.4.3-26.8,1-40.3,0.1"/>
        <path class="cls-37" d="M232.2,331.3c3.6-1,5.5,2.4,8.2,3.5s6.2,4.6,9.2,7c0.8,0.7,2.1,1.6,1,2.9s-1.9.5-2.7-.1-3-2.6-4.7-.8,0.4,3.1,1.1,4.6c2.9,6.1,6.6,11.9,7.2,18.9,0.4,5,6.1,7.9,5.5,13.5-0.1,1.3,2.2,1.1,3-.5s3.2-5.8,3.4-9.4c0.3-10.5.1-20.9,0.6-31.4s-3.6-18.2-8.4-26.1c-8.5-14-17.8-27.4-31-37.6-0.2-.1,0-0.7.1-1.9,8.2,4.2,13.5,11,19.2,17.3a97,97,0,0,1,20.9,38.2,105.6,105.6,0,0,1,3.4,17.3c0.3,2.3-2.3,5.7,2.9,7.2,2.2,0.6.2,6.8-1.1,9.3-5.1,9.5-2.2,19.8-4.2,29.5-0.5,2.5,0,5.1-.7,7.6-1.3,5,1.7,9.7,6.9,10.1,2.6,0.2,1.7,2.4,3.1,2.8-3.7,1.4-7.1-.6-9.2-2.6s-3.7-2.7-6.1.3a86.8,86.8,0,0,1-15.3,15.4c-3,2.3-1.9,5.5-2.8,8.3a2.1,2.1,0,0,1-1.9-.6c-1.4-.9-2.8.3-4.2,0a1.7,1.7,0,0,1-1.1-1.1c0.8-3.7,3.6-6.1,5.9-8.7,7.9-8.6,11.2-19.3,14.8-30a1.7,1.7,0,0,0-.7-1.9c-3.8,3-8.1,5-13.3,4.6-1.4-.1-2.8.2-3.8-1.2s0.4-2.9,1.2-4.1a70.6,70.6,0,0,1,6.9-8.8c4.5-5.1,3.9-10.7,1.9-16.6-0.5-1.5-1.3-.9-2.2-0.4-4.7-1.3-1.6-4.4-1.6-6.8-1-10.4-6.1-17.2-15.1-19a58.9,58.9,0,0,1,7.4,11.2c1.4,2.6,3,5.2,1.5,8.3-3.8,1.7-3.6-1.3-3.8-3.3-8.7,4.1-17.5,7.6-26.8,9.6-1.6-.3-2.2-1.5-2.9-2.8-2.4-4.6-1.2-7,4-7.5,2.5-.2,5.1-0.4,4.9-3.7s-2.5-3.4-5.2-3.5c-4.5-.2-7.8,1.1-8.9,5.9a8,8,0,0,1-2.1,4.2c-3.9-2.8-4.7-6.3-2.2-10.8s6.4-8.7,10.3-12.6c-1.9.3-3.8,1.8-5.9,0.7l-1.2-.9c0.8-3.4,3.7-4.2,6.4-4,9.4,0.7,18.7-.6,28,0.3"/>
        <path class="cls-38" d="M240.5,433.4l1.1,1.3c-3.4,13.9,3,24.5,10.7,35.3a33.2,33.2,0,0,0,17.4,13c3.2,1.1,5.3.7,7.3-2.6,20.6-33.1,50.3-50.3,89.4-49.1,26.8,0.8,49.5,12.3,67.9,32,1.9,2,2.9,4.8,7.3,2.5s7.6,2,10.6,4.8a81.7,81.7,0,0,0,21.4,14.8c-3-6.7-11.4-7.8-15.1-13.8-0.3-1.2.4-1.6,1.4-1.8A206.2,206.2,0,0,1,478.3,484c7.2,6.4,11.8,14.1,17.1,21.6l1,1.5c1,1.6,2,3.6.3,4.8s-3.1-.9-4.2-2.2a58.8,58.8,0,0,1-4.8-7.4c-3.4-6.2-7.4-11.8-15.1-12.9-10.6-5-18.8-13.5-27.9-19.9-1.2.4-1.6,0.8-1.5,1.1,5,9.9,10.2,19.8,20.3,25.5s14.2,12.9,11.2,24.1c-0.4,1.5-.1,3.2-0.6,4.7-2.7,8.3-1.6,15.9,3.9,22.8a21,21,0,0,1,1,10.9c-0.3,1.3-.7,2.8-2.5,2.8s-2.2-1.4-2.5-2.7,0-5.1-.9-7.5-0.3-2.1-.9-2.8c-6.7-9-4-18.9-2.7-28.6,1.7-11.8.8-14.1-9.5-20.1l-3.5-2.3c4.2,10.5,5.8,20.6,6.8,30.9s-0.9,21.7-3.2,32.3a6.9,6.9,0,0,1-2.7,4.5c-1.5.4-2.6-.1-2.9-1.7,1.2-8.7,3.7-17.3,3.7-26.2a103.5,103.5,0,0,0-1.8-20.5c-0.8-7.4-3.3-14.3-5.7-21.3-1.8-5.1-4.8-9.6-7.5-14.2-6-7.1-9.9-15.8-17.6-21.5-2.6-3.1-5.9-5.1-9.2-7.3-20.6-14-43.2-19.4-67.9-16.1a61,61,0,0,0-7.1,1.1c-24.3,5.7-43.3,19.2-57.6,39.5-1.8,2.6-3.4,5.3-5.3,7.9a6.8,6.8,0,0,1-4.6,2.9c-5.2,1-9.9-.9-14.6-2.8a3.6,3.6,0,0,1-2.1-2.8c-5.5-6-8.6-13.9-15-19.3-2-1.7-2.9-4.3-3.4-6.8-1.2-6.4-.7-12.9-0.4-19.4,0.1-1.3.5-2.8,2.3-2.9"/>
        <path class="cls-39" d="M459.7,470.5l-1.2,1.2c-7.9-5-14.5-10.6-13.5-21.5,0.4-4.8,4.4-7.1,6.6-10.5s5.5,0.8,7.9,2.3c4.7,2.8,10,3.7,15.1,4.8a106.6,106.6,0,0,1,20.7,6.8c4.4,1.9,9.1,2.8,9.6,8.8a2.2,2.2,0,0,0,.9,1.5c13.4,7.6,12.8,21.7,14.2,33.9,2.3,19.6,2.5,39.4,3.6,59.1a22.9,22.9,0,0,1-2.1,10.9c-6.3,14.2-13.7,27.8-21,41.5-1.6,3.1-2.5,6.6-3.8,9.9s-0.9,1.8-1.8.7-0.7-3.6-.2-5.4c2.1-8,6.8-14.7,10.7-21.9s7.3-15,11-22.4,4-14.3,3.1-22a196.4,196.4,0,0,1-1.8-26.1c0.1-9-1.1-17.8-1.4-26.7-0.1-3.2-1.5-6.1-3-8.9-4.4-8-8.7-16.1-12.4-24.4-1.2-2.6-3.1-3.8-5.6-4.9a126.9,126.9,0,0,0-27.8-8.5c-4.7-.9-8.7-3.7-13.9-4.9,0.4,4,2.8,6.1,5.6,7.4,6.5,3.1,12.3,7.2,18.1,11.4,1.8,1.3,3.7,2.5,5.9,2.6,4.9,0.2,7.5,2.9,9,7.2s4.2,8.5,6.4,12.7c0.7,1.4,1.6,3.2-.3,4.2s-2.5-.6-3.5-1.6a7.4,7.4,0,0,1-1.8-2.4c-6-15.4-21.5-19.5-33.2-28.1-3.2-2.4-7.2-4-10.5-6.7-1.7,6,0,9.9,5.2,14.1,2,1.6,5.3,2.3,5,5.9"/>
        <path class="cls-40" d="M440.8,824.1a3.9,3.9,0,0,1,.8-4.4c4.1-5,.4-4.9-3.1-5a2,2,0,0,1-.7-1.6,3.7,3.7,0,0,1,2.1-2.7c10.2-5.4,14.6-15.1,18.8-25,3.3-7.8,5.2-16.2,9.5-23.5,1.5,0,2,1.1,2.3,2.3-0.5,10.7-4.9,20-9.7,29.7A3.5,3.5,0,0,1,462,792c11.8-9.9,20.4-22.4,27.8-35.7,3.3-5.9,4-13.1,6.4-19.6,0.7-1.9.9-4.6,4.2-3.2a2.7,2.7,0,0,1-.2,2.6c-3.2,21.5-14.3,38.6-29.7,53.3-5.3,5-10.1,10.5-16.2,14.7-1.6,1.1-2.2,3.1-3.1,4.9-2.9,5.5-5.2,11.4-10.5,15.2"/>
        <path class="cls-41" d="M500.3,736.1l-0.2-2.8c-1.9-2.2-1.9-4.9-1.1-7.3s1.7-7.3,2.8-10.9a2.2,2.2,0,0,1,2.3-1.1c3.3,4.5,3.3,4.6,9,1.5a37.4,37.4,0,0,1,4.3-2,17.6,17.6,0,0,0,4.3-2c-2.4-2.4-5.2-3.6-7.9-5s-6.3-2.7-7.6-6.2-0.3-5.3-.6-7.9c0-7.7-.1-15.4,0-23.1,0.5-2.9-.7-6.2,2-8.6,2.3,11.4,1.4,22.8.8,34.2-0.2,3.6.7,5.4,3.7,6.9,5.5,2.6,10.3,6.6,16.3,8.2a2,2,0,0,1,1.5,2.2c-8.5,2.8-16.4,6.9-24.1,11.4-4.8,2.8-2.6,8.8-5.5,12.5"/>
        <path class="cls-42" d="M496.4,614.7c-0.4,1.5-2.2,3.1.4,4.4s1.1,2,1.1,3.2a9.3,9.3,0,0,1,.5,3.6c-2.3,2.6-3.3.4-4.4-1.2s-2.4-6.6-3.9-9.9a127.5,127.5,0,0,0-12.4-21.5c-1.5-2.1-3-4.2-2.9-7a2,2,0,0,1,1.4-1c2.8,0.1,4,2.2,5.4,4.1,6.1,7.8,10.6,16.4,14.8,25.3"/>
        <path class="cls-43" d="M497.8,626.5l0.2-4.3a103.2,103.2,0,0,1,9.6,38.4l-0.3,8.9c-3.8-1-3.8-4.2-3.8-7.1-0.2-10.3-2.7-20.1-5.7-29.8-0.6-2.1-1.6-4.1.1-6.1"/>
        <path class="cls-44" d="M162.1,53.5l2.4,0.5c0.9,3.7-2.2,3-4,3.3s-5.9-.4-8.9-0.4q-36.5-.1-73.1,0c-7.5,0-8.6,1.3-8.6,9.4-0.1,34.1,0,68.1,0,102.2,0,3.1.4,6.4-1,9.4a1.6,1.6,0,0,1-1.9.9C67,138.3,67,97.9,66.8,57.4c0-4.2,2.3-3.7,4.9-3.7h83.9l6.5-.3"/>
        <path class="cls-45" d="M67.1,178.8H68c2.3,1.1,2,3.2,2,5.2-0.2,15.5,0,30.9-.1,46.4,0,2.4-.1,4.8-1.8,6.8s2.6,3.8-1,4.6q0-31.5-.1-62.9"/>
        <path class="cls-46" d="M240.5,433.4c-1.4,9.1-4.3,19.6,1.9,26.7s9,14.5,15.7,19.9c1.9,1.5-.6.8-0.8,1.3-3.5,1.6-6.8-1-10.5-.3,0.4,4.9,6.1,8.1,4.4,13.6-4.4,2.4-8.6,2.4-13.5.6-16.5-6.3-33.7-10.4-49.6-18.2-2.5-1.4-2.5-4.2-3.5-6.5-1.6-4.1-2.3-9-7.3-11h-0.7c0-2.6,1-3.2,3.7-2.7,8.6,1.5,17.4,2.5,26.1,3.8,2.5,0.4,4.2-.1,4.8-2.8s2.9-5.1,5-7.1c6.3-6.1,12.5-12.5,20-17.2,1.5,0.8,2.6-5.4,4.4-.3"/>
        <path class="cls-47" d="M143.3,489.8v-2.7l19.9-4.9c6.6-1.7,11.9-.3,16,5.5,1.1,1.5,2.9,2.6,4.4,3.8a4.3,4.3,0,0,1,2.3,1.1c4.7,4.7,9.6,9.3,13.7,14.6s9.4,10.5,16.2,13.4c1.6,0.7,3.2,1.5,4,3.3-3.9,4.1-.4,7,2.1,9.3a10.3,10.3,0,0,1,3.7,6.9c0.2,1.9-.5,3-2.5,3s-4.3-4.1-5.4-6.7c-4.1-9.8-13-15.7-19.3-23.7A137.1,137.1,0,0,0,182.5,496c-9.1-14.3-21.4-11.3-34-6.3-1.7.6-3.4,1.4-5.2,0.2"/>
        <path class="cls-48" d="M185.2,493.2l-1.8-1.7c3.2-11.6,2.1-22.4-6.1-31.9,2.4-2.6,2.9.5,3.6,1.4,3.6,4.6,4.9,10.3,7.1,15.6s2.1,13-2.8,16.6"/>
        <path class="cls-49" d="M172.6,730.1l-1.2,1.5a121.7,121.7,0,0,1-5.8-19.6H167c4.9,5.1,6.3,11.3,5.6,18.1"/>
        <path class="cls-50" d="M57.3,676.1a6,6,0,0,0-1.2-2c-8.8-6.3-8.6-13.2.5-19.4,5.1-3.5,11.6-5.5,14.4-11.8s6.8-14.9,10.1-22.4c5.7-13.1,9.8-26.9,14.9-40.2,3-7.9,6.4-15.8,9.5-23.6,2-5,5-11,10.7-14a9.7,9.7,0,0,0,2.9-2.9c8.2-10.8,13.3-12.6,26.2-8.9,0.3,0.1.9-.6,1.4-0.9,5.4,3.6,5.9,9.4,6.2,15,0.6,8.9.2,17.7,0.9,26.6,1.2,15.1,2.7,30.3,2.9,45.5,0,3.5-.7,6.2-3.6,8.2a5.2,5.2,0,0,1-1.9.7,4.2,4.2,0,0,1-3.9-2.3c-4.5-9.7-16.8-11.1-22.9-2.2-4.4,6.3-9.3,12.3-13.1,19.1-5.9,7.7-10.6,16.2-16.2,24.1a12.2,12.2,0,0,1-9.2,5.6c-7.5.8-14.6,3.5-21.9,5.1-2.2.5-4.4,1.9-6.8,0.9"/>
        <path class="cls-51" d="M110.7,639.2c3.1-7.3,8.8-12.8,12.8-19.6s21.3-6.3,25.5,1.9c0.5,1-.4,1.3-1.2,1.4-4.6-.8-7.3-5.5-12.9-5.7,1.1,2.5,3,4.2,3.8,6.4,2.1,4.6,5.9,8.8,4.6,14.5-3.5,1.1-3.6-2-4.7-3.8-2.6-4.5-3.7-10-8.5-13.2,2.8,6,4.7,12.3,7,18.4s2.3,12.6,9,15.6a25.5,25.5,0,0,0-2.8-9.5c-1.1-2.3-2.5-4.6-.5-7.1,3.4-.2,3.3,2.5,3.8,4.5,2-5.7,1.5-12.2,4.5-17.8,3.4-2.3,4.3-5.3,4.1-9.6-1-23.6-4.8-47.1-3.9-70.8,0.2-5.3-2.1-10.3-4.7-14.9-2.3-8.8-7.2-16.5-11-24.6l0.3-1.6c3.5,0.1,4,3.3,5.2,5.5s2.6,5.2,4,7.7a100.9,100.9,0,0,1,7,17.1c2.1,5,3.1,10,2.1,15.6s0.8,13.8,1.2,20.7c0.8,16.3,3.1,32.6,3.5,49a6.6,6.6,0,0,0,1,3.4c0.6,1,1.2,2.2,1.7,3.3,2.4,5,5,9.9,5.7,15.5,0.5,4,2.6,3.8,5.3,1.9s5.9-5.2,8-8.5,6.3-7.3,11.3-7.6c8.9-.6,15.9-4.9,22.7-10.1,2.9-2,5.7-4.2,8.6-6.3,8.8-8,19-8.6,29.9-6,2.7,0.7,5.4,1.1,8.1,1.5,5.7,1.1,11.5.4,17.2,0.6,2.4,0.1,4.8-.1,7,1,3.3,3.7,8,6.3,9.4,11.5a1.6,1.6,0,0,1-1.1,1.4,7.2,7.2,0,0,1-5.5-3.1c-3.4-4.5-7.8-5.6-13.1-5.2-7.4.6-14.5-.8-21.7-2.4-10.5-2.4-20.3-1.9-28.9,5.9-4.5,4.1-10,7-14.8,10.9s-8.3,3.6-12.8,4.1a17.9,17.9,0,0,0-13.5,8.3c-3.9,5.7-8.7,10.8-16.5,11.2l-1.3.6a191.3,191.3,0,0,1-41.7,14.4c-0.8-.6-2.4.2-2.6-1.5,4-3.4,9.1-3.3,13.8-4.7s4-2.1,2.3-5.3c-3.8-7.4-5.2-15.8-8.6-23.4-2.7-6-3.6-6.1-7.7-.8-1.9,2.5-3.5,5.3-5.4,7.8s-2.1,4-4.9,3.4a1.5,1.5,0,0,1,.1-1.6"/>
        <path class="cls-52" d="M121.4,664.4l2.6,1c-12.2,5-25.5,3.8-38.1,5.9S61.9,676,50.7,681c-0.6.3-1.5,0-2.8,0,2.8-3.1,6.5-3.2,9.4-4.9,10.2-2.3,20-5.6,30.4-7.3,5.8-.9,8-6.9,10.5-11.2a195.1,195.1,0,0,1,12.5-18.4l0.4,1.9c1.7,3-.3,5.3-1.8,7.5-4.1,6-8.6,11.7-13.2,17.7,6.1,0.9,11.7-.7,17.4-2.1,2.6-.7,5.3-2,7.8.2"/>
        <path class="cls-4" d="M322.8,355.1c-11.9.4-23.8,0.4-35.6,1.2-5.8.4-7.2-2.2-7.3-6.9,0-2.5,0-5.1,0-8.2l19.6,11.4c1.1-1.8,0-2.3-.8-2.8-8.5-5.2-8.2-14.4-10.2-22.4-2.8-10.9-5.7-21.7-14-31.3,14.2,0.3,23.3-11,37.4-13.5-6.2-2.3-11.4-1.5-16.4-1.2a20.6,20.6,0,0,1-13.3-3.6c-9.6-6.3-17.7-13.9-23.3-23.9a22.9,22.9,0,0,1-1.4-4.5,297.8,297.8,0,0,0-.5-34.1c-0.5-6.1-1.5-12.4-.4-18.2s-0.4-11.3-1.8-16.7-3-9.8.9-14.5c1-1.3.6-3-.1-4.5s-2-6.2-4.1-9.5c3.1,6.2,6.6,11.8,2,18.4-1.9,2.6.1,5.4,0.7,8,1.5,6.5,2.7,12.6,2.4,19.5-0.7,14.7.4,29.5,1.9,44.1,0.3,2.6-1,5-.9,7.6-1.8-.7-3.4-1.2-4.7-3-4.3-5.6-8.5-11.3-15.2-14.4-0.9-.4-0.4-1.4-0.3-2.1,3.6-.9,7.3-1.3,10.7-2.8,1.7-.7,3.5-1.3,2.2-3.8-17.3-8.2-35.4-13.2-54.5-13.7-8-.2-16-0.2-24.7.4,3.4-6.2,7.1-11.3,9.2-17.2-1.8-4.5-4.6-2.4-7.3-1.1-16.5,12.9-35.3,20.5-55.9,24-1.8-.2-3.5-0.3-5.1.8-9.2,3.4-18.9,5-27.8,9.3-1.2,0-2.1-.3-2.3-1.7,0.2-41,0-81.9.2-122.8,0-9.1-.6-18.2.5-27.3a4.5,4.5,0,0,1,1.4-1.9c2.4-1.4,5-1,7.6-1H564.9c2.6,0,5.2-.3,7.6,1a4.5,4.5,0,0,1,1.5,1.9c0.8,2.5.6,5.1,0.6,7.7q0,132.1,0,264.1c0,2.6.2,5.2-.5,7.7a5.1,5.1,0,0,1-1.3,2c-2.3,1.5-5,1.2-7.5,1.2H330.8c-2.7,0-5.6.4-8-1.5"/>
        <path class="cls-53" d="M82.5,225.2h2.1q0.6,0.4.4,0.8a0.6,0.6,0,0,1-.4.4h0c-3.3,2.3-7.6,3.5-8.4,8.3s-5.5,1.6-8.2,2.5q0.2-28.6.3-57.2a3.2,3.2,0,0,0-.4-1.1q0-57.6.1-115.2c0-7.4,1.2-8.6,8.6-8.6,25.1,0,50.3.1,75.4-.1,4.1,0,8.5,2.9,12.4-.9h1.2c3.7,1.4,7.5.4,11.2,0.4,84.1,0.2,168.2,0,252.4.2q74.1,0.1,148.2-.1c8.6,0,9.1.5,9.1,9q0,147,0,294c0,12.4,0,12.4-12.3,12.4H429.5c-13.7-.7-27.4-1.8-41.2-0.8H351.6c-1.8,0-3.6.2-5.2-.9h39.2v-1.3h-8.4c-19.8,0-39.7.6-59.5-.2-11.5-.5-23-1.1-34.4-1.8-3.4-.2-3.3-3.3-3.7-5s2.3-1.4,3.6-1.4l39.5-1.2c1.8-2.8,4.7-1.7,7.1-1.7H567c1.9,0,3.9.9,5.6-.7l0.4-1.2c0.8-1.9.4-3.9,0.4-5.9q0-134,0-267.9c0-2,.4-4-0.4-5.9a7.2,7.2,0,0,1-.4-1.1c-1.5-1.6-3.4-.7-5-0.7H89.5c-1.9,0-4-.8-5.7.7l-0.4,1.1c-0.9,2.1-.4,4.3-0.4,6.5q0,44.8,0,89.6c0,16.6-.4,33.2-1.1,49.8a15.1,15.1,0,0,0,.7,5.3"/>
        <path class="cls-54" d="M180.1,192.9c-0.4,6.6-5.2,11-7.9,16.6,18.7-2.5,37-.5,55.1,3.9,7.7,1.9,15,5.5,22.5,8.3a1.8,1.8,0,0,1,1.4,2.2c-0.3.5-.7,0.5-1.1,0-28.2-11.9-57-18.1-87.7-9.6,8.6-4.7,12.6-13.5,17.7-21.5"/>
        <path class="cls-55" d="M116.9,215.8c11.9-3.8,24.4-6.3,35.5-12.2,6.9-3.7,13.6-7.8,20.3-11.8-1.8,3.8-5.7,5.3-8.9,7.5-13.6,8.9-28.8,13.6-44.4,17.3a2.1,2.1,0,0,1-2.6-.8"/>
        <path class="cls-56" d="M84.7,226.4a3.5,3.5,0,0,1,0-1.2c8.5-4.7,17.7-7.1,27.1-8.6,0.2,0.6,2.6.9,1,1.3a187,187,0,0,0-28.1,8.6"/>
        <path class="cls-57" d="M250.1,224h1.1c2,1.9.8,2.9-1.1,3.5-4.2,1.2-8.3,3.1-12.9,2.5a3.6,3.6,0,0,1-4-.2l13.9-3.4c1.4-.3,2.6-0.8,2.9-2.4"/>
        <path class="cls-58" d="M76.3,234.7c0-5.6,4.2-6.9,8.4-8.3-2.5,3.1-6.4,4.7-8.4,8.3"/>
        <path class="cls-59" d="M428.7,369.2c49.4,0,98.8-.1,148.2.1,6.4,0,9.1-2,9-8.2,0-1.4,0-2.8,0-4.2q0-146.4,0-292.9c0-8.7-.5-9.2-9-9.2H439.4q-131.2,0-262.4-.1c-3.7,0-7.8,2.6-11.3-.9h78.4q91.8,0,183.7-.1c1.5,0,5.1,2.2,4.8-2.3l1-1.2c0.5,4.2,3.5,3.7,6.5,3.7,46.8,0,93.6.1,140.4-.2,5.6,0,6.8,1.6,6.7,6.9q-0.2,151.4.1,302.8c0,6.2-1.7,7.3-7.5,7.3-54.7-.2-109.5-0.1-164.2-0.2-2,0-4.4,1.2-6-1.1a61.1,61.1,0,0,1,19.1-.1"/>
        <path class="cls-60" d="M233.6,775.2a58.4,58.4,0,0,1,11.7-14.3c13.1-11.4,24.4-24.7,38.3-35.4s28-22.4,41.8-33.8a245.2,245.2,0,0,1,23.9-17.3c4.2-2.7,3.1-6.3,3.4-9.9,2.7,0.3,2.4,2.6,2.9,4.4,1.2,4.7,1.9,9.4,2.7,14.2,0.3,3,1.3,5.9,1.8,8.8a2.7,2.7,0,0,1-1,1.5c-9.7,5-20,8.3-29.7,12.1,4.4-1.1,8.8-3.3,13.4-5.1,26.6-10.3,52.7-21.6,79.6-31.2l1.8-.2c9.9,0.3,18.9,3.2,26.5,9.6,2.8,2.4,6.5,3.6,9.1,6.5s4,4.6,7.4,4.4c6.3,2.4,11,6.9,15.9,11.3,1.9,6.5-1,12.4-2.7,18.4-0.7,2.4-3.4,3.1-5.9,3.2A92.2,92.2,0,0,0,439,719a5.4,5.4,0,0,1-1.8-.3c-7-2.2-14.1-3.3-21.5-1.7-4.9,1.1-10.2-2.5-14.9,1a37.6,37.6,0,0,1-12.4.3c-11.7-1.4-23.2.3-34.5,3-6.3,1.5-12.5,3.5-18.8,5.3-19.5,6.2-37.7,15.5-55.7,25.1-12.7,6.8-25.4,13.8-38,20.8-2.6,1.2-4.7,3.7-8,2.8"/>
        <path class="cls-61" d="M176.4,692.3c6.9-4.2,13.9-7.4,22.6-5.8,2.6,0.5,6.8.9,9.4-2.2,1.2-1.4,2.9-1.2,4.4-1.2,11,0.5,22,0,32.8,3,0.9,1.5.6,2.5-1.2,3.1-14,4.8-27.8,10.2-40.8,17.5a4.3,4.3,0,0,1-1.3-1c2.1-6,8.1-8.6,11-12.9L196,710.3c-1.7,1.7-3.2,3.6-5.6,4.2s-6.3,3.8-10.3,2.6c-3.9-7.9-4.5-16.3-3.7-24.8"/>
        <path class="cls-62" d="M303.6,664.5c1.1-6.3,7.1-8.4,10.8-12.5-1.4-1.9-2.3.4-3.4,0.4a1.7,1.7,0,0,1-.6-1.5c1.1-2.3,3.3-2.5,5.4-3.1a13,13,0,0,0,5.3-2.4c1.6-1.4,3.8-3.2,3-5.3s-3.7-.8-5.7-0.6-6.4,2.4-9.6-.1c-4.5-6.6-4.4-12.7.3-17,2.3-.6,4.3.4,6.1,1.5,9.1,5.7,19.2,8.8,29.7,10.6a9.4,9.4,0,0,1,5.3,2.3,0.9,0.9,0,0,1-.7,1.4c0.2,5.4-2.9,7.8-7.6,9.8-11,4.8-21.6,10.2-32.4,15.2-1.8.9-3.7,2.4-6,1.1"/>
        <path class="cls-63" d="M266.4,686.5L279,685c0.2,2.4-.1,4.5,1.4,7,2.7,4.4-2.5,7.1-4.1,10.5-6.7,4.8-14.3,7.4-22.4,8.6-2.9.4-5.8,2-8.6,3.3h-1a24,24,0,0,0-7.1,4c-3.7,3-8.5,2.4-10.9-1a7.3,7.3,0,0,1,3.1-10.9c3.5-1.6,5.5-5,9.1-6.4,7.1,0.2,12.6-5.8,19.9-4.9,5.1-.8,7-4.4,8-8.9"/>
        <path class="cls-64" d="M349.6,638.3l0.6-.7c4.7-3.4,9.3-.4,14,0.1a4.2,4.2,0,0,1,1.6,2.5c1.2,5.9,3.1,11.7,3.8,17.8,0.2,2.1,1.1,4.2.5,6.4s-1.2,2.6-2.9,2.5c-6.6-.3-8,1-8.4,7.4-0.2,3.3,1,6.8-1.5,9.7l-4.6-19.4c-0.6-8.8-3.3-17.3-3.1-26.2"/>
        <path class="cls-65" d="M190.9,713.4c9-8,16.6-17.5,26-25.1l1.3,1.2-15.8,16.3-22.6,23.9-1.2-1.2c-1.1-2.3,1-3.4,1.9-4.9,3.3-3.5,6.5-7.2,10.4-10.2"/>
        <path class="cls-66" d="M238.5,700.3a15.4,15.4,0,0,1-7.9,7.3c-2.4,1.1-4.2,2.6-4.3,5.7a5.6,5.6,0,0,0,3.7,5.5,5.7,5.7,0,0,0,6.9-1.8c1.9-2.4,4.5-3,7.4-2.5-3.6,3.4-6.5,7.8-12.6,7.2-3-.3-5.8-0.7-7-3.4s-2.2-8.2.1-10.1c4-3.3,7.5-8.3,13.7-8.1"/>
        <path class="cls-67" d="M233.6,775.2l7.1-3.7a5.4,5.4,0,0,1-3.5,7.3c-6.2,2-10.1,7.3-15.3,10.7-2.5,1.6.1,6.1-3.7,7.4-1.2-1.9-2.2-4.1-4.8-1.5H212c2.7-7.3,9.4-10.7,15-15.3,2.1-1.7,4.4-3.3,6.6-4.9"/>
        <path class="cls-68" d="M245.4,714.4c0.2-2.8,2.9-2.6,4.4-3.1a217.5,217.5,0,0,0,26.6-8.8c-0.5,3.9-4,4.5-6.7,5.6a85.2,85.2,0,0,1-24.3,6.3"/>
        <path class="cls-32" d="M169.3,830c0-5.5,0-11,0-16.5,0-1.7-.3-3.7,2.4-3.9,0,5.2,0,10.5-.1,15.7,0,1.9.6,4.1-2.2,4.6"/>
        <path class="cls-69" d="M266.4,686.5c1,7.2-.6,8.9-8,8.9,1-2.3,6.8-3.3,2.1-7.3,1.7-1.4,3.8-1.3,5.9-1.6"/>
        <path class="cls-70" d="M198.3,814.4a66.6,66.6,0,0,1-15,17.3,50,50,0,0,1,15-17.3"/>
        <path class="cls-71" d="M212.1,795.4c-2.8,5.6-5.3,11.4-11.4,14.4,3.8-4.8,6.2-10.7,11.4-14.4"/>
        <path class="cls-72" d="M428.7,369.2H409.6l-21.2-.3c8.8-2.2,17.6-.7,26.5-0.9,4.6-.1,9.4-1.3,13.8,1.1"/>
        <path class="cls-5" d="M311,651.3a3.1,3.1,0,0,0,0,1.1c-5.8,6.6-14,7.3-22,8.5-4.3.6-8.6,1-12.7,2.6-0.4,8.9-6.7,8.4-13,8.3s-12.1-1-17.8.2c-13.6,2.8-26.7-1.6-40-1.4-1,0-2.1-.3-3,0.1-10.1,4.3-15.3-2.2-20.4-9.1-1.9-2.5-.4-5.5-1.9-8.5-2.8,4.4-5.5,5.5-8.1-.1-0.8-1.8-4.5.6-5.4-2.4,7.6-3.3,14-8,17.9-15.6a7.4,7.4,0,0,1,6.6-4.3c12.8-.1,22.2-7.4,31-15s21.1-9.8,33.1-6.6a67.5,67.5,0,0,0,21.7,2c4.7-.3,8.3.7,11.2,4.7,1.5,2,3.8,3.4,5.7,5.1a10,10,0,0,1-12.5,1.3c-7.4-4.6-13.8-2.2-20.6.8-3.9,1.7-3.9,3.3-.9,5.7,7.3,8.3,17.1,11.5,27.6,11.6s21.7,1.9,32.4-1.4c1.6-.5,3.3-0.4,4.2,1.2s-0.1,3.1-1,4.4a9.4,9.4,0,0,1-5.3,3.6c-7,2.2-14,3.6-21.5,2-5-1-10,.3-15.8,3.4,6.7,2.2,12,1.4,17.5-.2s8.2-4.4,13-1.7"/>
        <path class="cls-5" d="M276.5,669.9c7.1-1.2,14.3-1.8,20-7a8.2,8.2,0,0,1,6.2-2.1c-1.7,5-4.2,8.1-9.7,8.7s-8.7,2.2-13,3.3c-1.3-.9-3.1-1-3.5-3"/>
        <path class="cls-73" d="M217.6,796.5a2.3,2.3,0,0,0,.9-0.6c0.4-11.1,11.2-12.8,17.2-18.7,2.2-2.2,3-1.4,5-5.6,30.2-16.9,59.8-35.1,92.9-46,6,0.1,11.8-2,17.1-3.9,13.1-4.7,26.4-4.3,39.8-4a50.5,50.5,0,0,1,12.3,26.1,7.5,7.5,0,0,1-1.2,6.2c-3.3.6-2.6-2.2-3-3.8-1.6-5.6-1.6-5.8-7.2-3.3-12.3,5.5-24.7,10.8-36.7,17-29.8,15.3-58.7,32.2-87.8,48.7a9.8,9.8,0,0,0-3.1,2.5c7.3,0.8,14,1.3,20.6,1.9,29,2.7,57-2.8,85.1-9.3,12.6-2.9,23.8-8.3,35.5-12.8,2.1-.8,2.1-3.3,4.3-3.6l1.6,3c2.8,3.7.7,5.6-2.2,7.9-17.9,14.4-38.3,23.9-59.8,31.5a4.5,4.5,0,0,0-2.3,1.7c-1.4,3.4-4.4,2.3-6.7,1.9-17-2.7-34.1-4.5-51.4-4.3-10.5.1-20.9-2.3-31.4-1.2-6.4,2.8-12.4-.1-18.5-1.4-4.1-1.8-9-.9-12.5-4.4-2.9-.5-6.1-0.4-8.4-2.8a20.8,20.8,0,0,1-1.3-16.4c0.5-1.7,1.5-3.2.5-5l-0.2-1.3,0.4-.3Z"/>
        <path class="cls-74" d="M409.4,787.3c-0.1,3.4-2.3,4.2-5.1,5.6-24.3,12.5-51,16.1-77.4,20.8-16.3,2.9-32.8,1.6-49.1.2-5.7-.5-11.5.3-17.4-2.2,2.7-3.7,7.1-5.2,10.8-7.3,22.8-13,45.8-25.6,68.8-38.5,18-10,36.9-18,55.4-26.9,2-1,3-.8,3.6,1.8s0.2,6.7,2.3,9.5l0.7,0.7c1.5,5.8,1.3,11.9,2.9,17.8s0.6,10.9,1.7,16.3c0.2,0.8-.2-0.2.2,0.5s0.1-.7.6-0.7,1.8,1.2,1.8,2.4"/>
        <path class="cls-75" d="M238,825.3c6.4,0.5,12.6,2.9,19.1,2.6-1.1,1.1-2.3,2-2.1,3.9a13.7,13.7,0,0,1-2.3,9.7,71.6,71.6,0,0,1-19-3.6c-0.2-4.8.7-9.2,4.3-12.6"/>
        <path class="cls-76" d="M407.6,784.8l-0.6,3.9h-0.9l-2.3-19.4a1.1,1.1,0,0,1,1.5-.2c3.6,5,9.7,3.4,14.5,5.4a4.4,4.4,0,0,1,1.5.7c5,4,8.2,9.4,12,14.4,2.6,3.4,3.2,7.4,2.2,11.7s-1,8.6,2.7,11.9l0.2,1.4c-6.6,6.7-15.6,9.3-23.6,13.7-2.2,1.2-4.2,3.7-7.3,2.9l-2.9-.3c1.2-3.8,4.9-4.3,7.8-5.5,5.9-2.4,11.2-5.6,16.8-8.6,1.7-.9,2.5-1.9.8-3.5a18,18,0,0,1,.6-3.5c4.3-11.2.6-20.3-7.5-28.2-1.4-1.4-2.9-4.4-5.6-1.1-0.9,1-2,.3-1.4-0.9s-0.4-2.7-1.9-3.2-5.2-2.2-7.3-.7,0.4,3.6.4,5.4,0.2,2.4.3,3.5"/>
        <path class="cls-77" d="M429.9,813.5a4.3,4.3,0,0,1,4.5,1.7c-9.2,6.7-20,10.5-29.9,15.9-7.9,2.1-15.2,6-23.2,7.6l-0.2-2.4c4.7-4,10.7-5.5,16.2-8,10.1-4.6,20.7-8.4,30.2-14.3,0.7-.7,1.8.7,2.3-0.5"/>
        <path class="cls-78" d="M346.7,831.4c0-1.7,1-2.1,2.5-2.7,16.9-6.6,33.8-13.2,48.5-24.4,3.1-2.4,6.3-5,10-6.7s4.7-3.8,3.4-7.4l2.5,3.3c1.6,2.2,1.4,2.4-1.5,3.9s-9.2,4.1-11.3,9.3c-0.5,1.4-2.7,2.2-4.2,3.1-15.7,9.4-33,14.9-49.8,21.6"/>
        <path class="cls-79" d="M427.6,814c-1.7,3.2-5.1,4.1-8,5.4l-38.4,16.8c-2.6-2.8.8-2.5,1.7-2.9,9.8-4.4,19.7-8.6,29.6-12.9l15.1-6.5"/>
        <path class="cls-77" d="M381.3,838.5a51.6,51.6,0,0,1-11.8,3.5c-0.3-.4-2.5,0-0.7-1.2a17.3,17.3,0,0,1,12.5-2.3"/>
        <path class="cls-80" d="M181.2,724.6c0,1.9-3.2,1.6-2.6,3.9-1.1,1-2.2,2-3.3,3.1-2.8,3-1.9-.8-2.7-1.5-1.4-6.2-2.9-12.3-5.6-18.1v-0.6c-0.2-4-4.9-7.7-3.2-10.8s8.2-5.8,12.6-8.2c2.6,8.1,1.3,16.8,4.6,24.8,2.5,2.5,1.1,5,.2,7.5"/>
        <path class="cls-81" d="M294.2,661.8c-4.7,5-10.5,3.7-14.8,6.2a1.2,1.2,0,0,1-1.7-1.1,1.9,1.9,0,0,1,1.7-2.5l14.9-2.6"/>
        <path class="cls-82" d="M211,829c-3.9-.8-8.4-1.9-9.4-5.7s2.6-6.6,5.4-9.1,3.7-1.7,3.6-4.2c2.8,0.4,3.2-2.2,4.7-3.5,2.3,4.2-.7,8.1-0.7,12.2s1.1,8.2-3.7,10.3"/>
        <path class="cls-67" d="M214.7,818.7c-0.8-.6-3.2-0.5-1.5-2.5s2.2-6.3,2.2-9.7,2-5.5,1.7-8.6c2.7,2.8-.1,5.6-0.3,8.3-0.5,4.5,2.5,8.6,1.1,13.1-1.2.6-2.1-.5-3.1-0.6"/>
        <path class="cls-83" d="M217.6,796.5h-0.8l-3.3-1.1,4-5c1.3,2.4.4,4.2,0.2,6"/>
        <path class="cls-84" d="M144.2,516.9c-3-4.3-4.4-9.5-8.2-13.3a10.7,10.7,0,0,0-6.6-7.1c-1.4-.6-4.8.1-3.2-3.2s0.9-7.8,6.3-6.9,8,1.2,10.9,4.4,6.4,9.7,9.9,14.3a10,10,0,0,1,.8,3.6c0,1.9.1,3.9-1,5.6-2.7,1.8-5.2,4-8.8,2.4"/>
        <path class="cls-85" d="M152.5,505c-4.6-3.7-7-8.8-9-14.1a5.1,5.1,0,0,1-.2-1.1l4.5-1.2c2.2,3.9,2.1,8.6,5.3,12.1,1,1.1.7,3-.7,4.2"/>
        <path class="cls-86" d="M238,825.3l-4.3,12.6-0.5.4c-4.3.1-8.4-.3-11.6-3.7a30.7,30.7,0,0,1,4.5-12.5c4,1,8.3.6,11.9,3.2"/>
        <path class="cls-87" d="M221.6,834.6l11.6,3.7-0.9,1.4h-1.2l-11.6-2.9c-1.8-2.9.7-2,2-2.2"/>
        <path class="cls-5" d="M246.6,383.5c-3.3,3.7-5.6,8.2-9.3,11.9,5-.7,10.7,2.7,14.6-3.3,0.9-1.4,3.2-3.1,4.8-2s0,3.1-.4,4.8c-3.7,14.9-11.3,27.6-21.9,38.5-7.4,7.8-15,15.4-23.5,22-1.8,2.7-4.2,3.5-7.4,2.9-18-3.3-36.3-5.3-53.4-11.9-12.3-4.7-24.9-9.1-34.9-18.5,6.5,1.7,12.5,5.1,19.2,6.2s13.2,2.8,21.3,1.1c-13.4-5.3-23.1-12.8-29.3-24.4a3.3,3.3,0,0,1,1.7-.5c13.4,3.1,22.1-4,29.7-13.6a3.6,3.6,0,0,1,2-1.3c2.8,3.4-1.7,6.9.2,10.5,12.6-13,13.7-30.2,17.1-46.9a55.2,55.2,0,0,1,1.2,23.9,108.6,108.6,0,0,1,7.9-14.8,2.2,2.2,0,0,1,1.7.1c7,3.1,7.1,3,9.8-3.6,2-.9,3,0.5,3.5,2,1.6,4.5,5.2,6.7,9.4,8.2s11.4-.2,17,0.8,9.2,4.3,14.4,4.4c2.2,0.1,4.2,1.1,4.8,3.6"/>
        <path class="cls-88" d="M159.7,395.3c-6.7,12-19.1,21-33.3,15.4l1.7-1.2c2.2-1.9,4.7.1,7-.3,9.7-3.2,16.7-8.7,16.2-19.5-4.6,3.4-11.3,4.2-17.1,7.1-1.9.9-4.9,0.9-5.3,3.2s2.6,3.5,4.3,5.1,3.5,1.4,2.7,3.9c-6.3-.1-13.3-5.4-14.8-11.3-0.9-3.4.1-5.3,3.7-5.9s4.5-1,4.2-3.9-2-3.3-4.1-3.5-4.8.3-5.6,3.2c-1.3,4.4-2.4,8.8.8,13,1.2,1.5,2.1,3.4,1.7,5.5-5-1.2-5-1.2-8.6,5.6-1.5-.7-1.2-2.1-1-3.1,1-4.5,2.2-8.9-2.9-11.9-0.6-.3-0.8-1.9-0.6-2.8,1.8-7.6-2.2-13.6-5.4-19.8s-4.3-14.3-7-22.7c4.5,3.3,2.9,10.3,6.2,9.8,5.5-.9,9.4-6.3,13-10.5s4.6-11.4,3.3-18c-0.4-2.1-2.3-5.4,1.5-7,4,6.7,1.5,13.9,1.7,20.8,0,1-.6,1.9-0.4,2.9l2.9,0.2c-2.9,6.6-3.2,13.6-3.5,22.3a39.2,39.2,0,0,1,26.7-7.3c3.1,0.3,6.4,0,8.6,3-0.7,1.1-1,2.5.6,2.8,8.3,2,8.7,3,4.4,10-2.9-4.1-6.3-7.5-11.8-6.8,4.5,5.3,8,11.4,8.3,19,0,1-.1,2,1.3,2.1l0.8,1.1"/>
        <path class="cls-6" d="M109.6,242.9c6.7-6.2,15.4-6.8,23.6-7.9,12.9-1.8,26-2.1,39-2.7,18-.8,32.6,6.2,45.8,17.3a196.2,196.2,0,0,1,22.8,22.3c-7.5-4.2-13.7-7.5-19.7-11.3a35,35,0,0,0-11.3-5c-7.3-1.5-14.1-3.9-19.8-8.8-2.9-2.5-6.5-3-9.9-3.5-17.2-2.2-34.4-5.2-51.9-4-6.4.4-11.9,4.6-18.4,3.8l-0.2-.3"/>
        <path class="cls-89" d="M232.2,331.3a55.3,55.3,0,0,1-22.4,1.4c-4.5-.5-8.5-0.8-12,2.3-3.4,1.4-4.3,4.9-7.1,7.5-1.2-6.1-2.5-11.9-3.4-17.7-0.2-1.1,1-2.5,1.9-3.5,5.1-6,12-9.5,19-12.7,2.8-1.3,4.4.6,6.2,2.2,6.8,6.1,12.2,13.4,17.8,20.5"/>
        <path class="cls-90" d="M99,435.8c-13.5,0-23.5-3.2-32.6-11.5-4.8-4.4-7-10-11-14.6s-2.4-9.5,2-12.2,12.5-1.5,14.5,3.1A88.3,88.3,0,0,0,99,435.8"/>
        <path class="cls-91" d="M156.1,367.1c-13-3.2-25.3-2.1-37.1,7.8,0.6-8.2,1.1-15.1,1.5-21.9,0.1-2.6,2.7-2.4,3.9-3.8l15.2-4.6c3.6-1,6.4-.4,8.2,3.4s5.6,10.4,8.2,15.6c0.5,1,2.2,2.3.1,3.4"/>
        <path class="cls-92" d="M169.6,288c16,1.2,27.4,9.2,39.5,18-8.5,4.1-16.4,8-22.5,15.4-3.8-11.9-8.7-22.7-16.9-33.4"/>
        <path class="cls-93" d="M121.5,348.9c-2.1-7.8,0-15.9-1.3-23.7-0.1-2-.2-3.9-0.4-5.9s-1.2-2.8,1-4,2.9,0.6,3.8,1.6a243.8,243.8,0,0,1,19.1,25.1,72,72,0,0,0-22.2,7"/>
        <path class="cls-94" d="M572.6,354.9c0.6,0.2,2,.6,1,1.1s-3.1.2-4.7,0.2H330.3c-2.6,0-5.2-.3-7.5,1.2q0-1.1,0-2.2l130.9-.2h119"/>
        <path class="cls-95" d="M197.8,364.5c-0.5,2.3,1.5,5.6-1.6,6.8a8.2,8.2,0,0,1-10.2-3.2c3.6-4.1,4.2-9.2,4.2-14.2-0.1-7.6,3.8-13,8.8-17.9,3.2-.9,6.2-3.6,10.6-0.6-6.6.4-7.8,6.1-11.2,9.4s-5.8,8.3-2,13.4c0.7,2,2.9,3.8,1.3,6.3"/>
        <path class="cls-96" d="M121.7,405.8c-3.6-5.6-6.4-11-4.4-18.3,1.4-5.1,4.4-5.3,8.1-5.2s5.6,2.2,5.5,5.6-3.3,5.4-7,5.4l-2.8.3c2.1,8,6.4,13.4,14.6,15.2,0.4,0.3.5,0.5,0.3,0.6H128c-2.1-1.1-5-1.1-6.3-3.7"/>
        <path class="cls-97" d="M158.9,394.3c-0.5.6-1,1.6-1.6,1.7-2.1.2-1.1-1.6-1-2.3,0.2-8.7-4.4-15.2-9.6-21.3,8.7-1.5,11.7,0,14.4,7.7-0.3,4.8,1.7,10-2.2,14.3"/>
        <path class="cls-38" d="M210.9,455.5c7.6-7.6,14.5-15.9,23.5-22l1.7,0.2-25,24.3-0.2-2.5"/>
        <path class="cls-98" d="M38,378.7c-3-5.4-7.3-10.6-4.9-17l1.8-.4L38,378.7"/>
        <path class="cls-99" d="M279.7,308.9c-1.7-3.5-4.8-4.8-4.9-9.2,2.2,3.1,5,4.5,4.9,9.2"/>
        <path class="cls-100" d="M207.2,366.2c2.7-4.2,7.8-2.9,11.5-5.1s7.7-2.7,11.3-4.6,5-2.8,5.1,2.1c0,0.4,1.2.7,1.9,1.1s1.7,3.8.4,5.8-1.9-1.4-2.1.8c-0.4,5-3.9,7-8.4,7.4s-10.3,1.6-15.4,1.9c-1.4-3.2-5.1-5.4-4.2-9.5"/>
        <path class="cls-101" d="M207.2,366.2c0.2,2.3,2,3.6,3.3,5.2s2.4,2.3.3,3.7a2.7,2.7,0,0,1-1.1,1.2c-5.9-2-9.4-6.5-11.9-11.9,0.1-2.2-2.6-3.8-1.3-6.3s0.7-3.1,1.2-4.5a11,11,0,0,1,13.8-6.5,4.9,4.9,0,0,1,3.5,6c-0.5,2.8-2.3,4.4-5.4,4.3-6.8-.1-6.8-0.1-3.9,6.3a26.5,26.5,0,0,0,1.5,2.5"/>
        <path class="cls-102" d="M246.6,383.5c-2-1.2-3.8-2.6-6.4-2.4a16.6,16.6,0,0,1-12.6-4.7c-0.6-2,1.1-2.3,2.2-2.8,3.9-1.8,7.9-3.3,10.5-7,1.3-1.9,3.3-.5,4.8-1.1s-0.1-2.8,1.5-3.6c5.1,9,5.1,13.8,0,21.5"/>
        <path class="cls-103" d="M236.1,366c1.5-2,1-4.2.8-6.3-0.4-8.7-6.9-14.2-10.9-20.9,10.6-.7,18.2,7.5,19.4,20.9-3,1.8-3.6,5.5-6.3,7.5s-2.3,1.2-3-1.1"/>
        <path class="cls-36" d="M236.1,366c-0.3,4.3,1.4,1.3,2.2.5,2.4-2.3,2.9-6.5,7.1-6.9-0.1,2-3.7,3.8-.3,6-3.7,3.4-7.6,6.6-12.3,8.5l-5.2,2.4a50.5,50.5,0,0,1-17.8-.1,1,1,0,0,1,1.1-1.2c5.1-1.5,10.4-1.8,15.6-2.5s7.3-2.5,8.1-7.1c0.1-.6-0.8-1.7.7-1.6a0.6,0.6,0,0,1,.4.4l0.5,1.7"/>
        <path class="cls-36" d="M262.4,385c2.9,9.6-.5,17.2-4.7,24.7-0.6,1.2-1.6,2.3-3.4,1.5s-0.9-2.5-.5-3.5c2.7-7.3,5.5-14.5,8.5-22.6"/>
        <path class="cls-36" d="M246.6,391c0.3-2.4.8-4.6,3.2-5.5a1.7,1.7,0,0,1,1.1,1.1c0.2,2.9-2.3,3.5-4.3,4.4"/>
        <path class="cls-104" d="M497.8,626.5c1.9,7.5,4.4,14.8,5.8,22.5,0.7,4,1.1,8.1,1.5,12.1s0,6,2.2,8.4q0,11.6,0,23.2a21,21,0,0,0-.8,10,9.3,9.3,0,0,1-.6,4.6c-1.8,2.1-1.3,5.2-2.9,7.4,0.6,6.4-3.6,12.1-2.8,18.6-4.1,1.6-3.5,6.4-4,9-2.6,13.9-10.3,25-18.4,35.7a86.6,86.6,0,0,1-18.6,18c3.7-11.4,9-20.6,10.4-31,0-5.4,3.5-10.1,3.1-15.6a5.9,5.9,0,0,1,.7-2.3c2.4-1.8,1.4-4.4,1.8-6.7a7.6,7.6,0,0,1,.8-2.5c2.2-2.9.9-6.4,1.5-9.5,3.4-10.3,6.3-20.6,6.8-31.5,0-12.6,0-25.3,0-37.9,0.2-8.6-2.1-16.6-5.5-24.3s-6.1-13.1-8.9-19.7a13.5,13.5,0,0,0-3.2-4.2c-6.1-8.1-12.8-15.6-19.6-23-3.2-5.4-8.8-7.8-13.8-10.9-12.2-10.7-26.6-17.9-40.9-25.2-3.1-1.6-6.5-2.8-9.1-5.3s-4.9-2.5-6.8-4.6-3.6-.9-5.4,0c-3.6,1-6.1-1.9-9.2-2.6-5.4-4.1-12.3-3.8-18.2-6.2-9.8-4-20.3-5.9-30.4-8.6-5.4-1.4-10.8-3.3-16.6-3.5s-10-2.1-14.9-3.3a34.9,34.9,0,0,0-8.6-1.4c-4.5.5-8.4-1.7-12.5-2.8s-4-3.2-1-5.7c-3.2-6.4-6.5-12.7-9.6-19.2-0.8-1.6-3.1-3.1-1.6-5.2s4.1-1.9,6.4-1.1a18.5,18.5,0,0,1,3.9,1.3c5.1,0.4,9.8,3.3,15.1,2.7,13.2,0.6,25.6,5.5,38.4,8.2a94.6,94.6,0,0,1,21.8,7.3c4.5,2.2,9.2,1.6,13.6,3.5,14.2,6.3,29.1,11,43.1,18.1s26.6,12.2,38.5,20.9c9,6.6,18.6,12.5,26.1,20.9a6.5,6.5,0,0,0,2.1,1.1c5,4.7,10,9.4,14.6,14.5,1.4,1.6,3.1,3.1,3.2,5.4,5.5,9.5,12.5,18.2,17,28.3,1.8,4.1,1.3,9.3,5.8,12.2"/>
        <path class="cls-5" d="M496.4,614.7c-1.9,0-1.9-1.6-2.5-2.8-4.9-9.2-10-18.3-17.1-26.1-4-2.2-6-5.8-5.6-10.2,0.8-8,.9-16.1,1.6-24.1a3.4,3.4,0,0,1,1.4-1.7c2.1,3.2-.4,7.2,2.7,11.7,1-5.9.4-10.4-.4-14.9,1.7-5,.2-10.2.5-15.3a23.4,23.4,0,0,1,2.7-10.1c3.5-6.5,3.6-13.2-.9-19.5-2.2-3-4.2-6.2-6.5-9.3-1-1.4-2.8-3.3.6-4.2,8.4,0,11.6,6.4,15.4,12.3,2.4,3.8,4,8.1,8.3,10.5-6.8-7.6-7.4-20-19.1-23.9a1.6,1.6,0,0,1-1-.6c-2.1-9.1-12.4-9.5-16.9-16-4.1-4.6-11.2-6.4-12.1-13.8-0.2-1.5-.8-3.1-0.8-4.6s-0.9-3.4,1.1-4.2,2.3,1.1,3.5,1.8c10.9,6.6,21,14.3,32.4,20.1a12.4,12.4,0,0,1,5.8,5.6c2.6,5,5.2,10.1,9.1,14.5,1.5-1.8,0-2.6-.6-3.7-2.9-5.1-6.5-9.9-7.8-15.8-0.4-1.9-1.5-3.9-4-3.5-5.1.8-8.7-2.2-12.2-5a73.2,73.2,0,0,0-15.1-9.3,8.5,8.5,0,0,1-3.3-2.4c-1.9-2.5-6.2-5.1-3.5-8.4s5.2,1.1,7.5,2.3a46.6,46.6,0,0,0,15.2,4.6c8.6,1.3,16.1,5.3,24,8.1,1.5,0.5,2.7,1.2,3.4,2.9,3.6,9.9,9,18.8,14,27.9,3.4,6.3,2.7,13.6,2.9,20.4,0.4,15.8,1.4,31.6,2.7,47.4,0.4,4.9-1,9.3-2.9,13.7-5.4,12.3-12.1,24-18.3,35.8-1.6,3.1-3.5,6.2-4,9.8"/>
        <path class="cls-105" d="M347.9,434.7c16.9-3,33.4-1,49.3,5.4,7.3,2.9,14.4,6.5,20.6,11.5,1.1,2.5-.1,4.6-1.1,6.8-6.7,15.2-13.8,30.2-19.3,45.9-2,5.7-2.9,12.4-8,16.9-6,.7-10.1-3.9-15.3-5.5s-12.5-4.7-18.8-7.1a5.2,5.2,0,0,1-3.4-3.1c-0.3-2.8.6-5.5,1.1-8.2,3-19.3.5-38-5.3-56.5-0.7-2.1-1.6-4.1.1-6.1"/>
        <path class="cls-105" d="M277.3,483.8c14.5-24.6,35-41.4,63.3-47.9,6.7,3.6,7.1,10.8,8.4,16.9a133.4,133.4,0,0,1,2.9,37.2c-0.4,5.1-.5,10.3-4.5,14.3-6.1.7-11.6-2-17.1-3.9-16-5.5-32.4-9.2-48.8-13.2-2.1-.5-3.9-0.8-4.2-3.3"/>
        <path class="cls-106" d="M457.6,515.6c3.5,15,2.6,29.9-1.3,44.7-0.2.9-.2,2-1.4,2.3-6.5-2.4-10.6-7.9-16-11.8a319,319,0,0,0-38.9-23.3c-2.1-1.1-4.4-1.9-5.4-4.3-0.1-6.1,2.6-11.4,4.5-16.9a2.6,2.6,0,0,1,3.2-1.9c3.3,4.3,2,9,.6,13.5-0.8,2.7-1,4.6,2,5.7s4.5-.2,5.6-2.8,1.5-4.1,2.6-6,2.4-3.7,5.1-2.9-0.1,4.2-.7,6.2-1,5,.1,7.6,4.1,4.6,6.8,1.6c4.3-4.9,8.9-6.3,15.3-5.1s7.7-.9,9.3-6.6a21.1,21.1,0,0,1,1.8-5c2.8-3.2,4.8-3.4,5.4,1.5,0.2,1.4.1,2.8,1.5,3.6"/>
        <path class="cls-107" d="M418.1,512.1c-4.4,1.3-4.7,5.5-5.8,8.9s-2,4.5-4.3,5.1-5.2-2.2-8.1-2.7c-1-.2-0.4-1.8.1-2.5,3.4-5,2.5-10.6,2.4-16-1.8-2.1-1.2-4.4-.3-6.7,5-12.1,8.9-24.7,15.6-36.2,2.2-3.9,4.5-5.2,8.5-3.2,7.8,5.5,12.2,13.8,17.7,21.3-0.2,3.4-2.5,2.7-4.7,2.5-9.6-1.1-14,3.3-12.8,12.9a47.2,47.2,0,0,1,.3,8.8c-0.4,5.7-2.4,7.5-8.5,8"/>
        <path class="cls-108" d="M418.1,512.1c7.5-3.9,8.6-6.8,6.8-16.8s4.2-16.7,15.1-14.2c1.8,0.4,2.9.3,3.8-1.3,2.8,4.7,6,9.1,7.4,14.5s3.5,11,.1,16.5c-0.3,1.3-.5,2.7-0.8,4-2.1,8.6-4.9,10.8-13.3,8.7-4.7-1.2-7.8-.1-10.3,3.4s-4.8,5.8-8.2,3.5a8.9,8.9,0,0,1-3.5-9.3c0.7-3.1,1.8-6,2.8-9"/>
        <path class="cls-109" d="M472.9,488.1c-1.3,1-.8,1.7.1,2.8,3.2,4,6.6,7.8,9.1,12.2s3.2,12.2.4,16.3c-5.1,7.4-3.6,14.9-3.3,22.5,0.1,2.6.4,4.2-2.6,4.6-4.4-4.8-7.4-9.7-5.1-16.8,1.5-4.6,1.4-9.7,2.4-14.5,1.6-8-2.8-13.3-8.8-16.4-11.7-6.1-17.2-17-23.9-27.2-0.8-1.2-1.2-2.8-.3-3.9s3-.5,4.3.2a19.9,19.9,0,0,1,4.9,3.3c6.7,6.8,14.7,11.8,22.7,16.8"/>
        <path class="cls-110" d="M474.3,549.9l-0.3,1.8c-0.6,7.6-.7,15.2-2.3,22.6-0.2,1.1-.1,2.5-1.3,3.1s-2.5-.6-3.3-1.6c-2.9-3.5-6.9-5.9-9.5-9.6a1.2,1.2,0,0,1-.2-1.7c7.3-23.9,5.4-47.4-3.9-71.9,6.3,5.9,13.9,7.8,17.6,14.8,0.8,1.6,1.8,3,1.5,4.9-1.1,6.4-2,12.9-3.3,19.2a15,15,0,0,0,2.3,11.8c1.2,2,1.9,4.3,2.8,6.5"/>
        <path class="cls-111" d="M457.3,564.6a0.6,0.6,0,0,1,.2.7,1.2,1.2,0,0,1-.3,1.9c-3.7-1.4-6.4-4.4-9.1-6.8-13.4-11.9-28.4-21.1-44.2-29.1-9.2-4.6-18.3-9.8-28-13-12.9-4.3-24.7-11.5-38.4-13.9-7.5-1.3-14.8-4.8-22.2-7.4a134,134,0,0,0-14.4-3.8c-8.5-1.9-16.6-5.3-25.5-5.5-0.5,0-1-1.1-1.5-1.7,1.7,0,2.5-1.4,3.6-2.3,1.3,2.4,3.8,1.9,5.8,2.4,21.4,4.8,42.4,11.1,63.3,17.6,2.3,0.4,4.8,0,6.5,2.2l36.5,14.8c3-.8,4.6,1.2,6.3,3,18.9,9.6,37.2,20.1,53.6,33.6,2,1.6,3.8,3.4,5.7,5.1a2.3,2.3,0,0,0,2.4,2"/>
        <path class="cls-112" d="M395.6,523.9l-6.3-3c5.3-13.7,10.3-27.4,15.8-41,3.9-9.6,8.4-18.9,12.6-28.3,2.9,2.3,6.7,3.6,8.5,7.1-8.5-.5-8.9,7.4-11.3,12.1-4.5,8.7-7.2,18.2-11.1,27.2a17.4,17.4,0,0,0-1.3,6.8c-4.6,5.5-5.5,12.4-6.9,19.1"/>
        <path class="cls-113" d="M352.9,506c-2.3-.4-4.6-0.8-6.5-2.2,2.9-2.7,3.2-6.5,3.4-9.8,1.2-18.2.2-36.3-6.4-53.6a27.4,27.4,0,0,0-2.8-4.5c2.3-1.4,4.8-1.1,7.3-1.3,1.4,7.3,4.3,14.2,5.6,21.6,3.1,16.7,3.8,33.2-.6,49.7"/>
        <path class="cls-114" d="M258.5,483.4c-10.1,0-9.9-.1-5.3,9.1,2.7,5.5,6.9,10.2,8.8,16-1.5.3-2.9,0.7-4.3-.2-2.1-4.8-6.4-8.5-6.6-14.1l-7.3-14.5a28.3,28.3,0,0,1,13.4,1.6l1.2,2.1"/>
        <path class="cls-115" d="M451.4,510.9c0.6-5.5-1.3-11-.1-16.5a55,55,0,0,1,6.3,21.2c-2.4,0-2.8-1.6-2.7-3.5,0.3-4.5-1.9-2.1-3.5-1.3"/>
        <path class="cls-116" d="M512.9,478.5l-4.8-10c4.1,1,5.2,3.3,4.8,10"/>
        <path class="cls-117" d="M438.2,813.4c-4,.3-5.3-1.8-5-5.4a76.7,76.7,0,0,1,.8-7.7c0.9-4.9-.7-8.9-3.8-12.6s-6.5-8-9.8-12.1c2.8-4.1,5.8-8.1,8.9-12,5.2-3.7,11.1-5.8,16.9-8.3,7.1-.8,12.7-4.8,18.2-9l1.4-1,2.5-1.5c1.3-.7,2.8-1.7,4.3-0.8s0.8,3.1.5,4.7c-1.1,4.8-1.7,9.8-4.6,14.1q-5.4,15.2-11.3,30.2c-3.8,9.7-10.7,16-19.1,21.3"/>
        <path class="cls-118" d="M468.7,761.9l3.9-14.3c0.8,0,1,.9,1.5,1.3,1.1,5.8-3.7,10.7-2.8,16.6,0.1,0.7-1-.7-1.7-0.5l-0.9-3"/>
        <path class="cls-119" d="M507.6,701.9l17.9,9.3-20.5,10v-7.4c-0.9-3.8,1.5-7.1,1.5-10.7a2.3,2.3,0,0,1,1.2-1.2"/>
        <path class="cls-43" d="M507.6,701.9a0.8,0.8,0,0,1-.3.8,1.5,1.5,0,0,1-2.2,0c-0.1-3.5-.7-7.1,2-10l0.4,9.2"/>
        <path class="cls-120" d="M502.8,714.7c0.1-2.6-1.8-5.8,1.9-7.5,1.3,2.4,1,4.9.2,7.4h0l-2.2.2"/>
        <path class="cls-38" d="M457.1,567.2l0.3-1.9,12.3,11.3c2.5-8.1,2-16.7,4.1-24.9-0.1,6.7.7,13.3-.9,20a14.3,14.3,0,0,0,3.9,14.1l-1.8.2-17.9-18.8"/>
        <path class="cls-121" d="M251.1,494.2c2.4,4.6,6.3,8.6,7,14-4.6,3.6-9.9,1.7-14.9,1.8-3.3,0-6.5-.2-9.8-0.3,8.7,0.2,17.3.8,25.7,3.4,5.9,1.8,7.7,8,3.3,12.6a19.4,19.4,0,0,1-5.9,4,105.5,105.5,0,0,1-10.7,3.4c-10.7,2.6-19.7-.5-26.9-8.8-15-6.3-23.5-19.8-34-31.1,4-5,3.7-10.7,2.8-16.6,0.7-.3,1.7-1.1,1.9-1,6.1,5.4,14.2,7.1,21.5,9.2,10.7,3.1,21,7.5,31.6,10.8,3.1,1,5.1-3,8.2-1.6"/>
        <path class="cls-7" d="M152.5,514.1l0.3-5.4c1.3-.1,1.6.7,1.8,1.8a3.2,3.2,0,0,1-.5,2.1,11.8,11.8,0,0,1,1-1.5,74.2,74.2,0,0,1,28.5-15.6c7.5,6.5,12.7,15.2,20.2,21.5s12.9,17.4,19.3,26.1V544c-1.5,5.7-5.4,10-8.2,15a400.2,400.2,0,0,1-40.1,58.5c-2.4,2.9-1.5,7.4-5.4,9-2.2-2.1-1.7-4.9-1.8-7.5,0.5-13.9-2.8-27.5-3.8-41.3-1.6-21.6-8.3-42.3-11.2-63.6"/>
        <path class="cls-73" d="M219.1,524.3a3.3,3.3,0,0,1,1.1.4c10.9,9.6,22.8,9.1,35.3,3.9,1.1-.4,2.5-0.2,3.3-1,3.5-3.4,5-.8,6.5,2s1,5.7-.4,8.5a2.4,2.4,0,0,1-2.5.8c-3.7-6.3-3.7-6.2-11.6-4a64.7,64.7,0,0,0-7.2,2.8c-2.3,1-4.9,1.2-8.1,2.7,5.3,3.5,10.2,6,15.7,7.3,4,0.9,8.2,1.3,12.1,2.8,1.8,1,2,2.7,2.4,4.5,2.2,10.1,5.1,20,10.1,29.1a7.8,7.8,0,0,1,.8,1.6c0.8,2.8,2.4,5.9-.1,8.4s-5.2.6-7.8-.2-5.1-3.3-8.3-2.6c-9.6-3.3-18.4-7.5-22.7-17.9a158.6,158.6,0,0,0-12.9-23.9c-1.2-2-2.6-4-2.6-6.5a0.9,0.9,0,0,0,.7,0c2.6-2.7.2-7.1-.5-7.2-3.9-.8-4-4.6-5.9-6.7s-2-5.1,2.5-4.9"/>
        <path class="cls-122" d="M183.7,495.5c-3.8,3.5-9,4.4-13.4,7a175.5,175.5,0,0,0-15.5,10c-1.9-.6-0.4-3-2-3.8l-0.3-3.7c0.1-1.5.6-3.5-.8-4.4-4.5-3.1-4-7.5-3.9-12,6.7-3.5,14-4.4,21.4-5.1,2.7-.3,4.3,1.3,6,3.1l8.5,8.9"/>
        <path class="cls-123" d="M151.2,625.1c0.4,6.8-2.3,13-3.6,19.5-2.8-1.3-1.6-5.3-4.7-6.3h0c-0.1-5.6-3.3-9.9-5.7-14.6,1.6-2.7,3.9-1.9,6.2-1.2s4.2,2.1,6.6,2.3l1.1,0.2"/>
        <path class="cls-124" d="M150.1,624.9c-4.5,2.1-8.3-3.4-12.8-1.1l-4.8-7.6c7.3-2.1,10.9,3.3,15.4,6.7l2.2,2"/>
        <path class="cls-61" d="M222.4,543.1c5.5,8,11.3,15.9,14.5,24.9,4.3,12,13,18.2,24,22.5,3.5,1,6.9,2.4,10.4,3.4,1.1,0.3,2.3,1.4,3.3.8,8.5-4.9,9.7,3.4,13.3,7.3a5.7,5.7,0,0,1,1.2,2.7c0.1,2.3-.2,4.4-3,5-4.6-2.4-9.6-.6-14.4-1.1s-7.4.9-10.9-1a6.7,6.7,0,0,1-1.4-1.9c-3.5-10.7-10.5-10.8-18.8-7.8-6.7,2.4-13.7,3.8-20.4,6a12.8,12.8,0,0,0-5.2,2.3c-2.6,2.6-2.1,5.2-.1,7.8s1.6,2.3.8,3.8c-7.1,5.6-14.6,10.3-24,10.7-4.6.2-7.4,2.8-9.8,6.6s-4.3,8.1-9.4,9.3c-1.8-.1-2.4-1.5-2.4-2.8-0.3-5.2-1.4-10.5.2-15.7-1.5-5.7,3-8.6,5.8-12.1,14.7-18.4,27.3-38.1,39.2-58.3,2.4-4.1,4.6-8.2,7-12.3"/>
        <path class="cls-117" d="M121.4,664.4c-7.2.1-13.6,3.9-20.9,3.7H93.3c5.4-7.3,10.5-14.2,15.5-21.2,1.2-1.7,3-3.3,2.3-5.8,3.4-4.8,6.8-9.7,10.4-14.4s5.6-4.9,8,1.4,3.6,10,5.3,15,2.7,8.6,5.2,12.5,0.8,3.4-1.7,4.1l-16.9,4.8"/>
        <path class="cls-125" d="M152.5,514.1c4.3,4.2,3,10.2,4.5,15.2,2.9,10.1,4,20.7,6.8,30.9,1.8,6.6,1.2,13.7,2,20.6,1.5,12.9,4.7,25.6,3.2,38.8-3.4,1.6-5.1,5.2-8.3,7.1l-1.2-2.3c-2.2-7.9.2-16.2-1.7-24.1-2.3-9.4-1.3-19.1-2.9-28.7a85.8,85.8,0,0,1-.8-24.8c0.6-4.8.1-9.5-3.5-13.2-1.1-5.9-4.7-10.9-6.4-16.6l8.3-2.8"/>
        <path class="cls-126" d="M286.2,609.7l2.4-4.5a1.7,1.7,0,0,1,1.7,0c6.2,5.4,12.7,10.5,18.8,16a2.4,2.4,0,0,1,.5,2.2c-4.8,5.4-1.7,10.6.2,15.9-4.3,2.6-9,.9-13.5,1.2-6.5-3.2-6.9-9.1-6.7-15.3,0.5-1.7,1.9-2.3,3.4-2.8s2.6-1.6,1.5-3.5c-2-3.7-6.8-5-8.2-9.3"/>
        <path class="cls-127" d="M219.2,602.7c8.4-2.5,16.7-5.3,25.2-7.4s15.3,1,16.6,12.3l-15.2-2.4c-8.8-1.3-16.2,1.7-22.9,7.2-2.3.2-5,3.3-6.8-.1s-0.6-7.2,3-9.6"/>
        <path class="cls-128" d="M142.9,638.3c0.3,6.5,5.1,11.3,6.3,17.5-3.9,2.8-6.8,1.9-8.6-3.1-3.1-8.5-6.2-17-9.4-25.5-0.6-1.6-1.6-3.1-2.3-4.8s-3.7-1.1-.9-3.2,3-1.3,4.4.4c3.5,4.6,5.6,9.9,8.2,15,0.6,1.3.3,3.3,2.4,3.6h0"/>
        <path class="cls-129" d="M150.6,533.5c3.3,1.4,4.6,3.9,4.4,7.5s0.3,7.9-.1,11.9c-1.3,12.9,1.4,25.7,3.1,38.2s1,22.2,1.5,33.3c-2.4-1.6-1.9-4.1-2.1-6.5q-2.2-28.7-4.3-57.5c-0.3-3.6-.7-7.2-0.2-10.7,0.9-5.7-.2-11-2.4-16.1"/>
        <path class="cls-130" d="M160.8,626.6c2-3.2,3.1-7.5,8.3-7.1,1,2-.7,4.6,1.4,6.3,2.4,6-.3,12.6,2.2,18.5a8.9,8.9,0,0,1-5.9,3.1c-0.2-7.5-2.9-14.3-6.1-20.9"/>
        <path class="cls-131" d="M294.4,619c2.4,3.1,2.1,3.5-3.9,5.4-4.5,2.4-8.5.3-12.4-1.5s-7.5-2.2-11.4-.5-7.1,1.9-7,6.7a2.1,2.1,0,0,1-1.5-.2c-3.8-3.4-3.4-5.7,1.6-7.3a61.3,61.3,0,0,0,8.1-3.4,9.8,9.8,0,0,1,10.5.8c4.9,3.2,10.2,3.5,15.7,1.6l0.4-1.6"/>
        <path class="cls-132" d="M219.2,602.7a3.4,3.4,0,0,1-.5,1.6c-2.8,2-2.4,5.1-1.5,7.4s3.9-.5,5.7.6l-7.1,5.3-1.5-3a10.3,10.3,0,0,1,0-9.7c1.6-.7,2.6-2.7,4.8-2.3"/>
        <path class="cls-133" d="M83.8,72.9a3.7,3.7,0,0,1-1.6-.6,0.7,0.7,0,0,1,.6-1.2c2.6,0.1,5.1.4,7.7,0.4H567.1c1.9,0,3.9.2,5.8,0.3a0.6,0.6,0,0,1,.1.5,1.7,1.7,0,0,1-.3.5H83.8"/>
        <path class="cls-134" d="M381,118.1c1.8,0.9,2.8,2.8,2.3,3.5-4.4,6.3,2.7,14.3-3,20.4-0.4.5,0.1,1.9,0.2,2.9,1.3,10.7,3.8,21.3,1.5,32.2a10.5,10.5,0,0,0,.6,5.2c2.8,8.2,4.7,16.4,1.3,24.9-0.5,1.3.2,2.3,0.6,3.4s1.5,3.2.9,3.9c-5.2,7.6.4,17.6-5.7,25.1-2.7,3.3-2,6.7.9,10.1s3.4,5.7,4.8,8.8c0.6,1.4,1.1,3.6.4,4.5-2.7,3.8-3.1,8.1-4.1,12.5s-0.9,7.7,1.3,11.6c3.1,5.7,1.6,12.4,2.8,18.6,0.9,4.4,1.9,10.4.5,13.3-4.5,9.4,2.9,18.3-.9,27.1-2-1.9-1.6-4.5-1.8-7s1.5-8.4-3-11.4c-0.9-.6-0.5-1.8.1-2.7,5.3-7.2,2.6-15.3,2.2-22.9-0.3-6.1-.3-12.6-4.2-18.1-1.4-2-1.2-5-.2-7.5,1.7-4.6.7-9.6,4.5-14.1,2.4-2.9-1.7-7.9-4.3-10.8-4.3-4.8-3.7-9.2-1-14s4.2-8.4,2.3-13.5a5.3,5.3,0,0,1,1-5.6c2.4-2.5,2.1-5.2.7-8.1-0.4-.9-0.9-2.3-0.5-2.8,3.8-5,.8-10.3,1-15.4,0.1-3,.3-5.8-1.8-8.4a5,5,0,0,1-.9-3.9c2.4-8.5-.9-16.9,0-25.4a17.5,17.5,0,0,0-1-7c-1.2-3.6-1.3-6.9.9-10.2,0.8-1.3,1.7-3,.8-4.5-2.8-4.9-1.2-9.4.7-14.6"/>
        <path class="cls-134" d="M312.6,117c2.1,1.5,1.7,3.6,1.7,5.5-0.1,15.3.1,30.7-.6,46-0.2,5.4-1.9,10.5.7,15.8,0.9,1.9.3,4.5-.8,6.8-4,8-2.2,14.8,5.2,20.2,5.3,3.8,5.8,10.5,1.2,16.7-3.3,4.4-7.9,8.1-6.7,14.5,0.3,1.6.5,3.1,0.9,4.7,4.1,15.1,5,30.2,4.6,46-0.3,11.4-2.9,23.1-.1,34.7,0.5,2.2,1.5,4.6-1.3,6.9a75.5,75.5,0,0,1-1.2-27.6,32.4,32.4,0,0,0-.1-11.1c-1.1-5.7,2.1-11.4.9-17.4-2.1-10.4-1.5-21.1-5.2-31.3-2-5.5-1.8-11.3,2.6-16.1a41.2,41.2,0,0,0,4.7-6.1c3-4.9,1.8-9.5-3-12.6s-9.2-14.3-5.5-20.7c1.3-2.4,2.6-5.1,1.5-7.3-4.5-8.4.5-16.9-.8-25.3-0.8-5.6,2.8-11.6-1.3-17,4.7-7.9-.1-16.7,2.7-25.1"/>
        <path class="cls-135" d="M107,141.8c3.9-1.9,7.9-6.7,11.7.3,1,1.8,2.5-.2,3.7-0.1,3.1,0.3,7.5-2,6.8,4.7-0.3,2.6,2.5.4,3.9,0.3s6.3-2.4,6.3,3a2,2,0,0,1-1.5,2.3c-1.7.3-.8-1.1-1.1-1.8-1.5-3.2-3.5-.3-5.3-0.2s-2.7,1-1.8,3.5c2.1,5.4,1.2,11,.1,16.6-1.7-3.1-1.3-6.5-1.4-9.9-0.2-8.3-.2-8.3-7.7-5.6-0.7.3-1.5,0.1-4,.3,5.2-3,4.7-8.8,10.1-10-4.6-1.2-6.7-.1-9.2,3.9s-1.8,8.7-2.2,12.9,3.2-1.6,4.5,1.2a20.2,20.2,0,0,1-10.8,6.5c1-3.1,6.4-5.3.9-8.3-0.6-.3,3.7-3,2.4-4.6s-1-4.7-.5-7.1-0.2-1.8-1.6-1.8-0.4,2.5-1.8,3c-4.8-5.1-4.8-5.1-2.5-7.1,4.6,1.3-1.7-2.4.9-2"/>
        <path class="cls-136" d="M573,74c1.8,1.8,1,4.1,1,6.2q0.1,133.6,0,267.2c0,2.1.8,4.4-1,6.2-0.1-13.3-.2-26.6-0.2-39.9q0-117.2,0-234.5c0-1.8.1-3.6,0.2-5.3"/>
        <path class="cls-137" d="M518.3,132.1c3.7,4.6,1.4,9.6,2.4,14.1,0.2,1.1-1.3,3.1,1.2,3s3.2-.1,3.3-2.4,2.9-6.5,2.4-10.3c-0.2-1.5.7-2.2,2.1-2.1s1.4,1.1,1.6,2.1c0.5,4-1.5,7.3-3,10.7,1.8,1,3.4-.1,5.1-0.3s4.7-1.6,6.6.8,0.1,4.9-.9,7.1-1.8,3.1-3.9,3.1c-1.4-2.8,1.4-4.7,1.7-8-9.6,2-18.9,4.1-28.3,6-1.9.4-1.6,1.1-1.1,2.3a4.7,4.7,0,0,1-.4,4.7c-2.2-.8-2.5-3.1-3.7-4.7s-2.8-2.2-1.8-4,2.3-.4,3.6,0,2.1-.9,2.5-1.9-1.1-1.1-1.6-1.7c-1.7-2.3-6.8-4.6-4.3-7s4.7,2.7,6.5,4.9,3.7,3.2,6.5,2.4,2-3.5,2.2-5.4c0.5-4.4-1.3-9,1.4-13.6"/>
        <path class="cls-138" d="M514.3,174.9c0.1-3.9.5-7.3-1-10.1s-1-5.2,2.9-5.9c2.1-.3,4.2-1.2,6.3-1.7,6.8-1.8,9-.4,9.7,6.5,0.5,5.1-.5,10.3,1,15.3a1.8,1.8,0,0,1-1.3,2.3c-4.8,2-9.9,3.5-15,2s-0.8-6.3-2.6-8.4"/>
        <path class="cls-22" d="M440.3,332.4c-1.9-.6-1.8-1.6-1.4-2.6,5-10.9,1.3-22,1.1-33-0.1-5.3-1.2-10.8.8-16.1,1.2-3.3-.1-7.6-1.5-9.6-3.6-5.1,1.7-10.5-1.9-15.4-1.3-1.8,1.9-4.4,1.5-7.8s2.1-7.6-1.6-11.2c-0.9-.8.3-2.8,1.8-3s0.5,1.3.8,1.8c4.1,6.5.9,12.9,0.8,19.5s-1.4,11.5,1.5,16.9,0.8,12,.5,17.7c-0.5,9.4,1.3,18.5,1.7,27.7,0.2,5.8-2.5,10.2-4.1,15.2"/>
        <path class="cls-139" d="M257.5,249.5c0.1-5.7-2.1-11.1-1.5-17,1-10.1-1.8-20.2-1.1-30.2s0-19.1-3.2-28.2c-0.5-1.6-.7-3.3.5-4.5,5.1-5.6,1.6-10.9-1.3-15.4-1.9-2.9-.8-4.1,1.2-6.6-0.3,4.1,2.1,6.6,3.2,9.7s3.9,8.5-.6,12.9c-2.1,2.1-.2,5.1.5,7.3,1.9,7,3.1,13.8,2.3,21.3-1.3,12.8,1.8,25.6,1,38.5-0.2,4,2.3,8.2-1,12v0.2"/>
        <path class="cls-140" d="M519.3,243.9c-3.6,1.3-3.5,7-6.5,5.1s0.6-5.1,1.9-7c3.5-5.1-.6-9.2-1-13.7-0.1-1.4-2.4-2.9-.5-4.2s3,1.4,4.5,2.5c1.2-3.3-1.2-7.1,1.5-10,2.2,1.2,2.4,3.2,2.4,5.3a289,289,0,0,0,2.4,36.6c0.2,1.6,1.7,4.5-1.5,4.7s-1.9-2.5-2.1-4.2c-0.4-4.9-1.9-9.7-1.2-15.2"/>
        <path class="cls-141" d="M421.1,117.3c5.2-4.3,8.8-11.3,17-5.9-1.4,1.8-3.9,2-5.9,2.7s-2.3,1.8-2.1,3.5,0,2.5,1.6,2.7,2.4-1,3-2.3a3.8,3.8,0,0,1,3.5-2.6c-1.1,2.7-1,4.3,2.3,5.5,4.9,1.7,4.9,6.3,3.3,10.5s-4.5,7.8-8.7,11.1c0.7-4.7,3.9-7,5.6-10.1,2.7-5.1,1.5-9-2.8-9.9-1.9-.4-3.9.4-3.8,1.7,0.2,5.1-5,5.3-7,8.4-0.8,1.2-2.8,2.7-4.6,1.1s-1.2-3.4-.4-5,1.9-3.3,3.3-4c3.8-1.8,3.1-5.1,2-7.4s-3.5,1.4-6.2-.1"/>
        <path class="cls-139" d="M534.7,238.3c-1.2,6.6-.4,13.9-6.4,19,0.1-6.9,2.6-13.4,2.9-20.3,0.2-3.6.4-6.6-5.3-6.2,2.3-2.9,6.9-3.5,4.7-7.8-0.2-.5,1.9-1.6,2.2-0.8,3.2,7.8,8.8,2.5,13.4,3a4,4,0,0,0,.3-1.2c-0.3-2.1-3.1-5.4-.4-6s3.6,4,4.9,6.4,0.4,3-2.7,3.5-6,1.8-8.9,2-4.5,1.7-4.6,4.7a2.8,2.8,0,0,1-.1,3.7"/>
        <path class="cls-142" d="M82.5,225.2a4,4,0,0,1-2.1-3.9c3.2-47.7,1.6-95.5,2-143.3,0-1.4-.2-2.8,1-3.9,0,25.9,0,51.8.2,77.7,0.2,22.9.2,45.8-.4,68.7,0,1.6-.4,3.1-0.5,4.6"/>
        <path class="cls-143" d="M112.8,196.1c-4.6-3.2-3.7-8.9-6.2-13.5,3.2,2.3,5.7.5,8.4-.3,4.8-1.3-.3-5.5,3.1-7.6,0.8-.2,1,1,1.1,2.2,0.1,3.8,1.8,4.9,5.3,3.6,1.6-.6,3.7-1.3,4.9.5a4.8,4.8,0,0,1-.2,5.6c-2.3,3.2-1.4,8.4-6.6,9.9-2.2.6-1.1,3.1-1.1,4.7s0,4.9,0,7.5c-3.3-.8-2.1-3-2.3-4.5s-0.2-3.5-.3-5.3c-2.1-1.1-6.5,3.1-6.1-2.9,4-.9,4.5-3.6,3.7-7-0.2-.9-0.5-2-1.8-1.8s-1.4,1.1-1.4,2.2,2.4,4.7-.4,6.8"/>
        <path class="cls-144" d="M106,113c3,3.3,2,6.1,2.7,8.6,1.9-.6,3.9-1.5,5.8-1.7,6-.4,7.6-3.2,7-9.1-0.4-4-.9-5.4-5.1-3.7-1.9.8-3.8,2.1-7.9,1.2,4.7-3,8.3-4.7,12.6-4.5,2.2,0.1,2.5,2.3,2.7,4,0.5,6.5.9,13,1.3,19.5,0.2,3.6-.7,5.5-5.1,5-2.6-.3-5.4,1.1-8,1.8s-6.1-.1-6.1-4.5,0-10.3,0-16.7"/>
        <path class="cls-145" d="M496.6,304.1c5.3,6.8,11.9,11.7,18.9,16.4-8.4-1.5-14-7-19.6-13.2-2.4,3.8-1.9,9-6,11.6a1.9,1.9,0,0,1-.3-2.8c3.7-4.5,1.9-10.2,3.3-15.2,0.8-2.7-2.7-.5-3.3-2.5,2.9-1.5,4-4.1,3.4-7.5,5,1.4,5,8.3,10.8,8.3-1.5,3-5,2.6-7.2,4.9"/>
        <path class="cls-146" d="M491.8,278.7c-1.7,3.7-5.2,3.2-8.6,3.9-0.8-2.1,2.6-2.7,1.2-4.9-4,2.2-5.3.3-5.9-3.8-0.3-1.8-2.3-3.3-3.5-5.5,5.7,3.2,9.2-1.5,13.5-3.2,2.5-1,5.3-3.3,7.7-1.4s0.4,4.8-.4,7.2-0.2,6.5-3.9,7.8l-0.5-.7,0.6,0.5"/>
        <path class="cls-135" d="M534.7,238.3v-3.7c3.9,0,5.2,3.2,6.8,5.7,4,6.1,8.8,11,15.9,13.2,1.1,0.3,2.6.4,2.1,2.1s-1.8,1.8-3.3,1.3a29.6,29.6,0,0,1-15.8-11.7c-1.7-2.5-2.8-5.6-5.8-7"/>
        <path class="cls-147" d="M490.3,242.9l1.6-7.8c-6.1,1.3-11.5,2.6-17,3.5-3.3.5-5.2,1.6-3.3,6.3-3.9-2-3.7-5.6-7.6-7.8,9.4,1.1,16.2-3.1,23.7-3.6,2.1-.1,5.3-3.6,6.4.2s0.8,7.6-3.9,9.1h0.2Z"/>
        <path class="cls-148" d="M159.2,158c-0.2,5.3,1,8.7,3.5,11.6s1.3,3.7.8,5.7c-1.9,7.4-4,14.7-4.4,22.3-2.8,0-2.5-1.7-2.4-2.8,0.5-3.9.8-7.9,2-11.6,1.9-5.9,4.1-11.4-1.1-17-1.3-1.4-1.1-4.5,1.6-8.1"/>
        <path class="cls-149" d="M472.7,260.6c2.4-3.6,9.5-.8,9.7-7.4,0.1-2.9-2.9-.5-3.1-2.5,1.7-2.6,4.7-1.6,7.4-2.1-1.4,2.4-2.6,4.5-1.5,7l9.8-1.3a1.5,1.5,0,0,1,1.9,1.7,1.6,1.6,0,0,1-.9,1.2c-7.4-1.1-13.5,3.7-20.5,4.5-0.8.1-2,.3-2.6-1"/>
        <path class="cls-150" d="M450.9,211.5c-3.2-.5-4.8,3.7-6.7,2.6s0.7-4.4,1.1-6.6c1.4-8-4.1-5.1-8.1-5,2.2-3.8,10.3-1.6,8.5-9.3,2,2.3,7.3,2.5,2.6,7.9-2,2.3-2.3,7.5,2.6,10.4"/>
        <path class="cls-151" d="M434.4,189.3c0.6-5.8-3.2-11.6-.1-17.5,1.3-2.6,3.1-2.6,5.3-2.4s3,0.6,3.1,2.2-2,3.1-3.8,3.8-2.9,2.6-2.8,5,0.3,6.1-1.8,9"/>
        <path class="cls-19" d="M191.7,171.4c-0.3,11.6,1.4,23.3-2.5,34.7V171.3h2.5"/>
        <path class="cls-150" d="M251.7,145.4c0.3-5.3-1.7-10.9,2.9-15.2,1.2-1.1.9-3.8-.4-5.6-3.2-4.6-.8-8.4,1.8-12.4-2.2,6.1,2.7,12,1.1,17.1s-3.2,10.9-5.4,16"/>
        <path class="cls-139" d="M437.4,144.7c3.4,3.5.7,7.8,2.6,10.5s7-.8,7,5c-3.6-1.6-7.7-4.5-7.4,2.9,0.1,1.7-1.6,1.8-2.6,1.2s-3.7-4.4-2.7-5.2c4.5-3.9,1.8-9.2,3.2-14.3"/>
        <path class="cls-152" d="M490.7,308.6c-3.5,1.4-3.8-1.1-5.6-1.3-1.3,4.8.9,10.1-1.6,15.5-0.7-1.1-1.2-1.5-1.2-1.9-0.5-8.3.6-16.6-1.2-25,4.3,3.6,3.2,10.2,9.5,12.7"/>
        <path class="cls-153" d="M186.2,124.6a50.1,50.1,0,0,1-.3,5.8c-0.6,3.3-.3,5.8,3,8s4.3,7,2.5,13.1c-1.6-6.2-3-10.2-6.9-13.8s-0.9-8.9.2-13.4l1.5,0.2"/>
        <path class="cls-147" d="M428.2,163.4c-0.5-5.6-1.8-11.1-.9-16.7,0.3-1.7.7-3.2,2.7-3.1s3.2,0.3,3.7,1.2-0.6,3.2-1.8,3.8c-2.8,1.5-2,3.9-2.2,6.2s0.7,6-1.7,8.6"/>
        <path class="cls-154" d="M528.3,188.2c2,0.1,2.8,1.7,3.9,2.8a29.5,29.5,0,0,1,4.2,4.9c1,1.6,4.1,3.4,1.9,5.2s-3.4-1.6-4.8-3-3.9-4.4-5.9-6.7-1.5-1.5-.6-2.5a4.6,4.6,0,0,1,1.3-.8"/>
        <path class="cls-155" d="M429.8,213.6c0-6.7-.6-12.3,1.3-18.9,3.4,11.5,3.4,11.5-1.3,18.9"/>
        <path class="cls-156" d="M516.5,196.7c-1.1-.2-1.8-0.3-1.9-1.4s6.1-8.4,6.8-8.4a1.5,1.5,0,0,1,1.5,2c-0.7,3.9-3.8,5.7-6.4,7.7"/>
        <path class="cls-157" d="M378.7,115.7c-3.4-4.4-1.9-8.6,4.4-13.1-0.2,5.1-5.9,7.9-4.4,13.1"/>
        <path class="cls-158" d="M479.5,304.4c1,4.1.5,7.9-2.6,12.2-1.1-5.1.6-8.6,2.6-12.2"/>
        <path class="cls-159" d="M189.3,155.5c0.6,3.2-.2,6.3,1.4,9.8-4.7-3.2-4.9-5.4-1.4-9.8"/>
        <path class="cls-160" d="M490.1,242.8c1.6,1.3,1,2.2-.5,3.1s-3.8.1-5.4-1.1-1.7-1.7-1-3,1.2-.9,1.9.1,3.2,1.8,5.2,1h-0.2"/>
        <path class="cls-161" d="M473.8,248.6l3.8-7.7c1.9,3.9,1.5,5-3.8,7.7"/>
        <path class="cls-162" d="M440,179.2c2.2-2.7,4.5-3.2,7-2.2a1.5,1.5,0,0,1,.5,1.4c-0.2.8-2.3,1-7.5,0.8"/>
        <path class="cls-163" d="M107,141.8c-0.1,3.2,4.5-1.6,4,2.4-0.1,1.3-1.1,1.6-1.9,1.9s-2.5-.9-3.1-2.3-0.2-1.7.9-2"/>
        <path class="cls-164" d="M482.4,700.3c-5-.8-7.2-5.6-11.4-7.5-1.4-.6-2.4-2-4.1-2.2a41,41,0,0,1-7.3-4.5c-9.2-5.1-16.9-13-27.9-14.9-2.5-.4-5-0.5-7.6-0.9,3.3-5.6,8.9-5.6,14-4.5,15.4,3.5,29.6,10.1,43.4,17.6,2.1,1.1,3.5,2.9,3.3,5.3s0.5,7.5-.7,11.2a1.2,1.2,0,0,1-1.7.4"/>
        <path class="cls-165" d="M357.3,683.9c0-3.4.4-6.8-.1-10.1-0.9-5.9,3.1-8,7-10.4,1.5-.9,2.3-0.8,2.7,1.3s1.2-.3,1.9-0.2c3.3,1.6,4.1,4.7,4.3,7.9,0.3,4.7.6,9.5-.3,14.2-3.9,4.7-8.4,6.4-13.2,4.8-3-1.9-2.3-4.9-2.3-7.6"/>
        <path class="cls-166" d="M483.3,700c2.8-10.6-1.6-16.3-11.6-20.2s-21.4-8.9-32.4-12.5c-5.7-1.9-10.3.7-15.1,3h-1.5c-0.8-.6-2.2,0-2.6-1.4,1.5-1.9,3.8-3.3,4.1-6l1.6-.7a33.1,33.1,0,0,1,16.8,2.2c9,3.7,18.1,6.9,27,10.8,6.7,3,6.8,2.8,9.1-4l1.1-3.4c1.6-3.3,1.6-7.2,3.4-10.4a1.8,1.8,0,0,1,2.5.3c0.5,13.5.8,26.9-.1,40.4-0.7.8,0.1,3.3-2.4,2.1"/>
        <path class="cls-167" d="M420.3,669.1l2.4,1.1c-31.8,12.2-63,26.2-95.5,36.6l-0.5-1.4,27.9-11.1c1.8-.7,3.8-1.2,5-2.9a22.3,22.3,0,0,0,12.3-4.6,10,10,0,0,1,4-2.4c13.2-5,26.1-10.4,39.2-15.5a8,8,0,0,1,3.5-.7,2.7,2.7,0,0,1,1.6.8"/>
        <path class="cls-168" d="M483.3,700l2.4-2.1c-1.5,10.5-3.5,20.8-6.9,30.9-1.7,1.3,1,4.5-2.3,5a3.5,3.5,0,0,1-1.1-1.5c-1.1-6.9-1.2-7.2-7.7-4.9-4.9,1.7-9.9,2.2-14.4,0-8.7-4.2-17.9-4.2-27.1-4.1-2.6,0-5.7.7-7.4-2.4a2.6,2.6,0,0,1,.4-1.9c2.4-1.7,5.3-1.5,7.9-1.1a47.2,47.2,0,0,0,10.3.2h0.5c4.8,0,9.2,1.6,13.6,3.4s11,2.9,16.7.4a8,8,0,0,1,5.8-.5c4.3-.4,6-2.7,6.5-7.1s2.4-9.2,2-14l0.9-.3"/>
        <path class="cls-169" d="M473.9,721.4c-8.9,4.8-17.7,5-26.8.2-2.9-1.5-6.1-2.4-9.2-3.5,12.3-1.8,24.4-2.2,36,3.3"/>
        <path class="cls-170" d="M419.2,719.4c0,0.4,0,.7,0,1.1a2.5,2.5,0,0,1-1.4,1c-9.1.1-18.4,0.9-27-3.2-11,1.3-22.4-1.8-33,2.3-6.2,2.4-12.7,2.5-18.7,4.8-1.8.7-3.7,1.6-5.5,0.1,22-8.3,44.7-10.8,68-8.5,6.1-.8,12.1-1.3,17.6,2.4"/>
        <path class="cls-171" d="M419.2,719.4L401.6,717c1.4-3.7,4.6-2.8,7-2.2a19.9,19.9,0,0,0,10.4,0c6.4-1.7,12.4,1,18.6,2.1l-0.2,1.1c-3.6,3.3-7.8,1.3-11.7,1.4h-6.4"/>
        <path class="cls-172" d="M459.6,686.1c2.9,0.7,5.9,1.4,7.3,4.5-3.7.5-6-1.2-7.3-4.5"/>
        <path class="cls-173" d="M181.2,724.6l-0.2-7.5c3.2-1.6,6-4,9.9-3.7-2.5,4.3-6.2,7.7-9.7,11.2"/>
        <path class="cls-174" d="M309.6,623.4c-7.1-6-14.5-11.5-21-18.2-1.9-2.5-3.8-4.9-5.6-7.5s-2.3-4.5-7-2.7-10.5-1.3-15-4.6c0.6-.9,2.3-2.4,2.5-1.7,0.9,3.5,4.3,2.1,6.2,3.5s4.5,3.1,6.4,1.1,0.8-5.1-.3-7.1c-6.2-10.7-9.5-22.2-11.8-34.2a2.3,2.3,0,0,0-.8-0.8c-2.3-4.2-4.2-8.5-.8-13h1.9c1.7,1.2,1.6,3.1,1.7,4.8,1.7,19.8,8.3,37.7,20.5,53.4,1.5,2.2,3.6,4,5.3,6.1,17.5,19.2,39.1,30,65.1,31.7,3.8,0.2,7.5,0,11.3,0a76.8,76.8,0,0,0,20.4-3.9c24.5-7.5,43.2-22.2,55.5-44.8,1.7-.7,2.8.1,3.6,1.5,7.2,6.8,14.2,13.8,19.1,22.6a1.8,1.8,0,0,1,.3,2.4c-1.3.7-2.2,0-3.1-.8a20.9,20.9,0,0,1-1.4-1.9c-5-6.7-5-6.7-11.6-1.8-1,.7-1.9,1.4-3.2,1a2.7,2.7,0,0,1-.6-1.5c0.3-2.4,1.9-3.9,3.6-5.3,4.2-3.4,1.6-5.6-1-8s-4.4.2-5.8,2.1c-10,14.1-22.6,25.3-38.3,32.7l-6.7,3.3c-2.2.7-4.3,1.7-6.4,2.6a56.5,56.5,0,0,1-11.7,2.9c-5.4.4-10.8,3-16.3,0.5l-14.3-.5c-14.4-2.3-27.7-7.5-40.6-14.2"/>
        <path class="cls-175" d="M258.1,628.9l1.4-.2c4.6-.3,6.7,4.6,10.8,5.3a33.7,33.7,0,0,0,15.7,3.7,35.5,35.5,0,0,1,9.2,1.3l14.6,0.2c4.2,0.6,8-1.6,12.1-2.2s5.4,1.2,3.6,5-4.3,6.4-8.7,7c-2,.3-3.8,1.4-5.7,2.2-8.9,1.6-17.3,5.5-26.5,4.9-2.3-.1-5,0.6-5.6-2.7s2.6-3.2,4.6-3.9c8.1-2.9,16.5,0,24.7-.8,6.3-.6,13-1.1,16.1-8.9a10.9,10.9,0,0,0-6.4,0,97.1,97.1,0,0,1-39.9.5c-7.7-1.5-15.2-4.4-19.9-11.5"/>
        <path class="cls-61" d="M392.9,633.4a11.4,11.4,0,0,1,6.4-2.4,7.8,7.8,0,0,1,3.3,2.6c4.6,7.3,8.8,14.9,11.1,23.3,1.2,4.4,5.3,7.4,5.4,12.1l-42.8,16.9c-1.5.6-2.8,1.5-4.5,1-0.9-7.5,1.3-15.4-3-22.4,0.9-2.1-1.1-3.8-.7-5.8,6.2-5,12.7-9.6,18.4-15.2,3-3,5.5-6,6.3-10.2"/>
        <path class="cls-7" d="M392.9,633.4c1.7,2.1,1.2,4.2-.4,5.8-7.2,7.6-14.1,15.7-24.3,19.6L364.8,641c5.2-2.4,11.3-1.9,16.3-4.8l11.8-2.8"/>
        <path class="cls-176" d="M381.1,636.1c-4.7,4.1-10.3,5.3-16.3,4.8l-0.3-2.9,16.6-1.9"/>
        <path class="cls-177" d="M390.8,718.3l28.4,2.2c5.5,1.9,11.4,1.7,16.9,1.1,7.4-.8,13.2,3.3,19.8,5.1,4.5,1.2,8.5.5,12.6-1.1,8-3.1,8.3-2.9,7.8,5.5,0,0.8-.1,1.6-0.2,2.4,0.8,4.4-.7,7.5-4.7,9.4a24.1,24.1,0,0,0-5.6,4h0.1c-6.3,4.1-12.8,7.9-20.1,9.7-5.6,2.4-11.6,4.3-16.4,8.2-2.9,3.9-5.1,8.4-9.8,10.7-6.5.7-13.7-2.3-14.7-6-2.9-6.1-2.1-12.8-3.4-19.1h0c1.3-11.4-4.7-20.5-9.8-29.9a15,15,0,0,1-.8-2.1"/>
        <path class="cls-73" d="M401.4,750.2c2.5,6.1,1.8,12.8,3.4,19.1h-1a51,51,0,0,1-2.4-19.2"/>
        <path class="cls-178" d="M419.5,775.3l9.1-10.9a1,1,0,0,1,1.5.1c-2.5,4.3-4.5,8.9-9.4,11.1l-1.1-.3"/>
        <path class="cls-179" d="M216.7,422.3a37.7,37.7,0,0,1-21.3,12.3c-2-1.2-4-.9-6.3-0.5a20.5,20.5,0,0,1-15.8-3.2c-1.7-1.1-3.3-2.7-3-4.8s2.8-2.4,4.6-3,5.6-.3,8.2-1,4.9-.5,6.1-3.1,5.2-4.9,9-5.1c1.3,1.3,2.5,1,4.1.3,8.5-3.6,12.7-1.2,14.2,8.1"/>
        <path class="cls-180" d="M190.4,419.6c0.2,3.2-2.4,3.1-4.4,3.5l-15.2,2.3c3,6.4,8.8,9,17.2,8.1,2.5-.3,5.4-2,7.4,1.2-7.6,1.3-15.2,2.2-22.1-2.6s-6.6-11.7.8-16.7c13.4-9.1,29.1-10.8,44.3-13.3,7.2-1.2,2.7,3.9,1.9,6.6-0.6.6-1.1,1.7-2.2,1s-0.9-2.3-.9-3.5c-14.8,3.4-30.7,3.2-43.8,14.6,4.8,0.8,8.5-.7,12.2-1.3,1.6-.2,3.3-1.9,4.8.2"/>
        <path class="cls-181" d="M219.2,405.3c-0.6,1.1-1.8,2.1-.7,3.4s1.3-.1,2-0.2c-1.5,4.5-1,9.6-3.7,13.7-0.4-.6-0.8-1.2-1.1-1.9-3.9-8.1-5-8.5-13-4.9-2.9,1.3-2.9,1.3-3.8-1,5.9-4.8,12.8-7.5,19.8-10a1,1,0,0,1,.7.8"/>
        <path class="cls-182" d="M135.6,409.5a0.9,0.9,0,0,1,.2-0.7c-1.2-2.6-4.2-2.7-6-4.5-4.6-4.4-4.4-6.1,1.6-8.4l16.9-6.4c2-.7,3.3-1.7,2.6-4.3,4.7,10.8-3.3,23.1-15.3,24.2"/>
        <path class="cls-36" d="M118,364.4c-0.4,2.9-1,7.6-1.9,12.3a6.7,6.7,0,0,1-4.6,4.9c-2.6.8-1.6-2.5-2.8-3.7a8.3,8.3,0,0,1-1.2-2c-4.9-8.4-2.7-15.6,6-19.9,4.1-2.1,4.6-1.3,4.6,8.3"/>
        <path class="cls-183" d="M134,362.9c6.2-2.2,12.4-4.3,18.4.1-6.2-2.3-12.3-.4-18.4-0.1"/>
        <path class="cls-184" d="M272.7,514.6c5.7-1.3,10.7,1.7,15.9,2.7,7.8,1.5,16,2.1,23.5,4.7,9.6,3.3,19.6,4.7,29.1,8.5,6,2.5,12.8,3.7,19.2,5.6a2.7,2.7,0,0,1,1.9,2,2.8,2.8,0,0,1-1.7,2c-5.5-.1-10.1-3.3-15.4-4.4l-10.5-2.9c-19.5-6-39.5-10.2-59.5-14.1-1.7-.3-3.6-0.4-4.8-1.9s1.8-1.3,2.4-2.2"/>
        <path class="cls-185" d="M272.7,514.6l-2.4,1.3a10.6,10.6,0,0,0-4.3,8.1c-0.1,1.7,0,3.6-1.9,4.7-2.8-4-5.7,1.4-8.6,0l5.3-3.5c3.4-2.1,2.4-5.7,2.5-8.6s-3.3-1.9-5.1-2.3c-9.3-1.7-18.5-3.8-28-3.2-1.2.1-3.3,0.6-3.4-1.1s1.8-2.1,3.5-1.9c9.2,1.3,18.5.3,27.7,0.2,1.3-.2,2.7-0.5,3.9.3-0.2,2.5-3.1.7-4.3,2.8l15,3.2"/>
        <path class="cls-186" d="M383.5,545.4c12.2,6.1,24.6,11.9,36,19.2,5.1,3.3,11.2,5.5,14.3,11.4a1.9,1.9,0,0,1-1.3,1c-3-.1-5-2.1-7.2-3.7a225.2,225.2,0,0,0-34.7-19.8,59.4,59.4,0,0,0-9.1-4.3c-3.4-2-8.2-1.7-10.4-6a2.2,2.2,0,0,1,.7-1.6c4.7-1.1,7.8,2.7,11.8,3.8"/>
        <path class="cls-187" d="M466.8,612.8v-3c6.1,2.6,6.3,9.4,8.8,14.1a69.1,69.1,0,0,1,6,13.7c1.9,6.6,4.8,12.8,4.1,19.9h-2.2c-2.5-1.5-2.7-4.2-3.2-6.7A111.3,111.3,0,0,0,468,618.2c-1-1.7-2.3-3.3-1.2-5.5"/>
        <path class="cls-188" d="M447.8,587.1l-4-1.2c-5.6-.7-8.4-4.5-10.5-9.1l0.6-.7c5.9,2.1,11.1,5.1,13.9,11"/>
        <path class="cls-189" d="M383.5,545.4c-4.3-.2-7.8-2.6-11.8-3.8q-0.5-.3-0.4-0.6a0.4,0.4,0,0,1,.3-0.4c0.2-2.1,2-3.1,3.2-2,2.7,2.6,6.7,3.4,8.7,6.7"/>
        <path class="cls-190" d="M465.7,746.8a2,2,0,0,1,1.5-2.2c5.2-2,7.6-6.1,8.9-11.2l0.3,0.2c1.4,1.6,1.2,3.3,0,4.9l-0.2,2.2c-1.4,1.8-.6,4.4-2,6.2l-0.3,2.1-1.5-1.3,0.2-4.1c-2.8.5-4.3,3.2-7,3.2"/>
        <path class="cls-191" d="M371.6,540.7v2.5a9.6,9.6,0,0,1-10.8-3.7l1.5-1.3c3.5-.5,5.7,3.3,9.3,2.5"/>
        <path class="cls-41" d="M505,714.6l-0.2-7.4,0.4-4.5h2.2c-0.3,4.1-.4,8.2-2.3,11.9"/>
        <path class="cls-118" d="M476.4,738.4q0-2.5,0-4.9c1.8-1.1.4-3.7,2.3-4.8-0.5,3.3,1.9,7.3-2.3,9.7"/>
        <path class="cls-118" d="M474.3,746.8c-0.5-2.4-.6-4.8,2-6.2-0.6,2.1,2.1,5.2-2,6.2"/>
        <path class="cls-192" d="M443.1,495.1c0.4,4.6-2.1,7.9-6.4,8.3s-5.5-2.8-5.5-6.4,1.2-8.2,6.2-8.5,5.8,2.6,5.6,6.7"/>
        <path class="cls-190" d="M445.2,756.1l20.6-9.4c-5.3,5.1-11,9.5-18.8,9.6a1.2,1.2,0,0,1-1.8-.2"/>
        <path class="cls-193" d="M445.2,756.1l1.8,0.2-17,8.2h-1.5c4.8-4.2,10.6-6.7,16.7-8.3"/>
        <path class="cls-105" d="M264.2,528.7c0.4-3.1.9-6.1,1.1-9.2s2.1-4.1,5-3.6l52.9,11.9c4.2,1,8.3,2.4,12.5,3.5,5.5,5,.5,9.8-1.4,13.2-10.7,19.6-24.1,37.2-41.1,51.9-2.3,2-4.4,3.4-7.4,1.3-14.1-17.3-20.5-37.4-21.6-59.4v-9.7"/>
        <path class="cls-194" d="M262.3,538.3c-1,4.4.8,8.6,0.8,13-9.4-1.3-18.5-3.4-26.8-8.3-1.4-.8-3.4-1.3-3.2-3s2.5-1.4,3.9-1.9c6.5-2.2,13.2-3.9,19.4-6.8s6.1-.7,5.7,4a17.6,17.6,0,0,0,.2,2.9"/>
        <path class="cls-195" d="M214.4,605.1v9.7c-3.5-3.2-4-6.5,0-9.7"/>
        <path class="cls-196" d="M295.2,639.2a35.4,35.4,0,0,1-26.2-4.5c-2.4-4-5.1-7.9-3.4-13,4.3-2.7,8.5-3.4,13,0s8.1,1.3,11.9,2.8c0.3,5.3,1.1,10.5,4.7,14.8"/>
        <path class="cls-197" d="M265.6,621.6l3.4,13c-4-.6-6.6-3.6-9.5-5.9-4.4-7.9,4.1-4.7,6.1-7.1"/>
        <path class="cls-198" d="M116.5,146.5c-1.6-1.4-4-2.1-3.3-4.9a1.6,1.6,0,0,1,1.3-.8c2.5,1.1,2.5,3.2,2,5.6"/>
        <path class="cls-199" d="M527.6,166.7a51.8,51.8,0,0,0-7,.9c-2.1.6-2.9-.3-3.3-2.1s-0.7-3.6,2.1-3.7,5.5-4.2,8.5-.3c0.4,1.7.7,3.4-.2,5.1"/>
        <path class="cls-200" d="M527.6,166.7l0.2-5.1c2.5,9.6.4,12.1-10.1,11.7,1.1-2.9,3.8-2.2,5.8-2.9s4.5-.5,4.1-3.7"/>
        <path class="cls-201" d="M516.9,179.2a14.5,14.5,0,0,1,8.1-2.9c1.4-.1,3.3-1.6,3.8,1s-1.8,1.8-2.9,2.2a12.2,12.2,0,0,1-9-.2"/>
        <path class="cls-202" d="M429,125.3c-0.6,2.8-1.8,5.1-4.9,6.2-0.3-3.8,3.1-4.4,4.9-6.2"/>
        <path class="cls-4" d="M112.8,196.1c1.2-1.4-.1-2.5-0.2-3.8s-3.1-4.3-1.1-6.4a5.9,5.9,0,0,1,5-1.1c3.1,0.8,1.3,3.9,1.9,6,1.3,4.8-.8,6.6-5.6,5.2h0.1"/>
        <path class="cls-203" d="M121.5,194.2c-0.4-3.1-.8-5.4-1-7.7s-0.7-2.9,1.6-3,3.6-1.7,5-.4-0.1,3-.9,4.2-1.7,4.8-4.7,6.9"/>
        <path class="cls-204" d="M117.1,121.8c3.9-.5,5.3.3,5.4,3.2s0.7,4.7-3,4.9c-1.9.1-3.8,1.2-5.7,1.2s-4.3,3.1-5.1-.6-1.5-6.7,3.4-7.6c2.1-.4,4.2-1,5-1.2"/>
        <path class="cls-205" d="M484.8,270.5c2.3-2.9,5.8-3.5,9.5-5-0.3,2.9,0,5-3.1,6.6s-4.6-.3-6.6-1.7h0.1Z"/>
        <path class="cls-205" d="M484.7,270.4a4.2,4.2,0,0,1,.2,1.1c-0.1,1.9,0,4-2.4,4.7s-1.2-.7-1.3-1.4c-0.6-2.9.5-4.4,3.6-4.3h-0.1"/>
        <path class="cls-206" d="M491.8,278.7c-1.5-.6-4.3,1.7-4.5-1.8-0.1-1.3,1.4-1.9,2.6-1.9,3.1,0,1.7,2.3,1.8,3.8h0.1"/>
        <path class="cls-46" d="M448,609l9-8.4c2.9,2.9,5.8,6.1,7.6,10.2-5.7,12.9-3.7,25.7.6,38.5,1.1,3.3,3.5,6,6.4,8.3s7.3,6,9.2,10.5l-3.6,12.6c-12.1-7.1-25.5-10.5-37.9-16.3-4.6-2.1-9.4-.2-14-1.2-6.2-4.8-6.9-9.4-4.9-16.5,4.1-15,14.6-25.4,24.5-36.3A3.5,3.5,0,0,1,448,609"/>
        <path class="cls-207" d="M480.9,668.1c-5-4.8-11-8.9-14.6-14.6-6.6-10.2-7.7-21.9-5.6-34,0.6-3.4-.3-7.2,4-8.7l2.1,2a143.3,143.3,0,0,1,16.9,44.6c0.2,3.9-1.1,7.3-2.7,10.7"/>
        <path class="cls-208" d="M419.2,669c-7.3-7.8-8.1-18.9-13.8-27.5a80,80,0,0,1-4-7.7c0.8-1.2,2-1.4,3.3-1.2,5.5,3.4,7.5,9.6,10.4,14.8s6.3,10.4,8.7,16c4.1,5.2-2.8,3.6-3.6,5.8h-1.1"/>
        <path class="cls-209" d="M423.8,663.3c-8.4-8.6-11.3-20.6-18.9-29.7a2,2,0,0,1-.2-2.4c3.2-.8,4,1.9,5.2,3.7s4.1,6.7,6.1,10.1,2.6,2.1,3.6-.3a9.8,9.8,0,0,0,.6-1.7c3.1-13.9,13.6-22.8,22.2-32.9,1.3-1.5,2.7-3.6,5.4-2.8L448,609c-3,3.4-5.8,7-9.1,10.1-9,8.8-14.3,19.6-18.3,31.3-1.9,5.6,3.4,8.5,4.7,12.8h-1.5"/>
        <path class="cls-210" d="M484.7,684.7c-6.5-3.6-6.5-3.8,0-17.2v17.2Z"/>
        <path class="cls-211" d="M360.9,539.4l10.8,3.7c3,2.5,7.1,3,10.4,4.9,1.2,4.5-.4,8.7-1.9,12.6s-1.5,8.5-2.2,12.7c-3.2,18.4-2,36.9-2.3,55.4-0.1,5.3-3.4,6.5-7.7,7-28.5,1.6-52.6-8.4-73.3-27.5-1.7-1.6-3.9-2.9-4.2-5.5,12.6-11.3,24.6-23.3,34.5-37.1,6-8.4,11.7-17.2,15.4-27,0.8-2.1,1.6-5.3,5.3-3.9l15.2,4.8"/>
        <path class="cls-212" d="M433.2,576.8c3,3.6,6.8,6.4,10.5,9.1,0.6,0.9,1.5,1.6.6,3.1-13.1,20.7-30.7,35.7-54.8,42.2-11.5,2.4-12.3,1.7-12.6-9.7-0.5-21.5,2.6-42.5,7.3-63.4,0.8-3.5,1.5-7.5,6.8-5.7,12.5,5,23.8,12.1,34.8,19.6,2.4,1.7,5,3.2,7.4,4.7"/>
        <path class="cls-213" d="M447.8,607.4c-12.9,12.2-25.1,24.9-29,44.5L405.4,631c-1.7-.9-0.7-2.1-0.4-3.2a101.2,101.2,0,0,0,41.6-38.5c3.6,2.8,8.2,5.8,8.3,9.1s-4.6,5.9-7.1,8.9"/>
        <path class="cls-214" d="M391,552.5c-3.2-.1-4.8,1.7-4.9,4.6s-1.5,6.1-2.1,9.2c-3.4,20.1-6.1,40.3-5.3,60.8,0.1,3.1,1.3,4.3,4.3,4.1s4.3,0,6.5,0c-6.7,3.6-14.2,3.8-21.5,4.5,5-1.4,6.4-4.4,6.1-9.6-0.5-10.7-.1-21.3-0.1-32s2.5-19.4,3-29.2c0.3-5.2,2.3-11.5,5-16.8,3,1.4,6.3,2.2,8.9,4.4"/>
        <path class="cls-215" d="M345.6,534.7c-2.5,1.4-4.4,2.6-3.7,6.5s-3.1,4.1-4.4,6.6c-8.6,16.9-20.5,31.5-34,44.6-3.9,3.8-7.4,8.6-13.1,10.3a11.3,11.3,0,0,1-4.6-4.9c1.7-.1,3.7.4,5.1-1.1,8-8.5,16.5-16.6,24.1-25.6s11.2-17.6,17.2-26.1c2.5-3.5,6.1-8.3,3.4-13.8l10,3.3"/>
        <path class="cls-216" d="M405,627.9a2.5,2.5,0,0,1,.4,3.2l-0.5,2.6-3.5.2a4,4,0,0,1-2.1-2.8c1.4-1.9,3.7-2.2,5.7-3.1"/>
        <path class="cls-217" d="M301.6,651.1c-6.4,4.3-13,1.4-18.7,3.7a2.2,2.2,0,0,1-1.6-1.3c-0.3-1.2.9-1.6,1.8-1.8,5.7-1.4,11.5-2.3,18.5-.6"/>
        <path class="cls-218" d="M219.2,405.3c-7.3,2-12.9,7.8-20.5,9.2a24.3,24.3,0,0,0-8.3,5,59.8,59.8,0,0,1-19.8,3.3c0.7-4.3,4.2-5.3,6.8-7.2,9.2-6.6,20.3-7,30.7-9.4,3.8-.9,7.4-2.7,11.5-2.3l0.5,0.2-0.9,1.2"/>
        <path class="cls-219" d="M335.9,621.6c-5.7-.7-11.5-1.3-15.5-6.5-2.3-3-3.3-5.7.2-8.7s6.7-3.8,9.4-.4,5.8,5.3,10.4,5.1,3.5,3.4,3.7,5.7-0.9,4.7-4,4.7h-4.2"/>
      </g>
    </g>
  </g>
</svg>
