<svg id="レイヤー_1" data-name="レイヤー 1" xmlns="http://www.w3.org/2000/svg" preserveAspectRatio="none" viewBox="0 0 577.7 714.6">
  <defs>
    <style>
      .cls-1 {
        fill: #fff;
        fill-rule: evenodd;
      }

      .cls-1, .cls-2 {
        stroke: #22b573;
        stroke-miterlimit: 10;
        stroke-width: 7px;
      }

      .cls-2 {
        fill: none;
      }
    </style>
  </defs>
  <title>5e6c1304-fa94-4d0e-ab68-9bc70b585314</title>
  <g>
    <path d="M432.8,633.2H7.2a15.9,15.9,0,0,1-3.4-1.7c-2.1-1.6-3.7-5.6-2.7-7a6.4,6.4,0,0,0,1-4.2c0-14.9-.2-29.8-0.1-44.7,0-21.7.2-43.4,0.2-65.1,0-26.3.2-52.6-.2-78.8-0.3-22.3.4-44.7,0-67,0-2.9,0-5.8,0-8.6,0-11.3,0-22.6.6-33.9,0.1-1.2.2-2.4,0.4-3.6a0.9,0.9,0,0,1,.9-0.9c0.6,0,.5.6,0.6,1a11.5,11.5,0,0,1,.2,6.2C11,313.2,19,302.9,26.6,292.4c1.5-2.1,2.6-3.9,1.5-6.5a1.1,1.1,0,0,1,.2-1.4,14.9,14.9,0,0,1,1.1,8.4,2.7,2.7,0,0,0,1.1,3,2.1,2.1,0,0,0,2.5-.4c1-.9.4-1.9-0.2-2.8s-2.4-4.1-2.2-6.7a2.3,2.3,0,0,0-1.2-2.3,3.2,3.2,0,0,1-1.9-2.6,2.2,2.2,0,0,0-1.1-1.5c-0.1,1.2,1.6,2.2-.3,3.2-7.4,3.8-14.8,7.5-22.7,10-1.6.5-1.6-.1-1.6-1.3,0-6.5,0-12.9,0-19.4,0-22.6.1-45.3,0.1-67.9,0-25.2-.1-50.5-0.1-75.7,0-4.8-.8-5.7,5-6.4a2,2,0,0,0,1.6-3.1,36.3,36.3,0,0,0-2-3.5c-1.6-2.6-1.6-2.6-4.1-1.2l-0.3-.2a0.8,0.8,0,0,1,.4-0.9c1.6-.9,1.5-2,0.5-3.4A7,7,0,0,1,2,105.2c0-2.2,0-4.5,0-6.7,0.3-12.6-.4-25.2.4-37.7,0.3-4-.3-8-0.3-12,0.2-10.8.1-21.5,0-32.3,0-2.4.6-5-1.2-7.1A2,2,0,0,1,.9,8.1,7.5,7.5,0,0,1,7.7,1.2l4.8-.2C73,1,133.4.6,193.8,1.2h29.1c33.6-.1,67.2,0,100.8-0.2,35.2-.2,70.5-0.1,105.7-0.1a15.5,15.5,0,0,1,6.2,1.2c4.2,1.8,6.5,5.1,7.9,9.3V623.5A13.7,13.7,0,0,1,432.8,633.2ZM273.3,153.4c1.2,1,1.1,2.8,2.6,3.9a8.5,8.5,0,0,0-1.5-4.2c-0.4-.7-0.8,0-1.1.4s-1.1,2.1.9,4.5A25.8,25.8,0,0,1,273.3,153.4ZM17.6,424.4c-2,.3-3.5,1.6-5,2.7a17.9,17.9,0,0,0,5-2.8,5,5,0,0,1-.1,6.6C20,428.5,20,426.4,17.6,424.4ZM272.3,146.2c-1.1-.7-1.4-2-1.9-3.1s-1-.9-1.6-0.1,0.3,2.9,1.1,4.2c0.2-1.6-1.4-2.7-1.1-4.3,1.2,0.4,1.3,1.7,1.7,2.6s0.9,1.2,1.8.6,1.2-.6.6-1.5-1.1-2.2-1.7-3.2l-0.4.2Zm18.6,144.2c0,1.7-2.3,1.8-2.7,3.6l9.6-8-0.5-.7c-1.5,2.1-3.8,3-5.9,4.2a1.1,1.1,0,0,0-.5.9c-3.2.2-5,2.5-6.9,4.6C286.3,293.6,288.2,291.4,290.9,290.4ZM222.8,418.5c4-.8,6.7-3.7,9.7-6.2-3.6,1.5-7.1,3.2-9.7,6.2-2.2.6-3.4,2.5-4.8,4C220.3,422,221.3,420,222.8,418.5ZM195.3,155.2a4.2,4.2,0,0,1,1.2,2.4c0.2,1.2.8,1.4,1.9,1.1,3.1-.7,3.5-1.9,1.4-4.9-0.4,1.1.8,2.1,0.3,3.1a1.2,1.2,0,0,1-.6-1.2c-0.4-1.9-1.5-2.2-3.1-1.3l-1.2.8c-0.8-.1-1.9.1-1.8,0.8a4.5,4.5,0,0,0,1.3,3.2c0.6,0.5,1-.1.9-0.8A12.8,12.8,0,0,1,195.3,155.2Zm55.2,110.4c2.4-1.8,2.6-2.7,1.4-5.1-2.8,1.5-3.1,5.8-7.1,6.2,0.4-1.2,1-2.5-1.3-2s-0.5-.8-0.3-1.2,1.6-1.9,2.5-2.8a6.3,6.3,0,0,0,3.4-3,10.6,10.6,0,0,1,3.8-3.9c3.1-2,5.8-4.5,7.2-8a3.2,3.2,0,0,1,.7-1.1,1.6,1.6,0,0,1,2-.6,1.5,1.5,0,0,1,.5,1.9,9.6,9.6,0,0,1-1.2,2.9l-2.1,3.6c-0.5,1-.9,2,0,2.9a2.5,2.5,0,0,0,2.9.5,9.5,9.5,0,0,0,1.8-1,14.4,14.4,0,0,0,5.5-8.7,16.4,16.4,0,0,1,.8-2.6,1.2,1.2,0,0,1,1.5-.8,1.2,1.2,0,0,1,.9,1.5,17.2,17.2,0,0,1-.8,2.6,16.7,16.7,0,0,0-.6,9c1-2.2,2.4-4.1,3.5-6.2s2.7-5.7,2.5-9,0.8-3.4,3.3-2.7c0.2,2.2-1.3,3.8-1.7,5.8-0.8,4-.3,8.1-0.8,12.2,0.7-.4,1.5-0.8,1.3-1.4-1.2-3.2.3-6.3,0.3-9.5,0-1.3.3-2.1,1.8-2.3a25.4,25.4,0,0,1,2.8-.5,0.7,0.7,0,0,0,.8-0.6,0.4,0.4,0,0,0-.5-0.6c-2.7.7-3.5-1-4-3.1s-1.5-1.6-2.6-.9-2,1.7-1.6,3.1-0.1,1.9-1.5,2-1.7.5-2.5-.2a1.4,1.4,0,0,0-2.1.2c-1.1,1.6-2.9,2.3-4.1,3.8s-1.4,2-2.3.9-1-2.6,0-3.4,3.1-3.1,5.5-3.2a1.4,1.4,0,0,0,1.5-1.5c-0.1-1.2.8-1.9,1.3-2.9a21.3,21.3,0,0,0-5.6.7c-0.4.1-1,.2-1.1-0.3a0.7,0.7,0,0,1,.8-1l0.8-.2c3.6-.7,6.9-1.7,8.5-5.5,0.4-.8,1.6-1.3,2.5-1.9s3.1-1,4.4,1.2a8,8,0,0,1,1,5.4,1.1,1.1,0,0,0,1,1.5,1.4,1.4,0,0,0,1.1,1.8,2.1,2.1,0,0,0,2.3-.7,3.4,3.4,0,0,0,.6-3.3c-0.2-.8-0.7-1.7-0.2-2.2s-0.4-2.2-.7-3.2c-0.1,1.8-.4,3.7.2,5.5a2.5,2.5,0,0,1-.5,2.9c-1.1.9-1.9-.1-2.8-0.6s-0.1-2.1-.1-3.1a8.9,8.9,0,0,0-1-4.7c-0.9-1.7-3.2-2.9-4.3-2.1s-3.9,2.1-5,4.3-3.3,3.3-5.6,2.6c0-.7,1.6-0.5.9-1.5a1.4,1.4,0,0,0-1.4-.8c-0.9.2-.6,0.9-0.6,1.5a2.1,2.1,0,0,1-.8.9l-2.7,2.7c-0.5.5-.9,1.4-1.8,1.1a1.6,1.6,0,0,1-1.2-1.1c-0.1-1,.7-1.4,1.4-1.9s4.2-3.1,4.7-5.9a2.9,2.9,0,0,1,1.2-1.7c0.6-.4,1.5-0.6,1.5-1.5s-0.9.2-1.3,0.4c-2.5,1.1-4.8,2.7-7.4,3.6-0.6.2-1.3,0.4-1.7-.3s0.3-1,.8-1.3a19.3,19.3,0,0,0,3.8-3.8l-9.6,3.3c-1.4.4-1.5,0.3-1.6-.9a0.7,0.7,0,0,0-1.1-.6,8.2,8.2,0,0,0-1.7.7,110.3,110.3,0,0,1-11.4,6.2c-0.6.3-1.1,0.4-1.4-.2s-0.1-1,.6-1.4a10.1,10.1,0,0,0,4-4.6,1.6,1.6,0,0,0-.2-2,1.5,1.5,0,0,0-1.9-.2c-2.2,1-4.6,1.2-6.8,2.3s-2.9,1.4-4,1-1.7.7-1.7,1.8c0.1,4.2,2,8.5-1.1,12.4l0.3,0.3a7.9,7.9,0,0,1,3-2.2,63,63,0,0,1,11.2-3.7,6.7,6.7,0,0,1,5.1.7c2.2,1.5,4.2,1.2,6.3.1a9.9,9.9,0,0,0,2.1-1.4,0.6,0.6,0,0,1,.9-0.1c0.3,0.3,0,.7-0.2.9s-1.7,1.1-1.5,2.1-1,3.7-3.1,4.6a4.8,4.8,0,0,0-1.8,1.4c-0.6.7-2.1,1.6-1.1,2.6s1.5-.6,2.3-1.1,1.1-1,1.6-.3-0.2,1.3-.8,1.6a18.2,18.2,0,0,0-5.3,4.1,10,10,0,0,1-4.5,2.8c0-1.1.6-2.8-1.7-1.7-0.7.3-.5-0.5-0.5-1s1.7-1.8,2.4-2.8,1.3-.6.7-1.3-1.3-.2-2-0.1a1.7,1.7,0,0,0-.5.6c-1.7,2.1-3.7,3.4-6.5,3.1a5.3,5.3,0,0,0-2.8.7c-1.6.7-3.2,1.9-5,1s-2.5-.1-3.4,1-2.9,4.3-5.1,5.9-0.6,1.6-.2,2.5a15.3,15.3,0,0,0,3.6,4.9c4.2,4.1,8.9,7.8,13.3,11.7l4.8,4.1a35.2,35.2,0,0,0-4.9-5.2c-1-.9-1.1-1.8.4-1.9s3.7-1.7,5.4-3a1.9,1.9,0,0,0,.4-3.1c-1-1.3-1.2.4-1.8,0.7a1.9,1.9,0,0,1-2.5-.3c-0.6-.8.6-0.8,1-1.1a1.7,1.7,0,0,0,.7-2,1.5,1.5,0,0,0-1.8-1.1,9.8,9.8,0,0,1-3.8,0c-0.5-.1-1.4.6-1.5-0.5s0.8-.7,1.2-1c3.9-2.1,8.4-2.2,12.5-3.5a1.2,1.2,0,0,1,1.6.6A3.8,3.8,0,0,0,242,264c-0.3,1-.4,2.3.9,2.9a4.3,4.3,0,0,0,4.9-.5c1.3-1,2-2.5,3.3-3.7,0.4,1.3-.8,2-0.6,3-1.5,1.5,0,2.2.9,2.7s2.4,2.8,1.7,4.9a9.6,9.6,0,0,0-.6,4.6c1.2-3.2,1.3-6.7,2.8-9.8a0.5,0.5,0,0,0-.4-0.8,10.7,10.7,0,0,1-2.9-1.4c-0.7.6,0.6,1,.1,1.5S250.8,266.5,250.5,265.7ZM207.5,434.5c-1.4.5-2-.8-2.7-1.5s-3.6-1.6-4.9.3-1,1.5-.5,2.3a1.6,1.6,0,0,0,2.1.4,4.6,4.6,0,0,1,3.8.1c1.6,0.6,2.2-.1,2.2-1.6,1.9-.8,3.8-1.8,4.8-3.8A10.4,10.4,0,0,0,207.5,434.5Zm79.8-174.4c0.9,2.6,3.2,4,4.9,6a14.6,14.6,0,0,0-4.9-5.9c2.1-1.7,2.4.1,3,1.6a22.6,22.6,0,0,1,.2-4c0.1-1.3-.5-1.6-1.6-1.3a14.3,14.3,0,0,0-5.3,2.5,7.2,7.2,0,0,0-2.4,2.8,1.2,1.2,0,0,0,.1,1c0.3,0.4.6,0,.9-0.2S285.5,260.8,287.4,260.2Zm-2.6,8.6h0.1c-0.1-.9-0.7-1.8-1.5-1.8s-1.1,1.1-1.4,1.9,0.6,2.4,1.5,3.3,2,3.1,4.2,3.4-0.6,1,.2,1.5,2.2-2.3,1.2-3.6A21.7,21.7,0,0,0,284.8,268.8Zm79-117.2,6-1.8c2.6-.8,4.2-4.7,2.7-7.1s-2.4-1-3.8-.8-0.6,1.4-.5,2.2a6.5,6.5,0,0,1-1.1,4.6c-0.8,1.3-2.3,1.8-3.3,2.9-2.7,0-5.4-.1-7.5-2.4C358.1,152.5,360.9,153.3,363.8,151.6ZM17.2,414.4c2.8-1,4.4-3.3,6.2-5.4a1,1,0,0,0,.1-1.2,2.9,2.9,0,0,0-4.3-.9,23.8,23.8,0,0,0-6.7,6.8c-2.3,3.9-4.8,7.8-6.2,12.2,0.4-.6,1.2-0.9,1.3-1.7,0.5-3,2.5-4.9,4.9-6.5s3.5-1.8,4.8-3.3H17.2ZM213.8,244.2c1.5-1.4,3.2-2.7,4.2-4.6s1.9-3.4,3.7-4.4a1.6,1.6,0,0,0,.6-2.6,5.2,5.2,0,0,1-.2-5.9,6,6,0,0,0,.9-4.5,14.6,14.6,0,0,1-.3-4.4,7.6,7.6,0,0,0-3.4-6.9,3,3,0,0,0,.3,2.2,27.6,27.6,0,0,1,1,9.2,44.1,44.1,0,0,1-5.8,19.6,4.6,4.6,0,0,0-.8,2.4,9.5,9.5,0,0,0-2.9,4.6A6.4,6.4,0,0,0,213.8,244.2Zm116.1-57.2c-0.6.5-1.8,0.8-1.5,1.7a2.5,2.5,0,0,0,2.3,1.5c0.8,0.1,1.7.3,1.7,1.2s1.7,4.2,2,6.5a1.8,1.8,0,0,0,1.5-1.7c1.2-4.5,2.2-9.1,3.3-13.7s0.6-7,3.9-9.7c-1.9.2-3.2,0.9-4.5,0.8a2.3,2.3,0,0,0-2.5,2.2c-0.1,1.1-.4,2.2-0.6,3.3a2.4,2.4,0,0,1-1.4,2c-2.7,1.1-3.5,3.4-4.2,5.9h0.1ZM97.9,595.7H98c0.1-1.1-.2-1.3-1.1-0.5l-6.7,6.1c-1.8,1.6-3,3.8-5.3,4.8a27.7,27.7,0,0,1,3.3-14.4c-2.1.4-2.4,1.8-2.9,3a30.4,30.4,0,0,1-3.1,5.8,45.3,45.3,0,0,1-11,10.7c-1.4.9-1.3,1.7,0.2,2.5a7.8,7.8,0,0,0,3.1.6c0.7,0,1.6-.1,1.9.6s-0.6,1.3-1.2,1.8a14.8,14.8,0,0,0-3.1,3.2h5.4a2.1,2.1,0,0,0,1.9-.8c1.9-2.7,4.2-5.1,6-7.8S90.3,605,94,603s5.5-5.4,8.1-8.6C100.2,594,99.3,595.4,97.9,595.7Zm301.3-99.3c-2.9,2.3-5.8,1.7-8.8.2a29.6,29.6,0,0,1-5.1-3,4.7,4.7,0,0,0-3.9-1,34.6,34.6,0,0,1-8.2.2,42.2,42.2,0,0,1-8.6-1.9,8.8,8.8,0,0,0,4.3,3.6,28.8,28.8,0,0,0,14.1,1.5c2.3-.3,4.2-0.3,6.1,1.4a21,21,0,0,0,4.8,2.7c2.9,1.5,5.6.9,8.3-.9a38.6,38.6,0,0,0,11.1-12c4.3-7.2,7.5-14.7,6.5-23.3a2.8,2.8,0,0,1,.4-1.6c1.4-.1,2.4-1,3.6-1.6a0.8,0.8,0,0,0,.5-1,0.8,0.8,0,0,0-1.3-.1c-1,.8-2.2,1.5-2.8,2.8-0.7-.4-0.7-1.1-0.9-1.8s-0.8-3.9-2.1-5.5c0.5,2.9,1.2,5.8.8,8.7-1.6,13.5-8,24.3-18.7,32.6h0.1ZM151.9,299.5a4.3,4.3,0,0,0-1.8,1c-1.1.8-2.4,0.7-3-.3s-2.3-1.1-3.5-.1l-2.2,1.6a74.9,74.9,0,0,0-10.1,7.9c-0.9.9-1,1.4,0.2,2.1a85.5,85.5,0,0,1,7.6,5.2c1.7,1.3,3.1,3,5.1,4s1.7,0.7,2.6-.1c7.5-6.4,10.6-14.8,11.7-24.2a1.6,1.6,0,0,0-.9-1.9,0.7,0.7,0,0,0-1,0c-0.6.8,0.3,1.1,0.5,1.6a2.3,2.3,0,0,1-.7,2.8,1.3,1.3,0,0,1-1.9-.3c-1.7-1.7-1.8-1.6-2.8.6h0.1ZM63.2,371.2l-1.4,2.3c-2,3.1-3.4,6.6-7,8.4-1.3.7-1.4,2.5-2,3.8s0.2,0.6.6,0.7c2.3,0.4,4.6.8,6.5-1.2a19.9,19.9,0,0,0,4.9-7.3c0.9-2.6,2.7-4.5,5.7-4.6s3.4,1.4,2.8,3.6a7.4,7.4,0,0,1-4.4,4.8,24.3,24.3,0,0,0-8.4,5.9c-4.5,4.7-9.8,8.6-14.9,12.7s-10.2,8.1-13.9,13.6A49.6,49.6,0,0,0,23.8,432a3.1,3.1,0,0,0,1.3-2.1c0.4-5.3,3.5-9.4,5.9-13.8,0.5-.9,1.2-1.4,2-0.7s3.2,0,4.5,1.2,1.1-.2.8-0.9,0.3-3,2-3.7a1.3,1.3,0,0,0,1-1.6,3.3,3.3,0,0,1,3.3-3.4c2.3,0.2,4.4.4,6.3-1.4a6.3,6.3,0,0,1,2.7-1.2,57.6,57.6,0,0,0,9-3.6,10.6,10.6,0,0,0,3-2.5,1.2,1.2,0,0,0,.2-1.6,1.1,1.1,0,0,0-1.3-.2l-4.5.9c-1.2.3-2.1,0.8-1.1,2.2a0.9,0.9,0,0,1-.6,1.6l-10.9,3.5c1.4-3.1,4.8-3.3,7-5.2a1.9,1.9,0,0,0-2.1,0l-5,2.1c-0.5.2-1.2,0.5-1.5,0s0.3-.9.7-1.3,2-1.7,3.1-2.5,2.1-1.9,3.4-1.9a12.8,12.8,0,0,0,9-4.3c0.6-.6,1.2-1.3,2.2-0.9s1.9-.2,2.4-1.3a4.1,4.1,0,0,1,4.8-1.9c-1.5.4-1.5,1.6-1.9,2.6a0.4,0.4,0,0,0,.3.7l0.5-.2c-0.1-1.3,1.8-1.5,1.7-2.8a2.7,2.7,0,0,1,1.4-2.4,5,5,0,0,0,2-4.2c0-6.9.5-13.8,0.8-20.6,0.1-2.7,0-5.4,0-8-4.4,2.9-4.6,7.7-5.3,12.1a2.4,2.4,0,0,0,1.5-2.4c0.2-4.2.2-4.2,2.6-6.7,0,1.5,0,3.2,0,4.8-0.1,3.9-.3,7.7-0.4,11.6,0,1.2-.5,1.7-1.7,1.3-3.5-1.4-6.2-.5-8.2,2.7l-1.5,2.3c-0.8,1.3-1.8.9-2.7,0.3s0-1.3.2-2,2.4-3.3,2.4-5.5c2.1-.4,2.8-2.3,4.1-3.6C65.5,368.4,64.4,369.9,63.2,371.2ZM41.5,309.8a1.6,1.6,0,0,1-.9-1.3,16,16,0,0,0-1.8-5.4c-0.9-2-1.4-4.1-2.4-6.2a1.3,1.3,0,0,0-.1,1.9c0.5,0.7.2,1.2-.2,1.8-6,8.7-12.3,17.1-17.6,26.3a80.8,80.8,0,0,0-9.6,25.5c-0.8,4.5-.8,4.6,3.7,3.9a138.5,138.5,0,0,0,31.9-9.1c9.9-4.1,19.7-8.7,29.4-13.3,2.4-1.1,3.9-2.5,3.3-5.3a6.9,6.9,0,0,1-.1-1.3,1.4,1.4,0,0,0-.8-1.3c-2-1.2-2.2-2.6-.3-4.1a4.1,4.1,0,0,0,1.6-3.8,17.7,17.7,0,0,1,.1-3.4c0.1-1-.6-2.8.6-2.9s0,1.8.7,2.6a1.8,1.8,0,0,0,1.7-1.2,3.2,3.2,0,0,1,3.1-2,9.5,9.5,0,0,0,5-2.4c-3.1-1.8-3.3-4.1-.8-6.5a2.9,2.9,0,0,0,.9-1.1c1.8-5.2,1.4-5.7-4-4.9a2.5,2.5,0,0,0-2.2,1.9c-1.1,2.7-2.4,5.4-3.7,8a0.8,0.8,0,0,1-1.2.6c1.7-2.7,2.2-5.8,3-8.7,0.1-.5.6-1.3-0.4-1.2s-4.6.4-6.9,0.6c-0.6.1-.7,0.8-0.9,1.3a24,24,0,0,1-3.1,5.3,7.1,7.1,0,0,1,.5-4.6c0.6-1.6.5-2.3-1.5-2.1s-3,0-4.4.1c-4.4.1-8.8,0.3-12.9,2.3a12.4,12.4,0,0,1-4.5,1.1,3,3,0,0,1-3.3-1.8,3,3,0,0,1,1-3.8l1.2-.8c2.6-1.5,2.6-1.4.4-3.5s-1.8-.7-2.6.2-1.7,2.1-2.6,3c-2.4,2.5-2.3,5.1-1.2,8.2s2.8,4.7,1.9,7.6h0ZM349.6,89.1c3.7-.3,5.5-1.6,5.6-4.1a10.6,10.6,0,0,0-2.6,2.8c-0.7.8-1.1,0.7-1.5-.2-2.2-4.2-6.2-6.2-10-8.4a14.6,14.6,0,0,0-9.2-1.4,16.1,16.1,0,0,0-9.5,4.5l0.6-2.3h-0.1l0.5-.7c0.9-.9,1.6-2.1.8-3.2s-2.1-.4-3.1,0c-4.8,1.9-9.8,2.8-14.5,4.9-1.6.8-2.4,0.3-2.9-1.3s-1.5-2.6-3.3-1.4a7.8,7.8,0,0,1-1.4.5c-2.1.8-2.2,1.2-.7,3s0.8,1.9-.8,2.3c-4.1.9-8.1,1.9-12.1,2.7s-9.9.9-14.4-2.1a7.6,7.6,0,0,0-5.5-1.2A28.4,28.4,0,0,0,255.2,87a111.7,111.7,0,0,0-12.9,9.4c-2.2,1.8-4.5,3.4-6.7,5a2.1,2.1,0,0,1-2.7.1,11.1,11.1,0,0,0-5.3-1.3,2.7,2.7,0,0,0-2.8,1.7,17.7,17.7,0,0,0-1.8,6.4c-0.2,4.7-.3,4.6-4.8,6.4l-25,10.2a2.6,2.6,0,0,0-1.6,1.8,0.8,0.8,0,0,0,.6,1c0.9,0.5,1.3-.3,2-0.7s1.5-2.1,2,.2c0.1,0.4.4,0.3,0.6,0.2a0.5,0.5,0,0,0,.3-0.7c-0.8-1.5.5-1.7,1.3-1.9s4-1.6,5.1,1.3H204a11.4,11.4,0,0,0-.2-1.7c-0.1-.4-0.8-0.7-0.4-1.3s0.9,0.2,1.3.3,3.2-1.2,2.8-1.5,0.3-1,.4-1.1a12.1,12.1,0,0,1,2-.7c0.8-.3,1.3-0.4,1.5.8s0.1,1.6,1.3,1.6,3.1-1.4,2.4-3.4-0.3-1,.5-0.9c2.4,0.3,2.6.1,4-1.5a3.7,3.7,0,0,1,2.5-1.2c0.8,0,.6,1.3.7,2,0.5,2.9,1,5.8,2.5,8.4a2.7,2.7,0,0,0,3.1,1.5,26.5,26.5,0,0,1,7.7-.3,62.1,62.1,0,0,1-6.5,2.8l-27.8,9.9c-2.4.9-2.6,1.5-1.6,3.8,1.9,4.5,3.9,9,5.8,13.6,0.8,1.9,1.7,2.3,3.7,1.7,3.7-1.1,7.2-3.4,11.4-2.2,0.3,0.1.9,0.1,0.8-.4-0.2-2.2,1.7-2.3,2.9-3.1,3.7-2.5,8.4-2.7,12.1-5.3a0.9,0.9,0,0,1,1.2,0c0.7,1.6,1.7.5,2.5,0.2a30.3,30.3,0,0,0,3.8-1.9c1-.5,2.6-0.9,1.1-2.5s-0.1-.9.4-1.2l2.3-1.1c1.6-.7,3.7-0.9,3.2-3.5a2.3,2.3,0,0,1,.8-1.2c0.6-.7-0.2-3.9-0.9-3.7s-1-.5-1.1-1a1.5,1.5,0,0,1,1-1.5,1.3,1.3,0,0,1,1.7.2,3.9,3.9,0,0,1,1,2.9c0,2.3,1.7,3.8,2.6,5.6s0.8,0.4,1.3.1l11.9-6.2c0.8-.4,1.2-0.8.8-1.8l-5.5-13.2a1.5,1.5,0,0,0-2.3-1c-4.1,1.6-8.4,3-12.4,4.8-1.7.8-2.5-.1-3.4-0.9s-1.8-1.8-1.4-3.3a9.6,9.6,0,0,1,5.4-6.6,20.9,20.9,0,0,1,11.5-1.6,21.4,21.4,0,0,0,9.8-.8,6.2,6.2,0,0,0,3.7-2.8,9.8,9.8,0,0,0-3.3,1.4c-0.4.2-.8,0.7-1.3,0.4s-2.3-.3-3.4,0l-5.2.9c-1,.1-2.3.1-2.5-1s-1-1.1-1.8-.9a7.8,7.8,0,0,0-2.9,1.2c-1.1.8-1.1,0.7-2.6,0a1.6,1.6,0,0,0-1,.2l-2,.7a0.8,0.8,0,0,1-.7-0.4c-0.2-.3.1-0.5,0.4-0.6,2.1-.5,2.5-2.3,3.4-4.2a17.8,17.8,0,0,0-5.7,2.3c-1.9,1.3-3.7.7-4.7-1.3s-0.5-1.5-1.5-1.8a27.6,27.6,0,0,1,1.3,2.6,5.7,5.7,0,0,0,2.5,3.3c3.1,1.8,3.4,3.1,1.4,6.1a26,26,0,0,1-2.4,2.7l-2,2.1a1.2,1.2,0,0,0,.9-0.2c0.5-.3,1.3-1.1,1.4-0.1s2.7,1.8.9,3.1-3.2,1.5-4.6,2.5a1.3,1.3,0,0,1-1.2-.3c-2.8-2.5-5.6-.4-8.2.3-1.1.3-1.9,0.7-2.8,0a2.9,2.9,0,0,1-1.1-2.8c0.1-1,1.7-2.7-1-2.8a1.4,1.4,0,0,1-.1-0.7c0.7-2.1.2-4.3,0.7-6.5s0.4-1.9,1.8-2.1,2.1-1.9,2.1-3-1.5-1.5-2.7-1.3-1.2,0-.9-0.9-0.2-1.2-.5-1.7-0.2-1.7,1.1-1.7c4.1,0,5.1,1.2,4.2,5.2,0,0.2-.1.4,0.2,0.4a11.6,11.6,0,0,1,6.8-5.5,8.4,8.4,0,0,0,4-2.7,37.3,37.3,0,0,1,4.3-4.7,25.6,25.6,0,0,1,11.8-5.8c2.5-.4,4.5-2.3,7.3-1.9a1,1,0,0,0,.7-0.4c1.7-1.9,3.4-.9,5.1.1s1.8,1.9,3.2,2.3a1.5,1.5,0,0,1,1.4,1.6,1.8,1.8,0,0,1-2,1.6,3.5,3.5,0,0,0-3,1.2,14.1,14.1,0,0,0,5-1.1,97.6,97.6,0,0,1,14.7-4.5,9,9,0,0,1,2.9-.1c3.4,0.2,7.1,1.6,9.8-2.1,0.6-.8,2.6-1.2,2.7-0.6,0.4,3.2,1.8.9,2.6,0.6a3.3,3.3,0,0,1,1.8-.3,20.7,20.7,0,0,0,5.3.2,5.7,5.7,0,0,1,5.6,2.8c-0.5.5-1.4-.1-1.6,0.7,4.3,0.8,8.6,1.7,12.5,3.9,1,0.5,2.1,1.2,2,2.5s-1.4,1-2.3,1.2h-0.4c-2.4,1-7.4.1-9.1-1.7s-1.2-1.2-2.2-.8a0.7,0.7,0,0,0-.5.8,2.2,2.2,0,0,0,1.8,1.6l1.2,0.2,4.8,0.9a0.9,0.9,0,0,1-.6,1l-4,1.8c-0.6.3-1.3,0.6-1,1.3s1,0.2,1.4,0l2.6-1a31.1,31.1,0,0,0,13.4-7.5c-0.3-.5-1.6-0.2-1.4-1.1a2.1,2.1,0,0,1,1.7-1.4,3.9,3.9,0,0,1,3.4.4,1.7,1.7,0,0,0,1.8.3l4.2-1.8h-0.1Zm0.6,183.5c-3.3-.1-3.9.6-4,3.9a2.5,2.5,0,0,1-2.5,2.6c-1.8,0-1.1-1.3-.9-2.3a0.9,0.9,0,0,0-.5-1.1,1.2,1.2,0,0,0-1.3.3,38.9,38.9,0,0,0-6.1,5.3c0.5-.5,1-1.1.3-1.5s-1.6-1.4-2.4-.5-1.5,2.2-.8,3.2,1.4-.5,2.1-0.8l0.3-.3c-1,1.6-2.8,2.1-4.3,3.1a68.7,68.7,0,0,0-5.9,4.7c-1.1,1-2.4,1.7-3.2,3.4a8.6,8.6,0,0,0,3.4-2.1c0.4-.3.7-0.9,1.2-0.5a1.1,1.1,0,0,1,0,1.4,31.4,31.4,0,0,1-2.5,4.2c-0.7.9-.5,1.7,0.4,1.7s2.4,0.5,1.7,2.3a0.6,0.6,0,0,0,.2.6c1.3,0.9.9,2.2,0.9,3.4s-0.7,2.5,1.1,3.2,0.2,1-.2,1.4-1.1,3.1-.4,4.7,0.9,1.5.6,2.4-0.1,3.9,1.5,5.5a6.7,6.7,0,0,1,1.4,2.8,6.6,6.6,0,0,0,4.5,4.6,6,6,0,0,1,1.7,1.1c1.8,1.4,3.6,3,6,3.3a60,60,0,0,0,6.9.5c4.3,0,8.5-.9,12.8-0.8,1.6,0,3.5.6,4.2-1.7a0.9,0.9,0,0,1,.7-0.3c2.1,0.2,2.2-1.2,2.1-2.7s0.6-2.5,2.3-2.5,3.8-1.6,5.4-2.7,2.7-2,2.8-3.9a12,12,0,0,1,2.4-6.6,1.8,1.8,0,0,0,.4-2.1,7.2,7.2,0,0,1-.5-6.4,3.3,3.3,0,0,0,0-2.7c-1.1-1.9-1.3-4.1-2.1-6.2a8.7,8.7,0,0,0-5-5.1,4.4,4.4,0,0,1-2.3-2,7.7,7.7,0,0,0-5.5-3.3c-2.2-.3-4.4-1.2-6.8-0.7s-1.8-.5-1.3-1.8a1.7,1.7,0,0,0-.8-2.3,4.7,4.7,0,0,1-1.5-1.5c-0.8-1.5-1.6-2-3.1-.9s-2.1.7-2.5-.7-0.6-2.6-1-3.9c1.5,0,2.9-.4,4.4-0.4a1.5,1.5,0,0,0,1.8-1.8c-0.7-1.9.6-2.5,1.8-3.2s1.4-.6,1.3-1.7a11.9,11.9,0,0,0-3.6,2.3c-1.2,1.1-2.1,2.6-4.3,2.3S348.9,270.9,350.2,272.6ZM103.5,328.3l-8.8,7.1c-2.7.9-4.1,3.2-5.6,5.4a60.4,60.4,0,0,0-3.7,7.1,3.7,3.7,0,0,1-2.9,2.4c-1.5.2-2-1-2.3-2.3-1.3,1.4-2.9,2.3-3,4.2-0.1,3.8.2,7.6-.1,11.4-0.4,5.7-.4,11.3-0.5,17,0,2.5.3,5.1,0,7.8l0.8-.6a54.9,54.9,0,0,0,13.2-20.3c0.6-1.5,1.1-2.9,2.6-3.7a2,2,0,0,1,2.2,0,1.7,1.7,0,0,1,.6,2c-0.2.7-.3,1.5-0.4,2.3h0c-6.3,4.6-8.7,11.5-11.2,18.4-1.3,3.4-.4,7.4-2.3,10.9a2.7,2.7,0,0,1,2.4-.8c3.5,0.3,5.4-1.2,6.2-4.6s0.1-5.9,1.7-8.6a0.9,0.9,0,0,0,0-.8c-2-2-.5-4.8-1.5-7-0.2-.4-0.3-1.1.3-1.2s0.8,0.4.9,0.9a37.2,37.2,0,0,0,1.6,4.5c2,4.1,5.8,7.2,6.9,11.9a0.9,0.9,0,0,0,1,.9,1,1,0,0,0,1-.9,10.2,10.2,0,0,1,1.3-3.1c3.9-7.1,10-11.9,17-15.5s12.2-6.1,18-9.6a32.6,32.6,0,0,0,6.3-4.4c-2.6,1.3-4.9,2.9-7.5,4.1s-6.1.6-9.1,1.6h-0.4c-0.6-.2-0.6-0.7-0.3-1,2.5-1.7,1.2-2.3-.7-2.9l-0.3-.3c-0.3-2.2-1.8-2.4-3.6-2.3a2,2,0,0,1-.8-0.3l-9.9-4.1c-1.8-.8-3.5-1.1-4.3,1.5a6.5,6.5,0,0,1-.1-1.4c0.1-2.4.1-2.4,2.3-1.6l8.5,3.2c0.9,0.3,1.8.8,2.6,0.2s4.2-3.1,5.3-5.3,1.6-1.6,2.9-1c5.9,2.7,11.9,1.9,18,1.2a3.5,3.5,0,0,0,2.2-1.1,6.2,6.2,0,0,1,4.4-1.8,118.5,118.5,0,0,1,18.1-.2,21.1,21.1,0,0,0,11.1-1.6c4.5-2.1,6.8-7,5.3-11.2a46.2,46.2,0,0,0-4.4-8.8,28.6,28.6,0,0,0-4.8-6.1c-0.9-.8-1.8-1.2-2.8-0.2a28,28,0,0,0-2.6,3c-0.6.9-1.5,1.8-1.2,3s1.7,0.6,2.4,1.2c-2.7.9-5.3,1.7-7.9,2.6a81.4,81.4,0,0,1-16.8,4.9c-3.2.5-3.9,0-5.2-2.9s-2.9-6.4-4.4-9.6-6.5-6.5-10.5-8.7c-2.3-1.3-2.9-1.1-4.3,1.1-0.2.3-.3,0.8-0.5,1.1-1.4,2.6-1.3,5.6-1.9,8.4s-1.2,4.1-1.8,4.2c-2.4.4-4.9,2.9-7.4,0.2a1.6,1.6,0,0,0-1.4-.1c-2.4.1-4.8-.2-7.1,1.2a2.4,2.4,0,0,1,1.8-1.9,14.6,14.6,0,0,1,5.2-.3c0.6,0,1.4.4,1.8-.3,1.3-2.3,3.2-4.1,5.2-6.6-4.2.1-7.8-.3-11,2.4A57.2,57.2,0,0,0,103.5,328.3Zm110.8-219c2,2.9-1.3,2.5-2.4,3.5a4.4,4.4,0,0,0,2.6-.3c0.7-.1,1.9,0,1.7-1.3s-0.6-2-2-1.9c1.2-1.6,3.1-.4,4.5-1.2s-0.8-1-.5-1.7,1.3,0.7,1.7-.1-0.4-1.1-.6-1.7-1.6-3.1-1.4-4.6-1.1-1.9-2.4-1.6c-4.2.8-4.2,0.8-6.4-2.9-0.4-.6-0.6-1.5-1.5-1.1s-3.8-.3-5.8.2-1.9.4-2.1-.7,1-1,1.7-1.3,3-1,3.5-2.2a29.9,29.9,0,0,0,1.3-6.3c0.3-1.9.8-3.6,2.9-4.3a1.3,1.3,0,0,0,1-1c0.1-.8-1.1-0.3-1.1-1.1s1.9-1.6,3.3-1.6h10.1c1.3,0,2.7-.5,3.7.9A0.5,0.5,0,0,0,227,77c0.7-1.2,1.9-1,3-1l12-.4q29.7-1.2,59.2-5.3L315.9,68a6,6,0,0,1-1.5-1.4c-0.5-1.3-.5-2.5.8-3.4a1.8,1.8,0,0,1,2.7.3,2.3,2.3,0,0,1-.3,3.4l-0.3.3c-0.3.2-.7,0.4-0.4,0.8a0.7,0.7,0,0,0,.9,0,3,3,0,0,1,2.7-.4c-1.5,2.1-4.5,1.8-5.7,4.3,0.6,0.1,1.2-.8,1.6.1s-0.4.8-.8,1l-1.8.7c-0.5.2-1.2,0.4-.9,1.1s0.8,0.1,1.3-.1a58.2,58.2,0,0,1,7-2.9c1.9-.5,2.3-1.8,1-3.2s-1-.9-0.3-1.3,0.8-1.5.5-2.3a9.8,9.8,0,0,1,.8-7.7c0.3-.7.9-1.4,0.2-2.1s-1.3,0-2,.2A8.8,8.8,0,0,1,311,51.7a13.2,13.2,0,0,1-.9-11.8,8.9,8.9,0,0,1,9.4-6.1c2.6,0.1,2.8,0,2.3-2.6a3.2,3.2,0,0,1,2.4-3.9,7.5,7.5,0,0,1,8.9,3.4c1.8,3.2,1.3,5-1.8,6.7-1.3.7-1.5,1.5-.6,2.7a4.7,4.7,0,0,1,.6,4.4c-0.9,2.7-.4,3.4,2.4,3.1a9.4,9.4,0,0,1,7.3,1.9c1,0.8,1.8.9,2.6-.3a1.6,1.6,0,0,1,2.2-.8,4,4,0,0,1,2.4,3.7c0,1,0,2.4-1.1,2.4-3.1.1-3,1.8-2.4,4a5.5,5.5,0,0,1-.2,2.3c-0.3,1.5.3,1.6,1.6,1.3,10.5-2.5,21.1-4.9,31.5-8.1L391,50a8.2,8.2,0,0,1,3.5-.6c-0.5,4.2,1.9,7.2,3.8,10.4a6.2,6.2,0,0,1-3.1.5h-9.3a6.3,6.3,0,0,0-6.5,6.4,35.4,35.4,0,0,0,.1,7.2,2.1,2.1,0,0,1-1.5,2.6,13.1,13.1,0,0,0-4.5,2.6,16.6,16.6,0,0,0,4.5-1.8c0.4-.2,1-0.9,1.4-0.2a1,1,0,0,1-.8,1.5l-4.4,1.6a4.1,4.1,0,0,0-2.4,5.1,2,2,0,0,0,1.9,1.5c1.4,0.1,2.8.4,4.2,0.4s1.4,0.5,1.4,1.5,0,3.9.1,5.9a6.1,6.1,0,0,0,5.5,5.7l6.7,0.2h21.3c4.3,0,6.7-2.4,6.6-6.6s-0.2-9.7-.3-14.5a4.7,4.7,0,0,1,1.5-3.7c3.5-3.5,6.7-7.2,10.1-10.8,0.8-.9,1.4-1.8.1-3.1-3.1,4.9-8.3,7.7-11.4,12.6-0.2-2.8,0-5.5-.3-8.2s0.3-1.9,1.5-2.3l9.7-3.6c0.8-.3,1.6-0.7,1.2-1.6s-1.2-.2-1.8,0l-7.4,2.9c-2.2.9-4.5,2.3-6.6-.2l-0.4-.2c-1.9-1.3-4-.2-6.1-0.6a1.2,1.2,0,0,1,.9-0.9l19.6-7.8c0.8-.3,1.8-0.6,2.1-1.6h-0.1a1.7,1.7,0,0,1,.6.5c-0.4,2,.2,4,0.3,6.1s-0.2,6.9-.3,10.3c-0.2,7.6.1,15.3,0.1,22.9-0.1,28.8-.1,57.6-0.1,86.5,0,41.4.1,82.8-.1,124.2,0,6.6,0,13.2-.1,19.8s0.1,11.8.1,17.7c0.1,16,0,32,0,48.1q0,21.4,0,42.8c0,12-.1,24,0,36,0.2,18.1.1,36.3,0.3,54.4,0.4,33,.1,65.9.1,98.9,0,2.6-.7,3.2-3.2,3.3l-5.4.3a0.9,0.9,0,0,0-.9.5,0.5,0.5,0,0,0,.4.6c2.2,0.5,2.1,2.1,2.1,3.8s0,1.5.9,1.7c5.2,1.6,10.8-1,11.6-6.8a86.5,86.5,0,0,0,.9-14.5c-0.2-6.7.3-13.4-.2-20.2a191.9,191.9,0,0,1-.1-19.8c0.2-6.3-.1-12.6,0-18.9s-0.5-13.1-.3-19.5-0.1-12.8.2-19.1c0.2-3.7-.4-7.4-0.3-11.1s0.1-7.4.2-11.1c0.3-11.5.1-23,.1-34.5q0-13.5,0-26.9c0-6.9.1-13.9,0-20.8,0-2.8-.4-5.6,0-8.4a15.6,15.6,0,0,0,.3-3.1c-0.2-4.4-.6-8.8-0.6-13.2s0.6-8.6.1-12.8,0.2-7.5.1-11.2-0.3-7.7-.2-11.5-0.1-8.2.2-12.2,0.1-8.8,0-13.2c-0.1-6.2.2-12.3-.2-18.5-0.1-1.6.3-3.2,0.3-4.8-0.1-4.5-.3-9.1-0.3-13.6-0.1-8.7.6-17.4,0.4-26.1-0.1-7.1.3-14.2,0-21.2-0.1-2.4-.6-4.8-0.4-7.1,0.9-7.6.1-15.3,0.1-22.9s0.4-14-.1-21-0.1-13.3-.1-20c0-3.4-.5-6.8-0.3-10.1,0.4-5.8.2-11.5,0.3-17.3s0.2-13.6.2-20.4,0.1-15.8,0-23.7-0.7-17.5.2-26.2c0.2-2-.3-4.1-0.3-6.1,0-9.6.1-19.3-.1-28.9,0-3.1.1-6.3-.1-9.4a41,41,0,0,1,0-7.8,9.4,9.4,0,0,0-2.7-7.3c-1.6-1.8-4.7-2.5-7.4-2.2s-2,1.1-1.8,2.5c0.4,4.4-.5,5.3-5,5.4-6.2.2-12.3-.1-18.5,0H12.4a42,42,0,0,0-4.4.3c-0.6.1-1.5-.2-1.5,0.6s0.9,0.6,1.5.7H28a3.5,3.5,0,0,1,2.2.3,3.4,3.4,0,0,1-2.4.4H9.3c-2.7,0-3,.4-3,3.1,0,4.6,0,9.3,0,13.9,0,1.6.1,3.5-2,4.6C9.8,39,15.5,40.8,21.1,43a1.2,1.2,0,0,0-.6-1.3c-1.7-1.3-1.2-3-.6-4.6a2.9,2.9,0,0,1,3.2-1.9,3.7,3.7,0,0,1,3.2,3,25,25,0,0,1,.4,3.5c0.1,0.9.3,1.9,1.4,2.1a6.4,6.4,0,0,0,5.4-1.2c1.4-1.1.1-2.6-.2-3.9a8.1,8.1,0,0,0-.4-1,2.3,2.3,0,0,1,.7-2.7,1.6,1.6,0,0,1,1.9-.3A2.4,2.4,0,0,1,37.1,37c0,1-.3,1.9-0.4,2.9s0,2.5,1.4,3.2c3.4,1.6,6.5-.6,6.2-4.2,0-.6-0.1-1.1,0-1.7s1.3-2.3,2.5-2.7a2.2,2.2,0,0,1,2.6,1c0.9,1.1.2,2.1-.4,3.1l-0.6.8c-1.8,2.8-1.3,4.1,2,4.4A13.7,13.7,0,0,1,56.4,46a1.5,1.5,0,0,1,.8,1.8,1.6,1.6,0,0,1-1.8,1.1,4.7,4.7,0,0,1-1.6-.3c-2.6-1.1-5.4-2.1-7.6-4-0.7-.6-1.4-0.8-1.9.1s0.2,1.4.9,1.7l3,1c2,0.8,4,1.4,5.6,2.8s1.6,1.7.8,2.9-1.9,1.1-3,.5L49,52.2a1.2,1.2,0,0,0-1.8.5,1.1,1.1,0,0,0,.6,1.6,7.4,7.4,0,0,0,3.6,1.1c0.9,0.1,1.9.1,1.6,1.4s-1.2,1-2,.6-1.5-.5-1.8.4,0.7,1.1,1.4,1.3,2,1.6,1.5,3.1a3.7,3.7,0,0,1-3.6,2.5,12.8,12.8,0,0,1-4.1-.7c-1.4-.4-2.8-0.3-3.8,1.1a3.7,3.7,0,0,0-.1,4.2,3.2,3.2,0,0,0,3.6,1.6,23.8,23.8,0,0,0,3.2-1,8.1,8.1,0,0,1,4.3-.7,1.6,1.6,0,0,1,1.5,1.3,1.7,1.7,0,0,1-1,1.7c-1.1.7-2.4,0.6-3.7,0.8s-1.8.2-1.3,1.4a1.5,1.5,0,0,0,2.1.9l2.6-1.3c1.4-.7,2.4-0.2,3.1,1.2s0.6,4.1-2,5.1-3.7.9-5.4,1.9a2,2,0,0,0-1.1,2.6c0.4,1.1,1.4,1.2,2.5,1a9.6,9.6,0,0,0,3-1.4,30.5,30.5,0,0,1,2.8-1.8c2.2-1.1,4.2-.1,4.8,2.3s-0.3,3-1,4.4-3.6,4.1-5.3,6.3-1.1,1.7-.1,2.4,1.5-.3,2-0.9,1.2-1.7,1.8-2.6a7.7,7.7,0,0,1,2-2.2c0.7-.5,1.3-0.6,1.6.5s-0.6,1.2.4,1.3a1.5,1.5,0,0,0,1.1-1.1,14.6,14.6,0,0,1,.7-1.5c0.5-.7,1-1.9,2.1-1.2s0.5,1.7,0,2.4-2.9,4.1-4.5,6.1a5.8,5.8,0,0,0-1.3,2.4c-0.1.7-.4,1.6,0.5,1.8s1-.6,1.3-1.1,2-4,3.1-6,1.8-3.6,3.7-2.6,0.9,3,.1,4.6-0.7,1.7.4,2.2,1.7-.3,2-1.3a5.4,5.4,0,0,1,1.4-2.8,3.3,3.3,0,0,1,3.7-.6,1.8,1.8,0,0,1,1.1,2.5,1.5,1.5,0,0,0,.5,1.3c0.8,1.1.1,2.2-.4,3.1s-1.2-.1-1.8-0.2a3.1,3.1,0,0,0-2,.4,4.2,4.2,0,0,0-1.2,6.2c0.7,1,1.6,2,2.2,3.1a1.4,1.4,0,0,1-.5,2c-0.9.6-1.2-.3-1.6-0.8s-0.7-1.4-1.2-2-1.9-2.7-3.7-2.2-1.9,2.3-2,3.8a10.2,10.2,0,0,0,.1,1.7c0.2,3.1,1.4,5.9,2.5,8.7a22.9,22.9,0,0,1,1.6,6.5c0.1,1.6.3,3.3-1,4.6s-2.8.6-4.3,0.3a2.5,2.5,0,0,0,1,2.1,7.8,7.8,0,0,1,2.7,4.6c0.5,1.8,1.1,1.5,2.2.6s3.6-2.5,5.5-3.5c4.4-2.5,8.9-4.1,14-1.8l1.2,0.4a1.4,1.4,0,0,0,2-.6c1.7-2.2,3.3-4.5,5.2-6.6s1.1-3.6,2.6-4.9c4.3-3.6,8.5-7.3,12.9-10.9a13.5,13.5,0,0,1,5.2-2.3,2.1,2.1,0,0,1-1.1,1.6l-11.8,9.9c-0.4.3-1.2,0.6-.7,1.3s1,0.1,1.4-.3l12.5-11a9.5,9.5,0,0,1,1.9-1.6c13.2-6.8,26.4-5.9,39.8-.6a55.7,55.7,0,0,1,9.2,4.7c0.5,0.3,1.1.9,1.7,0.6s0.3-1.3.4-1.9a3.6,3.6,0,0,0,0-.8,9.1,9.1,0,0,1,4.4-8.8c3.4-2.1,7.4-3.3,11.1-4.9,0.4-.2.8-0.3,1,0.3s0.2,0.8-.3,1.1-2.2,2-3.7,2.3a2.2,2.2,0,0,0-1.3.7c-1,1.5-.9,1.6-2.2,2.2s-2.3,2.4-2.5,4.1,0,1.7-.1,2.5-1.6.6-2.1,1.7c1.8,0.5,3-1.5,4.9-.7l-5.3,2.3c-1.8.8-1.9,1.4-.1,3,0-1.3.4-2.3,1.9-2.2s-0.4,2.3.5,3.3c0.9-.9.6-2,0.6-2.9s0.3-1.5,1.2-1.6,0.5,0.9.7,1.4-0.4,1.3.5,1.6,0.6-1.9.6-2.8,0.4-1.6,1.3-1.5,0.5,1,.5,1.5-0.4,1.3.7,1.6a6.6,6.6,0,0,0,.5-2.6c0.1-1.4,1.9-2.6,3.9-2.6s0.6,1.5,1.1,2.2c0.7-2.2,2.7-4,4.3-3.9s0.6,1.3,1.1,2.4l0.3-3.4c0.9-.1.3,1.2,1.1,1.1s0.2-1.7,1.1-1.9,0.2,1.1,1,1.1a2.8,2.8,0,0,0,.5-1.5c0.1-.4.6-0.7,0.8-0.4s0.8,0.8,1.2-.1,0.5-.6.7-0.2,0.7,0.4,1-.2,0.5-.6.8,0,0.6,0.6.8,0,0.5-.3,1.1-0.1,1.7,1.9,2.3,3,0.3,1.2,1.3.8ZM320.9,558c0.5,3.3.5,3.3,3.7,3l7.6-.7c5.1-.4,5.2-0.4,4.6-5.5-0.2-1.5-.2-2.3,1.7-1.6s3,1,4.3-1.8l0.2-.4c1-1.1,2.3-.8,3.5-0.8s0.7,1.2.7,1.9-2.6,4.8-5,5-2.6.9-2.7,2.8-1.2,3.7-4,3.9a40,40,0,0,0-6.2.5,7.7,7.7,0,0,1-6.5-.8c-0.6-.4-1.3-0.9-2.1-0.2a5.3,5.3,0,0,1-4.1,1.3c2,1.6,2.3,1.7,7,2.7a2.9,2.9,0,0,1,2.5,2,2.3,2.3,0,0,1-.9,2.4,2.6,2.6,0,0,1-3.1.3,15.8,15.8,0,0,0-2.9-1.2,2.1,2.1,0,0,0-2.6,1.3c-0.5,1.2.3,2,1.3,2.5a8.1,8.1,0,0,0,1.8.5c2.9,0.7,4.1,2.6,3.4,5.5-1,4.4-4.8,7-9.7,6.6-3-.2-5.7-1.5-8.4-2.6-5.4-2.1-9.8.7-10.5,6.4s3.6,9.7,9.4,9a38.4,38.4,0,0,0,6.3-1.6,20.6,20.6,0,0,1,9.4-.8c1.9,0.3,3.6,1.2,3.7,3.4s-1.4,3.2-3.2,3.9a11.6,11.6,0,0,1-3.5.6l-5.7.2a2.3,2.3,0,0,0-2.2,1.6,2.6,2.6,0,0,0,1.1,2.6,3.8,3.8,0,0,0,4.5.6,26.6,26.6,0,0,1,6.3-2.4c2.7-.5,3.9.1,5.1,2.6a10.1,10.1,0,0,1,.9,7.6c-0.4,1.3,0,1.4,1.1,1.4H428.6c2.9,0,2.9,0,2.9-2.9q0-48.6.1-97.2c0-.5.3-1.1-0.3-1.6s-0.7,1.5-.9,2.3a22.6,22.6,0,0,1-1.7,4.7c-1.5,2.8-3.6,3.5-6.5,2.3s-3.7-3.3-3.4-6.4,0.5-4,.7-6.1a1.4,1.4,0,0,0-.8-1.8c-1-.3-1.3.6-1.7,1.3a10.2,10.2,0,0,0-.7,3.7,5.2,5.2,0,0,1-1.1,3.6c-1.4,1.4-3.4,2.6-1.3,4.9,0.2,6,1.2,11.9,0,17.9-0.9,4.3-2.6,8.5-6.8,10.6s-11.8,3.5-18,3.3a2.3,2.3,0,0,1-2.5-2.4c0.1-1.5,1.5-1.1,2.5-1.2h1.7a58.7,58.7,0,0,0,10.8-1.8c6.4-1.7,8.9-6.6,9.9-12.6s0-12.6-.5-18.9c-0.1-1.2-.9-1.3-1.8-1.2s-3.8.3-5.7,0.6-2.4-.4-2.8-1.8a15.9,15.9,0,0,1-.7-3.9,3.5,3.5,0,0,0-2.7-3.4,4,4,0,0,0-4.3,1.6c-0.7.9-.5,2-0.5,3,0.2,3.1-1.4,5.7-3.9,6.5s-8.6-.3-11-3.1-3.1-7.1-2.8-11.1c0.1-1.5,0-2.8-1.5-3.6a2,2,0,0,0-2.5.5c-1.1,1.2-.5,2.5,0,3.7l0.4,1a63.2,63.2,0,0,1,3.1,7.4c1.4,4.6-.2,8.6-4.3,10s-6.3-.1-8.7-2.7-4-2.6-5.2-1.7-1.2,3-.6,4.6-0.2,1.4-1.2,1.5a64.5,64.5,0,0,0-6.9.7,1.6,1.6,0,0,1-2.1-1L339.7,518a11.5,11.5,0,0,0-2.6-3.8,2.2,2.2,0,0,0-2.5-.7,2.5,2.5,0,0,0-1.4,2.2,4.8,4.8,0,0,0,2,4.4,46.5,46.5,0,0,1,9.5,11.2c1.3,2,1.2,1.9-1,2.3s-3.6-.4-3.2,2.4c0.1,0.6-.6.3-1,0.2-4.3-1-4.5-1.2-4.8-5.6,0-.8-0.1-1.5-0.1-2.3s-0.6-1.9-2.1-1.8c-10.1.8-20.2,1.7-30.2,2.9-2.3.3-3.3,0-3.2-2.4a4.7,4.7,0,0,0-.5-1.8c-1.9-4.7-8.3-6.4-12-3.1a7.8,7.8,0,0,0-2.3,8.7c0.4,1.2.2,1.5-1.1,1.6L268,534l-18.9,1.8c-1.1.1-2.1,0.1-1.9,1.8,0.5,4.3.9,8.7,1.4,13,0.1,1.2.6,1.7,1.9,1.5s3.6-.3,5.5-0.5,3.1,0.4,2.4,2.9a4.4,4.4,0,0,1-1.5,2.2,8.2,8.2,0,0,1-5.5,1.7c-1.6,0-2.1.8-1.9,2.2s0.5,4,.6,6.1,0.8,1.8,2,1.7c3.3-.2,6.8-0.1,9.7-1.7s6.9-1.7,10.8-.9,9.2-.4,13.8-0.9c6.6-.7,10.8-4.3,12.9-10.5a0.9,0.9,0,0,1,.8-0.8c0.7,0.6.3,1.4,0.4,2.1s0.3,4.2.5,6.3a1.3,1.3,0,0,0,1.7,1.4C308.9,563,315.5,562.9,320.9,558ZM41.4,493.4c0.1,1.2.2,3.1,0.4,4.9,1.6,13.9,8.3,24.5,20.9,30.9,7.3,3.8,15.2,5.2,23.4,5.6,4.1,0.2,8.1.5,12,2.1a10.7,10.7,0,0,1,5,16.1,13.2,13.2,0,0,1-7.7,5.3c-4.5,1.3-9,1.7-13.5.3-1.3-.4-2-0.2-2.4,1.1-1.7,4.9-3,9.8-2.8,15a3.3,3.3,0,0,0,2.5,3.4,28.9,28.9,0,0,0,9.8,2,58.2,58.2,0,0,0,21.8-3.7,2.1,2.1,0,0,1,1.8-.1c1.1,0.5,6-1.4,6.1-2.4s1.4-2.1,2.4-2.9a44.8,44.8,0,0,0,7.3-7c1.3-1.6,1.7-4.3,4.4-4.7a1.3,1.3,0,0,0,.4-0.7,45.9,45.9,0,0,0,2.9-12c0.4-2.8-1.2-5-1.4-7.7-0.8-11-6.7-18.9-15.9-24.5-3.8-2.3-8-4.2-11.6-6.8-6.9-4.9-8.8-10.3-5.8-19s8.8-12.9,16.2-16.3c5.6-2.6,11.6-3.7,17.7-4.4,3.2-.4,6.3-0.4,9,1.7a1.3,1.3,0,0,0,1.3.5c0.6-.3.3-1,0.3-1.5a62.6,62.6,0,0,0-2.3-14.3c-3.3-11.9-7.6-23.2-17.1-31.9-2.9-2.6-5.4-3.3-9-2.6-25,4.8-45.7,16.9-61.9,36.5C46.8,466.9,41.6,478.8,41.4,493.4ZM190.6,256.1c0.3,2.2,1.9,3.8,2.1,5.7s0.7,1.1,1.5.7c2.5-1.2,5-2.6,7.6-3.7s2-1.5,1.6-3.2a51.8,51.8,0,0,1-1.5-15.7c0.5-7.2,2.4-14.3,4.1-21.3s2.6-15.6-.3-23.5a74.1,74.1,0,0,0-3.4-7.9,1.2,1.2,0,0,1-.3-1.2c0.3-.5.7-0.2,1.1-0.1l2.2,0.3a2.4,2.4,0,0,0,2.1-1.5c0.3-.5-0.2-0.8-0.6-0.9-3.4-.7-6.4-2.6-9.9-2.8a8,8,0,0,1-4.7-1.9c-0.5-.4-0.8-0.8-0.4-1.4s0.6-2.8-1.5-3a6,6,0,0,1-1.5-.7c-1.8-.8-3.6-1.8-5.6-1.8-4.8.1-9.2-1.4-13.8-2.1a1.4,1.4,0,0,1-1.1-.6c-0.5-.9-1.4-0.8-2.2-0.9a45,45,0,0,1-7-.9c-4.5-1.2-8.9-2.7-13.5-2.9a1.2,1.2,0,0,1-1.4-1.4c-0.1-2.1-1.1-4.1-1.9-6.3-0.9,1.7-.2,4.3-3.2,4.2l2.5-4.8c0.2-.3.7-0.7,0.3-1s-0.7.1-.9,0.5l-2.8,3.7c-5.9,7.4-10.9,15.3-12.5,24.9a5,5,0,0,1-.8,1.7,28.5,28.5,0,0,0-2.7,5.9,74.5,74.5,0,0,1-11.5,22.1c-2.4,3.1-2.4,3.1-5.9,1.6-5.3-2.3-10.5-4.8-16.6-5.3-9.5-.8-16.8,3-22.4,10.4a2,2,0,0,0-.8,1.6c1.1-.4,1.3-0.4,1.2,0-0.4,1.9,1.2,2.5,2.4,3.3s5.3,2.4,8.3,2.8,3.7,1.6,5,1,1.5-2.9,2.2-4.4,2.5-1.9,3.5-3.2a1.2,1.2,0,0,1,.9.2c1.2,1.1,2.5,1,4,.8a3.7,3.7,0,0,1,3.3,1,1.5,1.5,0,0,0,2,.4c1-.6,1.5,0,1.5,1s1.4,2.2,2.8,2.2a2.6,2.6,0,0,0,2.5-3c-0.2-1.8-.6-3.6,1.3-4.7s3.3,0.1,4.8,1.1l0.5,0.3c1.3,1.5,3.4,2.4,4.1,4.4a10.3,10.3,0,0,1,.6,5.1,38.4,38.4,0,0,0-.1,5.8,51.8,51.8,0,0,0,1.2-9.9,13.3,13.3,0,0,1,8.7,5.6c1.6,2.2,2.9,4.3,2.6,7.2a42.2,42.2,0,0,1-1.1,7.5c-2.3,7.9-5,15.6-10,22.3-1.1,1.5-.6,2.7,1.1,3s4.8,0.3,7.1.5l15.5,1.8c1.1,0.1,2.3.4,3.2-.9a49.1,49.1,0,0,0,7.9-23.1c0.1-1.8.4-3.5,0.6-5.4,2,0.9,4.1,1,5.3,3-1.4-4.4-6.8-5.7-7.7-10.5,1.1,0.3,1.2,1.5,2.1,1.9s4.5,2,6.8,2.8a33.4,33.4,0,0,1,9.9,5.5c0.7,0.5,1.6,1.3.2,1.9s-3.4,2.4-5.4,2.8a2.3,2.3,0,0,0-1.8,1.8c-0.2.7,0.1,1.5,0.9,1.1s2.8,0,4.1-.3a92,92,0,0,0,14.5-3.7c6.6-2.2,12.3-5.5,16-11.7a1,1,0,0,1,1.1-.7v0.2c-1.8,6-2.6,12,.9,17.8a1.1,1.1,0,0,1-.1,1.5,1.3,1.3,0,0,1-1.7.2c-0.7-.4-1.4-0.6-1.7.3s-0.5,1.7-1.6,1.6-1.5-1.1-1.9-2S192,256.7,190.6,256.1Zm-86.4-107c1.1-.5,1.2-2.1,2.7-2-1.1,2-.2,1.9,1.3,1.3s3.3-1.5,4.9-.9,4.1-.1,5.9-1a49.1,49.1,0,0,1,33.6-3.8,68,68,0,0,1,18.4,7.7c8.8,5.2,16.5,11.7,22.1,20.4a5.5,5.5,0,0,0,2.2,2.2c-1.3-1.4-.5-2.3.6-3.3a8.3,8.3,0,0,0,2.7-4.6c-1.3,1.5-2.2,3.2-3.6,4.6s-1.1.9-1.8-.1a60.5,60.5,0,0,0-9.1-11.3,4.9,4.9,0,0,0,3.8-3.5c0.1-.5-0.3-1,0.4-1.3s0.8,0.4,1.2.7l1.6,1.2a63.1,63.1,0,0,0-6-12.4c-1-1.5-2.6-1.8-3.6-.5s-3.1,1.9-5,2.4-4.4.4-5.7,2.6-1.2.3-1.9,0.1-3.6-2.5-5.8-2.9-0.5-.9-0.2-1.5,2.2-3.1,3.2-4.7a6.8,6.8,0,0,1,4.1-3c2.3-.7,4.6-1.6,7-2.4a2,2,0,0,0-2.6-1.2l-8.9,1.7c-1.8.4-1.8-.9-2.3-2s0.7-1.1,1.3-1.3c2.4-.8,4.8-1.3,6.9-2.9a17.1,17.1,0,0,0-4.2,1c-1.1.4-1.7,0.4-2.1-.8s-1-1.2-2-.9l-5.9,1.5a5.9,5.9,0,0,1,4-2.5c1.8-.5,2.7-1.2,2.4-3.3a2.3,2.3,0,0,0-1.3-1.8,45.8,45.8,0,0,0-7.1-3.6,41.9,41.9,0,0,0-22.4-3.4c-4.6.6-9.2,1.4-13.5,3.5a2.3,2.3,0,0,1-1.2-.3c0.9,0.9,0,3.8,2.8,2.6l-4.1,3.5c-0.5.4-1.3,0.8-1.3,1.5-0.1,3.1-.4,6.2.8,9.2a1.1,1.1,0,0,0,1.6.8c2.3-.8,3.1-0.1,3,2.8a1.4,1.4,0,0,1-.5-0.6,1.4,1.4,0,0,0-2-.4c-0.9.6,0,1.3,0.4,1.7s2.3,3.1,4.6,2.2a1.9,1.9,0,0,1,1.8.1,1.7,1.7,0,0,1-1.3.6,68.8,68.8,0,0,0-11,3.7c-1.2.5-3,1.8-2.3-1.3a1.9,1.9,0,0,0-.4-0.7c-1.1-2.5-2.7-4.8-4-7.2a1.7,1.7,0,0,0-2-.9c-0.3-.7.9-1.1,0-1.8a72.6,72.6,0,0,1-5.1,6.1c-3.1,3.8-7.1,6.2-12.3,4.8l-4.1-1a2.3,2.3,0,0,0-2.2.1,33.2,33.2,0,0,0-7.1,8.6c0.6,0.6,1-.3,1.5.2l-1.9,1.6c-2.5,2.3-2.5,2.3-5.6.6-1.3-.7-2.5-1.8-2.8.7a0.9,0.9,0,0,1-.5.6c-1.7-.4-3.1,1-4.9.7s-4.3,1.5-3.3,4l2.1-1.8c1-.8,2.1-1.6,3.4-1s1.5,2.2,1.4,3.5a36.8,36.8,0,0,1-10.1,22.2c-3,3.2-4.5,2.8-6-1.2-0.1,3.8,1,6,4.4,7.6a2.8,2.8,0,0,1,1.9,3.3c-0.2,1.9-.4,3.8-0.4,5.7s1,4.7,4.1,5.6c1,0.3,1.9.6,1.4,1.8s-1.6.8-2.4,0.4a17.5,17.5,0,0,1-2.4-1.9c1.2,3.1,1.7,3.6,7,7.5s7,3,10.9,0c6.1-4.6,10.5-10.7,14.4-17.2A80.7,80.7,0,0,0,93,178.5c2-5.9,3.9-11.9,3.9-18.2,0-4-.4-7.8-5.3-10a22.9,22.9,0,0,1,7.5-.7c1.6,0.2,3.2.6,4.1-1.3a0.7,0.7,0,0,1,.9-0.4C104.6,148.2,103.7,148.6,104.2,149.1ZM213.5,9.7H420.6c3.4,0,3.4,0,3.8-3.4s0.4-3.3-2.9-3.3c-14.5-.2-29,0.3-43.4-0.3-5.7-.2-11.5,0-17.2.2-8.7.4-17.4-.4-26.1,0s-16-.4-24,0c-5.5.2-11.1-.2-16.6-0.1s-12.7-.5-19.1.1c-8,.7-16-0.6-24-0.1-5.8.4-11.6-.1-17.4,0s-13.4-.3-20.2-0.3-11.6.4-17.4,0.3c-4.1,0-8.2-.5-12.2-0.2s-10.8-.5-16.2,0S156,2.6,150.2,2.6s-13.4.1-20.2,0-11.1.3-16.6,0.3c-3.9,0-7.7-.3-11.6-0.3s-6.2.4-9.2,0.2c-5.6-.3-11.2-0.2-16.8,0s-12-.2-18.1,0C46.3,3.2,34.8,3,23.2,2.9c-3.9,0-7.7.1-11.6-.2s-5.8.1-7.5,3c-0.6,1-1.3,2.2-.9,3.3S5,9.7,5.9,9.7H213.5ZM182.4,506c0-.6,0-1.3,0-1.9-0.7-8.9-5.2-16.8-14.3-20A34.3,34.3,0,0,0,150,483a59.3,59.3,0,0,0-23.6,9.5c-1.4,1-1.8,1.7-.7,3.3a92,92,0,0,1,6.4,11.4c8.9,18,14.6,37,18,56.6,0.4,2.1,1.3,2.4,3,2a74.1,74.1,0,0,0,7.9-2.3,2.4,2.4,0,0,0,1.9-2.8c-0.2-2.4-.4-4.8-0.6-7.1-0.2-4.1-1.3-8-1.8-12.1-0.2-1.5,0-2.7,1.4-3.4s4.3-1.8,6.3-2.9,5.8-2.7,8.1-5a11.6,11.6,0,0,0,3.8-8.5,9.3,9.3,0,0,1,.6-3.5A29.1,29.1,0,0,0,182.4,506Zm74.5-47.3a5.6,5.6,0,0,0-4-3.5,46.1,46.1,0,0,0-13.6-1c-3.6.2-3.7,0.2-4,3.8-0.1,2.1-.9,2.4-2.8,2.4-14.1-.1-28.5,10.1-28.9,25.2-0.2,7.8,2.4,14.6,8.5,19.3a32.8,32.8,0,0,0,23.1,6.7c2.9-.2,5.9-0.5,7.8-3.3a1.4,1.4,0,0,1,2.1-.3c3.8,2.6,7.7,1,11.5,0,1.1-.3,1.5-1,0.3-1.7s-2.5-3.2-2.9-5.3c-2-10.4-2-21-1.6-31.5a58,58,0,0,1,1.1-9.6C253.9,458.4,254.4,457.1,256.8,458.8Zm-56.4-1.6c0-3.5,0-7,0-10.5s-2.9-5.8-5.1-5.7a80.7,80.7,0,0,0-30.4,7,2.4,2.4,0,0,0-1.6,2.6,51.5,51.5,0,0,0,6.6,21.8c0.6,1,1.2,1.9,2.5.5a14.3,14.3,0,0,1,2.5-1.6c1.3-1,2-.9,2.4.9a224.3,224.3,0,0,0,6.7,23.7c3.2,9,6.5,18,10.9,26.5a4.8,4.8,0,0,0,2.9,2.6c3.6,1.1,6.6-.5,9.5-2.1,1.1-.6,2-1.5,3.4-1.6a0.8,0.8,0,1,0,.2-1.6c-2.3-1-3.3-3-4.1-5.3-1.7-4.8-3.1-9.8-4.5-14.7a55.6,55.6,0,0,1-2.3-12c-0.1-.7-0.2-2,0.6-2,2.5,0,1.7-1.7,1.6-2.9A139.5,139.5,0,0,1,200.4,457.2ZM358.5,337.3a2.2,2.2,0,0,0,2,.3c2-.2,3,0.6,3.9,2.4,3.4,7.7-.3,17.1-8.3,20.7-4.4,2-8.8,1.8-12.8-1.2s-5.2-7-4.7-11.7a20.3,20.3,0,0,1,2.3-6.5c0.8-1.7,1.7-3.5,4.5-2.4-0.8-1.3-1.2-3-1.8-3.2s-3-1.2-4.5-1.6c-3.3-.9-6.6-1.8-8.1-5.8a20,20,0,0,0-7.3-8.8,3.9,3.9,0,0,0-2.6-.6c-6,.3-10.6,4.4-16.2,5.9a1.9,1.9,0,0,0-.8.7c-1.4,1.6-2.7,1.6-4.3.2s-2.7-2.5-4.8-1.7c1.4-7.3,6.6-12,10.7-17.5-5.6,4.9-10.3,10.5-13.2,17.4-1.9,4.3-1.4,6.6,2.1,9.8a87.5,87.5,0,0,0,9.5,7c3.9,2.7,4,2.7,2.9,7.2s-1.8,10.9-3.5,16.3a67,67,0,0,1-8.3,16.4,4.1,4.1,0,0,0,2.1-1.8,43.8,43.8,0,0,0,7.7-17.8,215.3,215.3,0,0,1,5.9-23.9,29.5,29.5,0,0,1,7-11.6c1.9-2,4.1-2.4,6.3-1.1-2.3.6-3.7,2.3-5,4-5.2,6.9-7.5,14.6-7.8,23.2-0.2,7.1,6.8,16.2,15.4,15.8a12.2,12.2,0,0,0,2.5,0c2.3-.6,3.6.4,5.2,2.1a30.2,30.2,0,0,0,21.6,9.2c11.4,0.2,20.5-8.6,21.3-19.9a23.3,23.3,0,0,0-5-16.7c0.6-.4,1.6.6,1.8-0.5s-0.8-.8-1.3-1.1l-2.2-1.2C367,336,362.8,336.1,358.5,337.3ZM338.6,488.6a21.1,21.1,0,0,0,15.5-5.9c0.9-.8,1.9-1.5,1.1-3.2s0.1-1.9.5-2.8a41.5,41.5,0,0,0,4.4-14,2.1,2.1,0,0,1,.2-1.2c1.7-.9.6-1.9,0.2-2.8s-1.2-2.2-1.8-3.3c-3.7-6.4-9.5-8.8-16.6-7.7s-13.1,5.3-17.1,11.5c-1.2,1.8-1.6,1.4-2.6,0-3.3-5-8.2-7-14-6.5-9.4.8-16.1,5.9-20.3,14.1s-4.4,16.7,5.7,23.7c5.4,3.7,11.1,4.3,17.2,2.1s9.3-6,10.3-12.1c0.1-.7,0-1.8.9-1.9s1.1,0.9,1.5,1.5C327.6,484.9,332.1,489,338.6,488.6Zm-50-30.1c0.2-.9.3-1.2,0.3-1.6a62.6,62.6,0,0,1,2.5-11.3c1.1-3,.5-4.9-2.1-6.7a1.4,1.4,0,0,1-.7-2,5.4,5.4,0,0,0-4.1-6.9,57.5,57.5,0,0,0-14.1-.7c-3.8.3-4,.3-4.8,3.9s-1.9,5-5.3,5.1-3,1.4-3.3,3.6a63.9,63.9,0,0,0-.1,14.1c0.2,2.3.6,2.5,2.8,1.6s2.2-.3,2.2,1.5c0,4.6,0,9.1.2,13.7a145.8,145.8,0,0,0,3.3,26.5c0.7,2.8,2.5,4,5.4,3.8a36.5,36.5,0,0,0,8.3-1.5c2.6-.9,2.6-0.8.8-2.7a3.8,3.8,0,0,1-1.2-2.4,140.2,140.2,0,0,1-.4-16.6,9.9,9.9,0,0,1,1.6-5.8,6.6,6.6,0,0,0,1.5-3.4c0.2-3.9,1.9-8.1-1.5-11.6a1.6,1.6,0,0,1-.3-0.8c-0.4-2.2.8-3.4,3-3.3S286.9,456.4,288.6,458.5Zm75,11.5a99.4,99.4,0,0,0,.1,10.7,5,5,0,0,0,3.5,4.6,18.1,18.1,0,0,0,7.5.7c1.5-.1,1.4-0.8.7-1.7a3.4,3.4,0,0,1-1-2.5,161.7,161.7,0,0,1,5.2-27.1,2.2,2.2,0,0,1,1.4-1.6,8.2,8.2,0,0,1,10.5,4.1,12.3,12.3,0,0,1,1.1,7.2c-0.9,6.8-4.1,12.5-8.5,17.6-0.9,1-1,1.6-.2,2.6a20.6,20.6,0,0,0,5.4,4.9,3,3,0,0,0,4-.2,47.8,47.8,0,0,0,14-17.9c2.5-5.6,3.1-11.3,1.1-17.2-3.4-9.8-9-14.1-18.3-13.6-1.7.1-2.8-.2-3.4-1.9a2.9,2.9,0,0,0-1.8-1.6,35.7,35.7,0,0,0-13-3.1,2.3,2.3,0,0,0-2.5,1.5,35.6,35.6,0,0,0-2.3,6.3C364.6,450.9,364,460.4,363.6,470ZM210.9,439l0.7-.3c1.2,1.3,2.9,2.5,3.6,4s1.6,1.7,2.7,1.4c3.3-.8,7-0.6,10-2.7a2.8,2.8,0,0,1,1.2-.4c0.6-.1,1.4-0.2,1.7.4s-0.5,1-1,1.3l-2.2,1.2c-1.5.7-.2,2.6-1.5,3.4a1.2,1.2,0,0,0,.8.4l2.1-.2c2.4-.4,4.9-1.3,7.3-1,5.5,0.6,10.2-1.2,15-3.3a4,4,0,0,0,2.7-3c0.4-2.2,1.8-3.2,3.8-3.7s2-.7,3-0.8a1.9,1.9,0,0,0,1.8-1.7,30.5,30.5,0,0,1,2.1-5.9,1.9,1.9,0,0,1,1.7-1.3,86.4,86.4,0,0,1,27.2,1.3c1.2,0.2,2.3,1.1,4.3.4-7.5-2.5-14.8-2.7-22.7-2.8l2.2-1.8c6.4-5.9,13.8-10.6,20.3-16.5a4.8,4.8,0,0,0,1.8-2.7l-2.9,2.4c0.4-1.7,2.4-2.1,2.4-3.9l-0.7.4a31.3,31.3,0,0,1-19.6,8.7,208.2,208.2,0,0,0-30,4.7c-5.4,1.2-10.9,2.3-16,4.5-8.2,3.7-14.9,9.5-22,14.8-0.4.3-.9,1-1.4,0.8s-1.1.4-1.2,1.1a129.9,129.9,0,0,0-.7,13.7c-0.1,4.3,0,8.5,0,13.1,1.6-1.4,2.8-2.7,4.2-3.7a3.5,3.5,0,0,0,1.5-3,88.2,88.2,0,0,1,.6-10.1C214.2,444.7,215.1,441.2,210.9,439Zm-27.8-33.1a3.7,3.7,0,0,0,2.8-.2c1.9-.5,2.4,0,2.4,2a85.4,85.4,0,0,1-.9,9.4c-0.1,1.2-.2,2.6,1.3,2.9s3.9,0.9,5.8,0l5.8-2.9a6.3,6.3,0,0,0,3.1-3.5c1.8-4.6,3.8-9.2,5.5-13.9,0.7-1.9,1.9-3.8,1.7-6a87.2,87.2,0,0,1,.4-11.1c0.4-5.4-2.1-9.1-6-12.3a34.6,34.6,0,0,0-11.2-6.1,65.9,65.9,0,0,1-7.2-3,9.9,9.9,0,0,0-9.4.3c-3.4,1.9-7.3,3.1-9.1,7a16.8,16.8,0,0,0-.5,12.1c0.4,1.5,0,1.8-1.3,1.8l-3.7-.2c10.7,2.6,21.6,2.3,32.5,1.6a0.5,0.5,0,0,1-.5.5c-3.3.9-4.5,3.5-5.5,6.4s-1.1,6.3-1.2,9.6-0.2,4.2-4.2,5.2Zm13.3,30.5c-1.1-1.9-1.4-4-2.6-5.7s-1.4-2.3-2.7-1.9-1.7,1.8-1.9,3.1a6.4,6.4,0,0,1,0,.8c-0.4,1.3,1.1,2.9.1,3.7s-2.6.7-4,1h-0.6c-6.4,1.4-7,1-8.8-5.4l-0.2-.6a23.5,23.5,0,0,0-3.2-7.7c-5.4-8.5-10.9-16.9-16.2-25.4a51,51,0,0,0-6.2-8c-1.5-1.6-3.4-3.7-5.9-2.6-6.8,3.1-12.5,7.5-16.4,14-1.6,2.6-1.3,4.2.9,6.4,7.5,7.5,15.9,14,23.6,21.2,2.9,2.7,5.1,5.8,5,10.1a30.7,30.7,0,0,0,1.9,10.9c0.5-2.5.7-2.6,2.4-3.8a45.7,45.7,0,0,1,10.5-4.8A113.7,113.7,0,0,1,196.4,436.4Zm17.9,188H6.3c-0.7,0-1.7-.1-1.9.9s0.6,1.4,1.4,1.7a14,14,0,0,0,5.7,1.1H99.2c3.5,0,7-.4,10.5-0.3,5.5,0.2,10.9.4,16.4,0.3,7.5,0,15-.4,22.6-0.4h11.6c14.9-.2,29.8-0.1,44.7-0.1,13.3,0,26.7.2,40-.1,6.8-.1,13.6-0.3,20.3-0.1s13.6,0,20.4-.1H415.5c2.2,0,4.5.2,6.7,0.3a1.5,1.5,0,0,0,1.8-1.6,1.5,1.5,0,0,0-1.7-1.6h-208ZM355.1,165.3a4.3,4.3,0,0,1-2.3.5c-0.7.1-1.3,0.3-1.1,1.2s3.7,2.7,4.4,2.6c11.3-1.8,21.5-6,29.1-15a2.4,2.4,0,0,1,2.9-.8,18.8,18.8,0,0,0,9.1.9c7.8-1.5,13.9-6.1,19.5-11.5,0.7-.7.6-1.2-0.3-1.7a2.5,2.5,0,0,1-1.4-2.6c-0.7,2.3-1.5.8-2.2,0.1s-0.5-1.5-1-1-2,.1-2.9-0.2-3.9-2.6-6.7-1.4-3.1,1.7-2.5,3.6a8.3,8.3,0,0,1,.1,4.9,4.3,4.3,0,0,0,3.2,5.4c0.5,0.1,1.3-.4,1.4.5s-0.7,1-1.2,1.3a16.6,16.6,0,0,1-10.8,1.9c-5.5-.9-5.6-0.8-5-6.3s-2.6-8.4-8.1-7.3c-1.8.4-2.1,0.1-1.7-2.1l-10.1,1.8c-3.2.7-5.8,2.7-8.8,3.9a14.6,14.6,0,0,1-6.2,1.2c-0.6,0-1.4,0-1.6-.7s0.7-1,1.2-1.2a16.2,16.2,0,0,0,4.3-3.6c0.2-.2.9-0.6,0.3-0.9s-1.6-2.2-2.7-3.2a17.5,17.5,0,0,0-7.5-4.5c-3.3-.8-5.6,1.5-8.1,2.8-0.4.2,0.5,2.7,0.7,4.1s0.2,0.5.2,0.8,1.3,2.7.3,3.2-1.6-1.5-2.2-2.4-2.5-4.3-5.3-5.7c1,1.5,2.3,2.3,2.7,3.7-1.2,0-2.1-1.1-3.4-.8a16,16,0,0,1,7.3,5.6c2.6,3.6,6.2,4.6,10.3,4.6a25.4,25.4,0,0,0,11-2.3l7.1-3.3a11.9,11.9,0,0,1,6.4-.9c2.9,0.4,4.7,2.6,4.6,5.8s-1.6,5-4.7,5.3a28.4,28.4,0,0,0-12.2,3.6,2.9,2.9,0,0,1-3.3-.1l-5.2-3.6c-3.5-2.5-9.8-2.7-12.7-.3s-3.9,3.3-6.6,3.7c1.5,0.5,1.9,1.8,2.4,2.9a5.4,5.4,0,0,0,6,3.8,3.6,3.6,0,0,1,1.8.3c4.1,2.2,8.3,2,12.6.8,1.2-.3,2.7-0.3,3.6-1.5s0.7-1.1,1.3-.4-0.3.9-.7,1.2-3.6,1.1-5.4,1.5-4.4.2-7,1.5C350.7,166,352.9,164.4,355.1,165.3Zm-98.8,55.9a66.4,66.4,0,0,0,9.8-2.8c1-.3.6-1.2,0.1-1.7s-1.3-2.2-.5-4a5.8,5.8,0,0,1-6.5.6c-0.4-.2-1.1-0.3-1-0.9a1.1,1.1,0,0,1,1.1-.8h2.5a26.6,26.6,0,0,0,5.5-.3c1.4-.3,1.6-1,0.9-2.1a20.9,20.9,0,0,0-9.9-7.2c-1-.4-2.6-0.9-2.1-2.1s1.9-.8,3.1-0.2a24.1,24.1,0,0,0,11.8,2.7,3,3,0,0,0,2.5-1.2c1.7-2.1,3.9-3.7,6.7-3.9a1.2,1.2,0,0,0,1.3-1.7c-0.2-1.1-.1-2.1,1.2-2.3s1.4,1.1,1.5,2.1a1.9,1.9,0,0,0,2,2.2,16.4,16.4,0,0,1,3.4,1.4c2.2,0.9,4.6,4,7.2.3a2,2,0,0,1,3.2.3,2.5,2.5,0,0,1-.2,3.5c-1.7,1.8-1.7,1.9-1.2,4.4a1.6,1.6,0,0,1,.1.4c-0.1,1.8,1,2.1,2.5,2.3s2-.9,2.2-2.1,0.2-1.8.2-2.7c0.1-3.6,1.1-4.8,4.4-6a3.6,3.6,0,0,0,2.8-2c-7.2,1.1-14,.4-20.8.7a1.1,1.1,0,0,1,.6-0.7,25,25,0,0,1,7.1-1.5c-1-.4-2.2-0.4-2.8-1.1s-2.2,1.3-2.5-.2a3.7,3.7,0,0,0-1.6-2.5,14.3,14.3,0,0,1-3.9-4.4c-0.7-1.2-1.2-1.1-1.7.1s-1.3.9-1.8-.2-1-1.2-2.1-.7a52.3,52.3,0,0,1-5.6,2.4c-2.8,1-2.9,1.2-1.4,3.8l1.6,2.7a4.4,4.4,0,0,1,.5,1.4,0.7,0.7,0,0,1-.5.8,0.6,0.6,0,0,1-.9-0.4c-0.8-2-3-2.6-4.1-4.1s-2.9-1.9-4.8-1-1.4.6-.8,1.6a0.8,0.8,0,0,1-.1,1.1,0.9,0.9,0,0,1-1.1-.3c-1.4-1.4-2.9-.8-4.5-0.3l-5.9,1.7c-0.5.2-1.2,0.4-1.5-.3a1.5,1.5,0,0,1-.1-1.8c0.2-.3.8-0.4,0.4-1a13.1,13.1,0,0,0-4.1.3c-0.9.2-1.4,0-1.2-1.2s2.1-2.1,3.4-2.9h0.5c0,0.8-1.1.6-1,1.6l2.3-1c0.5-.3,1.4-0.3,1-1.3a1.2,1.2,0,0,0-1.9-.5l-5.6,2.8c-1,.4-0.5.8-0.2,1.4a12.7,12.7,0,0,0,5.9,5.4c0.4,0.2.9,0.3,0.7,0.8a0.9,0.9,0,0,1-1.2.4l-0.9-.5c-3-2.1-6.4-3.2-9.6-4.7a2.2,2.2,0,0,0-1.6-.2l-12.5,2.9c-4.2,1-4.1,1-4.7,5.3s0.9,7.4,3.4,10.7a34.4,34.4,0,0,0,2.2-8.3,4.6,4.6,0,0,1,.7-2.2c0.5-.7,1-1.6,2-1a1.9,1.9,0,0,1,.9,2.4,7.2,7.2,0,0,1-1,1.8,6.9,6.9,0,0,0-1.5,3.6c-0.5,4.3-1,8.6-1.5,13a7.3,7.3,0,0,0,.5,3.4c4.2-3,8.2-6,12.5-8.5,2.3-1.4,3.3-2.8,2.8-4.8s-2.2-3.1-4.3-3.4a7.6,7.6,0,0,1-3-1,1.8,1.8,0,0,1-1.1-2,2.1,2.1,0,0,1,1.6-1.7,8,8,0,0,1,1.9-.1c7.6,0,14.9,2.7,22.4,3.6a1,1,0,0,1,1.1.8c0.1,0.8-.6.7-1.2,0.9s-2.4.4-2.9,1.4a14.7,14.7,0,0,1-5.1,5.8,1.9,1.9,0,0,0-.5,2.6c0.5,1,1.4.7,2.2,0.5a14.9,14.9,0,0,0,4.8-2c0.6-.3,1.4-1,1.8-0.2s-0.7,1-1.2,1.2A5.8,5.8,0,0,0,256.3,221.2ZM221.7,374.8a0.6,0.6,0,0,0,.5-0.7c0.1-10.1,3.4-19.5,6.7-28.8,2.3-6.6,4.7-13.1,5-20.2a62,62,0,0,0-5.1-26.7,69.9,69.9,0,0,0-13.3-20.3c-1-1.1-1.7-1.2-3-.4a23.4,23.4,0,0,0-7.3,7.2,17,17,0,0,1-4.5,4.7,4.7,4.7,0,0,1-6.1-.7c-1.2-1.5-.8-3.7,1-5.5a13.3,13.3,0,0,1,3.4-2.4,70.9,70.9,0,0,0,10.5-5.7c1.4-1,1.8-1.8.6-3.4s-3.9-5.8-4.3-9.5c-3.1,1.2-5.6,3.6-8.5,5.2-0.9.5-.2,1.2,0.2,1.8l4.2,6.3a3.7,3.7,0,0,1-2.8-.4,6.3,6.3,0,0,0-4.9.1c-5.7,2.3-10.3,5.7-12.5,11.7a5.4,5.4,0,0,0-.3,3.6,28.3,28.3,0,0,1,.9,8.6c0,2.4-.5,4.8-0.8,7.5a22.9,22.9,0,0,1,5.4-4.5,41.4,41.4,0,0,1,10.5-5.5c2.3-.7,4.6-2.3,7-1.9s4.3,0.6,6.3-.7,1.5,0.2,1.2,1.1c-1.1,3.7-1.6,7.5-3.7,10.9a1.3,1.3,0,0,0-.2,1.8c3.8-6.9,6.9-13.8,4.2-22.4,1.8,1.7,3.3,2.7,4.4,4.1s3.9,2.1,3.1,4.9a0.4,0.4,0,0,0,.6.3c1.3-1.1,1.6.2,2,.8a60.4,60.4,0,0,1,9.3,20.2c1.1,4.9.3,9.4,0.2,14.1a1.7,1.7,0,0,1-.3.8c-0.3.4-.3,1.2-1.1,1.1s-0.4-.8-0.4-1.3,0.1-1.6.2-2.5a57.2,57.2,0,0,0-1.7,13.7,16,16,0,0,1-1.1,5.9,117.8,117.8,0,0,0-3.6,11.7A48.9,48.9,0,0,0,221.7,374.8ZM59,602.4a4.7,4.7,0,0,1-.3-0.8q-0.1-22.6-.1-45.1c0-2.4-1.1-3.7-3.4-3.7H18.8c-2.3,0-3.1.9-3.2,3.3s0,5.5-.1,8.2c-0.1,12.2-.2,24.4-0.2,36.7,0,3.7,1,4.6,4.6,4.6H54.1a0.6,0.6,0,0,1,.8.6c-6.7,4-12.7,9-19.1,13.6a6.9,6.9,0,0,0,1.5-.1c2.7-.2,5.9.5,6.5-3.6l0.3-.3c1.8-.5,3-2.1,4.4-3.2,3.4-2.6,7.6-4.2,9.9-8.1,1.4-2.4,2.9-4.7,4.5-7A19.4,19.4,0,0,0,59,602.4ZM358.8,435.5h0.4L362,426c2.1-7,3.5-14.2,7.3-20.6,4.9-8.1,10.8-15.6,16.1-23.4,2.9-4.1,6.2-5.6,10.9-4.7h1l23.2,2.9c1.9,0.2,3.8.5,6.1-.6-3.6-.5-6.4-2.3-9.7-2.1a22.7,22.7,0,0,1-8.7-1.4,21.3,21.3,0,0,0-12.6-.9,7.6,7.6,0,0,1-2.5.1c-1.6-.1-2.7-0.7-1.9-2.6s-0.1-1.2-.8-1.2a5.4,5.4,0,0,0-1.9.3,5.5,5.5,0,0,0-3.1,2.4c-1.9,3.4-5.5,5.3-7.8,8.5-1.1,1.5-1.8,3.3-3.5,4.4s-1.5,1.2-1.8-.3-1.5-1.5-2.5-.7a6.9,6.9,0,0,0-2.5,7.6c0.4,1.2.4,2.1-.9,2.6a1.6,1.6,0,0,0-1,2.2,2.8,2.8,0,0,1-1.1,3,5.4,5.4,0,0,0-1.9,2.9c-0.1.5-.1,1.3,0.4,1.2s2.4,1.4,3.4-.5c-0.9,4-1.7,7.8-4,11.4a21.1,21.1,0,0,0-3.4,10.5,2.3,2.3,0,0,0,.1,1.2c1.7,0.8.7,2,.5,3S359,434.2,358.8,435.5ZM185.7,568.4c1.2,0.4,1.9-.4,2.8-0.5a1.6,1.6,0,0,1,1.8.7,0.9,0.9,0,0,1-.2,1.2,1.5,1.5,0,0,1-1.8,0c-2.1-.8-3.4-0.2-4.1,2s-3.4,5.5-6.8,6.5a49.6,49.6,0,0,1-6.4,1.3c-2.3.3-3.3,1.7-3.8,3.9a15,15,0,0,0,.5,7.8c0.8,2.8,3.3,3.7,5.4,1.7a25.5,25.5,0,0,1,6.3-4.6,13.2,13.2,0,0,0,5.8-5.4,24.7,24.7,0,0,1,7.8-8.5c12.8-8.6,20.5-20.9,25-35.4a0.7,0.7,0,0,0-.3-1l-0.9,1.6c-0.6-2.1-2.9-1.9-5,.1l3,0.5c0.8,0.1,1.2.4,0.7,1.2s-1.7,4.8-2.8,7.1a71.9,71.9,0,0,1-10.9,16.3c-2.8,3.2-6.5,5.6-9.8,8.3l-0.7.4a0.9,0.9,0,0,1-1.2,0,0.8,0.8,0,0,1,.3-1.1c1.7-1.8,2-4.3,3.8-6s0.4-1.2-.5-1.1C190.9,565.7,188,566.1,185.7,568.4ZM370.6,191.5c-0.9-1.4-1.8-.8-2.8-0.6s-1.2,0-1.4.7,0.4,0.8.7,1.1,1.5,1.5.8,2.3-0.2,1.2.4,1.8,1.8,1.2,1,1.9-1.3,3.1-1.4,4.7c-0.6,5.2-2.8,9.1-7.8,11.3-1.4.6-3.9,1-3.4,3.7a0.6,0.6,0,0,1-.2.5c-2,.7-2.3,2.8-3.4,4.1s-1.1,2.5.9,3.3,3,1.4,2.3,4.5a8.3,8.3,0,0,1-.7,2.2c-0.7,1.2-.1,1.8,1,2.2a27.3,27.3,0,0,0,9.3,1.8c1.9,0,2.5-.9,2.5-2.5a57.7,57.7,0,0,0-.2-8.2,61.5,61.5,0,0,1,1.9-26.3c0.5-1.6,1.3-1.9,2.6-1.2l3,1.7a6.4,6.4,0,0,0-3.2-2.3c-0.9-.3-1.2-0.7-1.1-1.8s1.5-3,.4-4.9,0.4-1.7,1.8-1.5c-1.2-.2-1-2-2-1.7S369.7,189.8,370.6,191.5Zm7.3,28.4c-0.5,1.9-1.6,3.5-2.1,5.3-1.2,4.4-2.4,8.8-3.6,13.2a4.6,4.6,0,0,0,2.6,5.1,1.5,1.5,0,0,0,2-.9,25.9,25.9,0,0,0,2.9-7.7c1.5,2.3-1.2,4.6.4,6.8,2.6-1.4,1.3-4.6,3-6.4,0.6,0.4.1,1.4,1.1,1.5,0.7-2.1,1.1-4.3,1.9-6.2,1.9-4.5,2.8-9.3,4.2-13.9,2.3-7.4,4.6-14.9,7-22.3a1.1,1.1,0,0,0,.2-1.2,1.1,1.1,0,0,0-1.4,0,15.8,15.8,0,0,1-6.5,1.5c-2.3-.1-2.4,1.2-2.6,2.8a0.7,0.7,0,0,0,.8-0.5c0.2-.6.2-1.5,1-1.2s0.3,1.2.1,1.7-0.2,2.6.6,3.8,1.8,2.5.3,3.9-0.9,2.3.6,3,0.9,1,.3,1.6l-3.9,3.5a1,1,0,0,1-1.7-.3c-0.2-.4-0.2-1.3-1-1a1.6,1.6,0,0,0-.9,1.6,3.5,3.5,0,0,1-.2,1.4c-1,1.6-.9,2.8,0,4.8,1.5,3.7,2.7,7.8,1.4,12-0.3,1-.4,2.2-2,1.8s-2.7-.2-2.3-2.2a6.1,6.1,0,0,0,0-.8C380.4,226.9,377.8,223.7,377.9,219.9ZM144.4,288.5l-4.2-2.1a2.2,2.2,0,0,0-1.8-.1c-12,3.9-24.1,7.7-35.3,13.7a10.8,10.8,0,0,0-3.8,2.6,7.3,7.3,0,0,1,4.8.8c4.7,2.4,9.4,2.6,14.2,0l6.9-3.5C131.6,296.5,137.9,292.7,144.4,288.5ZM42.7,275.1c0.8,0.7,1.7,1.4,2.5,1,3.5-2.1,7.3-3.9,10-7.3a33.5,33.5,0,0,0,5.1-9.4c1.4-3.7,6.6-5.9,10.2-4.2l15.3,7.4,5.7,2.5a8.1,8.1,0,0,0-3.6-2.6c-1.7-.6-3.5-1.1-4-3.3a2,2,0,0,0-1.3-1l-19-9.5a6.1,6.1,0,0,0-4.5-.5c-2.9.7-5.6,1.9-8.7,2,0.3,2,.3,3.9,1.7,5.4a3.6,3.6,0,0,1,.5,2.4,42.7,42.7,0,0,0,.1,5.5c0.6,4.1-1.5,6.8-4.6,9A10.4,10.4,0,0,1,42.7,275.1Zm267.1-42.7c-0.3-1.3-1.5-1.9-2.1-2.8s-1.1-1-.7-1.6,1.1-.3,1.7-0.2a12.2,12.2,0,0,1,5.1,1.8c2,1.3,5.9.7,7.3-.9a9.6,9.6,0,0,1-7.9-.8c5.6-1.9,11.6-1.7,16.9-4.5-0.3-.7-1.2.1-1.4-1-0.6-3.8-3-5.7-6.9-6-1.8-.1-3.6.1-5.3,0.1s1.2-1.2.7-2.3a5.2,5.2,0,0,0-2.7,2.1,8.8,8.8,0,0,1-8.8,3.7c-2-.5-4.2-1.4-4.5,2a2.4,2.4,0,0,1-.4.5c-0.3.6-1.4,1.1-.9,1.9s1.4,0.3,2.2.3l2.1-.3c1.3-.2,2.4.3,3.7,1.7-1.8-.1-2.9.6-4.1,1s-2.4,1.3-4,.7c0.4,1.5,2.1,1.9,2.2,3.2s-0.8,2.2-1.8,2.9c1.6-.6,2.8-1.4,2.4-3.3s0.4-.9,1-0.9C306.2,229.4,308.1,230.6,309.7,232.5Zm-84.3,287a12.5,12.5,0,0,0,5.8,2.5,46.2,46.2,0,0,0,10.7,0c3.8-.3,7.3-2.3,11.3-2.1a22.3,22.3,0,0,0,16.3-5.7,3.7,3.7,0,0,1,3-1,38.3,38.3,0,0,0,20.6-4.2c0.5-.2,1.2-0.3,1-1.1s-4.4-2.7-5.5-2.1c-6.3,3.1-13,5.1-20.1,4.7a7.2,7.2,0,0,0-5.4,1.8,20.7,20.7,0,0,1-11.1,4.7c-4.7.4-9.5,0.4-14.1,2a20.6,20.6,0,0,1-4.4.7A36.4,36.4,0,0,1,225.4,519.4Zm132.7-27-0.2-.3-2.3,1.2c-7.3,4.1-15.1,5.5-23.1,2.7-5.1-1.8-9.4-.9-13.9,1.4a29.8,29.8,0,0,1-19.6,3.1c-0.5-.1-1.2-0.5-1.5.2s0.5,0.9.9,1.2c3,1.9,6.3,2.2,9.7,2.3,6.1,0.3,11.6-2,16.9-4.5a12.5,12.5,0,0,1,10-.7c9.9,3.4,18.9,1.4,27.3-4.5a3.3,3.3,0,0,0,1.6-1.9c-3.3,0-5.8,2.5-9.3,2.2ZM342.8,274.5l-2.7-5.1a4.3,4.3,0,0,0-2.5-2.1c-1.7-.6-2.1-1.7-1.5-3.3a26.1,26.1,0,0,1,1.3-3,1.4,1.4,0,0,1,2.7,0c0.4,0.6.5,1.6,1.2,1.9s0.8,1.1.1,1.5-1.5,2.4-.3,3.7a1.4,1.4,0,0,1,.4,1.1c-0.2,1.8,1.2,2.9,2.2,4.1s0.5,0.4,1-.1,1.9-1.6,2.8-2.5,1.6-4.9-1.3-6.1a3.9,3.9,0,0,1-2.7-3.1c-0.8-3.5-2.7-6.2-6.3-7.3a4.3,4.3,0,0,0-4.6,1.1c-1.7,1.8-1.9,4.3-3.1,6.3a1.4,1.4,0,0,0,.4,1.5c1,1.3,1.5,2.7.5,4.3a1,1,0,0,0,.2,1.3l6.7,7.8c-0.5-2.1-.1-2.5,1.3-2.1A20.2,20.2,0,0,0,342.8,274.5ZM425.8,90.8l4.6-1.9a2,2,0,0,0,1.1-2.8c-0.4-1.2-1.3-.2-1.9,0l-6.5,2.3a3.1,3.1,0,0,0-2.3,3.3c0,2.9-.5,5.7-3,7.7-0.9.8-.8,1.5,0.3,1.9a67.1,67.1,0,0,1,12.1,7.3c1.4,1,1.6.4,1.6-.9-0.1-4.8-.2-9.7-0.2-14.5,0-.9-0.3-0.9-1.1-1A7.5,7.5,0,0,1,425.8,90.8ZM213.5,164.3c0.3,1.5-.7,1.9-1.7,2.2a48.6,48.6,0,0,1-5,1.6c-1.7.4-2,1.1-1.5,2.7s2.2,2.9-.2,4.1a1.7,1.7,0,0,0,0,1c0.3,1.7.7,3.3,0.8,5s1,2.1,2.7,1.5l11.1-3.9c1-.4,2.3-0.4,3.2-1.4l-2.6-1.6c-0.3-.2-0.9-0.6-0.5-0.9s-0.3-2.6-.8-2.8-1.1-1.3-.6-1.9,0.4-1.5-.5-2-1.3-1-2.3-.9a0.9,0.9,0,0,1-1.1-1.2A1.3,1.3,0,0,0,213.5,164.3ZM9.2,54.8a3.6,3.6,0,0,0,2.4-1.5,17.2,17.2,0,0,1,8-5.5,4,4,0,0,0,2.1-1.4c0.8-1,.8-1.9-0.6-2.5L9.4,39.3c-1.6-.6-3.4-1.7-3.7,1.4a1.6,1.6,0,0,1-.7.7A1.1,1.1,0,0,0,4.3,43a2.1,2.1,0,0,1-.4,2.2,1.9,1.9,0,0,0-.1,2c1.2,2.2,2.4,4.4,3.6,6.5A2.3,2.3,0,0,0,9.2,54.8ZM158.5,464.9a13.5,13.5,0,0,0-.1-1.8A82.3,82.3,0,0,0,146,435.8c-3.3-4.8-8.1-8.1-11.6-12.6a29,29,0,0,0-2-2.2l-2.1-2-2.1-1.6c9.7,9,15.8,20,20.4,32.1a76.7,76.7,0,0,0-5.7-14.6,9.3,9.3,0,0,1,1.6,2.2,98.2,98.2,0,0,1,7.5,19.6c0.2,0.6.1,1.7,1,1.6s1.5,0.7,2.3,1.2S157.3,462.9,158.5,464.9ZM298.2,272.6c-0.7-1.2-.2-1.9,1.1-2.4a3.6,3.6,0,0,0,1.4-1.2,30.1,30.1,0,0,1,6.7-6.8,4.1,4.1,0,0,0,1.5-2.7c0.1-1,2.1-1.1,1.1-2.4l-2.2-2.5-0.5-.7c-0.6-.6-0.9-2.2-1.8-1.7s-2.4,1.6-2.3,3.3,0.1,1,.2,1.5c0.2,2.4-.5,3.2-2.8,2.8s-3,.7-3.8,2.2a11.7,11.7,0,0,1-.6,1.6C293.3,267.2,293.8,270.3,298.2,272.6Zm-77.3-187a13.4,13.4,0,0,1,0,1.8c-0.2,1.5-.8,2.7,1.9,2.8s5.5-1,6.1-4a32,32,0,0,0,.5-3.3c0.3-2.9-3.7-6.3-6.1-5.2a18.6,18.6,0,0,0-3.3,1.3c-0.8.6-3.7-.1-2.1,2.5h-0.3c-1.6,0-.7.9-0.5,1.5a24.3,24.3,0,0,0,1.3,2.9c0.4,0.8.4,2.2,1.4,2.1S220.3,86.4,220.9,85.6ZM101.1,282.3c0.5-1.7-.8-2.4-2.3-2.9s-3.1-.4-3.9,1.1-1.1,1.1-2.1.3c-3-2.2-5.5-1.3-6.4,2.3-1.4,5.5-1.3,5.6,4.5,5.3a4.4,4.4,0,0,0,1.8-.4,1.4,1.4,0,0,1,1.3-.1C98.6,289.1,101.1,287.1,101.1,282.3Zm96.5,250.8a10.1,10.1,0,0,0,8.1,1.9,62.7,62.7,0,0,0,8.8-2.3,33.3,33.3,0,0,0,10.4-5.8c1-.9,1.1-1.3-0.2-2.1s-4.6-2.3-6.7.5a4.1,4.1,0,0,1-1,.7C211.3,530.2,204.7,532.2,197.7,533.1ZM299.8,180.2c0.9-1,1.8-1.6,2.7-1.4s1.2-.3,1.4-1.1a14.3,14.3,0,0,1,2.5-6.4,1,1,0,0,0,.2-0.8c-0.5-2.2-1.3-4.3-3.4-5.2s-3.9-.7-5.7-1.7a1,1,0,0,0-.8.2c-1.3,1-3.2,1.6-2.3,3.9a1.6,1.6,0,0,1,0,.4c0.1,1.5.5,3,2.2,3.4s1.9-1.1,2.3-2.3,0.5-1,1.1-.7a0.7,0.7,0,0,1,.1,1.1C297.9,173.1,299.4,176.5,299.8,180.2ZM7.5,371.7c0.1,0.9.1,1.6,0.1,2.2,0.3,2.7,1.2,3.2,3.5,1.8l4.8-3,10.1-6.4c0.6-.4,1.4-0.7,1.1-1.6a1.7,1.7,0,0,0-1.9-1,10.9,10.9,0,0,0-2.5.4l-13,4.3C8.1,369,6.9,369.9,7.5,371.7Zm351-187.1c0-3.1,1.9-4.8,4.7-3.8s2.3-.2,2.6-1.5a4,4,0,0,0-.1-3.1c-0.5-.9-0.2-1.7,1-1.5s0.8,0.6,1,0-0.5-.8-1-0.8-2.2,1-2.9,2.1-1.3,2.8-2.6,3.2c-4.9,1.6-8.3,5.2-11.6,8.7a16.4,16.4,0,0,0-2.2,3.6c-0.3.6-.4,1.2,0.6,1,3.5-.6,6.8.1,10.2,0.6,0.9,0.1,1.7.3,2.3-.5s0.1-1.7-.3-2.5S358.4,186.7,358.5,184.7Zm-91.5,94c-1.6,1.3-3,2.3-4.2,3.4-3.1,3-3.2,5.3-1.3,8s4.5,4.4,7.3,6,7.4,2.5,11.1-.5c1.6-1.3,1.1-1.6-.2-2.3s0,1.8-1.2,2.1-1.4-1-2.3-1.1,1,2.1-.4,2.6-1.9-.4-2.6-1.3a14.2,14.2,0,0,0-4.7-4.5c-3-1.6-2.9-5.3-5.1-7.4a0.8,0.8,0,0,1,.5-1.3c2-.6,2.4-2.8,4.1-3.7s1.5-.6,1.8-1.3,2.7-3.4,4.2-4.9c-1.3-.1-9.5,5.7-9.9,7.1S265.6,278.4,267.1,278.6ZM322.3,137c0.4,1.9-.9,3.5-0.6,5.2s0.2,3.6,1.7,5.3c-0.3-4.3-3.1-8.9,2.8-11.4a8.9,8.9,0,0,1-9-2.2c-1.7-1.7-2.8-1.2-4.4-.4-5.2,2.7-5.2,2.7-1.4,7.3a29.4,29.4,0,0,0,7.4,6.7,4.3,4.3,0,0,1-.2-2.7c0.8-2.3-.2-4.6-0.2-6.9,0-.6-0.6-1.6.3-1.8s1.4,0.5,1.8,1.2,0,1.1.7,1.1S321.4,137.2,322.3,137ZM317,444.3c0.4,0.7-.7,1.5.3,1.8s1.2-.1,1.4-1.1a2.2,2.2,0,0,1,2.4-1.6c1.4,0.4,1.9-.5,2.7-1l2-1.2c5.7-2.9,9.3-8,13.1-12.8a3.5,3.5,0,0,0-.2-1.1c-8.6,11.3-20.8,16.5-33.1,21.1a27.5,27.5,0,0,1,13.2,0,15.1,15.1,0,0,0,13-2.3c8.4-5.5,17.2-5.7,26.4-2a2.9,2.9,0,0,0,2.2.5l-1.2-.8c-7.3-3.6-14.9-3.7-22.6-2a3.7,3.7,0,0,0-1.6,1,21.7,21.7,0,0,1-9.1,4.9c-4,1.1-8-.9-12.6-0.8A8.9,8.9,0,0,1,317,444.3Zm-65.5-44.8c-1,0-2,.1-2.6,1a0.7,0.7,0,0,0,0,.9c0.8,0.5,1.6,0,2.4-.2h0.2c0.6-.1,1.3-0.5,1.7.3s-0.1,1.2-.6,1.6-1.4,1.4-.7,2.3,1.5,0,2.1-.4c5.1-2.9,8.8-7.4,12.8-11.5a44.6,44.6,0,0,0,11-17.9c0.2-.5.8-1.3-0.2-1.6s-1.4.2-1.6,1.2a18.4,18.4,0,0,1-2.2,5.1c-1.3,2.5-2.4,5.3-4.4,7.3a81.2,81.2,0,0,1-11.5,10.4c-1.8,1.3-3.4,3.3-6,1.5h-0.6ZM86.8,279.2c-0.1-.5-0.1-0.8-0.1-1.1-0.4-2-2.5-3.3-5.2-3.3s-2.9,1.1-3.3,2.9l-0.4,1.8c-1.7,6.4-1.7,6.4,4.7,7.9l0.8,0.2a0.7,0.7,0,0,0,.9-0.4ZM17.2,268.9a8.2,8.2,0,0,1-6.4,1.8c1.9,1.5,7.8-.4,8.5-2.5a0.6,0.6,0,0,0-.3-0.8c-0.7-.6-0.4-1.1.2-1.2s2.9-3.2,5.5-2.5a1.2,1.2,0,0,0,.8-0.6l3-5.1a2.2,2.2,0,0,0-1.8,1.5c-0.3.8-.7,1.5-1.6,1.3a2.3,2.3,0,0,1-1.7-1.9c-0.1-.5.3-1.1-0.3-1.7a3.9,3.9,0,0,0-1.1.8c-1.2,1.8-3.1,2.7-5,3.4a6.3,6.3,0,0,0-3.6,3c-1,1.8-2.1,3.3-4.6,2.8C10.8,271.1,14.1,268.6,17.2,268.9ZM431.6,129c0-2.8-.1-2.9-2.4-2.1l-15.3,4.7c-0.5.2-1.3,0.1-1.4,1a3.3,3.3,0,0,0,4.1,3.5c4.2-1.3,8.4-2.8,12.6-4C431,131.5,432,130.6,431.6,129ZM53.2,451.4l0.6,0.6,1.8-2.1a89.2,89.2,0,0,1,11.3-10.4c16.4-12.4,34.2-21.4,54.9-24.1a2,2,0,0,0,1.9-1.4c-14,1.1-26.6,5.8-38.6,12.3S61.9,440.6,53.2,451.4Zm242.7-15c1.1,0.5,2.3,1.6,3.4,1.4,2.9-.5,1.9,1.1,1.5,2.4l-3.3,10.3,3-1.4,2.8-.9a3,3,0,0,0,1.6-4.4,17.1,17.1,0,0,0-1.9-2.5,3.1,3.1,0,0,1-.6-4,1.9,1.9,0,0,0,.3-2l-3.9-6C297.4,431.5,297.4,434.1,295.9,436.4Zm129.4,62.2c0-3.2-1.6-5.4-3.9-5.8a3.8,3.8,0,0,0-4.5,2.9,7.8,7.8,0,0,0,1.1,6.6c0.9,1.3,2.3,2,3.8,1.1A6.2,6.2,0,0,0,425.4,498.5Zm-186-379.8a8.8,8.8,0,0,0,5.2-3.9c1.4-1.9,1.2-3.7-.9-5a7.6,7.6,0,0,1-2.6-2.9c-2-3.5-4.9-3.6-7.3-.4s-1.9,4.5-1.1,5.9c0.8-.6.6-1.5,1-2.3s2.7-2.4,3.9-1.7,1.5,2.4.4,4.1-1.1,1-1,2.1c1.8-1.1,3.3-3.1,5.3-1S242.5,116.2,239.4,118.7ZM51.5,621.2c-14.2.1-28.4-.6-42.5-0.6H8.1a1,1,0,0,0-1.1.8c0,0.7.5,0.7,1,.8s3.2,0,4.8,0H48C49.3,622.3,50.5,622.3,51.5,621.2ZM295.6,76.1a1.1,1.1,0,0,0-1.5,0,5.1,5.1,0,0,1-4.3.9,23.3,23.3,0,0,1-4.2-1.2c-0.9-.3-1.5-0.4-2,0.4s-2.9,2.3-4.7,3l-5.8,2.5a0.9,0.9,0,0,0-.8.8,1.3,1.3,0,0,0,.8.9,1.9,1.9,0,0,0,1.8.1l14.4-4.4C291.5,78.5,293.9,78.2,295.6,76.1ZM218.4,457.3l-4.9,3.4a91.5,91.5,0,0,1,17.4-6.7l-6.2.7v-0.2l4.5-1.6c-1.8-2.6-1.9-2.6-4.5-1.7l-2.7,1.1c-0.4.1-.8,0.4-1-0.3a1.4,1.4,0,0,0-2.4-.8C217.6,452.2,217.5,456.3,218.4,457.3ZM330,110.8a2.3,2.3,0,0,0-2.7-1.5c-1.4.2-2.9,0.9-4.1,0.5s-3.5.2-5.2,0.1a1.2,1.2,0,0,0-1.4,1,18.5,18.5,0,0,1-1.2,3.6c-0.2.7-.6,1.7,0.5,1.9a1.4,1.4,0,0,0,1.6-1.5,7.9,7.9,0,0,1,.1-0.8c0.2-.9.1-2.4,1.3-2.2s0.7,1.6.7,2.5-1.3,3.5-.2,5.3a6.6,6.6,0,0,0,3.8-3.9c0.3-.9.9-1.8,1.3-2.8C325.6,110.1,327.1,109.5,330,110.8ZM370.9,622a3.2,3.2,0,0,0,2.8.7,36.9,36.9,0,0,1,6.5-.1c9.8,0.2,19.6.1,29.5,0.1l2.3-.2a0.9,0.9,0,0,0,.9-0.9c-0.1-.5-0.7-0.4-1.1-0.4a21.3,21.3,0,0,0-3.4.1c-4,.6-8,0.2-12,0.1-8.2-.2-16.4.4-24.6,0.2A1,1,0,0,0,370.9,622ZM267.4,141.6a0.7,0.7,0,0,0,.2-0.9c-0.2-.7-0.1-1.3.7-0.6s1.8,0.8,2.5-.4-0.3-.6.4-0.6,2.1-.9,1.7-2.4-1.5-2.4-3.2-1.2a23.5,23.5,0,0,1-4.7,2.5c-1.2.4-1.5,0.8-.9,2.1-0.7-.9-1.1-1.4-2.3-0.5a12.6,12.6,0,0,1-2.8,1.5c-1.2.5-.8,0.9-0.1,1.6s2.7,0.6,3.9,1.4c0.5-1.3-.8-2.1-0.5-3.4,1.1,0.8,1,2.3,2.4,2.7l-0.3-2.6c0.8,0.7.7,1.7,1.5,1.8s-0.7-1.9-.2-2.9S266.5,141.2,267.4,141.6Zm91.9,479.9c-16.8-.8-33,0.3-49.2.1C313.4,622.9,356.8,622.8,359.3,621.5ZM129,168.5a2.6,2.6,0,0,0-3.5-2.6,7.5,7.5,0,0,0-4.4,6.6c0,2.2,2.1,3.6,3.9,2.4A10.3,10.3,0,0,0,129,168.5Zm39.3,97.4c0.4-3.4-1.4-6.1-2.7-8.9a0.6,0.6,0,0,0-.7-0.3c-2.3,0-3.1,1.1-2.1,3.4a15.9,15.9,0,0,1,1.4,7.8c-0.2,1.9,1.5,2,2.3,2.3s1.5-1,1.7-2A15.9,15.9,0,0,0,168.3,265.9ZM362,445.9a9.6,9.6,0,0,0,1.7-3.6,58.5,58.5,0,0,1,4.5-9.7,3,3,0,0,1,3-1.7c2.6,0,5.2.2,7.8,0.5,8.5,0.8,16,5,24.1,7.1,2.1,0.6,3.7,2.1,5.6,3.2a20.3,20.3,0,0,0-12.4-6.1,6.2,6.2,0,0,1-2.2-.6c-7.4-4-15.4-4.9-23.6-4.8a3.5,3.5,0,0,0-3.2,2,51.1,51.1,0,0,0-5.1,11.7C362,444.4,361.5,445,362,445.9ZM225.9,390.6c2.9,6.1,6.6,11.4,12.3,15.2,1.7,1.1,3.1.7,4.6-.1s1-.9.3-1.6a5.4,5.4,0,0,0-4.9-1.8c-3.3.4-4.2-.4-4.9-3.6-0.2-1-.6-2.2-1.6-2.7C229.1,394.7,227.7,392.4,225.9,390.6Zm-130-84a15.4,15.4,0,0,0,0,1.8c0.5,4.4.8,4.5,4.8,2.8s3.5-1.5,2.7-5.5c-0.4-1.9-2-1.4-3-2.2-0.7,1.1-2.5,2.2-2.6,2.7C97.6,308.6,96.7,306.5,95.9,306.5ZM376.1,181.1a4.2,4.2,0,0,0,.7-3.2,11.4,11.4,0,0,0-11.4-8.7A15,15,0,0,0,351.5,180c-0.1.5-.7,1.2-0.1,1.5s1.1-.4,1.3-1a27.1,27.1,0,0,1,3.8-6.3,10.6,10.6,0,0,1,17.4,1.4A19.7,19.7,0,0,1,376.1,181.1Zm-266,103.8,9.5-4.3c0.8-.4,1.3-1.1.6-1.9s-3.7-4.2-6.5-5.1c-0.8-.2-1,0.1-1.1.8A48,48,0,0,1,110.1,284.9ZM321.9,168c0.5,2.7,2.4,4.8,2.5,7.6s0,4.3-.1,6.5-0.6,1.9.5,2.2,1-1,1.2-1.7c1.6-4.4,1-8.9,0-13.2a2,2,0,0,0-2.6-1.4C322.8,168.1,322.3,167.7,321.9,168Zm-5.1,3c0.5-.8,0-1.2,0-1.7s-1.1-3.5,1.2-4.8,0.2-1.6-.5-2.1a14.9,14.9,0,0,0-9.7-2.9c-0.8.1-2.2-.6-2.2,0.7s1.4,1.1,2.3,1.3a1.4,1.4,0,0,0,1-.1c1-.7,1.4-0.1,2.1.6A22,22,0,0,1,316.7,171Zm43.2,215.8a26.9,26.9,0,0,1-19.8-5.4c-2.6-2-5-4.1-7.5-6.1a17.5,17.5,0,0,0-8.6-3.6c-4.9-.7-10,0.6-14.7-1.8,1.6,1.7,3.7,1.6,5.8,1.9s6.1,0.8,9.2.9,5.3,2.6,8.1,3.7a0.5,0.5,0,0,1,.3.6c-0.3,1.1-.2,1.2.8,1a1.7,1.7,0,0,1,1.5.3c1.3,1.1,2.7,2,4,3.1a25.2,25.2,0,0,0,13.5,5.9A17,17,0,0,0,359.9,386.8ZM337,149.5a5.9,5.9,0,0,1-5.4-2.2c-1.9-2.4-2.9-5.2-1.8-8.2,0.5-1.4,0-1.5-1.2-1.6a1.9,1.9,0,0,0-2,1.5c-1.6,4.8,2.3,11,7.3,11.5A3.1,3.1,0,0,0,337,149.5ZM122,594.1a67.1,67.1,0,0,1-13.7,25.5c1.8,0.6,2.5-.4,3.2-1.4,5.2-6.5,8.2-14,11-21.7A2,2,0,0,0,122,594.1Zm93.9-431.3c2.8-.9,5-2.5,7.6-3.2,0.5-.1.2-1-0.1-1.5a0.6,0.6,0,0,0-1-.3c-2.9,1.7-6.2,2.2-9.4,3.3a69.7,69.7,0,0,1-8.1,2.7,1.1,1.1,0,0,0-.7,1.7c0.3,0.8.7,0.8,1.4,0.3a11.3,11.3,0,0,1,4.8-1.3,1.6,1.6,0,0,0,1.7-1.4c0.3-1.6,1.5-1.6,2.7-.9Zm81.4,401.7a9.7,9.7,0,0,1-6.2,3.7c-1.7.3-2,.7-1.1,2.2a3.7,3.7,0,0,0,3.7,1.8C297.5,571.9,299.3,568.3,297.3,564.6ZM275.4,364.7a1.3,1.3,0,0,0-.3.5c-0.2,2.7-1.4,4.5-4.3,5.1s-3.1,3.4-2.8,5,1,1.7,1.9.8a25,25,0,0,1,4.7-3.4,1.7,1.7,0,0,0,1-1.3C275.5,369.3,275.7,367,275.4,364.7ZM178.8,547.1l0.3,0.3v-0.2a3.2,3.2,0,0,1,1.9-1.8,40.2,40.2,0,0,0,9.7-8,18.1,18.1,0,0,0,3.7-5.3c-1.7.6-1.8,2.7-3.6,2.6a3.2,3.2,0,0,0-3.3,2.2c-0.9,2.3-2.8,3.5-4.6,5.1A16.2,16.2,0,0,0,178.8,547.1ZM411.4,129.7c5.5-2.1,10.8-3.6,16-5.3,0.5-.2,1.5-0.1,1.3-1a1.5,1.5,0,0,0-1.7-.9l-1,.3c-3.7,1.1-7.3,2.3-11.1,3.4C413.1,126.7,412.2,127.9,411.4,129.7ZM235.8,97.6l-0.9-2.7c-1.5-3.9-1.5-3.9-5.3-2.5-0.6.2-1.7,0.2-1.7,0.9s1,0.8,1.6,1,1.7,1.8,3.1,1.2,0.7,0.5.4,0.7c-1.9,1.3-.1,2.3.3,3.3s0.3,1.2,1.1,1a2.9,2.9,0,0,0,2.1-1.2,1.1,1.1,0,0,0-.9-1.4C234.5,97.7,235.7,97.4,235.8,97.6Zm80.7,60.7,2.5,1.5a0.7,0.7,0,0,0,.9.1,1,1,0,0,0,.1-1c-0.3-1.5-1.3-2-2.6-2.3-3.4-.8-6.8.3-10.2,0.5a10.2,10.2,0,0,0-4.3.6c-0.5.2-1.3,0.3-1,1s1,0.2,1.4-.1a7.5,7.5,0,0,1,5.9-.7,31.1,31.1,0,0,1,7,2.2l2.6,1.1C318.1,160.2,317.1,159.6,316.6,158.4ZM99.8,414.8a31.7,31.7,0,0,0,8.7-1c0.5-.1,1.5.1,1.2-0.9s-1-.4-1.6-0.3-2.1,1.4-3.4,1c-2.8-.9-5.6.2-8.6-0.4s-6.8-.8-10-2.4c-0.6-.3-1.4-0.9-1.8,0s0.7,0.9,1.2,1.1A33.7,33.7,0,0,0,99.8,414.8ZM63,130.3h0.7c0.1-2.6.3-5.1,0.4-7.7a2.1,2.1,0,0,0-1.3-2,4.8,4.8,0,0,1-2.8-3.9,4.5,4.5,0,0,0-.6-1.3,0.9,0.9,0,0,0-1.2-.6c-0.5.3-.1,0.8,0,1.1l1.6,5ZM279.3,95.1a2.2,2.2,0,0,0,2.9.3c1-.5,1.8-1.3,2.8-1.9s2-.9,3.1-1.4,0.9,0.9,1.4.4a1.4,1.4,0,0,0-.1-1.9c-0.6-.8-0.2-1.1.5-1.4a1.4,1.4,0,0,0,1.2-1.2c-4.6,1-8.6,3.1-12.8,4.7,0.9,0.6,2.2-.7,2.5,1.2S279.4,94.1,279.3,95.1Zm62-26.5c2.5,1.7,1.8,5.3,4.1,7s3.7,3.9,6.9,4.9C349.4,75.3,346.1,71.3,341.2,68.6ZM37.9,281.8c-1-2.5-1.9-4.5-1.3-6.9,0.2-.7-0.3-1-1-1.1s-2.2-.1-2.5.9-1.2,3.4.3,4.9,1.3,0.9.3,1.8-0.1.7,0.2,0.9a0.6,0.6,0,0,0,.9-0.2C35.6,281.3,36.5,281.3,37.9,281.8ZM368.2,83.6c0.9-.6,1.4,1.4,2,0.2s-0.6-1.3-1.3-1.6l-1.4-.6c-0.6-.2-1.3-0.2-1.1.6s-0.4,1-1.2.9-1.3.1-1.3,0.5c0.3,1.9-1.2,1.3-2.1,1.7a1.2,1.2,0,0,0-1,.9,0.8,0.8,0,0,0,1.2.6c1.9-.6,3.2,1,4.7,1.5s1.6,0.8,2.6.5a2.3,2.3,0,0,0-2.1-2.1,1,1,0,0,1-.9-1.2c0-.4.2-0.8,0.6-0.6S368.3,84.3,368.2,83.6ZM292.8,406.2c-3.2-1.4-3.3-4.5-4.7-6.8a7.4,7.4,0,0,0-.3,2.2c0,0.7-.4,1.1-1.1.8s-2-.2-2.1,1-0.3,2.9,1.1,3.8a1.7,1.7,0,0,0,2.5-.8,1.5,1.5,0,0,1,2.3-.5A2.5,2.5,0,0,0,292.8,406.2Zm79-145.6c2.7-2.5,6.7-1.1,9.7-3.3-2.8-.6-12.4,2.5-14.6,4.5,1,0,2.1-.6,2.8.4s2.7,1.6,4.2,2.1a0.8,0.8,0,1,0,.7-1.3A9.6,9.6,0,0,1,371.8,260.7ZM221.5,328.3a0.7,0.7,0,0,0-.8-0.5l-2.9.4c-4.3,1-8.1,3.1-12.3,4.2a9.9,9.9,0,0,0-2,.7,1,1,0,0,0-.7,1.3c0.3,0.6.9,0.1,1.3,0,5.7-1.4,10.7-4.6,16.6-5.4A0.9,0.9,0,0,0,221.5,328.3ZM69.7,395.2a3.1,3.1,0,0,1-.5,1.4c-2.1,1.1-2.9,3.4-4.5,4.9s-2.1,1.4-2.2,2.1-0.4,3.7,1.1,5.2a4.7,4.7,0,0,0,4.6,1.4,13.8,13.8,0,0,0,4.4-1.9c1.2-.8,2.4-1.6,4.3-1.6-1.3-.7-2-0.9-3.1,0a13.5,13.5,0,0,1-5.8,2.8,3.8,3.8,0,0,1-4.1-1.5,3.2,3.2,0,0,1-.1-3.9,18.6,18.6,0,0,1,5.3-5.4C70.2,397.8,70.8,396.9,69.7,395.2ZM59,347.5a12.4,12.4,0,0,0,7.7-3.5,28.4,28.4,0,0,1,5.3-4.1,24.5,24.5,0,0,0,6.3-5.2C71.7,338.8,65.8,343.8,59,347.5ZM219.1,165.9c-1-.2-0.9-1.1-1.6-1.1a1.1,1.1,0,0,0-.7.2,0.9,0.9,0,0,0,.1.7c1.1,2,4.5,2.3,5.8.5a4.6,4.6,0,0,1,2.1-1.6c0.6-.2,1.3-0.3.9-1.3s-0.8-1.2-1.8-.8-2.5.7-3.7,1.3A1.5,1.5,0,0,0,219.1,165.9ZM204.6,303.3c2.2,0,4.5-2.6,4.2-4.7s-0.9-1.2-1.7-.8a10.4,10.4,0,0,0-3.9,2.8,1.7,1.7,0,0,0-.4,1.9A1.8,1.8,0,0,0,204.6,303.3Zm203,197.3-1.8.2c-1.3.1-3.5-.5-1.7,2.1,0.3,0.5-.1,1.7.9,1.5s0.5-1.1.5-1.8a0.6,0.6,0,0,1,.5-0.8,0.6,0.6,0,0,1,.5.5c0.2,0.8-.3,2,1.3,1.9a9.8,9.8,0,0,0,2.7-.3c1.4-.6.5-1.8,0.5-2.7s-0.6-1.3-1.2-.9S408.2,501.1,407.6,500.6ZM378.7,62.5l-2.4-5.4a1,1,0,0,0-1.5-.7l-1.7.6c1.2,1.1-.7,2.5.4,3.7S376.3,63.4,378.7,62.5ZM30.9,281.1c0,2.9,1.7,5.1,2.9,7.3s1.2,2.5,2.6,1.6,0.3-2.1-.1-3.2a4.5,4.5,0,0,0-.9-1.1ZM364,499.7c-2.3,3.5-6,3.9-9.4,5a4.9,4.9,0,0,0,5.7,1.2A5.7,5.7,0,0,0,364,499.7ZM124.7,314.2c0-1-.5-1.4-1.3-0.9l-5.3,3.3c-0.9.6-.4,0.9,0.3,1.3C121.4,319.7,124.6,317.8,124.7,314.2Zm173.4-34.7a21.1,21.1,0,0,1,7.3-4.9c0.5-.2,1.5-0.2,1.4-1s-0.9-.8-1.5-1a4,4,0,0,0-2.3.2C299.8,273.6,298.6,276,298.1,279.5ZM208.8,418.6c-2.8,1.3-5.9,2-8.7,3.3-0.7.4-.5,1-0.4,1.7s1.6,2.6,2.1,3.9,2,2,3.8,1c-1.6-.5-3.1-1-3.3-2.7s1.4-2.4,2.2-3.9c-2,.5-3.6,1-3.3,3.5-1.4-2.3-.3-3.1,1.5-3.6A14.1,14.1,0,0,0,208.8,418.6ZM25.6,505.8l10.2-3.4,0.3-.2a0.9,0.9,0,0,0,.2-1.1,0.7,0.7,0,0,0-.9-0.3,82.7,82.7,0,0,0-10.7,3.8,0.7,0.7,0,0,0-.6.8C24.3,505.9,24.8,505.8,25.6,505.8Zm224.7-403c1.9-.3,3.8-1.6,6-1.7a1.2,1.2,0,0,0,.5-0.4,0.8,0.8,0,0,0,.2-1.1c-0.3-.4-0.6-0.2-0.9,0l-4.2,1.9c-0.5.2-1.6,1.2-1.2-.6,0.1-.2-0.1-0.5-0.3-0.4s-2.4-.1-3.5.3a1.9,1.9,0,0,0-1.2,2.7c0.7,1.3,1.4-.1,2-0.3S249.2,102.3,250.4,102.8ZM103.8,269.5a1.7,1.7,0,0,0-.5-0.7L96,265.1a1.1,1.1,0,0,0-1.3.8c-0.3.5,0.2,0.8,0.6,0.9l7.3,3.6C103.4,270.9,103.7,270.4,103.8,269.5Zm121.6,271c2.6,0.1,3.5-.9,3.8-3.8,0.1-1.4-1-.8-1.6-0.8-2.5-.1-3.4.9-3.4,3.7C224.2,540.4,224.7,540.5,225.4,540.4ZM52.8,111.6c-0.1-1.5-.7-2.7-2.3-2.7a2.2,2.2,0,0,0-2.4,2.3,2.5,2.5,0,0,0,2.4,2.8C52.1,114.1,52.7,113,52.8,111.6Zm196.6,40c0.5-1.2-1-2.4-.1-3.7,0.8,1,.8,2.3,1.8,3.1,0.7-2.2-.5-3.6-1.5-5s-0.6-.7-0.7-0.1-1.9,1.4-2.8,2.2-0.9.3-.7,0.8a12,12,0,0,0,2.2,4.1c0.4-1-.2-1.4-0.3-2s-1.4-1.7-.4-2.2,0.9,1,1.4,1.6S248.6,151.6,249.4,151.6Zm34.7,469.9a3.5,3.5,0,0,0,.7.9c4.1,0.5,8.3.2,12.4,0.1a0.8,0.8,0,0,0,.6-0.5,0.6,0.6,0,0,0-.7-0.6h-13ZM17.2,251.1a1,1,0,0,0-.9.5,2.8,2.8,0,0,1-3.1.8c-1.3-.5-1.6-1.6-1.7-2.9a15.6,15.6,0,0,1,.1-1.7c0-.5.4-1.1-0.4-1.2s-0.5.5-.6,0.9c-0.6,2.9.9,5.5,1,8.3a0.6,0.6,0,0,0,.8.4c-0.4-1.8,1-2.2,2.2-2.9S16.9,252.6,17.2,251.1ZM293.3,382.8c-4.4,2.9-7.1,10.5-4.8,14C289.3,391.7,289.7,386.7,293.3,382.8Zm49-158.5-0.4-.4-5.4,3.4c-0.5.3-1.8,0.5-1.1,1.3s2.1,2,3,1A18.5,18.5,0,0,0,342.3,224.3ZM40.6,56.6c-0.1-1.4-.6-2.4-2.1-2.5a2,2,0,0,0-2.3,2.1,2.4,2.4,0,0,0,2.3,2.5A2.1,2.1,0,0,0,40.6,56.6ZM321.4,510.1a1.8,1.8,0,0,0-1.7,2.2c0.1,1.4.7,2.5,2.2,2.6a1.8,1.8,0,0,0,2-2.1A2.6,2.6,0,0,0,321.4,510.1ZM56.3,165.8c-2.7,2.7-3.5,5.6-4.1,8.8C55.3,172.6,56.5,169.7,56.3,165.8ZM263.5,98.6c-2.9,3-6.8,4.8-10.1,7.3,1.8,0.1,3.7.3,4.8-1S262.3,101.2,263.5,98.6ZM78.2,331.4a6.3,6.3,0,0,0,3.5-2.3c0.5-.6,1.2-1.3.4-2a3.3,3.3,0,0,0-2.9-.9c-1,.2-1,1-1,1.8S78.2,330.1,78.2,331.4ZM248.5,96.9c2.2,0.3,4.2-1.9,5.5,1.1-0.1-1.5.3-1.9,1.5-1.7l3.5,0.5c1.2,0.3,2.5.7,3.8,0.2-1.8-.6-3.8-0.8-5.6-1.5S251.6,95,248.5,96.9ZM196.8,560.3c0.7,0.1.8-.4,1.2-0.6s0.3-3.8,3-2.3l0.5-.6,1.3-1.7c0.4-.6,1.3-1.2.4-1.9s-1.6-.2-2.2.4S198.1,557.9,196.8,560.3Zm132.9-456c-3.3-1.3-10.1.4-11.6,2.8C322,105.7,325.9,105.3,329.7,104.2ZM404,125.1l0.3,0.7,19-6.2-0.2-.6Zm-12-23.7c1.2,1.9,2.6,3.5,3.3,5.6s4.5,3.6,7.1,4.9c-0.9-1.4-2.4-1.8-3.7-2.4a4.7,4.7,0,0,1-3-3.5C395.2,103.7,393.6,102.5,392,101.4ZM289.2,240.8a2,2,0,0,0-1.8,1.2,29.3,29.3,0,0,0-2.3,8.7,4.5,4.5,0,0,0,1.2,3.7,0.9,0.9,0,0,0,1.4.2c-1.8-1.3-2.2-2.8-1.6-5.4S287.3,243.6,289.2,240.8ZM301,390.5a11.9,11.9,0,0,0-1.8,6.1c0,0.6-.2,1.4.6,1.6s0.8-.7,1-1.3C301.6,394.8,300.5,392.6,301,390.5Zm-68.3,59.3c5.9-1.7,11.9-1.4,17.9-1.2A37.4,37.4,0,0,0,232.7,449.8ZM338.5,204.6c0.7-.9-0.2-2.1.9-2.7s0,1.4,1,1.8c0.2-1.3.2-2.4-.7-3.2a2.3,2.3,0,0,0-2.1-.4c-1.6,1.2-1.5,3.1-1.7,5.4,1-1.7,1.1-3.2,2.2-4.3C338.7,202.3,337.5,203.5,338.5,204.6ZM423.6,59l0.2,0.4,6.2-2.8a2.8,2.8,0,0,0,1.5-1.2,0.8,0.8,0,0,0,0-1,0.7,0.7,0,0,0-.9,0ZM323.7,506.1a3.3,3.3,0,0,0,4.4.9,2.4,2.4,0,0,0,1.5-3C327.8,505,326.1,506.1,323.7,506.1ZM167.7,622a41,41,0,0,0-11-.3C160.3,623.6,164,621.3,167.7,622ZM276.2,99.3c2.2,3.6,6.7,4.6,8.5,1.9C281,103.8,279.3,99.4,276.2,99.3ZM172.8,258.9c1.3,2,2.7,4,4.9,5.1a0.8,0.8,0,0,0,1.3-.4c0.4-.6.1-0.9-0.4-1.1A21.4,21.4,0,0,1,172.8,258.9Zm52.8,323.5c-2.3.5-3.9,1.9-5.4,3.6C223.2,586.5,224.8,585.2,225.5,582.3ZM361.3,398.3c1.6,0,2.9,0,2.8-1.9s-0.1-1.5-1-1.2a3.8,3.8,0,0,0-2.8,2.5C360,398.6,361.1,398.2,361.3,398.3Zm-5.6-133.9c-1.4.7-3,1.3-3.4,3.1a1.3,1.3,0,0,0,.2,1.4c0.5,0.4.9-.1,1.3-0.3S355.5,266,355.8,264.3Zm-69.4,13.7c-1.7-2.1-3.5-4.2-5.3-6.8C280.3,275.9,284.2,276.2,286.3,278.1Zm6-47.2a1.1,1.1,0,0,0,.4-0.9c0.2-.7-0.7-1.8.2-2.1s1.5,0.8,2.2,1.3,0.8,2,2.1,2.3a13.4,13.4,0,0,0-1.9-3.2c-0.7-.9-1.7-2.3-2.8-1.9s-0.6,2.1-.5,3.2A1.4,1.4,0,0,0,292.4,230.9ZM16,242.2c-0.6.3-1.9-.4-1.8,1s-0.2,2.1,1.2,2.1a2.5,2.5,0,0,0,2.3-2C17.8,242.4,16.8,242.2,16,242.2ZM230.3,596a8.1,8.1,0,0,1,4.3-2.1c1.8-.2-1-1.5.4-1.8-0.2-.7-0.7-0.3-1-0.2A5.2,5.2,0,0,0,230.3,596ZM154.2,326.1c-5.8.2-5.8,0.2-5.3,5.4,0.2,1.7.8,2.5,2.8,1.6-2.4-.4-2.3-2.2-2.4-3.9C149.2,325.4,153,327.7,154.2,326.1ZM76.3,401c1.1-1.2,1.7-.2,2.4.3l3.3,2.1c0.6,0.4,1.6.5,0.8,1.7s0.1,0.8.5,1a1,1,0,0,0,1.1-.4c0.4-.4.2-0.7-0.1-1.1a5.8,5.8,0,0,0-.8-0.9l-5.7-3.8C76.9,399.1,76.7,400,76.3,401Zm183.4,4.3c3.4,1,8,.7,9.2-0.7ZM218.3,621.6l-5.9-.4a0.7,0.7,0,0,0-.8.8,0.8,0.8,0,0,0,.9.6C214.5,622.7,216.5,622.8,218.3,621.6ZM179.8,556a142.7,142.7,0,0,1-.4,14.6C180.4,565.8,180.1,560.9,179.8,556ZM75.9,622c-0.3-.7-0.8-1-1.3-0.7s-2.7.2-4.1,0.2H68c-0.6,0-1.4-.4-1.4.6s0.8,0.5,1.4.5l3.1-.2C72.7,622.1,74.3,622.5,75.9,622ZM362.7,87.2a6.4,6.4,0,0,1-2.2,1.9,0.6,0.6,0,0,0-.3.9,0.9,0.9,0,0,0,.7.4c1.6-.9,3.5.2,5.2-0.8C365.4,88,362.8,89.9,362.7,87.2Zm30.5,85.1c1-1.7,2.6-2.8,3.3-4.6s0.4-.9-0.1-1.1a0.7,0.7,0,0,0-.9.7c-0.3,1.6-1.3,1.7-2.6,1.6a1.5,1.5,0,0,0-1.7.5C393.5,169.1,393.8,170.3,393.2,172.2Zm38,164.3a32,32,0,0,0-2.8-9.6C428.5,330.3,430.4,333.3,431.3,336.5Zm-166.4-159c-1.5.3-2-.5-2.4-1.5a3.1,3.1,0,0,0-1.4-1.2c-0.7-.4-1.2.1-0.9,0.7a6.2,6.2,0,0,0,2.4,3.1C263.2,179.1,263.9,177.8,264.8,177.5ZM89.7,301.1c1.9-.3,3.3-2,3-3.6a1.2,1.2,0,0,0-.9-1.1c-0.7-.2-0.7.5-0.8,0.9Zm175.9,26.7c-0.3-4.2-2.9-7.3-5.3-10.4A63.5,63.5,0,0,1,265.6,327.8Zm85.9,90.7c2.9-2,4.7-5.9,4.3-8.1C353.9,412.4,353.7,415.6,351.5,418.5ZM185,268.4a17.2,17.2,0,0,0,8.5-3.7C190.7,265.9,187.7,266.9,185,268.4ZM83.5,317.3c-1.3-.4-2.5,1.2-3.6-0.4s-0.6-1.1-1-.6-0.3,1.9-.2,2.8,0.8,0.4,1.1.2ZM36.1,266.4c1.2,1-1.3,2.9.8,3.5s2.2-.4,2.2-1.2S37.2,267.3,36.1,266.4Zm315.2-53.5c-1.6-.4-3.3.5-4.9-0.5s-0.4.7-.1,1.1S349.5,214.9,351.3,212.9ZM269,307.8l-6.7-1.7C264.2,308.7,264.8,308.9,269,307.8ZM220,102.3c1.5-1.4.8-3.3,1.6-4.8s-0.3-.6-0.8-0.3S219,100.7,220,102.3ZM182.7,351.6l3.6-.9a0.6,0.6,0,1,0-.3-1.2l-3.9.7c-0.5.1-1.1,0.3-.9,0.9S181.9,351.4,182.7,351.6ZM248.9,622c-2.1-.9-3.7-0.5-5.3-0.5a0.5,0.5,0,0,0-.5.5,0.6,0.6,0,0,0,.4.4C245.2,622.7,246.9,623,248.9,622Zm19-.2a19.8,19.8,0,0,0-5.5-.3,0.6,0.6,0,0,0-.7.5,0.6,0.6,0,0,0,.4.4C263.8,622.3,265.7,623.2,267.9,621.8ZM368.1,622a7.7,7.7,0,0,0-5.9.1A7.8,7.8,0,0,0,368.1,622ZM91.2,325.3c1.8-1.4,4.5-1.6,5.7-3.9C94.8,322.4,92.2,322.7,91.2,325.3Zm117,102.1c2.2-1.2,2.5-3.8,1.1-6.2s-1.6-.8-2.7-0.3C210.1,422.3,210.4,423.8,208.2,427.5Zm39-332.5c2.2,0.5,2.2.5,6.8-1.7A10.2,10.2,0,0,0,247.2,94.9Zm57.6,419.5v-0.4c-1.5.1-1.6-1.4-2.5-2.1a0.5,0.5,0,0,0-.7.2c-0.3.4-1,1.2-.7,1.4s1.9,0.9,2.7,1.6a0.8,0.8,0,0,0,1.1-.3ZM290.3,287.4c0.5-.5,1.4-0.5,1-1.6a9.8,9.8,0,0,0-2.2-3,0.5,0.5,0,0,0-.7-0.1,0.5,0.5,0,0,0,0,.7,7.9,7.9,0,0,1,1.6,3.3A1.8,1.8,0,0,0,290.3,287.4Zm-23.1-136c0.9-.3,1-1.1,1.3-1.7a1.4,1.4,0,0,0-.5-1.8,2.1,2.1,0,0,0-1.4-.4,6.3,6.3,0,0,1-.4,3.3C266.2,151,266.7,151.3,267.2,151.4Zm22.1,88.4c6.7-2.6,6.7-2.6,6.8-4.4C294.6,238,291.1,237,289.3,239.7Zm-31.2,42.4,0.3,0.4c1-.6,2-1.2,3-1.9s1.3,0.1,1.4-.6a2.5,2.5,0,0,0-1.1-1.7,0.7,0.7,0,0,0-.9-0.2,0.6,0.6,0,0,0-.1.9c1,0.9.1,1.1-.4,1.4Zm141.9,89.7-0.2.6c2,1.3,4.4,1.6,6.7,2.1l0.2-.6ZM253,621.5c1.5,1.5,3,1.1,4.4,1.1a0.7,0.7,0,0,0,.8-0.5c0-.6-0.5-0.6-0.9-0.6H253ZM387.1,189c0.6-.5,1.3-1.3,1.7,0a3.1,3.1,0,0,0,1-1.8c0.1-.4.3-0.9-0.4-1s-1.3-.3-1.8.4A3.1,3.1,0,0,0,387.1,189ZM13.6,258.7c1.9-.5,2.7-1.4,2.8-3s0-.8-0.4-0.8a1.1,1.1,0,0,0-.8.6C14.7,256.4,14.3,257.3,13.6,258.7ZM66.9,578.9l3.8-2.4c0.6-.3.9-0.8,0.5-1.3s-0.9-.1-1.2.2A7.8,7.8,0,0,0,66.9,578.9Zm-44-138.3c-1.4,2.1-2.9,3.9-5.9,3.4C19.9,445.1,21.9,443.9,22.9,440.6ZM225.1,95.2c1.9,0.1,3.4,1.1,5.2,2.1A4.1,4.1,0,0,0,225.1,95.2ZM33.9,261.6c1.6,0.8,2.8.4,3.9,0.2s1.1-.2.9-0.9a0.9,0.9,0,0,0-1.4-.4C36.4,261.1,35.4,261.2,33.9,261.6ZM211.1,609.8l-0.4-.4-3.8,4.2A8,8,0,0,0,211.1,609.8Zm66.7,11.5c-0.5.4-1.7-.4-1.8,0.7s1,0.6,1.6.6,1.9,0.3,2-.6S278.5,621.7,277.8,621.4Zm137.4,0a7.7,7.7,0,0,0,4.1,1.2,0.7,0.7,0,0,0,.9-0.6c0-.5-0.6-0.5-1-0.5h-4ZM293.5,285.2c0.6,0.1,1.4-.1,1.1-0.4s-0.3-1.8-1.2-1.8-1.8,0-1.7,1S292.7,285.2,293.5,285.2ZM397,185.1a6.2,6.2,0,0,0-1.1.7,2.8,2.8,0,0,0-.6,2.4,0.4,0.4,0,0,0,.6.4c0.9-.3.9-1.2,1.1-1.9A1.4,1.4,0,0,0,397,185.1ZM178,314.5c0.5-2,2.3-3.4,2.6-5.5C179.7,310.8,177.7,312.1,178,314.5ZM301.5,622.3c1.8,0.6,3.6.2,5.9-.4C305,621.1,303.3,621.9,301.5,622.3ZM117,398a9,9,0,0,0-3.9-3.3C113.6,396.6,113.6,396.6,117,398ZM253,317.8l1.4,3.1a0.7,0.7,0,0,0,.8.5,0.8,0.8,0,0,0,.4-1C255.5,319.1,254.6,318.4,253,317.8ZM192.8,159.2c-0.5-.8,0-2.2-1-3h-0.5c-0.6,1.2.4,2.3,0.4,3.4a0.6,0.6,0,0,0,.6.7C192.9,160.3,192.8,159.9,192.8,159.2ZM304.7,86.7l8.5,0.8C310.4,86.9,307.6,86.2,304.7,86.7ZM274.3,259.1a22.4,22.4,0,0,0-1.7,1.9c-0.5.8,0.5,1,.7,1.5a0.6,0.6,0,0,0,.8.4,0.6,0.6,0,0,0,.4-0.8C274,261.3,274.4,260.3,274.3,259.1Zm105.5-53.4c0.5-.7,2.2-0.8,1.3-1.9s-2.4-1.6-3.7-2.3C377.5,203.3,381.2,202.8,379.7,205.7ZM3.8,61.5c2.1-2.3,2.1-3.3-.3-5C4.5,58.2,4.2,59.6,3.8,61.5ZM24.9,405.8a1.1,1.1,0,0,0-1.3-1.2c-0.5.1-1.4,0.1-1.2,0.8a2.5,2.5,0,0,0,1.8,1.7C24.8,407.2,24.8,406.3,24.9,405.8ZM53.2,104.3a1.2,1.2,0,0,0-2.5.1,1,1,0,0,0,1.2,1.1A1.2,1.2,0,0,0,53.2,104.3ZM92.7,554.5c2.4,0,4.8-.2,6.6-2C97.3,553.5,94.9,553.8,92.7,554.5ZM237.1,164c0.4,1.4,1.3,2.1.7,3.2a0.7,0.7,0,0,0,.5,1.1,0.9,0.9,0,0,0,1-1.1A3.6,3.6,0,0,0,237.1,164ZM65.7,588.7a1.3,1.3,0,0,0-.9,1.4,0.8,0.8,0,0,0,1,1,1.3,1.3,0,0,0,.8-1.5A0.8,0.8,0,0,0,65.7,588.7Zm61.6,32.7c1.1,1.1,2.2.8,3.2,0.5a0.6,0.6,0,0,0,.2-0.5c-0.7-.7-1.7-0.3-2.5-0.4ZM109.9,307c-1.8-.4-3.2.5-5,1.9C107.1,308.7,108.4,307.8,109.9,307ZM348.1,199.8h0.7c0.1-1.2.2-2.5,0.3-3.7a0.6,0.6,0,0,0-.5-0.8c-0.5-.1-0.5.4-0.5,0.7S348.1,198.5,348.1,199.8ZM296.7,213c-0.4-.5-0.7-1.3-1.4-1.4s-0.9.8-1,1.4,0.8,0.7,1.4.8A0.8,0.8,0,0,0,296.7,213Zm27.5-62.4a5.6,5.6,0,0,0,2.2,4.7ZM223.3,384.1c-1.7,2.6,1.2,3.3,1.6,4.8ZM298,283.5a2.2,2.2,0,0,0-1.9-1.3c-0.4,0-.8.4-0.6,0.6s0.1,1.8,1.2,1.8A1.1,1.1,0,0,0,298,283.5Zm-6.5-3a1.6,1.6,0,0,1,2.2-.7c0.9,0.4,1.3-.3,1.4-1.2S291.9,277.5,291.5,280.5ZM273.2,152l0.6-.2a10.3,10.3,0,0,0-1.7-4.3l-0.5.2ZM255.7,279.8a1.4,1.4,0,0,0-1.3-1.4,0.9,0.9,0,0,0-.9,1,1.3,1.3,0,0,0,1.1,1.5C255.2,281,255.5,280.4,255.7,279.8Zm36.8-21.2c-0.8,1.7-.3,2.5.9,3.2s0.7,0.3.9-.1a0.6,0.6,0,0,0-.2-0.9C293,260.6,293,259.7,292.4,258.7ZM321,180.1a5.9,5.9,0,0,1-2.4,4.3C321.1,184,321.7,182.9,321,180.1Zm84.6-72.5a9,9,0,0,0-4.7-1.1C402.6,107.9,404.2,107.5,405.7,107.6ZM304.2,239.5l-4.4-3.4A6.5,6.5,0,0,0,304.2,239.5ZM169.9,268.9a1.1,1.1,0,0,0-1,1.1,1,1,0,0,0,.9,1.2c0.8,0,1-.7.9-1.3A0.8,0.8,0,0,0,169.9,268.9Zm163-162.6c0.5-1.5-.5-2.3-1.5-3.5C331,104.6,332.1,105.4,332.9,106.3Zm7.3,1.9c-0.3-.6-0.2-1.6-1-1.8s-0.6.8-.7,1.3a1.2,1.2,0,0,0,1.1,1.4C340.2,109.2,340.1,108.7,340.2,108.2Zm82.7,89a13.4,13.4,0,0,0-5.1,1.5C419.3,198,421.3,198.8,422.9,197.2Zm-148.7,8.7c0-.8-0.7-0.8-1.3-0.9s-1-.1-1.1.6a1,1,0,0,0,1.1,1.2A1,1,0,0,0,274.1,205.9ZM373,175.7c-1.8-2.9-2.7-3.2-3.6-1.6C371,173.9,371.9,175,373,175.7ZM280.1,363.6a4,4,0,0,0-.5,3.8C280.4,366,280.7,364.9,280.1,363.6Zm-4.7-211.6a8.7,8.7,0,0,0,1.8,4.6A6.3,6.3,0,0,0,275.5,152.1Zm-105.3,109c0-.6-0.1-1.2-0.9-1.1a1,1,0,0,0-1,1.1,1.2,1.2,0,0,0,1.3,1.1C170.2,262.2,170.2,261.6,170.1,261.1ZM273,146.3a8.7,8.7,0,0,0,2,4.6A7.5,7.5,0,0,0,273,146.3ZM48.2,294.5c-1.4.2-2.5,0.5-3.3,1.7a0.6,0.6,0,0,0,.1.5c1.3,0.1,2-.9,2.9-1.5A1.9,1.9,0,0,0,48.2,294.5ZM266.4,143.6c1.2,4.4-1.3.3-1.5,1.9a1.1,1.1,0,0,0,1,1.1,1.9,1.9,0,0,0,1.4-.7C267.8,145.2,267,144.8,266.4,143.6ZM318,122.9c1.1-.9,2.8-0.1,3.6-1.7C320.4,121.8,318.7,121.1,318,122.9ZM268,268c-0.6-.4-0.3-1.5-1.1-1.7a0.8,0.8,0,0,0-.7,1,2,2,0,0,0,1.3,1.4C267.9,268.9,268,268.5,268,268ZM38.5,475.8a6.9,6.9,0,0,0,1.4-4.5C39.7,472.9,38.5,474.1,38.5,475.8ZM298,518.5c0.8-1,1.9-1.9,1.8-3.5C298,515.7,298.2,517.2,298,518.5Zm32.2-416.6c-1.4-1.2-2.9-1.1-4.7-.4Zm-52.9,49.4-0.5.2,1.2,3.4c0.1,0.3.3,0.7,0.7,0.4a0.5,0.5,0,0,0,.1-0.7ZM229.5,85.6c0,0.5-.1,1.2.8,1.1a0.8,0.8,0,0,0,.7-1c-0.1-.6-0.2-1.4-0.9-1.4S229.5,85.1,229.5,85.6ZM345.9,211.1a11.1,11.1,0,0,0,4.1-2.5A4.7,4.7,0,0,0,345.9,211.1ZM298,172.5l-2.4-.3c-0.3,0-.8.3-0.5,0.6a2.2,2.2,0,0,0,2,.8A1,1,0,0,0,298,172.5Zm-7.2,35.7a2,2,0,0,0-2.2,1.5,0.6,0.6,0,0,0,.6.7C290.7,210.4,290.1,208.8,290.8,208.2ZM214.4,600.5a3.7,3.7,0,0,0,2.5-3.7Zm62.1-450.3a6.1,6.1,0,0,0-2.1-4.3C275.1,147.5,275.2,149,276.5,150.2Zm-4.1,2.3c-0.6-1.3-.7-3-2.4-4.4C270.6,150.1,270.9,151.6,272.4,152.5ZM237.8,535c-1.1.1-2.1,0-3,.8a0.9,0.9,0,0,0,.3.6c1.2,0.4,1.9-.5,2.7-1.1A0.9,0.9,0,0,0,237.8,535ZM316,267.3c1.6,0.3,2.6-.1,4-1.4C318.3,266.1,317,265.8,316,267.3Zm15.6-12.8c-0.6-1.3-1.1-2.2-2.2-2.6a0.7,0.7,0,0,0-.3.4A2.8,2.8,0,0,0,331.6,254.5Zm5.4-82.5c-0.1-1.1.1-2.2-.8-3l-0.5.2C336,170.2,335.8,171.3,337.1,172ZM201.5,346.5c1.6,0.5,2.6,0,4.1-.7C203.9,345.5,202.9,345.5,201.5,346.5ZM109,313.9c-1.7.3-1.7,0.3-2.4,1.8C108.2,315.3,108.2,315.3,109,313.9Z"/>
    <path d="M103.5,328.3c0.5-.4,1.1-0.9,1.6-0.2a1.6,1.6,0,0,1,.2,2c-1.7,2-1.4,4.9-3,7a4.4,4.4,0,0,0,.5,5.5,1.5,1.5,0,0,1,.3,2c-0.8,1.6-1.1,3.4.8,4.6s0.6,1,.2,1.6a81.9,81.9,0,0,0-6.8,11.9c-0.4.9-1,.9-1.7,0.3a2,2,0,0,0-2.8.1,7.8,7.8,0,0,1-2.7,1.3,3.6,3.6,0,0,1-4.8-2.7c-0.4-1.7-.6-3.4-3-3.2a1.5,1.5,0,0,1-1.4-1.4c1.6-1.7,3.7.1,5.5-1s1.8-1.6,1.5-2.6c-2.6-7.9,1.7-13.1,6.7-18Z"/>
    <path d="M3,310.9c-1.4-.3-1.4-1-0.5-1.9a2.7,2.7,0,0,1,1.3-.7c0.6-.1,1.4-0.9,1.8,0s-0.6,1-1.1,1.3a4.4,4.4,0,0,0-1.6,1.3H3Z"/>
    <path d="M2.9,310.9c0.7,0.2,2.2-1.1,1.8,1s-0.6,2-1.6,1.8-0.4-1.3-.3-2v-0.8H2.9Z"/>
    <path d="M4.4,299.1c0,0.8,0,1.7-.8,1.8S3,300.2,3,299.7s-0.2-1.6.8-1.6S4.2,298.8,4.4,299.1Z"/>
    <path d="M4.7,294.6a1.5,1.5,0,0,1-1.3,1.1c-0.7,0-.7-0.5-0.7-1a1,1,0,0,1,1.1-1A0.8,0.8,0,0,1,4.7,294.6Z"/>
    <path d="M406.4,77.5a13.3,13.3,0,0,0,0,1.9c0.3,2-.6,2.6-2.5,2.5s-1.9-.5-1.8-1.9,0-2.9,0-4.4-1.3-3.4-3-3.3a3,3,0,0,0-2.8,2.9,2.9,2.9,0,0,0,3.3,3c1.3-.1,1.5.4,1.5,1.5s-0.1,2.3-1.8,2.4a6.6,6.6,0,0,1-7.1-5,6.9,6.9,0,0,1,4.6-8.4c5.1-1.7,9.6,1.6,9.7,6.9,0,0.6,0,1.3,0,1.9h0Z"/>
    <path d="M411.5,14.6H297.7V14.2H411.5v0.4Z"/>
    <path d="M101.5,14.1H203.5v0.4h-102V14.1Z"/>
    <path d="M432,49.8c-2.2-.1-4,1.3-5.9,2l-16.2,6.4c-0.8.3-.9,1.3-1.7,1.5s0-1.1.6-1.3c3.4-1,6.1-3.6,9.6-4.7,1.5-.5,2.5-1.5,1.9-3.8,0.9,1.1,1.4,1.4,2.4,1.2a42.1,42.1,0,0,0,4.2-1.4c5.7-2.2,4.8-.7,4.8-7,0-8.4-.7-16.8-0.4-25.2,0-.8-0.2-1.7.4-2.5s0.8,1.1.9,1.7c0.7,4.7.3,9.4,0.3,14.1s0,9.3,0,13.9a14.6,14.6,0,0,1-.9,5.4H432Z"/>
    <path d="M225.1,14.1h68.6v0.4H225.1V14.1Z"/>
    <path d="M98,14.6H34.6V14.2H98v0.3Z"/>
    <path d="M16.9,33.1a3.2,3.2,0,0,1-3,3.2c-1.8,0-4.1-2.2-4.1-3.9A3.6,3.6,0,0,1,13,29.1,4,4,0,0,1,16.9,33.1Z"/>
    <path d="M408.3,44.9c0.4,1.6,1.8,2.5,2.7,3.7s0.8,1.7-.1,2.5L408,53.6c-1.2,1.1-3.2.4-3.1-1.2s-0.6-1.7-1.8-1.9c1.4-2.2,3.8-3.4,5.2-5.6h0Zm-0.7,1.7c3.3,2.9-1,3.4-1.5,5.2,2.3,0.1,3-1.7,3.5-3.1S409.2,46.8,407.6,46.6Z"/>
    <path d="M389.9,92.5c0-3,.5-3.5,3.3-3h0.6c3.1-.3,4.2,1,3.5,4.1a0.9,0.9,0,0,1-.9.9c-0.7,0-.7-0.6-0.7-1.1s0.5-2.3-.6-2.3-0.5,1.5-.6,2.3-0.2,1.1-.9,1.1a0.8,0.8,0,0,1-.8-1c0-.3,0-0.6,0-0.8s0.3-1.5-.6-1.6-0.6.9-.7,1.5,0.4,2-.9,1.9S390.2,93,389.9,92.5Z"/>
    <path d="M403.7,89.9c0-.8,0-1.5,0-2.3a0.8,0.8,0,0,1,1.6,0c0,1.2,0,2.4,0,3.6a1.5,1.5,0,0,0,.9,1.7,1,1,0,0,0,1.3-.7c0.3-.9-0.3-1.3-1-1.5s-0.9-.5-0.6-1.1a1.1,1.1,0,0,1,1.5-.4,2.6,2.6,0,0,1,1.9,2.9,2.5,2.5,0,0,1-2.4,2.5,2.5,2.5,0,0,1-3.1-1.9,14.4,14.4,0,0,1-.2-2.7h0.1Z"/>
    <path d="M388.9,92.1c0,0.7,0,.9,0,1.2s-0.1,1.2-.9,1.1a0.9,0.9,0,0,1-.8-1.1,9.4,9.4,0,0,0-.1-1.7,1.2,1.2,0,0,0-1.2-1,1.1,1.1,0,0,0-1,.7,1.1,1.1,0,0,0,.5,1.4c0.5,0.3,1.7.4,1.1,1.3s-1.7.4-2.4-.2a2.5,2.5,0,0,1-.8-3,2.7,2.7,0,0,1,2.8-1.9,2.6,2.6,0,0,1,2.7,1.9A4.1,4.1,0,0,1,388.9,92.1Z"/>
    <path d="M340.8,25.2a2.5,2.5,0,0,1,2.5,2.7,2.3,2.3,0,0,1-2.4,2.4,2.3,2.3,0,0,1-2.5-2.6A2.5,2.5,0,0,1,340.8,25.2Z"/>
    <path d="M412.9,89a2.9,2.9,0,0,1,2.7,2.9,2.7,2.7,0,0,1-2.9,2.6,2.6,2.6,0,0,1-2.6-2.7A2.9,2.9,0,0,1,412.9,89Zm-0.1,1.6a1.1,1.1,0,0,0-1.1,1.1,1.1,1.1,0,0,0,2.3,0A1.2,1.2,0,0,0,412.8,90.7Z"/>
    <path d="M205.7,14.1h17.6v0.4H205.8V14.1Z"/>
    <path d="M389.9,68.9c-0.7.7-.6,2.4-2.4,1.6l-1.4-.6c-0.6-.3-1.6-0.3-1.4-1.2a3.6,3.6,0,0,1,1.5-2.4c0.8-.5,1.2.4,1.8,0.8A4.6,4.6,0,0,1,389.9,68.9Z"/>
    <path d="M410.6,79.9c1.1,0.7,2.8.5,3.3,1.8s-0.6,2-1.6,2.4-3.2-2.1-3.1-2.6A2.2,2.2,0,0,1,410.6,79.9Z"/>
    <path d="M339.4,36.2c-1.2-.1-2.2-0.4-2.2-1.7a2.1,2.1,0,0,1,4.1-.2C341.4,35.6,340.6,36.1,339.4,36.2Z"/>
    <path d="M373,82.2l5-2.1c0.4-.2,1-0.7,1.3,0a4.8,4.8,0,0,1,.1,2.7,0.7,0.7,0,0,1-.9.6A23.9,23.9,0,0,1,373,82.2Z"/>
    <path d="M410.6,70.4c-0.8,0-.9-0.7-1.2-1.1s0.1-1.2.6-1.5,1.5-1.9,2.6-1.3,1.6,1.6,1.2,2.2S411.6,69.8,410.6,70.4Z"/>
    <path d="M268.3,28c0.4,6.3.8,12.7-.3,19C268.9,40.7,268.4,34.4,268.3,28Z"/>
    <path d="M400,91.9c-0.4.9,0.6,2.4-.8,2.4s-0.8-1.6-.8-2.5-0.9-2.5.8-2.5S399.6,91.1,400,91.9Z"/>
    <path d="M400.9,91.7c0-.4,0-0.8,0-1.3s0.2-1.2.9-1.1a0.9,0.9,0,0,1,.7,1.1c0,0.9,0,1.8,0,2.7s0,1.4-.9,1.3-0.7-.7-0.7-1.3,0-1,0-1.5h0Z"/>
    <path d="M211.4,54.7V37.8h0.2V54.7h-0.2Z"/>
    <path d="M424.1,14.5h-7.9V14.2h7.9v0.3Z"/>
    <path d="M90.7,29.6c-0.1,2.3-1.7,2.5-3.3,2.4s-3.1-1-3.2-3.1c0.8,1.2,1.4,2.4,3.1,2.5S90.2,31.3,90.7,29.6Z"/>
    <path d="M115.5,68.2l8.9,1.4v0.5l-8.9-1.3V68.2Z"/>
    <path d="M408.3,44.9c-2.8,1.1-5.4,2.6-8.4,2.8,2.7-1.1,5.3-2.6,8.4-2.8h0Z"/>
    <path d="M259.6,37.8V27.1h0.1V37.8h-0.1Z"/>
    <path d="M79.3,103.9c-0.5-.5-0.1-1.1-0.1-1.6s-0.1-1.3.6-1.6a1,1,0,0,1,.6.4,1.4,1.4,0,0,1,.1,1.9A1.4,1.4,0,0,1,79.3,103.9Z"/>
    <path d="M76.3,32.4c3.1-.8,3.1-0.8,3.7-3.7C80.3,32,79.2,33.1,76.3,32.4Z"/>
    <path d="M237.3,31v9.2h-0.1V31.1h0.1Z"/>
    <path d="M96.5,32.1c-0.9,1.1-1.7,1.1-2.5.7s-1.1-2.3-1-3.6a6.5,6.5,0,0,0,.7,2.6C94.4,32.8,95.3,32.4,96.5,32.1Z"/>
    <path d="M309.3,61.4a1.1,1.1,0,0,1,1,1.2,1,1,0,0,1-2-.1A1.1,1.1,0,0,1,309.3,61.4Z"/>
    <path d="M111.4,48.3c-1.8-2.1-1.6-3.3.7-4.1C110.1,45.3,110.5,46.8,111.4,48.3Z"/>
    <path d="M271.1,545.1a39.2,39.2,0,0,1-.6,8.6c-0.5,2.5,1.6,3.8,3.2,5.2a5.2,5.2,0,0,0,1.5.8c1.3,0.5,1.1,1.7,1,2.7s-1.1.8-1.9,0.8c-2.4-.1-4.8-0.4-6.6-2.2s-1.3-.5-2,0.2c-3.2,3.2-7.5,3.5-11.7,4.1-1.1.2-1.3-.7-1.3-1.5s-0.8-2,.7-2.5l0.8-.2c6.1-1.6,8.6-6.1,6.8-12.1-0.3-1-.8-0.9-1.6-0.9l-6.3.6c-1.3.2-2-.1-2.1-1.5s-0.4-4.5-.7-6.7,0.3-1.9,1.6-2L269,537c1.2-.1,1.7.3,1.7,1.4S271,542.5,271.1,545.1Z"/>
    <path d="M297.1,543.6c0,1.5,0,2.9,0,4.4-0.1,6.7-2.3,13.1-12.2,14.3l-4.6.5c-1,.1-1.8,0-1.9-1.3s-0.1-1.9,1.3-2.4c5.2-1.7,8-6.3,7.3-11.8-0.2-1.3-.7-1.6-1.9-1.4l-8.2.9a1.3,1.3,0,0,1-1.7-1.4q-0.3-3.6-.7-7.1a1.2,1.2,0,0,1,1.3-1.6l19.5-1.9c1.3-.1,1.7.3,1.7,1.5s0,4.9,0,7.4h0.1Z"/>
    <path d="M333.5,552.8c0.4,4.3.4,4.3-3.9,4.8s-5.6.6-6.3-5.1-1.3-13.1-2.1-19.7c-0.2-1.5.1-2.2,1.7-2.2s4.5-.3,6.7-0.6,2,0.3,1.8,1.5c-0.6,4.6,1.9,6.6,5.9,7.4l1.4,0.5c3.9,1.5,3.9,1.5,2.8,5.4l-1.4,4.6a1,1,0,0,1-1.6.8l-4.2-1.4c-1.1-.4-1.4-0.1-1.3,1S333.4,551.8,333.5,552.8Z"/>
    <path d="M408.8,532.7c0,3.7,0,7.5-1.4,11a9.7,9.7,0,0,1-7.6,6.5,93.7,93.7,0,0,1-10,1.5c-1.5.1-2-.4-2.1-1.8s-0.3-4.2-.6-6.3,0.2-2.1,1.7-2.1a36.4,36.4,0,0,0,4.4-.7c5.8-1,8.5-5,9.7-10.3a21,21,0,0,0,.4-5c0-2.5,2-1.3,3.1-1.7s1.6,0.3,1.7,1.4S408.5,530.2,408.8,532.7Z"/>
    <path d="M320.3,546.2c0,1.2,0,1.9,0,2.7,0.1,5.9-1.5,8.1-7,10a29.1,29.1,0,0,1-8.1,1.4,1.4,1.4,0,0,1-1.8-1.5c-0.2-1.2.4-1.6,1.5-1.8,3.5-.6,5.7-2.5,6.4-6,0.3-1.4,0-2-1.6-1.7s-5.3.5-7.9,1-2-.3-2.1-1.7-0.3-3.8-.6-5.7,0.2-1.6,1.4-1.8l17.6-1.9a1.3,1.3,0,0,1,1.7,1.4Z"/>
    <path d="M363.4,542.1c0,0.6,0,1.3,0,1.9,0,6.7-2.4,10.2-11.1,11.3-0.8.1-1.5,0.1-1.7-1a1.5,1.5,0,0,1,1-1.9c3.4-1.5,4.7-3.8,4.5-7.3,0-.9-0.1-1.9-1.3-1.6s-2.9-.6-2.9,1.5-0.7,1.7-1.9,1.8c-4.9.5-4.9,0.6-5.5-4.2v-0.4c-0.2-1.6-.9-3.5-0.3-4.8s2.9-.8,4.4-1.1,1.3-.9,1.1-1.8,0.2-1.7,1.4-1.7l2.9-.3c1.3-.3,2.2-0.1,2.2,1.5a1.1,1.1,0,0,0,1.4,1.1c1.7-.1,3.7-1.1,4.9.1s0.7,3.9.9,5.9A8.2,8.2,0,0,1,363.4,542.1Z"/>
    <path d="M364.9,536.2c-0.2-1.3.4-1.7,1.6-1.8l15.5-1.4c1.3-.1,1.8.3,1.9,1.5s0.4,4.6.7,6.9a1.2,1.2,0,0,1-1.3,1.6l-15.9,1.6a1.2,1.2,0,0,1-1.7-1.3C365.5,540.9,365.2,538.6,364.9,536.2Z"/>
    <path d="M381.5,550.2l-11.1,1.3a3.1,3.1,0,0,0-2.4,2.1c-1.9,4.4-5.5,6.6-9.8,7.8a17,17,0,0,1-5.2.8,4.1,4.1,0,0,1-2.6-.8c-0.7-.5-1.4-1.1-1.2-2.1s1.2-.8,1.9-0.8a29.4,29.4,0,0,0,7.2-1.6c3.6-1.4,6.3-3.8,7.3-7.6a2.2,2.2,0,0,1,2.3-1.8l14-1.3c1.2-.1,2.4-0.6,2.4,1.5S384.4,550.2,381.5,550.2Z"/>
    <path d="M397.9,530.9c0.1,0.6.1,1.3,0.2,1.9a1.3,1.3,0,0,1-1.4,1.6l-9.2,1c-1,.1-1.5-0.2-1.6-1.2s-0.3-4-.6-6.1,0.4-1.3,1.3-1.4l9.4-.9a1.1,1.1,0,0,1,1.4,1.1l0.4,4h0Z"/>
    <path d="M311,531.7c4.4-.4,4.4-0.4,4.7,3.1s0.4,3.4-3,3.9l-8.8,1c-1.4.2-1.8-.3-2-1.6-0.8-5.3-.8-5.3,4.5-5.8Z"/>
    <path d="M296.3,529.1c0,2.8-1.8,4.5-4.9,4.4s-4.3-2-4.4-5.1a4.6,4.6,0,0,1,4.9-4.7C294.4,523.8,296.3,526.1,296.3,529.1Z"/>
    <path d="M282.4,549.3c1.2-.2,1.6.1,1.5,1.1-0.3,3.5-4.3,6.8-7.8,6.3a3.3,3.3,0,0,1-2.5-2.1,3.4,3.4,0,0,1,2.8-4.7Z"/>
    <path d="M203.4,212.2a44.6,44.6,0,0,1-1.3,11.3c-0.6,2.4-1.3,2.7-3.3,1.3a7.5,7.5,0,0,0-5.9-1,4.1,4.1,0,0,1-4.3-1.5,48.3,48.3,0,0,1-4.1-5.8c-0.7-1.1-.3-2.3-0.5-3.5s-0.6-3.8-3.3-3.2a1.9,1.9,0,0,1-1.3-.6c-4-2.4-8.3-3.2-12.2-.6-8.6,5.8-17,3.4-25.6.1-3.7-1.4-7.1-3.3-9.5-6.7a10.3,10.3,0,0,1,3.7-15.3c6.8-3.3,17.7-4.3,25.3,3.9,2.6,2.8,4.7,6,7.7,8.3,7.3,5.7,15.3,9.2,24.8,6.5a35.8,35.8,0,0,1,4.9-1.1c3.1-.4,4.6.8,4.9,4C203.5,209.7,203.4,210.9,203.4,212.2Zm-46.8-3.7a3.6,3.6,0,0,0-.4-0.8c-7.7-5.5-8.9-11.1-4-18.9,0.5-.9.1-1.1-0.6-1.3a12.6,12.6,0,0,0-5.8-.4,8.6,8.6,0,0,0-5.6,14.1C144.4,205.9,150.1,207.7,156.6,208.5Zm44,8.7c1-1.9.7-3.3-1-4.1-4.4-2.2-8.9-1.1-13.7-1a1.6,1.6,0,0,0,1.9,1c2.2,0.2,4.4.2,6.5,0.4S199.4,214.2,200.6,217.2Z"/>
    <path d="M150,216.8a6.1,6.1,0,0,1-4.5,5.9c-1.2.3-2.1,0.6-2.6,1.8a0.9,0.9,0,0,1-.9.7,0.9,0.9,0,0,1-.7-0.9c-0.3-2.1-2.3-3.1-3.1-4.8a0.9,0.9,0,0,0-.7-0.4c-1.9.3-3.8,0.9-5.7-.4s-1.3,1.2-1.5,2.2c-0.9,3.8-.9,3.9-4.4,2.1-0.9-.5-2.4-0.2-2.4-1.9a3.5,3.5,0,0,1,2.3-3.2c0.7-.4,1.5-0.7,1.5-1.6s-0.8-1-1.5-1.2a2.9,2.9,0,0,1-2.1-3.1c0.3-2.6.4-5.2,0.7-7.7s1.8-1.9,3.1-2a2.6,2.6,0,0,1,2.8,2.1c0.3,1-.4,2.3.8,2.9a7.1,7.1,0,0,0,4.5.9c1.9-.3,3.4.3,5.1,1l5.1,1.9A6.5,6.5,0,0,1,150,216.8Z"/>
    <path d="M204.4,199.6c-1-2.3-3.1-3.9-3.9-6.4a19.5,19.5,0,0,1-9,7,5.9,5.9,0,0,1-2.7.5c-2.2-.2-3.4-2.4-2-4.1s4.7-4.8,8.5-4.4a1.3,1.3,0,0,0,1.4-.7,1.2,1.2,0,0,0,0-1.6,28.3,28.3,0,0,1-3.8-3.9,0.7,0.7,0,0,0-.5-0.3c-2.8,1.1-4.6-.8-6.5-2.1s-4.9-2.5-7.2-4c-6.1-3.9-13.1-5.2-19.7-7.6a3.9,3.9,0,0,1-2.3-1.2,22.4,22.4,0,0,1,4.5.6,113.4,113.4,0,0,0,16.7,4.3c4,0.8,7.6,2.9,11.5,4.1a0.8,0.8,0,0,1,.5.4c1.1,2.7,3.3,3.8,6,4.2a2.7,2.7,0,0,1,1.8,1.4c2.3,4.1,4.9,8,6.3,12.6A10,10,0,0,1,204.4,199.6Z"/>
    <path d="M157.1,180.2c2.2-.5,4.1.4,5.9,1.2,4.9,2.3,9.2,5.4,12,10.1a14.4,14.4,0,0,1,1.1,2.5,2.3,2.3,0,0,1-.6,2.5,2.4,2.4,0,0,1-2.7.5,6.6,6.6,0,0,1-3.3-2.6,76.2,76.2,0,0,0-12.1-13.7A2.2,2.2,0,0,1,157.1,180.2Z"/>
    <path d="M120,221.3c-2.8,1.3-5.3-.2-7.8-1.4a0.9,0.9,0,0,1-.3-1.7c4.8-5.6,8.2-12,11.7-18.5C121.4,206.8,118,213.6,120,221.3Z"/>
    <path d="M104.5,219.5a5,5,0,0,0-.8,4.1,9.2,9.2,0,0,1,.1,1.3,2,2,0,0,1-1.4,2.3,1.6,1.6,0,0,1-1.9-.4c-0.6-1-1-2.3-.3-3.2A44.1,44.1,0,0,1,104.5,219.5Z"/>
    <path d="M147.6,226.3a1.4,1.4,0,0,1,1.5-1.5c1,0,2.8,2.4,2.7,3.6s-0.5,2.1-1.8,2.2S147.6,228.8,147.6,226.3Z"/>
    <path d="M177.3,229.6c-3.7-1.5-6.9-3.8-10.2-6.1s-7-3.6-10.9-5.4C158.8,217.8,170.1,224,177.3,229.6Z"/>
    <path d="M144.4,168.3c2.3-.8,4.3.3,6.3,1.1Z"/>
    <path d="M146.9,132.9l0.8-2.3c0.2-.5.4-1,1-0.8a1.4,1.4,0,0,1,.9.5c0.3,0.5-.4.6-0.6,0.9s-0.2,2.3.2,3.3,1.3,0.1,2,0c2.9-.2,4.6-2.8,7.2-3.6,0.9-.3,1.9-0.9,2.7.5s1.5,2.5-1.4,3.1-6.1.3-9,1.5a1,1,0,0,0-.8.6c0.4,0.9,1.2.4,1.8,0.3,3.3-.5,6.7-1,10-1.7a1.3,1.3,0,0,1,1.8.9c0.4,1-.4,1.1-1,1.2a9.2,9.2,0,0,0-2.7,1.9,8.1,8.1,0,0,1-7,1.3,57.3,57.3,0,0,0-18.5-1.9c-0.7,0-1.3,0-1-1a10.5,10.5,0,0,0,.1-1.5c0.1-.7-0.2-1.8.9-1.8s0.4,1.1.5,1.7-0.1,1,.4,1,0.8-.6.7-1c-0.6-2.8,1.4-3.2,3.2-3.8l5.6-1.7c1.6-.5,2.3-0.4,1.7,1.5A0.6,0.6,0,0,0,146.9,132.9Z"/>
    <path d="M186.2,149.3c0,2-3,4.5-4.7,4.2a1.5,1.5,0,0,1-1-1l-1.3-2.6c-1.4-3.2-.7-4.5,2.8-5.2a1.5,1.5,0,0,1,1.4.2A7.7,7.7,0,0,1,186.2,149.3Z"/>
    <path d="M80.5,148.3c0.8,0,3.8,3.1,3.8,3.8a1.1,1.1,0,0,1-.7,1,0.8,0.8,0,0,1-1.1-.3l-1.4-1.6a1,1,0,0,0-1.6-.1,0.9,0.9,0,0,0,.2,1.4l0.8,1a0.9,0.9,0,0,1-.1,1.5,0.8,0.8,0,0,1-1.4-.3c-0.8-1.4-1.4-.9-2.1.1a22,22,0,0,1-4.2,4.7c-0.6.5-1.1,1-1.8,0.4s-1.4-.6-1.2-1.3a2.3,2.3,0,0,1,1.5-1c2.2-.6,3-2.7,4.2-4.2s3-2.7,4.1-4.4A2.4,2.4,0,0,1,80.5,148.3Z"/>
    <path d="M73.1,190.9c-0.9-.4-0.4-1-0.1-1.6l3.6-6.2a53.6,53.6,0,0,0,3.2-7.3c0.2-.5.4-1.5,1.2-1.2s0.3,1.1.1,1.6a113.6,113.6,0,0,1-6.8,13.7A1.5,1.5,0,0,1,73.1,190.9Z"/>
    <path d="M61.3,204.3a0.6,0.6,0,0,1-.7-0.4,1.3,1.3,0,0,1,.2-1.4l2-1.5a39.3,39.3,0,0,0,5.8-5.7c0.3-.3.7-0.9,1.2-0.4a0.8,0.8,0,0,1,0,1.1c-2.3,3.1-4.7,6.1-8,8.1Z"/>
    <path d="M132.1,128.4c0.7,0,3,3.1,2.7,3.6a4.2,4.2,0,0,1-3.7,1.8c-1.5-.1-2-2.3-2-3.5S131.3,129.2,132.1,128.4Z"/>
    <path d="M68.2,192.4l-0.5,1a22.7,22.7,0,0,1-6.1,6.3c-0.4.3-1,.9-1.5,0.4a1.2,1.2,0,0,1,.1-1.7,47.4,47.4,0,0,0,6.9-6.5,0.8,0.8,0,0,1,.7-0.1A1.5,1.5,0,0,1,68.2,192.4Z"/>
    <path d="M78,174.8l-0.3.9A100.4,100.4,0,0,1,72.1,187c-0.3.5-.5,1.6-1.4,1.1s0-1.1.3-1.6a57.1,57.1,0,0,0,5.5-11.1c0.2-.6.4-1.3,1.2-1.3S78,174.4,78,174.8Z"/>
    <path d="M82.8,168.8c-0.7-1.2-.1-2.3.1-3.4,0.5-2.7,1.5-5.4.9-8.2a0.9,0.9,0,0,1,.6-1.2c0.9-.2.8,0.7,0.8,1.1A35.5,35.5,0,0,1,82.8,168.8Z"/>
    <path d="M79.5,169.5c-1.1-1-.5-1.7-0.4-2.3,0.5-2.8,1.6-5.5,1.1-8.4a0.9,0.9,0,0,1,.7-1.2c0.4-.1.6,0.3,0.6,0.6C81.7,162.1,80.6,165.7,79.5,169.5Z"/>
    <path d="M173.6,133c-2.2,1.6-4.8,2.1-7.2,3.1-0.7.3-1-.2-1.2-0.8s0.4-.7.9-0.8Z"/>
    <path d="M54.2,197.7c0.8,1,2.2,1.1,3.3,1.8a1.1,1.1,0,0,1-.8,1.9c-1.4.1-3.3-1.7-3.3-3S53.6,197.7,54.2,197.7Z"/>
    <path d="M107.2,138.5c1,0,1.2.9,1.3,1.6s-0.7.8-1.1,0.7a2.5,2.5,0,0,0-1.9.5,1,1,0,0,1-1.4-.5c-0.4-.7.1-1,0.6-1.2Z"/>
    <path d="M125.4,131.7c-2.1.8-1.7,2.8-2.3,4.5-0.7-1.3-2-2.3-1.6-3.2S124,131.9,125.4,131.7Z"/>
    <path d="M159,124a1.2,1.2,0,0,1-1.4,1.1,1.5,1.5,0,0,1-1-1.6,1,1,0,0,1,1.2-.9C158.7,122.6,158.6,123.5,159,124Z"/>
    <path d="M126.6,137.5a0.7,0.7,0,0,1-.9.7c-0.9-.1-1.7.6-2.6,0.2a0.7,0.7,0,0,1,0-.5,20.2,20.2,0,0,1,2.6-1.2C126.5,136.4,126.4,137.1,126.6,137.5Z"/>
    <path d="M132.2,137.2c0.1,0.8.4,1.6-.7,1.7s-0.8-.7-0.7-1.2-0.4-2.2.8-2.2S131.9,136.8,132.2,137.2Z"/>
    <path d="M129.5,137.7c0,0.7.1,1.4-.7,1.5s-0.7-.7-0.7-1.2-0.1-1.3.7-1.4S129.4,137.4,129.5,137.7Z"/>
    <path d="M107.4,341.1a13,13,0,0,1,2.3.5l15.2,6c0.5,0.2,1.6.4,1.3,1.1s-1.2.1-1.8-.1l-11.9-4.9c-2.2-.9-4.3-0.4-6.4.1-0.5.1-1.5,0.5-1.2,0s-1.4-2,.4-2.4Z"/>
    <path d="M105.6,334.6c5.6-1.4,10.8,1,16.2,1.2C116.4,335.8,111,334.8,105.6,334.6Z"/>
    <path d="M95.6,368c0.1,1.3.3,2.6,0.4,3.9a0.9,0.9,0,0,1-.6,1.2c-0.6.1-.8-0.4-1-0.8s0.8-2.9,1.3-4.3h0Z"/>
    <path d="M155.8,500.7c10.4-.4,15,10,12.2,18.2a20,20,0,0,1-8,10c-1.2.8-1.8,0.5-2-.8a163.1,163.1,0,0,0-6.5-24.8c-0.5-1.6.1-2.3,1.6-2.4h2.7Z"/>
    <path d="M243.4,143.9c0,0.5.1,1.1-.5,1.3s-0.6-.4-0.9-0.7-2.3-2.3-2.9-3.8-0.5-1.7.4-2.2a1.7,1.7,0,0,1,2.4.7A12.1,12.1,0,0,1,243.4,143.9Z"/>
    <path d="M349.7,89h-0.4c-1.9.6-3.5,1-4.1-1.7-0.2-.8-1.2-1.4-2.1-2.4a3,3,0,0,1,3,1.2,2.6,2.6,0,0,0,2.8,1.4c1.1-.2,1.2.7,0.8,1.5h0.1Z"/>
    <path d="M322.9,80l-7.3.7c1.5-1.9,3.7-1.7,5.4-2.5s1,1.5,1.8,1.9h0.1Z"/>
    <path d="M41.5,309.8a3.8,3.8,0,0,0,2.4,2.8l-1.6-3.5c2.3,2,3,.5,3.7-1.1s0.9-2.1,2.1-1.3,3,0.9,2.6,3l-0.6,2.7c-0.6,2.9,1.7,4.6,2.6,6.9s0.9,1.8,1.6,3.1c-1.4-.3-1.8-1.6-3.2-1.3s-1.9,1.1-1.4,2.4a9.5,9.5,0,0,0,3.7,4.2,1.6,1.6,0,0,0,2.1,0,1.8,1.8,0,0,0,.3-2c-0.8-2.7,0-4.7,2.4-5.9a19.3,19.3,0,0,1,4.7-1.9c3-.6,5.1-2.9,7.8-4.1s3.9-1.4,5.9-2.3a49.3,49.3,0,0,0-.1,5c0,1.7,0,3.4-1.4,4.9a3.4,3.4,0,0,0-.4,4.6c0.5,0.7.4,1-.5,1.2a20,20,0,0,0-3.7,1.5,0.8,0.8,0,0,0-.4,1.2c0.3,0.4.8,0.1,1.1-.2s2.9-.1,4.4-0.4,0.3,0.5.3,0.9a2.6,2.6,0,0,1-1.6,2.5c-5.3,2.5-10.3,5.6-15.8,7.3a8,8,0,0,1-8.1-2,13,13,0,0,1-3.5-5.7c-0.3-1.1-.7-1.2-1.6-0.8a2.5,2.5,0,0,1-1.2.3c-3.4-.4-6.4.9-9.5,2a4.1,4.1,0,0,1-2.3.1,2.9,2.9,0,0,1-2.4-2.1,2.2,2.2,0,0,1,1.3-2.4c3.4-1.6,6.7-3.8,10.7-1.7,1.7,0.9,3.3-.3,4.8-0.9s-0.4-3-1.3-3a0.7,0.7,0,0,1-.8-0.7c-0.6-4.3-2-8.3-3.1-12.4a2.5,2.5,0,0,1,.1-0.8h0ZM49,332.1c0.3,0.6.4,1.4,1.3,1.5a0.5,0.5,0,0,0,.6-0.7,2,2,0,0,0-1.4-1.6C49,331.2,49,331.7,49,332.1Z"/>
    <path d="M233.4,501.7c-4.7.1-8.3-1.5-10.8-5.1-4-5.8-1.6-13.1,5.4-16.6a19.4,19.4,0,0,1,6-1.7c1.4-.2,1.9.3,2.1,1.6a119.4,119.4,0,0,0,4.5,18.8c0.4,1.1-.1,1.5-1,1.9A17.4,17.4,0,0,1,233.4,501.7Z"/>
    <path d="M340.1,336.1c-1.8.5-2.5,1.7-3.1,3.3-2,5.5-5.6,9.6-11.3,11.3s-11.9-1.9-11-9.1,3.2-11.6,8.6-15.2c2.9-1.9,3.6-1.6,5,1.5a9.3,9.3,0,0,0,5.1,5C335.6,333.7,337.7,334.9,340.1,336.1Z"/>
    <path d="M342.2,450.8c2.4-.2,4.6,1,6.7,2.4s2.7,5.3,1.3,8.8c-2.2,5.7-9.7,9.8-15.6,8.7s-7.8-4.9-6.7-9.3c0.6-2.4,2.5-4.2,4.1-6A13.7,13.7,0,0,1,342.2,450.8Z"/>
    <path d="M304.2,475.3c-6.4,0-10.8-5.2-8.5-10.6,1.4-3.3,4.3-5.9,7.6-7.7s5.5-2.2,8.3-1.3c6.4,2.1,8.6,6.1,5.3,12.2C314.7,472.2,309.2,475.3,304.2,475.3Z"/>
    <path d="M220.8,441c-1-.2-1.8,0-1.9-0.8s0.7-.8,1.2-0.9a11.7,11.7,0,0,0,4.9-2.8,4.2,4.2,0,0,1,2.1-.9c1-.2,2.4-0.7,2.9.7s-0.8,1.9-1.8,2.3C225.7,439.6,223,439.9,220.8,441Z"/>
    <path d="M294.9,408.4c-1.7,2.3-4.2,3.5-6.5,4.9a0.7,0.7,0,0,1-1.1-.3c-0.2-.5.4-0.7,0.7-0.9C290.2,410.8,292.9,410.2,294.9,408.4Z"/>
    <path d="M251.1,441.1a1.1,1.1,0,0,1-1.4.9,1.2,1.2,0,0,1-1.3-1.3,1.1,1.1,0,0,1,1.4-.9A1.6,1.6,0,0,1,251.1,441.1Z"/>
    <path d="M260.6,428.1c0,0.5-.1.9-0.7,0.9a1,1,0,0,1-1.1-1,0.7,0.7,0,0,1,.7-0.8A0.9,0.9,0,0,1,260.6,428.1Z"/>
    <path d="M190.8,431.6a1,1,0,0,1,.8-1.1,1.2,1.2,0,0,1,1.2,1.3,0.7,0.7,0,0,1-.9.9A1.5,1.5,0,0,1,190.8,431.6Z"/>
    <path d="M256.3,246.4c0.8-.1,1.3-0.1,1.5.4a1.3,1.3,0,0,1-.2,1.6,43.7,43.7,0,0,1-8.5,7c-1.1.7-1.6-1-2.3-1.7s-1.1-1.8.1-2.3a3.3,3.3,0,0,0,1.8-1.8,1.1,1.1,0,0,1,.6-0.6Z"/>
    <path d="M260.5,253.7c0.3-2.3,3.8-4.6,5.9-4,0.6,0.2,1.5.5,1,1.2s-2.4,3.9-4.8,4.4S260.3,255.1,260.5,253.7Z"/>
    <path d="M272.9,252.2a12.6,12.6,0,0,1,1.4-6.6c0.4-.7,1-1.4,1.8-1s0.2,1.3,0,1.8A19.8,19.8,0,0,1,272.9,252.2Z"/>
    <path d="M262.5,241.6c1.6-1.7,3.6-1.5,4.4-3.2s0.5-.2.7,0.1,0.5,0.9.1,1.1S264.9,241.6,262.5,241.6Z"/>
    <path d="M372.4,156c-0.2-2.3,1.3-2.8,2.6-3.1s2.4-.7,2.6-2.4a2.3,2.3,0,0,1,2.2-2,1.7,1.7,0,0,1,1.6.8,0.5,0.5,0,0,1-.2.9c-0.5.2-1,.9-1.7,0.4s-0.5-.8-1-0.4,0.1,0.9.1,1.3,1.1,3.3-1.4,4.2-2.5.2-2.6-1.8C373.7,154.2,373.3,155.1,372.4,156Z"/>
    <path d="M282.4,187.7c-0.2,1-1.2,1.1-1.5,1.8a0.5,0.5,0,0,1-1,0,0.6,0.6,0,0,1,.3-1C280.9,188.4,281.4,187.6,282.4,187.7Z"/>
    <path d="M278.7,189.8a1.9,1.9,0,0,1-1.3,1.6c-0.4.2-.6-0.2-0.7-0.6a1.4,1.4,0,0,1,1.2-1.4A0.5,0.5,0,0,1,278.7,189.8Z"/>
    <path d="M185.9,290.2a4.5,4.5,0,0,0,3.2.1c0.9-.3.7,0.5,0.4,1a5.4,5.4,0,0,1-2.8,2.1l-2.2.7c-0.6.1-1.3,1.1-1.7,0s-1.1-2,.4-2.7A7.5,7.5,0,0,1,185.9,290.2Z"/>
    <path d="M55.7,579q0,9.4,0,18.8c0,3.4-1.4,4.7-4.8,4.7H23.1c-3.4,0-4.7-1.4-4.7-4.7q0-18.8.1-37.5c0-3.2,1.3-4.5,4.5-4.5H51.2c3.1,0,4.4,1.4,4.4,4.6,0,6.3,0,12.5,0,18.8h0.1ZM37.3,594.3H23c-4,0-3.6-.8-3.6,3.9,0,2.3,1.1,3.4,3.3,3.4H51.6a3,3,0,0,0,3.2-3.1c0-.8-0.1-1.6,0-2.3s-0.4-2-1.9-1.9H37.3Zm8.5-1.6h4c1.4,0.1,1.5-.4,1.1-1.6q-4.2-10.8-8.3-21.7a2,2,0,0,0-2.2-1.5H33.9a1.9,1.9,0,0,0-2.1,1.4l-8.4,21.9c-0.4,1.1-.2,1.5,1,1.5h7.8c1.3,0,2.2-.1,2.4-1.6a1.3,1.3,0,0,1,1.8-1c1,0.2,2.6-.7,3,0.8s1.8,2,3.4,1.9h3ZM44,566l-1.8-2.9c-0.4-.6-0.6-1.1,0-1.7a2.1,2.1,0,0,0,.7-2.6,2.8,2.8,0,0,0-2.8-1.4H38c-1-.1-1.5.1-1.3,1.4a29.8,29.8,0,0,1,0,6.1c-0.1,1.4.4,1.5,1.5,1.5s1.3-.6,1.1-1.6a1,1,0,0,1,.4-1.3C40.6,565.1,41.3,567.4,44,566Zm9.6-3.9a4.4,4.4,0,0,0-4.4-4.8c-3.1-.2-5.4,1.7-5.6,4.5a4.7,4.7,0,0,0,4.6,4.8A4.9,4.9,0,0,0,53.6,562.1Zm-24.9,2.3-1.1.3c-1.4.4-2.7,0.4-3.6-.9a3.8,3.8,0,0,1-.2-4c0.7-1.4,1.9-1.4,3.2-1s0.9,0.2.9-.4a1,1,0,0,0-.7-1.1,5.6,5.6,0,0,0-5.8,1.9,4.5,4.5,0,0,0,.4,5.6c1.3,1.5,4.7,2.2,6.2,1.4A1.5,1.5,0,0,0,28.7,564.4Zm3.4,1.9h1c0.9-.1,2.4.4,2.3-1s-1.3-.1-2-0.4-1.1-.3-1.1-1-0.2-1.5.9-1.5,0.9-.1.9-0.6a0.7,0.7,0,0,0-.7-0.8,1,1,0,0,1-1-1.2c0.1-.9.7-1,1.4-0.8a0.6,0.6,0,0,0,.8-0.3,0.7,0.7,0,0,0-.3-0.9,8,8,0,0,0-4.1-.1c-1,.2-0.2,1.3-0.3,2s0.1,2.8-.1,4.2S30.3,566.9,32.1,566.3Z"/>
    <path d="M73.3,379.6a4.7,4.7,0,0,0,0,3,0.9,0.9,0,0,1-.7,1.3,0.9,0.9,0,0,1-1-1.1A3.1,3.1,0,0,1,73.3,379.6Z"/>
    <path d="M68.8,383c0.9,0.1.8,0.8,1,1.4a0.9,0.9,0,0,1-.6,1.3c-0.8.1-1-.6-1.2-1.2A1.3,1.3,0,0,1,68.8,383Z"/>
    <path d="M151.8,299.6H152c1,0,2.1-.1,2.6,1.1a0.4,0.4,0,0,1-.4.6,2.5,2.5,0,0,1-2.3-1.7h-0.1Z"/>
    <path d="M130.8,290.2c2.3-1,3.7,1,5.6,1.5a0.6,0.6,0,0,1,.1.5,0.9,0.9,0,0,1-1.3.3Z"/>
    <path d="M399.2,496.5c0.7,0.3,1.3-.4,2.2-0.3s0.1,2-.3,2a5.6,5.6,0,0,0-3.2,1.8c-0.3.3-.8-0.1-1-0.5a0.8,0.8,0,0,1,.3-1.2c0.7-.5,1.6-0.8,2-1.8h-0.1Z"/>
    <path d="M90.2,602.8a1.1,1.1,0,0,1-.4,1.5L79.1,615.4c-0.4.4-.8,1.3-1.5,0.7s0.2-1.2.6-1.6c3.4-3.3,6.5-6.9,10.1-10Z"/>
    <path d="M97.9,595.7c-1.4,1.6-2.5,3.5-4.8,4.1a13.5,13.5,0,0,1,4.8-4.1H97.9Z"/>
    <path d="M354.4,192.4c-0.8-1.9-1.8-3.1-.3-4.4s1.2-.8,1.8-0.3a1.3,1.3,0,0,1,.1,1.9A6.4,6.4,0,0,0,354.4,192.4Z"/>
    <path d="M329.9,187c2.2-2.2,5.3-2.7,7.7-4.5,0.7-.5.8,0.2,0.8,0.7a3.1,3.1,0,0,1-3.3,3c-1.9,0-3.5.4-3.7,2.7,0,0.4-.1.8-0.6,0.6s-1.2-.3-1.2-1a6.9,6.9,0,0,1,.3-1.6h-0.1Z"/>
    <path d="M333.3,190.4c1.5,0.5,1.5.5,1.5-1a0.6,0.6,0,0,1,.6-0.7,0.8,0.8,0,0,1,1.1.8,18.4,18.4,0,0,1-1.1,6.3c-0.2.6-.8,0.3-0.9-0.1S332.5,192.5,333.3,190.4Z"/>
    <path d="M113.4,277.2c0.2-.8.5-1.8,1.6-1.6a2.6,2.6,0,0,1,2.2,2.9,1.8,1.8,0,0,1-1.8,2C114.5,280.4,113.4,278.7,113.4,277.2Z"/>
    <path d="M17.2,414.3c-2.2.4-3.6,2.5-5.9,3.1-0.2-1.9,1.4-2.7,2.3-3.5s2.3-3.5,3.9-4.9,2.1-.9,3,0.4,0,1.7-.7,2.3l-2.7,2.6h0.1Z"/>
    <path d="M286.3,91a14.2,14.2,0,0,1-3.1,2.6,1.2,1.2,0,0,1-1.7-.6c-0.4-.8.5-0.9,0.9-1.1S284.7,90.7,286.3,91Z"/>
    <path d="M284.8,268.8c-0.1,1.2,1.4,1.4,1.6,2.7-1.3-.3-2.1-1.4-3.4-1.5s-0.6-.7-0.3-1.1,0.4-1.2,1.2-.7a2,2,0,0,0,1,.7h-0.1Z"/>
    <path d="M37.4,597.7c0.5,0.8,1.1.3,1.6,0.5a1.1,1.1,0,0,1,.6,1.2,0.9,0.9,0,0,1-.6,1c-0.5.2-1,.3-1.1-0.4s-0.3-.8-0.6-0.1-1.9.7-2.7,0.6-0.5-1.3-.3-1.8-0.8-2.7,1.3-3,2.2,1.1,3.2-.2a3.6,3.6,0,0,1,.9,1.4c0,0.6-.7.5-1.1,0.6A1,1,0,0,0,37.4,597.7Z"/>
    <path d="M51.8,600.6c-1.1-.2-1.4-1.3-2.4-2.6,0.8,2.7,0,3.2-1.8,2.4H47c-0.1-1.3.3-2.5-.1-3.9s0.9-1.2,1.5-1.1,2.5,0.2,3.3,1.4a0.9,0.9,0,0,1,.1.6C49.9,598.4,52,599.5,51.8,600.6Z"/>
    <path d="M27.4,597.4l-2.3.6c1,1,1,1.1.1,1.7s1.3,0.1,1.8,1a17.6,17.6,0,0,1-4.9,0c0.4-.9,1.5-0.1,1.8-0.8s-2.3-.7-0.1-1.4c0.3-.1,0-0.6-0.4-0.7a1.9,1.9,0,0,1-1.4-.4C24,594.7,24.2,594.7,27.4,597.4Z"/>
    <path d="M32.7,595.7c0.5,0.9-2.5.6-.1,1.6,0.2,0.1.2,0.2,0.1,0.4s-0.7,1,.4,1.4c-1.5,1.9-3.2,0-4.9.3,1.3-1.1-1-2.7.7-3.6S31.5,596.3,32.7,595.7Z"/>
    <path d="M40.4,600.3c1.4-.6-0.2-2.4,1.4-2.9a2.8,2.8,0,0,0-.2-0.5c-0.1-.3-1.2-0.1-0.6-0.9s0.6-.5,1-0.1,1.1,0.5.7,1.3a1.7,1.7,0,0,0-.1,2.1c0.2,0.3.3,0.8-.3,0.5S41.4,600.6,40.4,600.3Z"/>
    <path d="M44.2,601c0.2-1.4,1.3-2.8-.2-4.2s0.6-.6.8-1.1,0.4-.3.7,0S45.4,600.4,44.2,601Z"/>
    <path d="M45.2,591.4H42.5a1.4,1.4,0,0,1-1.8-1.1c-0.3-1.5-1.4-1.7-2.7-1.6s-4.1-.7-4.6,2.2a0.8,0.8,0,0,1-.7.4c-2.4,0-4.8.2-7.1,0s-0.4-1.1-.2-1.7l5-13.2,2.1-5.5c1.3-3.4,4.3-1.2,6.4-1.7a2.3,2.3,0,0,1,3,1.7q3.3,9.2,7,18.3c0.8,1.9.3,2.4-1.6,2.2H45.2Zm-7.9-21.1c-3.7,0-3.7,0-4.9,3.2l-5,13.1c-1.4,3.6-1.4,3.6,2.5,3.6,0.9,0,2.1.4,2.4-.8s1.8-1.9,3.3-1.9h2.9c1.4-.1,2.3.2,2.7,1.7a1.3,1.3,0,0,0,1.6,1h2.9c1.6,0.1,1.7-.4,1.2-1.8-2-5.1-4-10.2-5.8-15.3C40.4,571,39.4,569.7,37.3,570.4Z"/>
    <path d="M51,562c0,1.7-.5,2.8-2.1,3s-2.4-1.4-2.4-3.3,0.5-3,2.2-3S50.8,560.6,51,562Z"/>
    <path d="M37,576.5l2.1,6.2c0.2,0.7-.2.9-0.9,1-3.7.6-4,.1-2.9-3.4l1.3-3.9H37Z"/>
  </g>
  <g>
    <path class="cls-1" d="M384.9,332.7c104.5,0,189.2,84.7,189.2,189.2S489.5,711.1,384.9,711.1,195.7,626.4,195.7,521.9,280.4,332.7,384.9,332.7Zm43.8,189.2a43.8,43.8,0,1,0-43.8,43.8A43.8,43.8,0,0,0,428.7,521.9Z"/>
    <path class="cls-2" d="M384.9,478.1a43.8,43.8,0,1,1-43.8,43.8A43.8,43.8,0,0,1,384.9,478.1Z"/>
  </g>
</svg>
