<svg id="Layer_1" data-name="Layer 1" xmlns="http://www.w3.org/2000/svg" xmlns:xlink="http://www.w3.org/1999/xlink" preserveAspectRatio="none" viewBox="0 0 613.4 839.5">
  <defs>
    <style>
      .cls-1 {
        fill: none;
      }

      .cls-2 {
        clip-path: url(#clip-path);
      }

      .cls-3 {
        clip-path: url(#clip-path-2);
      }

      .cls-4 {
        fill: #fff;
      }

      .cls-5 {
        fill: #f5e421;
      }

      .cls-6 {
        fill: #35311a;
      }

      .cls-7 {
        fill: #3e3821;
      }

      .cls-8 {
        fill: #0a0706;
      }

      .cls-9 {
        fill: #e4d4a9;
      }

      .cls-10 {
        fill: #0d0a0a;
      }

      .cls-11 {
        fill: #130d09;
      }

      .cls-12 {
        fill: #3e3922;
      }

      .cls-13 {
        fill: #3a331d;
      }

      .cls-14 {
        fill: #282516;
      }

      .cls-15 {
        fill: #29251c;
      }

      .cls-16 {
        fill: #1d181a;
      }

      .cls-17 {
        fill: #38321a;
      }

      .cls-18 {
        fill: #3a3421;
      }

      .cls-19 {
        fill: #453d2d;
      }

      .cls-20 {
        fill: #272727;
      }

      .cls-21 {
        fill: #191910;
      }

      .cls-22 {
        fill: #393621;
      }

      .cls-23 {
        fill: #17130f;
      }

      .cls-24 {
        fill: #3c351f;
      }

      .cls-25 {
        fill: #3c3a22;
      }

      .cls-26 {
        fill: #f2e552;
      }

      .cls-27 {
        fill: #7b771d;
      }

      .cls-28 {
        fill: #ede252;
      }

      .cls-29 {
        fill: #e2d6a8;
      }

      .cls-30 {
        fill: #eee06c;
      }

      .cls-31 {
        fill: #e3da6a;
      }

      .cls-32 {
        fill: #eee063;
      }

      .cls-33 {
        fill: #eae39f;
      }

      .cls-34 {
        fill: #eedf89;
      }

      .cls-35 {
        fill: #a79d8a;
      }

      .cls-36 {
        fill: #cc86b6;
      }

      .cls-37 {
        fill: #fbf6c8;
      }

      .cls-38 {
        fill: #dccec2;
      }

      .cls-39 {
        fill: #1a1414;
      }

      .cls-40 {
        fill: #f1f1f1;
      }

      .cls-41 {
        fill: #eef1d4;
      }

      .cls-42 {
        fill: #323031;
      }

      .cls-43 {
        fill: #261b21;
      }

      .cls-44 {
        fill: #272726;
      }

      .cls-45 {
        fill: #dbcdc1;
      }

      .cls-46 {
        fill: #dbccbf;
      }

      .cls-47 {
        fill: #f7ebd2;
      }

      .cls-48 {
        fill: #383526;
      }

      .cls-49 {
        fill: #c988b8;
      }

      .cls-50 {
        fill: #dcccc1;
      }

      .cls-51 {
        fill: #fce1b4;
      }

      .cls-52 {
        fill: #cc0070;
      }

      .cls-53 {
        fill: #401a28;
      }

      .cls-54 {
        fill: #451a2a;
      }

      .cls-55 {
        fill: #991060;
      }

      .cls-56 {
        fill: #574534;
      }

      .cls-57 {
        fill: #171310;
      }

      .cls-58 {
        fill: #1b1815;
      }

      .cls-59 {
        fill: #181d2e;
      }

      .cls-60 {
        fill: #1a1714;
      }

      .cls-61 {
        fill: #1d2238;
      }

      .cls-62 {
        fill: #141a27;
      }

      .cls-63 {
        fill: #191512;
      }

      .cls-64 {
        fill: #1d1914;
      }

      .cls-65 {
        fill: #2a2521;
      }

      .cls-66 {
        fill: #27231f;
      }

      .cls-67 {
        fill: #202537;
      }

      .cls-68 {
        fill: #25211d;
      }

      .cls-69 {
        fill: #0e0b0a;
      }

      .cls-70 {
        fill: #0d1324;
      }

      .cls-71 {
        fill: #1b1814;
      }

      .cls-72 {
        fill: #0b0a0a;
      }

      .cls-73 {
        fill: #292623;
      }

      .cls-74 {
        fill: #c80070;
      }

      .cls-75 {
        fill: #371e24;
      }

      .cls-76 {
        fill: #671540;
      }

      .cls-77 {
        fill: #eddd37;
      }

      .cls-78 {
        fill: #311e1d;
      }

      .cls-79 {
        fill: #dcccc2;
      }

      .cls-80 {
        fill: #e1d447;
      }

      .cls-81 {
        fill: #86245c;
      }

      .cls-82 {
        fill: #af0d5d;
      }

      .cls-83 {
        fill: #57171b;
      }

      .cls-84 {
        fill: #ddcdc0;
      }

      .cls-85 {
        fill: #65173f;
      }

      .cls-86 {
        fill: #471e17;
      }

      .cls-87 {
        fill: #351f23;
      }

      .cls-88 {
        fill: #61133c;
      }

      .cls-89 {
        fill: #5a133a;
      }

      .cls-90 {
        fill: #60143c;
      }

      .cls-91 {
        fill: #2c1938;
      }

      .cls-92 {
        fill: #101c3c;
      }

      .cls-93 {
        fill: #aa0a60;
      }

      .cls-94 {
        fill: #a40d64;
      }

      .cls-95 {
        fill: #451521;
      }

      .cls-96 {
        fill: #a50960;
      }

      .cls-97 {
        fill: #51163d;
      }

      .cls-98 {
        fill: #211b15;
      }

      .cls-99 {
        fill: #a11060;
      }

      .cls-100 {
        fill: #243e90;
      }

      .cls-101 {
        fill: #0f0d0c;
      }

      .cls-102 {
        fill: #20201b;
      }

      .cls-103 {
        fill: #192037;
      }

      .cls-104 {
        fill: #2b3d8b;
      }

      .cls-105 {
        fill: #1a1f32;
      }

      .cls-106 {
        fill: #1c2135;
      }

      .cls-107 {
        fill: #1d1b1a;
      }

      .cls-108 {
        fill: #1d1814;
      }

      .cls-109 {
        fill: #100e0d;
      }

      .cls-110 {
        fill: #f7e3b7;
      }

      .cls-111 {
        fill: #241c15;
      }

      .cls-112 {
        fill: #1a1612;
      }

      .cls-113 {
        fill: #2a221a;
      }

      .cls-114 {
        fill: #1f1811;
      }

      .cls-115 {
        fill: #261b12;
      }

      .cls-116 {
        fill: #d6d2d3;
      }

      .cls-117 {
        fill: #191310;
      }

      .cls-118 {
        fill: #1b130e;
      }

      .cls-119 {
        fill: #1c120d;
      }

      .cls-120 {
        fill: #253e8f;
      }

      .cls-121 {
        fill: #f1eacc;
      }

      .cls-122 {
        fill: #dcdddc;
      }

      .cls-123 {
        fill: #554438;
      }

      .cls-124 {
        fill: #7882bd;
      }

      .cls-125 {
        fill: #1a1d2b;
      }

      .cls-126 {
        fill: #471f35;
      }

      .cls-127 {
        fill: #491b44;
      }

      .cls-128 {
        fill: #7a1345;
      }

      .cls-129 {
        fill: #641442;
      }

      .cls-130 {
        fill: #ac0a5f;
      }

      .cls-131 {
        fill: #aa0a64;
      }

      .cls-132 {
        fill: #5b1744;
      }

      .cls-133 {
        fill: #f8f3cb;
      }

      .cls-134 {
        fill: #172038;
      }

      .cls-135 {
        fill: #211d2f;
      }

      .cls-136 {
        fill: #442035;
      }

      .cls-137 {
        fill: #1e2238;
      }

      .cls-138 {
        fill: #582440;
      }

      .cls-139 {
        fill: #9c115e;
      }

      .cls-140 {
        fill: #2b201c;
      }

      .cls-141 {
        fill: #a50d63;
      }

      .cls-142 {
        fill: #a70b60;
      }

      .cls-143 {
        fill: #ad0865;
      }

      .cls-144 {
        fill: #9d165c;
      }

      .cls-145 {
        fill: #38244c;
      }

      .cls-146 {
        fill: #991265;
      }

      .cls-147 {
        fill: #c8006f;
      }

      .cls-148 {
        fill: #ac0b64;
      }

      .cls-149 {
        fill: #9b1164;
      }

      .cls-150 {
        fill: #390f2a;
      }

      .cls-151 {
        fill: #33183c;
      }

      .cls-152 {
        fill: #5f1440;
      }

      .cls-153 {
        fill: #7782be;
      }

      .cls-154 {
        fill: #7783be;
      }

      .cls-155 {
        fill: #7883be;
      }

      .cls-156 {
        fill: #222117;
      }

      .cls-157 {
        fill: #ba0b6a;
      }

      .cls-158 {
        fill: #0d1a35;
      }

      .cls-159 {
        fill: #727eb8;
      }

      .cls-160 {
        fill: #222221;
      }

      .cls-161 {
        fill: #232125;
      }

      .cls-162 {
        fill: #21241f;
      }

      .cls-163 {
        fill: #261d33;
      }

      .cls-164 {
        fill: #1f2233;
      }

      .cls-165 {
        fill: #1c2547;
      }

      .cls-166 {
        fill: #363e6a;
      }

      .cls-167 {
        fill: #1e2025;
      }

      .cls-168 {
        fill: #0d1938;
      }

      .cls-169 {
        fill: #0e1e40;
      }

      .cls-170 {
        fill: #0e1d3f;
      }

      .cls-171 {
        fill: #0f214e;
      }

      .cls-172 {
        fill: #2f3a6b;
      }

      .cls-173 {
        fill: #0f182e;
      }

      .cls-174 {
        fill: #371a3f;
      }

      .cls-175 {
        fill: #31193e;
      }

      .cls-176 {
        fill: #0d1a38;
      }

      .cls-177 {
        fill: #0c1c3f;
      }

      .cls-178 {
        fill: #1c2a56;
      }

      .cls-179 {
        fill: #0f1d41;
      }

      .cls-180 {
        fill: #341b2b;
      }

      .cls-181 {
        fill: #faeec3;
      }

      .cls-182 {
        fill: #fcfcfc;
      }

      .cls-183 {
        fill: #f9e4b7;
      }

      .cls-184 {
        fill: #f4f3f2;
      }

      .cls-185 {
        fill: #241f1c;
      }

      .cls-186 {
        fill: #ecf0ee;
      }

      .cls-187 {
        fill: #f1efee;
      }

      .cls-188 {
        fill: #901659;
      }

      .cls-189 {
        fill: #ecede7;
      }

      .cls-190 {
        fill: #e7e5e3;
      }

      .cls-191 {
        fill: #e9e7e8;
      }

      .cls-192 {
        fill: #ebe9e8;
      }

      .cls-193 {
        fill: #cfcac0;
      }

      .cls-194 {
        fill: #fbe3b6;
      }

      .cls-195 {
        fill: #fbfaf7;
      }

      .cls-196 {
        fill: #eeede9;
      }

      .cls-197 {
        fill: #cbc76b;
      }

      .cls-198 {
        fill: #7e7f8f;
      }

      .cls-199 {
        fill: #554537;
      }

      .cls-200 {
        fill: #f4f3ef;
      }

      .cls-201 {
        fill: #e8d9bc;
      }

      .cls-202 {
        fill: #534439;
      }

      .cls-203 {
        fill: #d6c8ab;
      }

      .cls-204 {
        fill: #e5dee1;
      }

      .cls-205 {
        fill: #b78eb1;
      }

      .cls-206 {
        fill: #bb92b2;
      }

      .cls-207 {
        fill: #d2c8b8;
      }

      .cls-208 {
        fill: #ddd4d2;
      }

      .cls-209 {
        fill: #7682be;
      }

      .cls-210 {
        fill: #1a1e2d;
      }

      .cls-211 {
        fill: #611643;
      }

      .cls-212 {
        fill: #a80d63;
      }

      .cls-213 {
        fill: #202144;
      }

      .cls-214 {
        fill: #0f1b39;
      }

      .cls-215 {
        fill: #181f35;
      }

      .cls-216 {
        fill: #0c1833;
      }

      .cls-217 {
        fill: #0e1a36;
      }

      .cls-218 {
        fill: #10204b;
      }

      .cls-219 {
        fill: #191f39;
      }

      .cls-220 {
        fill: #09142b;
      }

      .cls-221 {
        fill: #1a2137;
      }

      .cls-222 {
        fill: #142140;
      }

      .cls-223 {
        fill: #091329;
      }

      .cls-224 {
        fill: #7882ba;
      }

      .cls-225 {
        fill: #211e20;
      }

      .cls-226 {
        fill: #152040;
      }

      .cls-227 {
        fill: #282726;
      }

      .cls-228 {
        fill: #121e3c;
      }

      .cls-229 {
        fill: #071023;
      }

      .cls-230 {
        fill: #f6e422;
      }

      .cls-231 {
        fill: #f9f5c6;
      }

      .cls-232 {
        fill: #fce2b9;
      }

      .cls-233 {
        fill: #f3f4f2;
      }

      .cls-234 {
        fill: #283d8e;
      }

      .cls-235 {
        fill: #f0e126;
      }

      .cls-236 {
        fill: #331c2d;
      }

      .cls-237 {
        fill: #5f2241;
      }

      .cls-238 {
        fill: #e2d639;
      }

      .cls-239 {
        fill: #dfd785;
      }

      .cls-240 {
        fill: #ddd96b;
      }

      .cls-241 {
        fill: #d7dc9a;
      }

      .cls-242 {
        fill: #d2ca98;
      }

      .cls-243 {
        fill: #e4d93d;
      }

      .cls-244 {
        fill: #dbd63d;
      }

      .cls-245 {
        fill: #231d17;
      }

      .cls-246 {
        fill: #d3a3ae;
      }

      .cls-247 {
        fill: #f6f5f5;
      }

      .cls-248 {
        fill: #ae0c5d;
      }

      .cls-249 {
        fill: #25151e;
      }

      .cls-250 {
        fill: #c70671;
      }

      .cls-251 {
        fill: #a91163;
      }

      .cls-252 {
        fill: #fcfcf9;
      }

      .cls-253 {
        fill: #c5006e;
      }

      .cls-254 {
        fill: #a90f5f;
      }

      .cls-255 {
        fill: #a41059;
      }

      .cls-256 {
        fill: #a01160;
      }

      .cls-257 {
        fill: #ebdd36;
      }

      .cls-258 {
        fill: #322f1a;
      }

      .cls-259 {
        fill: #b70d68;
      }

      .cls-260 {
        fill: #d9d3cb;
      }

      .cls-261 {
        fill: #edede2;
      }

      .cls-262 {
        fill: #1d958b;
      }
    </style>
    <clipPath id="clip-path">
      <rect class="cls-1" width="613.4" height="839.48"/>
    </clipPath>
    <clipPath id="clip-path-2">
      <rect class="cls-1" x="9.6" y="9.5" width="595.3" height="821.43"/>
    </clipPath>
  </defs>
  <title>0c774714-3653-4bb5-97ae-99fafb6b6206</title>
  <g class="cls-2">
    <g class="cls-3">
      <g class="cls-3">
        <path class="cls-4" d="M511.1,9.7c29.7,0,59.4.1,89-.1,4,0,4.8.8,4.8,4.8q-0.2,167.8-.1,335.6,0,237.8.1,475.6c0,4.4-1,5.4-5.4,5.4q-292.3-.2-584.6,0c-4.4,0-5.4-1-5.4-5.4q0.2-405.3,0-810.7c0-4.4,1-5.5,5.4-5.4C30,9.9,45,9.7,60,9.7a6.8,6.8,0,0,1,1.6,4.8c-0.1,13.5.4,27.1-.3,40.6-0.9,2.6-.8,5.4-0.8,8.1q0,24.2,0,48.4-0.1,26.9,0,53.9-0.1,51.5,0,102.9a59.7,59.7,0,0,1-.3,9.3c-1.1,3-.8,6.1-0.8,9.3q0,50.5,0,101c0,34.7,0,69.4,0,104.1a59.7,59.7,0,0,1-.3,9.3c-1.1,3-.8,6.1-0.8,9.3q0,49.9,0,99.9-0.1,52,0,103.9a67.1,67.1,0,0,1-.3,9.3A24.1,24.1,0,0,0,57,732q0,44.1,0,88.2c0,2.4-.9,5.1,1.6,7a46.4,46.4,0,0,0,16.8.1c2.5-1.6,1.7-4.2,1.7-6.4,0.1-11.5,0-23,.1-34.5,0-1.8-.9-3.9,1-5.5s4.9-1,7.5-1H476.4c9.9,0,10.5.7,10.5,10.7s0,19.9,0,29.8c0,2.3-.6,4.8,1.5,6.5,6.6,1,13.2,2,19.7-.6,1.9-2.4,1.2-5.3,1.2-7.9q0-193,0-386,0.1-206.4.1-412.7c0-3.4-.9-7.1,1.6-10.2"/>
        <path class="cls-5" d="M509.4,829c-7.3,1.4-14.6.7-22,.3-1.5-2.1-.9-4.5-0.9-6.8-0.1-12.9.1-25.7-.1-38.6,0-1.2,0-2.3-.9-3.3s-3.8-.8-5.7-0.8H86.7a30.2,30.2,0,0,1-6.9.6c-1.3,0-2.9-.1-2.7,2a11,11,0,0,1,.4,1.9c0.2,13.1,0,26.3.1,39.4,0,1.9.4,3.9-1,5.6H57.7c-1.7-2-1.1-4.4-1.1-6.7-0.1-14.1,0-28.2,0-42.4-0.4-37.7,1-75.4.6-113.1,1.2-10.5.3-21,.5-31.5,0.2-8.8-.1-17.5.2-26.3,0.8-3.1.5-6.2,0.5-9.3q0-45.2,0-90.3a66,66,0,0,1,.5-9.3c0.1-19.9,0-39.9,0-59.8q0-53.3,0-106.5c-0.4-37.4.9-74.8,0.7-112.2,0.8-2.7.5-5.4,0.5-8.1,0.1-29.8-.2-59.6.1-89.3a29.5,29.5,0,0,0,.5-7.6c-0.3-33.3.6-66.7,0.5-100,0-2.5-.6-5.1,1.1-7.3H508.7c1.9,2.6,1.1,5.7,1.1,8.5q0.1,96.5,0,192.9,0,217.1,0,434.3c0,2.9-.3,5.9.4,8.7,0.3,57.3,0,114.6.1,171.8,0,1.1.4,2.4-1.1,3"/>
        <path class="cls-6" d="M509.6,654c-1.2-2-.6-4.2-0.6-6.3Q509,542.4,509,437q-0.1-110-.3-220.1c0-1.9.1-3.9,0.2-5.8s0.4-4.2.4-6.4q0-94.4,0-188.7c0-2.1-.5-4.3.5-6.3h1.2c-0.1,1.7-.4,3.5-0.4,5.2q0,93.9,0,187.8,0.1,112.1.4,224.1c0,1.9-.1,3.9-0.2,5.8s-0.4,4.2-.4,6.4q0,104.4-.1,208.8c0,2,.8,4.3-0.8,6.2"/>
        <path class="cls-7" d="M61.4,124.3q-0.3,45.1-.6,90.3c0,2.5.5,5.1-.6,7.5-1.5-1.9-.7-4.1-0.7-6.1-0.3-16.8.5-33.6-.4-50.4s0-35.9,0-53.9c0.9-13.7.1-27.5,0.4-41.2,0.1-5.2-.5-10.5.4-15.7q0.1-22.5.2-45h1.2c0.8,1.2.6,2.6,0.6,4q0,53.6,0,107.1a8.6,8.6,0,0,1-.4,3.5"/>
        <path class="cls-8" d="M509.9,9.7q-0.1,70.7-.2,141.4c0,17.9,0,35.9,0,53.8,0,2.1.7,4.3-.8,6.2q-0.1-51.2-.2-102.5,0-49.5,0-99h1.2Z"/>
        <path class="cls-9" d="M61.4,124.3q0-53.8.1-107.6c0-2.3-.2-4.7-0.3-7h1.2q-0.1,53.9-.2,107.8c0,2.3.7,4.7-.8,6.8"/>
        <path class="cls-10" d="M487.8,780.3c-1.2,7.9-.5,15.9-0.6,23.8s0.1,16.8.2,25.2c-3.9.4-2-2.6-2-3.9-0.2-12.5-.3-25,0-37.5,0.1-4.9-.8-6.4-6.2-6.4q-149.8.3-299.7,0.1H77.7q-0.7.7-1.1-.1H76.3c0.2-2.1,1.8-1.6,3.1-1.7,7.2-.5,14.4-0.6,21.6-0.6q191.4,0,382.8,0c1.5-.3,3-0.4,4,1.1"/>
        <path class="cls-11" d="M509.6,654c0.1-2.5.4-5,.4-7.6q0-103.5,0-207c0-2.3-.7-4.7.8-6.8,0.1,3.3.2,6.6,0.2,9.9q0,103.5,0,207.1,0,87.2.1,174.3c0,1.6,1.8,4.5-1.8,5a18.2,18.2,0,0,0,.3-2.3q0-86.3-.1-172.7"/>
        <path class="cls-12" d="M59.1,609.3c-1.2,16.8-.2,33.6-0.6,50.4-0.1,2.5.5,5-.5,7.5-1.6-1.9-.8-4.1-0.8-6.1-0.3-16.8.5-33.7-.5-50.5q0.1-53.8.2-107.7a5.9,5.9,0,0,1,.5-1.6c2.1,1.8,1.4,4.3,1.4,6.6,0.1,14.2,0,28.4,0,42.7a21.8,21.8,0,0,0,.5,6.4c0,17.5.5,34.9-.3,52.4"/>
        <path class="cls-13" d="M59.9,334.1q0,47.2-.1,94.4c0,4.1.1,8.2,0.1,12.2a1,1,0,0,1-1.5-.8c-0.1-15.3,0-30.7-.1-46,0-1.9.4-3.9-.4-5.8q0.1-54.2.3-108.5a5.4,5.4,0,0,1,.6-1.6c1.4,1.9.7,4.1,0.7,6.2,0.3,16.6-.5,33.3.5,49.9"/>
        <path class="cls-14" d="M56.7,610.6c1.6,1.8.9,4.1,0.9,6.1,0.2,16.8.3,33.6,0.4,50.5q-0.1,52.8-.2,105.6c0,2.5-.1,5-0.2,7.6-1.3,0-1.6-.9-1.5-1.9,0.2-18.3-.5-36.5.4-54.8l0.3-113.1"/>
        <path class="cls-15" d="M57.9,388.1c1.7,1.8.9,4.1,0.9,6.1,0.2,15.7.2,31.3,0.3,47,0.7,19.8.1,39.5,0.3,59.3,0,16.8,0,33.7,0,50.5,0,1.9.6,3.9-.7,5.6-1.7-1.8-.9-4.1-0.9-6.1-0.2-16.4-.2-32.8-0.3-49.3l0.4-113.2"/>
        <path class="cls-16" d="M59.9,334.1c-1.6-1.8-.9-4.1-0.9-6.1-0.1-16.7-.2-33.3-0.3-50q0.2-56.3.4-112.5c1.5,1.9.8,4.1,0.8,6.2,0.2,16.8.2,33.6,0.4,50.4L59.9,334.1"/>
        <path class="cls-17" d="M56.4,723.8c0.1,16.9.1,33.7,0.2,50.6,0,2-.7,4.3.9,6.1q0.1,24.5.2,49.1c-4.2.4-2.3-2.9-2.3-4.4,0-23.5,0-47,.3-70.5,0.1-10.3-.9-20.5.6-30.8"/>
        <path class="cls-18" d="M76.6,781.6a1.6,1.6,0,0,1,1.1.1c1.3,13.5,1,27,1.1,40.4,0,1.9,0,3.9,0,5.8s-1.1,1.7-2.3,1.4q0-23.9,0-47.8"/>
        <path class="cls-19" d="M59.9,54.7q0.1,26.8.2,53.7a4,4,0,0,1-1,3.2q0-25.3.1-50.6c0-2.1-.5-4.3.8-6.3"/>
        <path class="cls-20" d="M82.3,761.6l-4.5.4a2,2,0,0,1-.5-2.7c2.5-2.1,5.6-1.5,8.4-1.5h54.4c6.7,0,7.5-.4,8.4-7,1.6-11.9,4-23.5,10-34,5-8.6,9.7-17.3,15.7-25.3a47.7,47.7,0,0,0,7.3-12.8c0.4-1.2.6-3.3,2.9-2.2s1.2,4.7.6,7.2c-2.8,5.6-5.4,11.3-9.7,15.9a5.9,5.9,0,0,0-1,7c5.1,11.1,12.6,19.1,25.3,21.1,2.1,0.3,4.2.9,5.5,2.3,2.6-5.8,4.1-12.4,8.3-17.6s9.5-10.4,10.8-17.7a1.6,1.6,0,0,1,1.9-1,6.2,6.2,0,0,1,1.8,5c-0.6,3.6-2.8,6.3-4.9,9.2-10.5,14.3-17.1,30.4-22.7,47-1,2.9-1.2,6.4-5.5,6.4H88.1c-1.9,0-3.9-.3-5.8.4"/>
        <path class="cls-21" d="M486.2,18l1.5,2.1c0.9,2.1.5,4.2,0.5,6.4q0,80.5,0,161c0,5.9,1,11.7.6,17.5-0.1,1.9.8,4.5-2.3,5.2-2.6-3-1.9-6.7-1.9-10.1q-0.1-83.5,0-166.9c0-11,0-11.1-10.8-11-17.9.1-15.9-2.1-15.9,16q-0.1,148.2-.1,296.4c0,3.8.9,7.9-1.7,11.3-2.9,0-2.7-2.3-2.9-4.1a57.5,57.5,0,0,1-.1-7q0-75.7,0-151.5t0-152.9c0-2.6.7-5.5-1.5-7.8s-4.2-.5-6.4-0.5H89.9c-3.6,0-7.5-.8-10.7,1.8s-1.1,5.3-1.1,8Q78.1,115,78,198.1c0,2.9,1.6,6.8-2.8,8.5-0.8-1.5-.5-3.1-0.5-4.6q0-88,0-176.1c0-1.5-.3-3.1.4-4.6-1-1.7-.5-2.8,1.4-3.3s3.8-.7,5.7-0.7H480.5c1.9,0,3.9-.6,5.7.7"/>
        <path class="cls-22" d="M75.4,206.4c1.7-2.1.9-4.5,0.9-6.8q0.1-89.1.1-178.3c2.7,0.3,2.6,2.5,2.9,4.3a44.7,44.7,0,0,1,.2,7q0,174.4,0,348.7a53.6,53.6,0,0,1-.5,9.9c-1.1,3.2-.9,6.5-0.9,9.8q0,83.7,0,167.3c0,3.2,1,6.7-1.8,9.4l-1-5.1c-1.2-2.2-.6-4.6-0.6-6.9q-0.1-176.5,0-352.9c0.3-2.2-.7-4.6.7-6.6"/>
        <path class="cls-23" d="M76.3,578c0.1-7.2.2-14.4,0.2-21.6q0-79,0-158.1c0-2.3-.7-4.7.8-6.8,3,3,2,7,2,10.5q0.1,121.4,0,242.8c0,4.5.1,9,0,13.5s1.7,7.5,6.8,7.2c24.8-.7,49.6-0.2,74.4-0.2a78.3,78.3,0,0,1,10.4.3c9.6,1.2,9.6,1.2,14.2-6.9,1.3-.3,1.9.6,2.4,1.5,1.7,7.3-.9,14.4-1,21.7,0,1.2-.5,2.8-2.5,2.4V676c-2-3.9-5.2-5.1-9.5-5-29.2.1-58.4,0-87.5,0.1-7.1,0-7.5.5-7.6,7.7s0.2,15.9-.2,23.9c0,0.7,0,1.5,0,2.2,0.3,15.9.1,31.8,0.1,47.6,0,2.3.1,4.7-1.7,6.6V762c-0.1.7-.9,1.7-1,1.4s-3.6-2-2-3.6,1.3-5.5,1.3-8.2q0.2-86.8.1-173.7"/>
        <path class="cls-24" d="M294.5,762.9c-3.2-1-6.6.6-9.8-1,2.4-2.5,5.5-1.7,8.3-1.7H476.7c2.3,0,4.7.3,6.8-1.1s2.3-3.1,2.3-5.1c0.2-12.7.1-25.3,0.1-38a8.1,8.1,0,0,0-1.2-3.9,5.7,5.7,0,0,1-.3-2.1,6.1,6.1,0,0,1,.6-2.1c1.1-3.6.8-7.3,0.8-11,0.1-37.8-.1-75.5.1-113.3,0.3-59.5,0-118.9.1-178.4,0-3.1-.4-6.2.7-9.3a2,2,0,0,1,1.9-1.1c1,0.9.7,2.1,0.8,3.3q0,177.7,0,355.4c0,2,.1,3.9-0.1,5.9s-2.1,2.3-3,3.5-3.4.6-5.1,0.6H299.7c-1.7,0-3.5.5-5.1-.6"/>
        <path class="cls-25" d="M488.6,395.1h-1a3.7,3.7,0,0,1-2.4-2.4c-0.8-2.5-.7-5-0.7-7.5q0-82.9,0-165.7c0-3.2-.8-6.7,2.1-9.4s0.8-4.5.8-6.8q0.1-87.5,0-174.9c0-2.7.1-5.5,0.2-8.2,1.3,2,.7,4.1.7,6.2q0,83.2,0,166.4c0,1.2.2,2.3,0.3,3.5s0.6,3.4.6,5.1q0,94.4,0,188.7c0,1.7.6,3.5-.7,5"/>
        <path class="cls-26" d="M486.2,18c-1.7.1-3.5,0.4-5.2,0.4H81.2c-1.5,0-3.1-.2-4.6-0.3,1.6-2.3,3.9-1.3,5.9-1.3H481.9c1.5,0,3,.2,4.5.3a0.6,0.6,0,0,1,.1.5,1.7,1.7,0,0,1-.3.5"/>
        <path class="cls-27" d="M485.4,779.6c-6.3,2-12.7.7-19,.8q-192,.2-384,0.2c-2,0-4.3-.9-6,1.1-1.7-1.8-.4-2.1,1.1-2.2l7.3-.2c2.1-.7,4.3-0.4,6.4-0.4H478.7c2.2,0,4.7-.9,6.7.8"/>
        <path class="cls-28" d="M485.4,779.6l-17.5-.3H88.8l-4.1-.2c1.8-1.7,4.1-1,6.2-1H482c2,0,4.9-1.5,5.8,2.1l-2.4-.7"/>
        <path class="cls-29" d="M489.3,759.4c-0.1-17.8-.2-35.5-0.2-53.3q-0.1-152-.2-304c0-1.6.1-3.1,0.1-4.7h0.8q0,178.9,0,357.9a27.9,27.9,0,0,1-.6,4"/>
        <path class="cls-30" d="M75.1,212.3c0.1,1.4.2,2.7,0.2,4.1q0.2,176.2.3,352.4c0,1.4-.1,2.7-0.2,4.1-1.9-1.2-1.2-3.2-1.2-4.8Q74.1,391,74.1,214c0-.6.1-1.2,0.1-1.7s0.6-.5.8,0"/>
        <path class="cls-23" d="M388,761.6H291.8l-7,.2H84.1l-1.7-.2c1.9-1.6,4.1-.8,6.2-0.8l108.7-.2c2.6-1.8,5.5-1.8,8.4-1.8H323.9c17.3,0.2,34.5-.1,51.8.2,3.9,0.2,7.9-.6,11.7.9a1.2,1.2,0,0,1,.6,1.8"/>
        <path class="cls-31" d="M489.8,397.5H489l-0.4-2.3q0.1-74,.2-148c0-17,0-33.9-.1-50.9,1.8,1,1.2,2.7,1.2,4.2q0.1,98,.1,196a10.4,10.4,0,0,1-.1,1.2"/>
        <path class="cls-32" d="M294.5,762.9l89.4-.2,102.3,0.2c0,2.5-1.9,1.2-2.7,1.2H298.8c-1.5,0-3.2.5-4.2-1.2"/>
        <path class="cls-33" d="M75.1,212.3H74.2q0-93,0-186c0-1.7-.6-3.6,1-4.9q0,89.3.1,178.7c0,2.1.1,4.3,0.2,6.4l-0.4,5.8"/>
        <path class="cls-34" d="M58.7,556.7l0.4-56.1h0.8q0,53.1,0,106.1a8.9,8.9,0,0,1-.9,2.6l-0.3-52.7"/>
        <path class="cls-35" d="M59.9,500.6H59.2V441.2l0.7-.5v59.9"/>
        <path class="cls-36" d="M324.7,760.5H197.3c2.6-11,7.4-21.1,12-31.3,3.6-8.1,7.6-15.9,13.4-22.7a28.1,28.1,0,0,0,4.9-8.3c1.4-.7,3.1,1.4,4.4-0.4l1.4-1.7c2.3-2.5,4.4-3.5,8-1.4s7.5,2.7,10-2.1c0.6-1.3,1.7-1,2.9-1,7.3,0.2,14.4,2.9,21.8.9a1.7,1.7,0,0,1,2.1.6c2.3,4.7,6.2,3.7,10.1,3.1,8.8-1.2,16.4,3,19.4,11.3,2.1,5.7,7.3,9.2,9.5,14.6,4.4,10.2,6.6,21,8.8,31.8a7.1,7.1,0,0,1-1.4,6.6"/>
        <path class="cls-36" d="M77.8,759.1q0-27.3,0-54.6c1.3-1.9,4.1-2.1,5.2-4.5a1.9,1.9,0,0,1,2.5-.9c5.1,3.3,7.2-1.1,10.1-3.7s3.3-3.4,5-4.9,3.6-3.7,6-2.6,0.6,3.8.8,6.6c4.5-6.9,9.1.2,13.8-.9,1.9-.5,4.2,1.3,5.6-1.8,0.7-1.6,2.5-1.3,3.6-.5,4.5,3.2,8.9,1.1,13.5.5a12.6,12.6,0,0,1,10.1,2.9c3.2,3,5.4,2.2,7.5-1,0.4-.7,1.2-1.8,1.5-1.6,4.9,4.5,8.1-5,12.8-1.6l0.4,0.7c-8.2,13.9-18.3,26.8-22.7,42.9-2,7.3-1.9,15-3.9,22.3-0.7,2.6-1.5,3.1-3.7,3-22.6-.2-45.2.7-67.8-0.6"/>
        <path class="cls-37" d="M184.2,684.3c1.9-7.9,2.2-16,2.5-24-0.6-10.3,2.6-19.9,5.8-29.4,3.7-3.6,6.2-.8,6.8,2.3,1.5,8,6.2,14.7,8.3,22.3,3.2,11.7,10.5,21.1,16,31.6,0.7,1.4,2.1,2.2,3.2,3.4a2.5,2.5,0,0,1-.5,3.2c-1.2,7.2-5.1,12.7-10.1,17.7s-5.9,11.5-8.7,17.3c-1,2.2-1.6,2.2-4,1.6-8-2-15.7-3.7-21.8-10.1-4.3-4.5-6.7-9.9-9.7-15.2-0.5-1-.9-1.7-0.1-2.6,4.9-5.5,7.8-12.3,12.3-18.1"/>
        <path class="cls-38" d="M77.8,702.6c0-9.6.1-19.1-.1-28.7-0.1-3.7.7-4.9,4.7-4.9,31.8,0.3,63.6.4,95.4,0.2,5.6,0,7.1,1.8,6.3,6.8s-4.7,10.7-8.1,15.5h0.1c-3-2.4-5.7-4.4-7.7,1.2-0.9,2.5-2.5.6-3.6-.2s-2.8-1.3-3.2,1.1c-0.9,5.5-4.9,3.2-6.8,1.8s-4.5-2.3-6.2-4.1-2.3-1.9-3.5-.6c-3.6,3.6-5.6,1.8-7-3-1.5,7.3-1.5,7.3-11.4,1.3-0.8,1.1-.1,2.3-0.2,3.4-0.2,3-1.2,4.1-4,2.2-1-.7-2-1.8-3.1-1.3-4.8,2.4-8.3-1.7-10.2-3.8-3.4-3.6-4.9-1.5-7,.3s-6.6,6.6-10,9.8c-1.9,1.8-3.4,2.5-5.4.3s-3.1-1.7-4,1.1-2.8,2.7-4.9,1.6"/>
        <path class="cls-39" d="M226.3,693.6v-3.3c-1.4-2.8-.6-5.1,1.3-7.5,14.8-18.2,28-37.7,43-55.8,1.3-1.5,2.1-5.2,5.5-2.4,0.1,4.4-3.2,7-5.5,10-7,8.8-14,17.8-20.5,27-0.9,1.2-2.1,2.3-2.2,4s2.1,0.8,3.3.8h49.7c5.7,0,6.8-1.1,7-6.9s-0.1-14,.1-21c0.1-4.3-1.9-5.9-5.9-6.2s-8.6,0-12.4-2.6a1.5,1.5,0,0,1,0-1.8c1.4-1.2,3.2-1.2,4.9-1.3,8.8-.4,17.7.8,26.4-1.9,1.4,0.2,2.8.5,2.9,2.3s-3.8,3.2-6.2,3.9-4.4,2.5-4.3,5.9c0.9,18.8-1.6,37.4-5,55.8a23.2,23.2,0,0,0-.3,9.3,28.5,28.5,0,0,0,6.2,12.8c1.4,1.6,2.7,3.2,2.9,5.5s-0.4,1.7-1.5,1.6c-4.1-5.3-8.2-10.5-10.7-17-1.7-4.4-5.9-6.6-11.4-6.4-3.8.1-7.6-1.2-11.1,1-0.3-5.2-3.6.4-5-1.9l0.4-3.8a3.8,3.8,0,0,0-1.2-.2c-2.4.7-3.8,3.2-7.7,1s-9.9-1.2-15-1.7c-1-.1-1,0-1.4.9-1.4,3.1-9.7,5.7-11.5,3-4-6.1-5.3.7-7.8,0.9,0.1-5.7,2.7-7.7,7.8-6.4,3.4,0.9,7.4,3.7,9.2-2.8a6.5,6.5,0,0,1,8.9-1.9,29.4,29.4,0,0,0,12.7,3.9c3.9,0.2,7.7-.4,10.9,2.5,0.7,0.6,2.1,1,2.8.3,5.2-5.1,9.2.2,13.6,1.5,1.1,0.3,1.9,1.4,4,1.5,0-7.3,2.7-14.2,3.1-21.5,0.1-2.7-1-3.5-3.4-3.3s-4.7,0-7,.2c-15.4.8-30.7-1.3-46.1-1.3-4.6,0-7.8,1.5-10.4,5.1s-5.1,6.4-7.3,9.9c-3.3,5.2-3,7.8.9,12.5,0,0.8.3,2.2-.1,2.4-2.5,1.1-3.7-.9-5.2-2.3a8.5,8.5,0,0,1-1.3-4.6"/>
        <path class="cls-40" d="M85.9,667.1c-8.1.3-8.1,0.3-8.1-7.1q-0.1-131.3-.2-262.7c0-1.9-.1-3.9-0.2-5.8,0.1-31.4.2-62.8,0.2-94.2q-0.1-132.5-.4-265c0-3.6.7-7.4-.8-10.9,1.2-2,3.2-1.1,4.8-1.1H451.4l2.3,0.3c1.4,3.3-.5,4.4-3.3,4.5h-3.9c4.9,0.5,4.3,3.5,2.9,6.8a152.3,152.3,0,0,1-8.7,16.6c-9.6,16.3-17.9,33.3-28.5,49.1-12.6,18.8-24.7,37.8-38.5,55.8-5.7,7.5-12.4,14.6-14.4,24.4a1.2,1.2,0,0,1-1.8.8c-3.2-6.7-2-13.9-1.3-20.6,2-17.5-.5-34.5-4.4-51.4-1.6-7-4-13.8-6.1-20.7a25.2,25.2,0,0,0-4.1-8.5c-3.3-7.5-6.4-15.2-13.4-20.4l-1-1.2a27.9,27.9,0,0,0-9.6-9.2c-6-4.5-12.4-7.8-20-8.8-3.5-.5-6.5.6-9.7,0.9s-9.3,1.1-14,1c-15-3.9-26.8,1.4-36.7,12.4-2.3,2.6-4.9,4.9-7.3,7.4a28.6,28.6,0,0,0-5,5.5c-7.2,9.7-15.8,18.1-24,26.9-4,4.3-8.6,7.8-12.9,9.6,2.9-1.6,7.4-2.7,11.5-4.6,1.2-.6,2.6-1.2,3.9-0.3s0.8,2.9.4,4.3c-2.2,8.1-6.3,15.5-8.4,23.6a164.2,164.2,0,0,0-6.2,26.6c-0.1,6.5-1.3,13-.1,19.5,2.4,9.2-1.2,17.4-4.2,25.8,1.6,0.4,1.9-1.1,2.9-1.6a25.1,25.1,0,0,0,4.2-5.1,58.9,58.9,0,0,1,5.6-5.9c4.5-4.2,6.1-3.7,7.3,2.5s1.7,9.4,3.6,14c3,7.1,8.6,12,14.1,16.7s6.9,10,5.5,16.6c-3.7,5.7-10.1,5.7-15.6,6.3-7.3.8-10.3,4.5-12,11.2a108.6,108.6,0,0,0-3,26c-0.2,20.8-4.3,40.1-15.6,57.7a21.8,21.8,0,0,0-1.5,3.2c-3.8,4.4-1,10-2.7,14.8s-1.2,11-2.6,16.4a82.6,82.6,0,0,0-1.3,8.5c-1.4,5.1-.9,10.4-2.1,15.6a6.6,6.6,0,0,0,.9,5c2.3,3.9,5.7,6.9,8.8,10.1s8-.3,11.7-1.3c7.8-2,16.1-2.9,22.8-8.2,3.4-2.7,4.1.5,4.5,3.2-0.1,4.4.8,8.9-1.4,13.1-13.5,20.5-28.3,40.3-38.8,62.6-7.1,15.2-14.9,30.1-21.8,45.4-5.8,12.9-13.4,25.1-20.6,37.4-10.7,18.2-18.6,37.8-27.5,56.8-7.9,17-16.1,33.8-25,50.3"/>
        <path class="cls-4" d="M486.7,210c-0.1,17.4-.2,34.7-0.2,52.1q-0.1,62.7-.1,125.3c0,2.1.1,4.3,0.2,6.4s0.4,4.3.4,6.4q0,88.5,0,177.1c0,2.3-.4,4.7.5,6.9-0.1,39.7-.1,79.4-0.4,119.1,0,1.6,2.5,5-2,5.2a3.7,3.7,0,0,1-2.9-1.7,233.3,233.3,0,0,0-25.1-36.5,11.5,11.5,0,0,1-2.7-6.4c-0.3-37.7-.1-75.3-0.1-113q-0.1-97.8,0-195.5c0-3.2-.8-6.7,1.4-9.6,0.1-2.1.2-4.3,0.2-6.4q0.1-156.5.1-313c0-5.4,1.5-6.6,6.4-6.2a100.7,100.7,0,0,0,17.5,0c5.7-.6,6.5,1.8,6.5,6.8-0.2,30.8-.1,61.6-0.1,92.5q0,42.1,0,84.3c0,2.1.2,4.3,0.3,6.4"/>
        <path class="cls-41" d="M449,26.1H86.6V24.4c2.1-1.3,4.7-.7,7-0.7H447.1c2.4,0,6.4,2,6.6-3.1,2.1,2.3.9,5.2,0.9,7.7q0.1,77.2.1,154.4a1,1,0,0,1-1.8-.3c-1.5-3.1-1.1-6.5-1.1-9.8,0-45.3,0-90.6-.1-135.8,0-3.6,1.7-8-2.7-10.6"/>
        <path class="cls-42" d="M453.8,183.2l0.8-.6c0.1,16.3.2,32.7,0.3,49q0.1,54,.1,108c0,2.1-.8,4.3.8,6.2,0.1,27.9.2,55.8,0.2,83.6q-0.1,118.1-.3,236.3c-3-1.1-2.4-3.8-2.4-6q-0.1-69.1-.1-138.2c0-2.5.8-4.8,1-7.5-0.4,2.3-.6,4.4-2.2,6-3.3,1.3-3.6-.9-3.4-3.2s0.9-3,1.1-4.5c1.6-10.3-.2-12.7-10.6-14.4-4.8-2-10.5-.2-15-3.7a1.9,1.9,0,0,1,1.2-1.7c6.3-2.2,12.3.3,18.4,1.3,8.1,1.2,8.1,1.4,8.1-7q0-146.2.1-292.5c0-3.8-1.1-7.9,2-11.1"/>
        <path class="cls-4" d="M185.6,658.7c-2,11.4.2,8.9-10.8,9-4.3,0-8.5-.5-12.8-0.7-2.7-2.6-6.2-2-9.4-2H106.3c-3.5,0-7.8,1.3-9.9-3.1s-1.4-9.9.6-14.7a3.5,3.5,0,0,1,3.3-2.2c4.9,0.1,5.2-3.1,4.9-6.7-0.5-6-.5-11.4,7.3-12.8,2.3-.4,2.1-3.1,1.8-5-1.2-7.4.4-13.6,7.5-17.4,1.6-.9,1.7-2.4,1.8-4,0.3-6,.8-11.8,8.2-13.7,2.2-.6,1.8-2.5,1.2-4.4-2.4-7.2-1-9.2,6.4-9,3.9,0.1,4.3-1.5,3.2-4.7-2.7-7.8-.3-14.6,6.5-19.2,1.6-1.1,4.1-1.7,3.6-4-1.4-8,3.9-13.7,7.1-20s3.9-12.5,10.8-15.3c1.3-.5,1-2.4.9-3.8-0.5-6,1.4-10.8,6.9-13.7,2.6-1.4,2.6-3.5,2.7-5.9,0.3-5.4,1.3-10.5,7-13.2,1.9-.9,2.1-2.6,2.2-4.4,0.3-8.7,6.6-12.8,13.2-16.3,2.7-1.4,5-2.3,6.3-5.4,2.1-5.1,5.4-5.5,10.6-2.1a75.3,75.3,0,0,1-.1,23.2,2.5,2.5,0,0,1-2.4,1.4c-5.5-.7-9.6.4-10.7,6.7-0.2,1.4-1.9,1.9-3.3,2.2-4.5.9-5.1,3.9-4.7,7.9,1.1,11.8-.8,14.9-13.1,19.9-4.7,1.9-6.2,4.7-6.1,9.2s0.1,7.8,0,11.7c-0.3,5.7-1.8,7.2-7.4,7.7-11.5.9-11.4,0.9-11.3,12.2a144.9,144.9,0,0,1-.4,16.3c-0.8,8,1.2,10.3,9.1,10.4,3.5,0.1,7,0,10.2,1.8s5.2,6.6,9.3,8.6,3.5,3.9,3.1,6.7a11.3,11.3,0,0,1,6.4-.8c4.9,3.1,4.6,7.5,3.1,12.3-4.4,13.4-8.3,27-12.3,40.5-1.7,5.6-1.7,11.5-4.2,16.8"/>
        <path class="cls-4" d="M219.2,443.1c-4.3-.2-8.8-0.7-8.7,5.8a3,3,0,0,1-2.7,2.8c-6.3-.3-9.1,5.1-13.3,8.1s-3.2,5.6-2.6,8.9,0.6,4.2-1.9,4.6c-7.9,1.4-7.4,7.8-7.3,13.1,0.1,3.6-.1,5.2-3.9,6.1s-7.1,7.3-5.8,12,1,6.1-3.5,6.6c-2.1.2-3.4,1.9-4.1,3.8-2.6,7.5-6.7,14.3-10.6,21.2a2.8,2.8,0,0,0-.7,1.6c2.1,6.8-1.1,10-6.8,13.7s-5.5,9.1-2.3,16.1a4.2,4.2,0,0,1-.6,4.9c-1.6,1.8-3.7,2.6-5.7,1.1s-3.4-1.7-4.9.4-1.1,3.8.3,5.8c3.3,4.8,2.5,6.4-3.2,7.4-4.1.8-6.6,5.3-5.5,11.7,0.6,3.7-.1,5.2-3.9,6.1s-7,8.1-5.8,13.3c0.6,2.3,1.1,4.6.3,6.9s-1.1,2.8-3.2,2.8c-5.2.1-6.9,2.4-6.3,7.6a37.6,37.6,0,0,1,.3,7.5c-0.2,1.6-1,4.2-3,3.5-7.3-2.7-5.9,3.4-6.8,6.7-1.8,6.9.9,10.1,7.8,10.1h49.7c3,0,6.5-.6,7.5,3.6-25.4.7-50.7,0.5-76.1,0.1,0.5-7.2,4.9-13,8-18.9,12.9-24.6,23.3-50.4,35.4-75.3,3.7-7.6,8.3-14.8,12.5-22.2,8.1-14.5,15.6-29.4,23.1-44.2,8.8-17.5,15.9-35.8,27-52.3,8.1-12,16-24.2,23.5-36.6,0.7-1.1,2-1.7,3-2.6,1.8,1.9,1.4,4.3,1.5,6.6,0.3,5.8-.5,11.6.7,17.3a4,4,0,0,1-1.3,4.2"/>
        <path class="cls-43" d="M77.8,702.6c1.8-.9,4.4.1,4.7-3.7s3.2-2.1,4.5-.4,2.3,1.9,4.2,0a148.5,148.5,0,0,1,12.9-11.5c2-1.6,4.5-3.9,5.5,1.5,0.3,1.7,4.7,3.8,7.1,3.6s5.7,0.4,8.1,3.1c2.1-3.8-1.6-6.5-.9-9.9,4.8,1.7,7.3,6.5,12.5,7.6V684c4.2,1.9,2.8,6.1,5,8.6A15.3,15.3,0,0,0,143,691c2.1-3,4.5-5.4,7-.6,1.4,2.7,4.3,3.4,6.1,4.5,5.8,3.4,4.2-2.8,5-5.6,3.2,0.3,3.9,3.4,6.6,4.4l-0.7-6.7c2.9,2.6,8.2-.8,9.1,4.7-2.6-.5-4.4-0.9-5.9,2.7-2.3,5.2-4.3-1.6-7.2-.2,1,5.8-5.6,2.7-7.9,5.4-0.5.6-1.3-.3-1.3-1.2,0.3-4.6-4.4-2-5.9-4.1-3.9,3.5-1.6-1.7-3.1-2-0.2,5.3-5,1.6-7.6,3.5s-6.2-2.2-9.6-4c-0.7,3.7-1.1,8.1-6.3,3.4-1.1-1-3.4-.7-5.1.4s-2.5-4.7-5.5-2.3-2.5,4.5-5.7,4.6c-1-3.3,2.1-5.8,1.6-9.3-5.6,2.5-9,7.2-12.8,11.3s-5.7,5.7-8.9-1c-1.1,4.5-3.5,6.3-7.3,6v-2"/>
        <path class="cls-15" d="M185.6,658.7c3-20,8.9-39.2,15.1-58.4,1.4-4.5,1.3-7.9-2.6-10.7-1.4-.9-3-1.6-2.2-3.8a3,3,0,0,1,1.5-.4c2.9,1.4,5.7,4.9,8.5-.2,0.5-.9,1.7-0.4,2.2.7,0.4,3.5-1.3,6.4-2.3,9.5-3.1,9.4-6.4,18.8-8.7,28.4-0.6,2.5-2.1,4.5-3.3,6.7-3.2,9.7-4.7,19.8-7.1,29.7l-1.2-1.5"/>
        <path class="cls-44" d="M315.7,721.9l0.9-1.1c3.3,0.4,3.3,3.4,4.3,5.5s3.5,5.9,7.2,7.1c10.1,3.4,25.8-1.6,32.1-10.2,2.7-3.7,3.8-7.4,1.9-12a36,36,0,0,1,.2-27.9c4.9-12.1,9.6-24.3,16.3-35.5,8.2-20.2,16.8-40.3,16.5-62.8-2.7,3.8-6.1,7.3-9.2,11-1.5,1.8-2.7,3.9-5.3,4.2-3.2-2.8.6-4.3,1.2-6.4l0.9-1.3c2-2.7,4.7-4.9,6.5-7.8,4.7-5.7,10.1-10.7,15.3-16,1.2-1.2,2.5-2.5,4.5-2.3a2.6,2.6,0,0,1,1.5.9c0.2,2.2-1.3,3.5-2.5,4.9-5.8,4.8-7.9,10.6-8.2,18.3-0.6,13.2-2.7,26.3-8.5,38.5s-7.7,22.9-14.2,33.2c-1.7,2.6-.6,4,2.4,4h66c2.9,0,5.9-.5,8.4,1.5a2.5,2.5,0,0,1-.4,2.9c-2.6,1.7-5.6,1.3-8.5,1.3-21,0-41.9.4-62.9-.2-7.5-.2-11.8,2-13.6,9.2-0.4,1.2-1,2.3-1.4,3.5-2.5,6.5-3,13.7-1.4,21.9,2.5,0.9,4.4-2.9,7-1s2.2,4,3.1,6.1l0.6,1.5c2.4,5.1,5.8,1.1,8.7.9h1.7a3.4,3.4,0,0,1,2.2,4.2c-1.3,5.3,1.4,9.4,4.2,13.2,1.4,1.9,1.3,3.3.7,5.4-1.7,5.7-.6,7.2,4.2,9.4,2.9,1.3,7.4-.2,8.8,3.4s-1.1,6-.7,9.3H477c2.8,0,5.9-.8,8.3,1.7a4,4,0,0,1-3.2,1H388v-0.8c2.1-2.6,5.1-1.3,7.6-1.9s4-.6,4.6-2.9,0.5-3.5-2.2-3.7-5.8.7-7.7-1.8a18.9,18.9,0,0,1-3.7-12.1c0.3-4.1-2.8-6.6-2.7-10.4,0-2.1-.5-4.5-0.6-7-7.4.9-11.6-2.8-13.6-9.8-2.4,2.5-.9,4.5.1,6.2,6,11.5,7.1,24.1,7.9,36.8,0.1,2.1.3,4.3-1.2,6.2-16.4-.2-32.8,1-49.1-0.6a8.8,8.8,0,0,0-2.8.7c-0.2-13.5-5-26-9-38.6"/>
        <path class="cls-45" d="M485.3,760.7H402.2c5.5-2.9-1.1-8.8,5.4-11.3-5.5,1.2-9.5-3.6-14.5-1.1-0.5-2.1-.2-4.4-1.3-6.5s-1.1-3.8-.5-4.2c5.4-3.9,2.4-5-1.8-5.9-1.7-.4-0.8-1.2-0.2-1.9s1.4-2.2.7-2.5c-6.5-2.2-2-6.5-1.9-9.8,0-1.7,0-3.2-2.4-2.9,3.5-2.5,14.1-3.3,17-1.4s2.1,2.8,2.5,4.5c1.1,5.3,2.2,10.7,3,16s-0.4,7.3-6.8,7.2h-4.1c26.2-1.4,52.4-.5,78.6-0.7a34.5,34.5,0,0,1,7.6.4c0.9,0.2-.4-0.9-0.2-1.4-2.2-8.6.7-17.2,0.2-25.8a2.6,2.6,0,0,1,1.9-2.2c2.1,1.1,2,3,2,5q0,19.8,0,39.6c0,1.9.2,4-2.1,4.9"/>
        <path class="cls-46" d="M366.9,682c3.1-11.7,3.1-11.7,14.8-11.7h72c1.9-1,3.5-.8,4.7,1.1,9.2,10.5,16.8,22.2,24,34.1a2.4,2.4,0,0,0,1.2,1.1,1.6,1.6,0,0,1,1.6,1.9l-0.4,1.7a5.7,5.7,0,0,1-4.1,1.9c-8.2-.2-16.3-0.5-24.5-0.3-2.5,0-3.6-2.1-4.4-4.1-2.4-6.2-3.4-12.8-4.9-19.2-1-4.2.8-5.2,7.9-5.2-26.5.8-53.1,0.3-79.6,0.4-2.8,0-5.9.8-8.3-1.6"/>
        <path class="cls-47" d="M366.9,682h93.8c-3,2.8-5.6,2.5-8.1,2.4s-5.5.8-4.1,5.1c2,6.1,3.4,12.3,5.1,18.4,0.4,1.5.7,3,3,2.7,9.4-1.4,18.9.8,28.4-.3a1.5,1.5,0,0,1,.5,1l-1.2,1.3c-1.8,1.9-4.3,1.7-6.6,1.7-18.3.4-36.6-.7-54.9,0.8-3.7.3-7.3-.9-11.1-0.6s-4.2,1.6-3.8,4.6a2.5,2.5,0,0,1,.1.6c1.4,16.8,1.4,16.8,17.7,18.4a234.2,234.2,0,0,0,43.2.1c5.1-.4,10.5-1.7,15.4,1.4,0.7,0.6,2.6,1.2.6,2.2s-2.3.1-3.5,0.1c-28.5.2-57-.5-85.5,0.5a2.1,2.1,0,0,1-2.3-1.8c3.2-.3,6.5-1.4,9.3-0.7,4.9,1.2,4.4-1.7,4-4.3-0.9-6.3-2.3-12.5-3.3-18.8-0.4-2.2-1.4-3-3.5-3-4.7.1-9.5-.2-14.2,0.8a1.1,1.1,0,0,1-1,.5c-1.4.2-2.5-1.3-4.3,0s-3.6.3-5-1.3a0.7,0.7,0,0,1-.5-0.7c0.7-4.7,4.6-3.3,7.3-3.3,18.9-.2,37.8-0.1,56.7-0.1h5.8c3.1-.2,4.2-1.7,3.3-4.6l-0.2-.6c-5.4-20.3-.5-17.9-21.7-18H374.2c-2.9,0-5.9.5-8.3-1.8a2.2,2.2,0,0,1,.9-2.4"/>
        <path class="cls-48" d="M487.5,584.3c-1.5-3-.8-6.1-0.8-9.2q0-87.4.2-174.8c0-2.1-.2-4.3-0.2-6.4l1,1.2q0,94.6-.1,189.2"/>
        <path class="cls-49" d="M376.6,760.4c-0.3-15.6-1.5-31.1-9.3-45.1-2.5-4.4,1.5-5,3.8-6.9,1.5,10.1,6,13.1,14.4,9.8,1,3.4-4,7.9,1.8,10.4-6.6,6.6,3.1,3.1,3,5.7s-4.6.9-2.6,4.1,0.5,10.8,5.8,12.6c2.2,0.8,6,.4,9-0.3-0.4,5,.2,10.2-6.9,10.1l-7.6.2-11.5-.4"/>
        <path class="cls-50" d="M232.8,698.1c-5.6-2-6.6-7.1-2.2-13.6,3.2-4.6,7.1-8.8,10.5-13.3,1.3-1.7,2.8-1.8,4.6-1.8l59.1,0.4c3.4,0,3.5,1.5,3.2,4.3-0.8,7.7-3.8,15.1-3.4,23,0.1,1.8-.8,3.8-2.5,1.9-3.6-4-9.4-3.9-13-7.9-1,1.8-.3,5.1-2.9,4.4s-5.2.8-6.2-2.3-2.1-2.4-3.6-1.7c-4.1,1.9-7.3,1.3-10.7-2s-4.5-.3-5.6,2.3c-2.5-2-2.1-5.3-5-6.2-1.6,1.7.2,3.3,0.2,5.5l-4.4-3.6c-0.5,2.2-.5,5.4-1.3,5.6-3.2.8-6.1,2.4-10-.7s-5.3,2.2-6.4,5.4l-0.4.4"/>
        <path class="cls-51" d="M193.8,630.5c3.5-14.4,8.1-28.4,13-42.4,0.4-1.1.6-2.2,0.9-3.3l0.7-.5a4.3,4.3,0,0,1,3.1.5l1.3,1,0.9,1.3c3.1,3.1,5,7.6,9.8,8.8a460.8,460.8,0,0,0,51.4,20.9c5.4,1.8,5.4,1.9,1.6,6.3l-0.8.4c-9.4,10.3-17.5,21.5-25.8,32.5-6.3,8.4-12.5,16.9-19,25-2.3,2.8-4,5.7-4.4,9.2-3.2,1.4-3.7-1.7-4.4-3.2-5.4-10.8-13.1-20.4-16.2-32.6-1.8-7.1-6.9-13.3-7.7-21-0.2-2-1.3-4.3-4.3-3"/>
        <path class="cls-52" d="M321.2,625.8c-8.6,4.1-17.7,2.7-26.8,2.1-3.5-1.5-7.5-1.9-10.3-4.9a31.3,31.3,0,0,1-3.1-15.7q0-30.8,0-61.6c0.7-3.9-1.7-8.5,2.5-11.7,2.9,0,2.5,2.4,3.1,4.1,1.3,4.4,2.8,4.9,6.6,2.5s7.5-5.5,11.9-7.3a96.3,96.3,0,0,0,25.3-8.7,4.7,4.7,0,0,1,1.7-.4c3.5,0.4,4,3.4,4.7,5.9a193.4,193.4,0,0,0,8.3,21.6,121,121,0,0,1-13.9,25.4c-3.7,3.8-6.4,8-6.1,13.6-1.6,7.8-4.5,15.2-7.9,23.5,7.6-3.2,14.3-6.1,19.8-11.3,4.7-2.3,8-7.1,13.6-7.9,3.2-.4,6.4-1.2,9.7-1,6.9,0.4,8,2.3,4.7,8.7-2.4,3.5-6.4,5.1-9.1,8.2-10.7,7-22.6,11.3-34.7,15.1"/>
        <path class="cls-51" d="M379.9,600.3l16.9-18.7c0.4,24.1-7.4,45.6-17,66.5-6.9,2.8-12.5,7.7-17.7,12.5-9.3,8.6-19.6,15.9-29.3,23.8-8.2,6.6-16.4,13.5-25.6,18.9-2-3.3-1.2-6.9-.5-10.2a240.2,240.2,0,0,0,4.7-58.1c-0.1-3,.3-4.5,3.6-5.1s5.8-2.1,8.7-3.2a73.3,73.3,0,0,1,19-9.1c4.4-1.5,8.7-3,12.1-6.5s6.8-5.5,10.2-8.1c1.6-1.3,2.9-3.1,5.4-2.3s0.8,3.2,2.5,4.2c2.5-1,4.1-3.1,6.3-4.5l0.8-.3"/>
        <path class="cls-37" d="M307.1,703.3c1.1-4.6,5.7-5.4,8.7-7.8s7.9-4.9,10.3-9.1,5.5-3.3,8.1-5.2c12.7-9.2,23.8-20.5,36.8-29.2,0.7-.5,1.9-0.2,2.1-1.6,0.7-5,3.6-3.9,6.6-2.4-6,11.8-11.5,23.8-16.3,36.1-3.9,9.8-3.2,19.4.7,28.8a7.9,7.9,0,0,1-.1,7c-6.9,15.6-27.8,18.1-38.6,14.5-2.7-.9-4.4-3.5-5.4-6.4s-2.3-4.9-3.4-7.3c-3-5.9-9.1-10.1-9.5-17.5"/>
        <path class="cls-4" d="M289.6,629.2c5.6,0.7,11.2,1.4,16.8,1.9,2.1,0.2,3.2.5,3.2,2.9-0.1,9.9.6,19.9-.6,29.8-0.2,1.8.3,4.3-3.2,4.3-20.2-.1-40.4-0.1-62.2-0.1,5.8-7.9,10.7-14.8,15.7-21.6s9.2-11.6,13.7-17.4c1.2-1.6,3.1-3.1,2.6-5.6v0.2c4.5-5.1,5.3-5.1,8,.5,1.3,2.8,4.4,2.9,6,5.1"/>
        <path class="cls-53" d="M289.6,629.2c-6.4.5-8-3.6-8-8.8-2.8.3-4,2.4-6,3.3-0.8-2.3,1.8-2.6,2.3-4.2C259.1,613,240.5,606,222.6,597a1.4,1.4,0,0,1,0-1.6,2.7,2.7,0,0,1,1.6-.6c9.2,3.1,18.2,7,27.1,10.8,7.2,3.1,14.7,5.3,21.8,8.6a6.8,6.8,0,0,0,5.7.2c2.5-1.3.1-5.6,3.8-6.1-0.3,5.3,2.2,10.1,2.5,15.3,0.9,2.1,4.5,1.6,4.7,4.5a8.6,8.6,0,0,1-.1,1.1"/>
        <path class="cls-54" d="M355.4,612.3c-9.4,7.5-21.5,9-31.8,14.5l-2.4-1c8.6-3.8,17-8.1,25.8-11.3,3.3-1.2,4.9-4.4,8.3-4.8a2,2,0,0,1,.2,2.6"/>
        <path class="cls-55" d="M289.7,628c-1.2-1.9-5.9-.1-4.7-4.5,3.9-.1,6.9,1.7,9.4,4.4h-4.8"/>
        <path class="cls-4" d="M453.8,183.2V497.6c-9.9-1.6-19.3-4.9-29.2-4.2a1.5,1.5,0,0,1-.6-1.6c2.4-3.6,7-5.4,8.1-10.1,0.4-1.7,1.4-3.2,1.2-5-1.1-9.1-1.1-18.4-6.5-26.7s-4.8-8.4,1.7-15.3l1.9-2.6a60.5,60.5,0,0,0,4.6-8.8,8.5,8.5,0,0,0,.7-2.9c0.4-4-2.2-6.6-4.7-9.2l-1-1.3a15.4,15.4,0,0,0-3.8-4.4c-13.4-10-24.3-22.8-37.4-33.3-6.6-5.3-10.9-12.9-8.9-22.4,0.8-4-3.4-4.7-5.4-6.8l-1.3-1.3c-5-6.7-4.7-15-6.7-22.6s-2.1-16.1-3.3-24.1c-0.3-12.8-1.5-25.6-1.5-38.4a52,52,0,0,0-2.3-13.8c-0.9-3-2.6-4.6-5.9-4.5-4.9.3-9.7-.9-14.4-2a36.4,36.4,0,0,1-3.6-1c-3.4-1.3-3.6-3.6-1.6-6.3s4.1-5.9,6-9.1a20.6,20.6,0,0,0,2.4-4.3c1.5-4.4,3.8-8.5,5.3-12.9,0.6-1.9,1.2-4.3,4.3-3.5a29.1,29.1,0,0,1,3,2.9c3,3.4,7,6.1,8.7,9.5-3.1-5.3-4.1-12.4-6.1-19.1-0.5-4.7-.7-9.5.9-14.1-0.4-11.1,7.9-17.9,13.5-25.7,12-16.7,23.4-33.7,34.9-50.6s20.7-35.9,32-53.4c3.7-5.7,6.2-12.1,9.3-18.1,0.8-1.6,1.8-3.1.7-4.9,5-.8,4.6,2.4,4.6,5.7q-0.1,72.8,0,145.6c0,1.9.1,3.9,0.2,5.8"/>
        <path class="cls-56" d="M343.3,217c-0.5,1.3-.8,2.8-2.1,3.7s-2.6,4.6-4.8,6.2-1.7,2.5-3.2,1.9-1.2-2.2-1.1-3.5a15.2,15.2,0,0,0,.4-4.7c-1.2,1.2-1,2.7-1.3,4a4.3,4.3,0,0,1-3.1,2.9l-2.7,1c-3,1.1-4.2.2-3-2.9,3.9-9.9,5.6-20.4,7.6-30.8,1.7-8.7,1.7-17.7,3.6-26.4,2.3-2.9,5.8-4.4,8.3-7.1,7.3-7.7,7.9-17,6.9-26.7-0.2-2-.7-4.1-3.1-4.4s-3.7.7-5,2.3-2.3,5-4.7,6.6a1.2,1.2,0,0,1-1.3-1.1c-1.5-8.8-1.4-17.7-2.4-26.5-1.5-3.7-.7-7.8-2.3-11.5,1.5,3.5.6,7.4,2.2,10.9,1.3,9.8,1,19.7,3,29.5s0.3,17.2-1.2,25.6c-2.4,13.6-3.1,27.4-6.3,40.8-1.5,6.2-3,12.5-5.4,18.4a14.2,14.2,0,0,1-1.9,3.6c-1.2,1.5-2.4,3.6-4.6,2.5s-1.1-3.2-.6-4.8c1.4-4.7,2.5-9.4,3.8-14.1s2-12.3,1.8-19.1c-2.6,3.1-4.5,6.2-7.4,8.5-1.3,1.1-2.9,2.6-4.6,1.2s-0.5-2.9.2-4.3c2.5-5.5,4.9-11,6.8-16.8,0.9-2.8,2.8-4.4,6.2-5s4.2-4.1,4.2-6.4c0-9.5,2.8-18.8,2.7-27.7-0.5,8.9-2.2,18.3-3.1,27.8a5.2,5.2,0,0,1-2.2,4c-5,2.9-8.9,7.6-14.8,9.1-1.3.1-2.5,0.1-2.9-1.5,3.2-9,7-17.7,9-27.1,1.2-5.4,1.7-10.2-.9-15.7-3.9-8.5-4.7-18.1-7.8-26.9-1.3-3.9-2.4-7.8-4-11.6,1.6,4.4,3.3,8.8,4.1,13.4s-0.9,6.1-5,5.8-10.4-1.2-15.7-.3c-3.3.5-3.8-.8-4.5-6.5-0.8.7,0.3,1.4,0,2-3.7,8.6-3,17.9-4,26.9-0.4,3.3-2.3,3.4-4.5,2.5-5.2-2.1-10.5-4.2-15.3-7.3a8.5,8.5,0,0,1-2.3-11.4c1.1-1.7.6-2.1-.3-3.1-2.1-8.9.2-17.3,2.8-25.7A88.1,88.1,0,0,0,261,86.1c1.3-2.3,1.2-5.1,2.2-6.6s-0.3-1.3-.3-1.1c0.3,2.2-.9,4.2-1.3,6.3-1.6,7.6-5.2,14.7-7.2,22.2a79.2,79.2,0,0,0-3.8,10.4c-2.1,6.9-5.2,8.9-12.4,8-1.9-.2-5.2,2.8-4.4,4.3,1.9,3.5.7,6.7,0,10.1s0.3,8.1.6,12.1c0.8,7.7,1.1,15.5,2.9,23.1a28.3,28.3,0,0,0,3.4,8.5c3.6,6,1.4,12.2.1,19.4-4.2-4.5-1.6-9-3.3-12.7,1.9,12.4,2,25.2,7.6,37a4.9,4.9,0,0,1,.3,4c-2.4,1.5-4.1-.2-5.6-1.6-4.7-4.1-7.2-9.3-9.1-15.3-5.7-17.8-7.5-36.1-8.2-54.6a65.2,65.2,0,0,1,2.8-20.9c-0.7,1.4-.5,2.8-1.6,3.7-9.9.5-11.5,3.1-7.9,12.8,2.1,5.6,2.6,11.8,5.9,16.9s2.5,11.3,3.1,17.1a107.5,107.5,0,0,0,5.6,24.4c1.1,3.1,2,6.3-1.4,10.2-3.9-8-4.2-16.1-6.1-22.2,0,2.7,1,6.8,1.9,11,0.3,1.5.7,3.4-.9,4.2s-2.3-1-3.3-1.8c-11.3-8.8-16.2-20.6-16.7-34.5-0.1-2.1.7-3.9,0.8-5.9-0.1,2.6-1.5,4.3-3.3,6.1s-7,5.7-8.8,10a7.6,7.6,0,0,1-3.5,4.1c-3-.3-3.6-2.2-2.4-4.5,4.1-7.4,4.4-16,7.7-23.6,2.5-5.8.8-12.2,2.3-18.3,0.4-1.7.2-3.5,0.6-5.2,1.1-6,2.2-12,3.4-18,2.5-10.3,6-20.4,8.4-31.5-3.7.9-6.4,1.9-9.1,2.8-0.9.3-2,.6-2.6-0.5s0.2-1.9.9-2.5c5.8-4.9,10.1-11.2,15.7-16.3a52.3,52.3,0,0,0,10.3-13.7,11.8,11.8,0,0,1,4.4-4.9c4.2-2.6,7-6.7,10.6-10,7.6-7.1,15.9-12.3,27-11.8,2.4,0.1,4.5,2.5,7,.9a62.5,62.5,0,0,0,15.2-1.1c2.7,2.5,5.3-.6,8.2-0.2,8.5,1.1,15.7,4.7,22.3,9.9,4.1,2,6.5,5.8,9.5,8.8V55.2c6.2,6.1,9.9,13.8,14.2,21.2,2.6,1.7,3.7,4.3,4.3,7.2,0.2,6.9,3.5,13,5.2,19.5a160.5,160.5,0,0,1,5.1,53.5c-0.9,11.8.5,23.6,1.1,35.4a87.9,87.9,0,0,1,2,10.1c0.2,1.5,1.3,3.1-.5,4.1s-2.3-.9-3.3-1.6a6.5,6.5,0,0,0-2.4-1.5,3.7,3.7,0,0,1-2.2-2.5c0.9-1.8-1.5-1.9-1.5-3.3-1.2,7.1-6.1,12.7-7,19.6"/>
        <path class="cls-57" d="M222.9,142c1.7-2.1,2-4.8,3.1-7.3-0.8,9.6-2.1,19.1-2,28.7,0.1,18.1,2.3,35.9,8.5,53,2.3,6.2,6.1,11.7,12.5,14.6,0.4,1.1-.3,1.5-1.1,1.8-3.7.3-5.3-2.8-7.6-4.7s-1.9-2.8-3.4-3.9c-1.6,2.4-1.9,5.3-3.5,7.6a1.1,1.1,0,0,1-1.4.3c1.5-10.7-6.9-15.7-13.2-21.4s-8.9-13.3-10.6-21.3c-0.6-2.8-.9-5.6-1.6-9.9l-10,11.1c-0.4-3.1,2.1-4.4,3.8-6.2,3.5-3.6,7.5-6.9,8.9-12.7-2.5,18.5,3.2,33.4,18.8,44.5-1.6-7-3.2-13.6-1-20.7l6.2,26.6c0.8-2.2,1.7-3.9,1.1-5.8a121.4,121.4,0,0,1-6.7-35.3,17.7,17.7,0,0,0-3.1-8.7c-0.5-1,.2-1.5.8-2.1q0.1-13.4-.2-26.8c0.2-1,.5-1.9,1.8-1.6"/>
        <path class="cls-58" d="M224.3,63.6c1.9,1.9-.3,2.7-1.1,3.7-7.6,10.2-16.8,19.1-26.2,28.8a23.3,23.3,0,0,0,9.7-3.9,3.2,3.2,0,0,1,3.3-.4c1.5,0.8.4,2,.2,3.1-2.4,9.9-5.1,19.8-8.4,29.5l-0.6-.6c-1.4-6,1-11.4,2.6-16.9,0.6-2.1,1.3-4,1.8-5.6-3.1,7.5-4.8,16.1-9.6,23.4-1.1-.1-1.8-0.3-1.3-1.6,1.9-9.1,6.7-17.2,9.3-26.5l-21.2,8.3-0.8-1.4c18.2-9,29.2-25.5,42.3-39.8"/>
        <path class="cls-59" d="M227.9,232.2h1c1.9-2.6,3.9-5,7.7-3.7,1.1,1.3.2,2.2-.6,3-6,5-12.2,9.5-20.7,9.6s-10.7,2.1-12.4,10.2c-2.4,11.4-3.2,23.1-4,34.7-0.7,9.9-1.9,19.8-5.1,29.2s-8,16.4-12.5,24.4a1.4,1.4,0,0,1-2,.6,3.3,3.3,0,0,1,.1-2.8c0.7-4.1,3-7.6,5.2-10.9,8.8-13.7,10.2-29.1,11.4-44.6,0.9-11.6.8-23.3,4.2-34.6,1.8-5.7,4.9-8.2,10.5-9s12.5-.9,17.2-5.7"/>
        <path class="cls-60" d="M357.7,193.6c-2.1-16.6-1.4-33.3-1.2-50s-3.2-35-8.9-51.8c-0.9-2.5-3.1-5.2-.9-8.2,7.4,20.6,12.2,41.8,11.8,63.9-0.2,8.7-1.4,17.5-.9,26.3,0.1,1.7-.4,3.5.8,5.1l0.3,14.8a0.6,0.6,0,0,1-1.1,0"/>
        <path class="cls-61" d="M219.5,401c-0.7-.7.4-3.8-1.4-2.2-7.2,6.5-16.9,6.1-25,9.7s-11.6,1.2-17.3-4.4-4.5-14.4-4.1-22a26.7,26.7,0,0,1,1-4.5,1.1,1.1,0,0,1,1.5.4c1.5,2.8.4,5.7,0.1,8.6-1.1,8.6,2.1,15,9.4,19.1,2.3,1.3,4.5.7,6.8,0.1a84.8,84.8,0,0,0,8.5-2.2c7.4-1.3,14.1-3.8,19.3-9.6,0.9-1,2.4-2.2,4-.7s1.6,5.6-.9,8.1a1.9,1.9,0,0,1-1.9-.2"/>
        <path class="cls-62" d="M219.5,401h1.3c1.4,1.6,1.6,3.6,1.5,5.5-0.6,16.9,1.3,33.8,1.2,50.7-0.1,8.5-.4,17-2.5,25.4-1.8,1.4-2.3-.2-2.7-1.3s-0.5-4.1-.6-6.1-0.2-5.2,1.5-7.4a102.1,102.1,0,0,0,0-24.6c-1.5-9.3.2-18.8-.8-28.1,1.5-4.6.4-9.4,1.2-14"/>
        <path class="cls-63" d="M198.3,143.2c-0.9,9.7-.4,19.6-4.3,29-2.3,5.6-3.3,11.8-6.2,17.2-1.1,2.2-.9,4,1.2,5.3-1.5,2.2-3.2,4.1-6.7,4.6,2.7-9.6,8.8-18,5.7-28.1a1.6,1.6,0,0,1,1.4-.3c4.5-4.4,3.9-10.4,5.1-15.9s0.1-8.6,3.1-12.1l0.8,0.2"/>
        <path class="cls-64" d="M273.2,37.9a4.3,4.3,0,0,1,1.2,1.3c0.5,1.4-.8,1-1.2.8-14-6-23.9,1.2-33.7,9.9-3.5,3.1-5.3,8.3-10.8,9,5.4-6.1,10.7-12.2,17.6-16.8,8.4-5.6,17.3-7.1,27-4.1"/>
        <path class="cls-65" d="M319,47c-5.3-3.4-10.8-6.6-16.8-8.6a15.4,15.4,0,0,0-11.8.6c-3.4,1.7-3.4.3-2-2.3,11.8-2.8,21.7,1.3,30.6,8.7A0.9,0.9,0,0,1,319,47"/>
        <path class="cls-66" d="M342.6,76.4c-0.9-.1-2.5,1.1-2.6.2-1.1-8.4-7-13.9-11.5-20.3a2.5,2.5,0,0,1-.1-1.1c7.7,5.1,11.2,13,14.2,21.2"/>
        <path class="cls-67" d="M173.8,377.5h-1.1c1.7-8.6.8-17.7,4.3-26a2.5,2.5,0,0,1,1.9,2.1c-0.4,6-1.3,11.9-1.9,17.9-0.3,2.2.1,5.3-3.3,6"/>
        <path class="cls-68" d="M194.7,123.1l1.2,1.4c1.4,2.8-.1,5.4-0.9,7.8-1.9,6-1.9,12.6-5.2,18.2a1.8,1.8,0,0,1-1.8-.3c1.2-9.3,3-18.5,6.7-27.2"/>
        <path class="cls-69" d="M188,150.3h0.9a25.8,25.8,0,0,1-.1,21.1h-0.9c-1.3-7-.7-14,0-21.1"/>
        <path class="cls-70" d="M178,352.9l-1-1.3c0.1-4.9-2.1-10.2,2.3-14.4v2.7c0.9,4.5,1.6,9-1.5,13"/>
        <path class="cls-71" d="M319,47V45.5c4.2,2.3,7.7,5.2,9.4,9.8-3.9-1.9-5.9-6-9.5-8.3"/>
        <path class="cls-72" d="M457.5,671.5c-0.8-1.9-2.7-.2-3.8-1.1v-2.4c-2.4-2.8-1.7-6.3-1.8-9.5q-0.1-64.1-.1-128.2c0-1.9,1.2-4.3-1-5.9a2.2,2.2,0,0,1-2.2-1,2.5,2.5,0,0,1,1.5-3c3.5-2.6,3.1-6.7,4.7-10.4q0,3.5,0,7,0,71.6,0,143.2c0,1.8-.8,3.9,1,5.5l2.7,4.7c0.5,1-.1,1.1-0.9,1.1"/>
        <path class="cls-73" d="M457.5,671.5l0.9-1.1a4.2,4.2,0,0,1,3.1,2.2c7.1,10.3,14.2,20.5,21.2,30.8,0.6,0.9.6,2.2,0.9,3.3-1.9.2-2-1.5-2.7-2.5-7.8-10.9-14.7-22.5-23.4-32.8"/>
        <path class="cls-74" d="M450,520.4l-1.2,2.3c-2.9,7.3-6.7,14-13.7,18.2a12.9,12.9,0,0,1-10.4,1.8c-6.4-2.2-13.1-3.5-19-7.1s-11.8-12.2-16.6-19.1a18.8,18.8,0,0,0-4.2-4.7,18.9,18.9,0,0,1-3.9-4.2c-1.5-2.5-2.1-5.4.3-7.4,4.3-3.8,7.8-8.6,13.3-10.9,2.5-.6,5-0.5,6.7-3.4s4.9-2.2,7.4-.2c2.1,4.6,4.9,8.9,2.3,14.5-1.1,2.3-.2,5.3-0.4,8-1.1,4.7-3.3,8.6-5.5,10.3,1.7-1.4,4.8-4.6,8-7.5s6.3-3.2,8.8,1.6c-0.8,4.9-2.9,9.6-1.2,14.3-0.4-8,1.9-16.3,1.1-24.8-0.4-3.9,1.6-6.1,5.9-5.9a88.6,88.6,0,0,1,12,1.1c11.4,0.7,14.6,6,10.7,18.5-0.5,1.7-1.2,3.2-.4,4.9"/>
        <path class="cls-75" d="M409.2,508.7c0.4-4.2.4-8.3,1.4-12.5s-1.7-7.2-2.8-10.8-3.7-3.3-5.8-4.6c0.4-3.4,1.6-6.6,1.3-10.1a3,3,0,0,1,1.4-2.1,3,3,0,0,1,3,2.3c2,7.7,5.1,15.2,6.4,23.1,0.5,2.9-.1,5.8-0.2,8.8,1.8-6.8,4.3-13.5,1.8-20.7a8.3,8.3,0,0,1-.5-2.9c0-1.6.1-3.4,2.1-3.6s2.3,1.4,2.5,2.7c0.6,3.7,2.2,7.1,2.1,10.9,0,1,.1,1.9,1.2,2.3a3.3,3.3,0,0,1,1.3.8l0.2,1.2a2.2,2.2,0,0,0-.2.9c-0.5,1.7-2.4,2.3-3.2,3.8s-1.8,5-2.9,7.4c-2,4.5-5.5,5.7-9.1,3.2"/>
        <path class="cls-76" d="M420.8,497.3a3.9,3.9,0,0,1,3.6-3c5.2,0.5,10.5,0,15.3,2.6-4.1,0-8.2.2-12.2-.1s-4.6,1.2-4.6,4.6c0,9.5-.3,18.9-0.6,28.4,0,1.1.1,2.4-2,3.2-2.3-7.3-1.8-14.4.4-21.5-1.4-4.7-2.4-9.5.2-14.2"/>
        <path class="cls-4" d="M219.1,467.7v6.6c-1.5,3.9.7,8.1-.7,12-5,4.4-4.5-1.8-6.2-3.7-4.3,3.8-1.6,8.1-1.6,12.1-1.9,3.9-5.2,7-6.1,11.4-5.4-.2-4.7,5.3-7.4,7.7s-3.9,1.9-5.9,2.7-2.8.2-2.5,1.4,2.3,0.4,3.4.8a17.6,17.6,0,0,1,6.3,5c-0.8,2.3-2,4.6,1.1,6.1a2.4,2.4,0,0,1-.1,1.6,17.8,17.8,0,0,1-6.5,4.8c-4.5-.1-9.3-1.3-11.9,4.4-1.1,2.5-4.3,1.1-6.7,2.3,3.5-1.3,5.5-.1,6.6,2.9a3.9,3.9,0,0,1,0,1.6c-1.9,2.9-4.1,5.6-6.1,8.4-2.8-.1-2,1.1-0.8,2.4a4.2,4.2,0,0,1,.3,2.4c-3.4,5.7-3.2,6.7,3.2,8.9,3.4,1.1,5.2,2.6,2.9,6.2a58,58,0,0,0-12.7-1.2c-6.9.1-10.5-4-9.2-10.8s0.8-15.5.6-23.2,0.5-8.1,7.6-8.1c12.5,0,11.4,1.2,11.4-11.2,0-2.7.1-5.5,0-8.2-0.2-4.9,1.2-7.7,6.8-8.9,10.4-2.2,13.7-8.2,12.2-19-0.6-4.5-.5-8.9,6-8.9,1.4,0,2.5-.2,3.2-1.9,3.3-8.6,3.7-8.8,12.7-6.3"/>
        <path class="cls-40" d="M180.6,575.5c0.2-2.5.3-4.8-3.2-4.8s-3.9-2-5.8-3.2-3.1-3.2-.1-5a12.4,12.4,0,0,0,2.3-2.5,3.8,3.8,0,0,1,3,1.1c6.7,6.7,12.3,14.3,18,21.8a3.9,3.9,0,0,1,.9,3.2l2.4,3.5c-3.3,1.8-6,2.1-7.1-2.6-0.4-1.6-1.6-2.7-3.4-3.5-3.4-1.5-7-3.3-7-8"/>
        <path class="cls-77" d="M207.7,584.8c-2.5,1.4-3,4.2-4.3,6.6-3.2-.6-3.4-4.4-6.1-5.5-4-3.4-6.8-7.8-9.6-12.1-0.6-.9-1.9-1.8-0.9-3s2.5-.6,3.7,0,3,1.8,4.5,2.6c3.1,2,6.5,3.6,9.4,6s4.1,2.6,3.2,5.6h0Z"/>
        <path class="cls-78" d="M194.6,574.5l-8.5-4.2,11.2,15.6-1.6.2-19.6-24.7c-0.5-1.8.8-1.8,1.9-2a4.8,4.8,0,0,1,3.5,2.1,11.3,11.3,0,0,0,5.7,4.8l1.3,0.9c1.8,2,4.4,2.6,6.4,4.4a3,3,0,0,1,.5,1.5,2.1,2.1,0,0,1-.8,1.4"/>
        <path class="cls-4" d="M449.9,523.7l3.7-4.5V667.9H372.9c1.3-4.7,4.3-8.1,5.8-11.9,6.8-17,15.7-33.3,18-51.9,0.6-5.2,2.1-10.5,1.8-15.6-0.6-8.3,3.3-13.5,9.6-17.7h0.8c6.3-2,9.6-7.4,13.5-12,1.3-1.6,2.2-3.6,3.5-5.3,8-10,16.2-19.9,24.1-29.9"/>
        <path class="cls-52" d="M408.7,567.1a128.5,128.5,0,0,0-18.7,18.8,11.3,11.3,0,0,0-6.5,7.3,3,3,0,0,1-.3.9c-3.5,3.9-7,1.9-10.5,0s-3.9-1.6-6-1.9-3.8-.8-4.2-3.2,0.6-4.1,2.5-5.4,2.2-2.1,3.7-2.7c5.6-1.6,10.8-3.9,14.5-9.1-6.2-1.1-6.3-1-12.2,5.6l-2.1,2c-5.7,5.2-8,4.6-11.3-2.8-0.2-6.6-.6-13.1-6.4-17.7a9.2,9.2,0,0,1-2.7-4.7c-0.6-3.2-.4-6.2,2.4-8.5s4.9-1.1,6.4-3.5c-3.4-3.1-3.4-3.1-12-.3a2.2,2.2,0,0,1-1.3-1c-1-3.3-1.1-6.7-2.4-10a6.6,6.6,0,0,1,6.2-9.2c2.8-.1,5.2-1.3,7.7-2s4.2-1.7,5.3-4a15.6,15.6,0,0,0,4.7-4.9l1.4-.9c10.7-5.5,10.7-5.5,19.3,3,5.5,8,11.1,15.7,18.7,21.9,1.7,1.2,3.8,1.9,5.2,3.6s3.4,1.7,5.3,2.2a4.4,4.4,0,0,1,1.3.8c2,2.6,6.5,2.6,7,6.8a2.5,2.5,0,0,1-1,1.2c-7.1,2.1-9.6,8-11.8,14.2-0.3,1.4-.4,2.9-2,3.6"/>
        <path class="cls-79" d="M365.9,684.4c24.5,0,49.1.1,73.6-.1,4.4,0,6.3,1.4,7.1,5.5a124.3,124.3,0,0,0,3.8,15.8c1.6,4.6.4,5.8-4.3,5.8-21.6-.1-43.2-0.1-64.8,0-2.2,0-4.8-1-6.4,1.6a2.3,2.3,0,0,1-.9-0.7c-2.1-7.1-2.1-7.1-8.9-2.4-2.6-8.7-3.1-17.2.8-25.5"/>
        <path class="cls-80" d="M408.1,570.8l2-3.5c0.2-2.4,2.1-4.3,2.5-6.6a7.2,7.2,0,0,1,2.2-3.6l3.2-2.5c1.5-1.2,3.2-2.9,5.1-1.2s0.5,3.5-.4,4.9a40.5,40.5,0,0,1-11.2,12.4c-1.1.8-2.4,1.5-3.7,0.2h0.1Z"/>
        <path class="cls-81" d="M373.1,592.9c3.2,1.9,6.5,2.6,10.1,1.2-0.4,2.4-4,3.2-3.3,6.2h0c-4.4,3.6-5,3.5-6.3-1.4-0.4-1.5-.9-2.9-1.3-4.4a1.4,1.4,0,0,1,.7-1.5"/>
        <path class="cls-79" d="M375.5,713.7c2.9,1.6,6.6-1.9,9.3,1.3-4.9,3.4-7.4,3-9.3-1.3"/>
        <path class="cls-82" d="M383.5,593.2q-0.8-7.3,6.5-7.3l-6.5,7.3"/>
        <path class="cls-83" d="M413.8,561.2c0.2,2.9-2.2,4.3-3.7,6.2l-1.4-.2,0.6-4.4a4.4,4.4,0,0,1,4.5-1.6"/>
        <path class="cls-84" d="M484.1,739.5c-14.6-.3-29.1,1.6-43.8,1.3-9.1-.2-18.2-2.1-27.4-1.3-2.8.2-3.7-1.2-4.1-3.7-1-6.1-2.1-12.2-3.2-18.3-0.8-4.3,1.9-4.9,5-4.9,6.9-.2,13.8.5,20.8,0.2,17.5-.7,35.1-0.2,52.7-0.2a11.6,11.6,0,0,1,.9,9c-1.6,6-.5,11.9-0.9,17.9"/>
        <path class="cls-52" d="M194.9,572.9a1.1,1.1,0,0,0-.2-0.9c-1.3-3.2-4.3-3.6-7.1-4.5h0c-1.9-2.1-4.4-3.5-6.8-4.9l-2.4-2.3c-3.2-4.7,0-8,2.3-11.6,5.6-6.1,12.5-10.6,19-15.7,5.4-3.2,10.4-1.4,15.2,1.4,2.3,4.5,7.3,4,11,5.4,9.3,3.4,10.5,5.3,7.1,14.5-2.8,7.6-8,14.1-10.6,21.8-0.7,2.2-1.7,4.3-1.7,6.7-2.2,5.2-3.3,5.7-9.2,3.4h-0.2c-4.8-5.4-11.1-8.9-16.6-13.3"/>
        <path class="cls-85" d="M211.7,586.1c3.2-.6,8.2,1.8,7.7-4.7,0.8-2.9,3-5.1,4.1-7.9,0.4-1.1,1.6-2.2,3.2-1.2,0.1,6.4-3.8,11.2-6,16.7-3.8,4.5-5.6-1-8.4-1.6l-0.4-1.3"/>
        <path class="cls-86" d="M194.9,572.9c6.5,3.3,13.3,6.2,16.6,13.3l-3.8-1.3c-2.8-5.4-8.8-6.8-13-10.4l0.2-1.6"/>
        <path class="cls-87" d="M212.1,587.4c2.7-1.4,4.4,4.6,7.3,1,1.4,2.2,2.2,4.7,3.4,7l-0.3,1.6c-5.6-.9-6.6-6.9-10.5-9.6"/>
        <path class="cls-88" d="M373.1,592.9l-0.2,1.2c0.5,1.7-.8,1.8-1.9,2.1a15.3,15.3,0,0,1-7.1-2c-4.8-2.4-9.1-1.7-13.3,1.2s-7.9,6.6-12.9,8.2a1.9,1.9,0,0,1-1.5-1.8c2.8-6.2,9.5-7.7,14-11.8,6.1-5.6,7.1-8.1,2.8-15.6a43.2,43.2,0,0,1-5.8-18,4.9,4.9,0,0,1,2.4-2.2l2,3.9c4.1,5.6,5,12.4,7.2,18.7,3.8,5.9,3.7,5.9,8.8,1.3a17.3,17.3,0,0,1,2.9-1.8c1.8-.7,3-2.4,4.8-3.1s2.8-1,3.7.4-0.4,2.5-1.6,3.2l-7.9,4.6a18.2,18.2,0,0,0-3,2.5c-1.2,1.5-3.8,2.1-3.1,4.9s3.3,1.8,5.2,2.3a48.8,48.8,0,0,1,4.7,1.8"/>
        <path class="cls-89" d="M349.5,554.2c-0.1,1.1-.3,2.1-1.5,2.5-4.9,2.5-6.5,7.4-8,12s-5.9,9.1-6.7,14.7c-0.2,1.6-2.2,2.6-4.1,3a2.2,2.2,0,0,1-1.8-1.7c-0.5-3.3,1.4-5.7,3-8.1l13.9-24.5c-2.2-8.8-6.8-16.8-8.7-25.7-0.3-1.2-1.5-1.7-2.6-2.1a1.5,1.5,0,0,1-.3-1.6,3.5,3.5,0,0,1,1.6-.9,5,5,0,0,1,3.6.5c3.6,4.3,3.4,10,5.5,14.9,0.6,1.4.2,3.1,1.4,4.3h0c1.6,0.8,3.2,3.2,4.6-.2,0.3-.7,1.2-0.8,1.9-1.2s2.6-2.2,4-.5,0.3,2.9-.5,4.2-2.2,1.5-3,2.6-2.5,5.1-2.2,8"/>
        <path class="cls-90" d="M328.3,584.8l1.1,1.3c1.2,4.4.7,8.4-2.6,11.7a10.4,10.4,0,0,0-2,4.1c-0.4,1.8-2.2,3.2-1.1,5.7,3.9-1.1,6.7-4.2,10.3-5.7a2.3,2.3,0,0,1,2.3.5l1.3,1.2c-5.3,6.4-13.4,8.4-20.1,12.6a2.9,2.9,0,0,1-2.7-.2c-0.9-.8.1-1.6,0.5-2.5,3.8-7.1,6.2-14.8,8.4-22.5,1.7-1.9.5-5.9,4.5-6.1"/>
        <path class="cls-91" d="M282.5,608.3c-2.5,2.1.7,6.1-2.6,8-2.9-8.3-1.2-16.8-1-25.2s1.2-18.8.2-28.2c-0.8-4.3-.4-8.6-0.6-12.8a3.1,3.1,0,0,0-2.6-3.7c-1.2-.3-3.3-0.4-2.4-2.8s4.1-1.3,6.2-.9,2.1,1.3,2.9,2.3q-0.1,31.7-.2,63.4"/>
        <path class="cls-92" d="M282.7,544.9l-2.8-1.3c-2.2-4.6.5-9.1,0.2-13.6-0.2-2.5.2-5-1.2-7.3-4.4-7.3-4-15.5-4.1-23.6a1.8,1.8,0,0,1,1.4-1.1c3.1,1.9,3.2,5.2,3.2,8.3a26.9,26.9,0,0,0,4,13.7c2.6,4.4,5.3,9.2,2.9,14.8a1.5,1.5,0,0,1-1.8-.1c-3.5,2.9-.5,7-1.8,10.3"/>
        <path class="cls-93" d="M350.6,595.4c3.4-3.4,6.4-8,12.1-2.6,1.9,1.8,5.3,1.8,8,2.7a2.8,2.8,0,0,1,.4,2.5c-2.1,2.1-3.7,5.2-7.5,4.7,3.4-7.1,3.4-7-4.7-7.2-2.8-.1-5.5,1.1-8.3,0"/>
        <path class="cls-94" d="M333.1,523.9c2.1-.2,4,0.1,4.4,2.6,1.1,7.5,4.4,14.2,7.1,21.2,0.5,1.3,1.3,2.9,0,4.3-4.9-6.7-6.6-14.6-9.3-22.2-0.7-1.8-.5-4.4-3.3-4.8-0.2-1,.1-1.5,1.2-1.2"/>
        <path class="cls-91" d="M284.5,534.6l2-.3c3,5.8,6.7,3.9,10.8,1.3,2.3-1.5,4.6-3.8,7.9-2.5a1.1,1.1,0,0,1-.1,1.5c-3.4,2.1-7.1,3.9-10.2,6.4s-3.8,3.7-6.5,2.7-3.6-4.3-3.6-7.3c0-.6-0.1-1.2-0.2-1.7"/>
        <path class="cls-94" d="M305,534.6l0.3-1.7c-0.1-1.5,1.2-1.6,2.1-2,4.9-2.2,10.4-2.6,15.3-5.1l1.6-.7c2.2-.4,4.4-2,6.5.2-3.6,4.7-9.5,4.9-14.4,6.5s-7.1,4.1-11.4,2.8"/>
        <path class="cls-95" d="M363.5,602.6c2.9-.9,4.6-3.3,6.8-5.1,2.2,1.3,2.2,2.6.1,3.9-6,2.3-9.5,7.8-14.9,10.9l-0.2-2.6c1.9-3.3,5.6-4.7,8.3-7.2"/>
        <path class="cls-96" d="M328.3,584.8c-2.4,1.4-1.3,5.3-4.5,6.1-0.7-6.1,1.4-11,6.7-14.3l-2.2,8.2"/>
        <path class="cls-97" d="M330.7,525.3l-7.1,1c1.8-4.6,5-5.7,9.4-3.5,0,0.4,0,.7,0,1.1l-1.2,1.2-1.1.2"/>
        <path class="cls-98" d="M370.4,601.4a3.2,3.2,0,0,0-.1-3.9l0.3-2.1a2.4,2.4,0,0,0,2.3-1.3c3.1,1.6,2.1,4.6,2.4,7.5l4.7-1.4c-0.7,3.8-4.6,4.6-6.8,7s-2.3.2-2.6-1.2a33.2,33.2,0,0,1-.2-4.5"/>
        <path class="cls-52" d="M280.2,548.5l0.2,14.1a195.8,195.8,0,0,1,.1,28.1c-0.8,8.5,1,17.1-.5,25.6-8.2.5-15.2-3.8-22.3-6.7-11.2-4.6-22.8-8.4-33.5-14.3-4.9-4.6-1.3-9.5-.2-14.2s4.1-5.7,3.5-9.5c0.7-5.6,5.2-9.8,5.8-15.5,1.4-3.1,1.8-6.8,5.1-8.8,6.3-6.1,13.4-6.4,21.2-3,2.4,1,5.4.3,8.1,0.3,4.6,0.1,8.8,1.1,12.5,3.9"/>
        <path class="cls-99" d="M228.7,571.9c0,1.7.1,3.3-1.1,4.9-4.3,5.5-4.8,11.9-3.4,18.5l-1.3.2c-3.8-1.1-3.6-4.1-3.4-7l6.9-16.4,0.5-.5a1.5,1.5,0,0,1,1.8.4"/>
        <path class="cls-100" d="M333,522.8a11,11,0,0,0-9.4,3.5h0c-5.5,2.5-11.9,2.4-17,5.9l-1.4.6c-4.3,1.3-8,3.8-11.6,6.3s-6.2,3-6.5-2.7a7.7,7.7,0,0,0-.8-2.2c-0.9-5.7-2.4-11.1-5.9-15.9-2.2-3-2.5-6.8-2.5-10.5s0.1-6.9-2.5-9.7c-1.2-5.1-3.9-9.6-6.2-14.3,2.3,4.6,4.7,9.2,6.2,14.2,1.2,8.9.1,18.2,5.8,26.1,2.2,3-.4,6.3-0.2,9.5s-0.8,6.5-1.3,9.8l-6.7.3-1,.2q-19.4-1.3-38.8-3.4c-4.3-.8-8.3-2.4-12.7-2.9a4.5,4.5,0,0,1-2.2-1.2c-2.1-2.9-5.4-4.2-8.5-5.7l-1.4-.9-13-8.8c-1.4-1-2.9-2.3-2.6-4.3s2.2-1.9,3.7-2.3,4.2-2,6.4-2.7l1.4-.5c-0.7-8,4.6-13.4,8.6-19.3a5,5,0,0,1,1.9-2.5c3.7-.8,3.1-4.9,5.4-6.7,2.9-27.3-.3-54.6.4-81.9,1.7-2.7.2-6,1.5-8.8-0.2-4.6,3-6.7,6.4-8.6s5.2-3.5,8.6-2.8,3.5,4.9,2.8,8.2c-2.4,10.6,1.4,19.7,10.4,26,6.5,4.6,13.8,8,19.3,14,1.6,1.7,3.6,3,4,5.6a68,68,0,0,1-1.3,14.6c-1.9,3.7-2,8.1-4.5,11.6,2.3-3.2,2.8-7.1,4-10.8s2.1-9.2,1.7-13.9c1.6-3,3.4-.9,4.2.3,2.2,3.5,5.1,4,8.6,3.1,1.6,0.6,1.6,3.7,3.6,3.1s2.3-3.2,2.5-5.3-0.5-6.9.9-10.2a239.2,239.2,0,0,0,19.3-27,15.8,15.8,0,0,0,2.2-12.7,188.4,188.4,0,0,1-3.6-45.1,9.4,9.4,0,0,1,1.2-5c0.6-.8,1.7-1.3,1.8-2.2,0.3-9,2-18-1.2-26.8a52.3,52.3,0,0,1-.2-15.9c3.8-.5,2.3-3.7,2.7-5.8,0.8-4.6,2.4-8.9,3.7-13.6-2.9,1-4,3.8-6.3,5.2-2.8-.2-2.4-2.5-2.7-4.2s-0.4-4.5-1.6-6.6,0.8-5.4,1.6-8,4.2-4.7.3-7.4-4.9-4.5-1.3-9.1,6.4-5.6,8.2-9.6c4-4.9,7.7-5.5,12.7-2,1.7,1.2,2.9,2.9,5.2,3.2l3.1,0.2a25,25,0,0,0,13.8,3.3c4.8-.3,7.2,1.8,8.3,6.2s2.1,8.7,1.1,13.2c-2.8,2.7-4.5.2-6.2-1.5s-3.7-4.3-6.9-2.1-8,3.2-7.8,9c0.4,14,4.6,27.2,8.8,40.4a102.5,102.5,0,0,0,11.2,24c0.7-4.6,1.7-8.5,2.2-12.6,0.2-1.9-.1-4,1.8-5.3,2.9,6.5,2.9,13.6,4.3,20.4,1,4.7,1.9,9.4,6,12.6h0c5.8,5.1,5.7,10.5,1.1,16.3a1.6,1.6,0,0,0-.3.5c-0.5,1.6-2.3,3.3-.9,4.8s3-.7,4.7-1a3.2,3.2,0,0,1,2.5.3,2.8,2.8,0,0,1,.6,1.7c-0.4,20,9.9,41.3,30.4,47.3,3.1,0.9,8.1,1.3,7.1,7.1-6.6,2-13.6,1.7-20.1,3.8a27.3,27.3,0,0,0-13.8,4.5c-3.4,2.2-5.3,4.7-5.6,8.6s-0.3,8.3-3.6,11.9c-1.6,1.7-.8,4.8,1.8,6.4a7.9,7.9,0,0,1,1.1,1.4c4.7,9.9,4,10.9-9.7,15.5,7.7-3.7,17.7-4.3,27.9-3.9,2.9,0.1,5.4.6,6.1,4.1s0.5,6.6-2,9.4a3.3,3.3,0,0,1-1.3,2.9c-11.9,8.9-22.6,19.4-35.3,27.4h0c-6.2,6.3-15.1,6.3-22.5,9.9l-1.5.5c-2.6.8-5.3,0.1-7.9,1.2h-1Z"/>
        <path class="cls-101" d="M335.6,234.5c-3.2,1.1-5.2-1.3-7.3-2.7-4.5-3-7.5-2.2-9.6,2.7a6.8,6.8,0,0,1-3.2.5c-3,.3-5.7-0.4-3.7-4,3.5-6.4.6-11.9-1.3-17.7-0.4-1.2-.7-2.9-2.3-3s-1.9,1.6-2.4,2.7a7.5,7.5,0,0,1-1.8,2.9,1.7,1.7,0,0,1-2.1-.6c-2.2-3.5,0-6.5,1.3-9.6-2.3-1.5-3.1,1.3-4.8,1a3.5,3.5,0,0,1-1.8-2.8c-0.1-2.9-.9-4.4-4.3-3s-9.4,2.1-14.2,3a13.1,13.1,0,0,1-9-1.4c-3.4-1.9-5-1-4.8,3,0.4,8-1.4,16.3,3.3,23.8a6.9,6.9,0,0,1,.6,5.7,2.1,2.1,0,0,1-1.2,1.1c-2.7,0-2.4-3.3-4.4-4.2-2.6,2.2-2.5,5.6-4,8.2a4.4,4.4,0,0,1-2.3,1.5,34.2,34.2,0,0,1-12.3-.2c-1.3-3.3.2-5.2,4.3-5.3,3.8,2.7,6.3,2,8-2.5s4.1-8.7,2-13.8a4,4,0,0,1,1.3-5.1c1.5-1.1.5-2.6-.1-4.5-2.8,2.4-5.5,4.6-6.9,7.8s-1.8,5.4,2.4,6c1.3,0.2,3,.1,3,2s-1.3,2.3-2.6,2.9-3.3.9-5.3,1.3c2.7,3.3,3.3,5.6-1.9,5.3-1.9-.5-4.5-0.2-4.7-3.2l1.4-1.3c-6.8-13.3-7.6-27.7-8-42.9,3.4,4.1,1.5,8.6,3,12.8,1.3-4.6-.3-9,1.3-13.1,0.3-.7-0.3-1.9-0.9-2.7-7.4-10.3-6.5-22.2-7-33.9l0.8,0.3a5.5,5.5,0,0,1,1.8,4,117.9,117.9,0,0,0,4,21.8c1.4,5.2,4.8,8.8,9.7,11s9.2,3.4,13.4,5.9c7.9,4.7,16.1,5.5,24.6,1.9A83.8,83.8,0,0,0,299,192l1.4-.8c3.2-1.7,5.2-4.7,7.9-6.9a1,1,0,0,0,.4-1c3.2-3.8,8.1-5.1,11.9-8a11.1,11.1,0,0,0,4.3-7.2c2.1-9.8,2.9-19.8,4.1-29.7,1.4,7.6-.8,15-1.1,22.6a47.4,47.4,0,0,0,.2,8.3c0.6,4.4-4.4,7.5-5.3,12.1-2.5-1.2-.2-3-2.4-4.4-5.2,7.8-6.4,17.4-11.2,25.3,5.9-2.5,8-8.6,12.7-12.5,2.4,14.2-2.5,27.2-6.4,41.1,5.7-3.3,7.2-8.4,8.7-13.2,3.5-11.1,4.7-22.7,6.3-34.2,1.3-9.4,2.3-18.9,3.3-28.3,1.2-11.7-.7-23.3-1.4-34.9-0.2-3.3-.5-6.6-0.5-9.9a0.5,0.5,0,0,1,.9,0l2.7,28.4c2.6,9.2,1.7,18.3-.2,27.4l-1.2,1.6c-1.6,20.3-4.8,40.4-11.5,59.8,2.3,0.7,3.3-2.9,5.6-1.3,0.4,0.5.7,1.9,1,1.7s2.2-2.3,1-4.1,1.8-5,2.1-9c2.7,5,1.3,8.8.5,13.3a15.5,15.5,0,0,0,5.6-6c0.6-1,.6-3,2.6-1.6-2.1,3.4-3.7,7.2-6.4,10.1s0.1,2.6.7,3.8"/>
        <path class="cls-102" d="M424.4,492.3l-1.6-.2c-0.5-3.8,0-7.7-.8-11.6-0.3-1.6-.4-4.1,1.7-4.4s2.3,2.2,2.8,3.9a5.3,5.3,0,0,1,.1,2.3,6.4,6.4,0,0,0-.1-2.9c-0.3-1.8-1.5-4.4,1.1-4.9s2.6,2.3,3.2,4.1a6.1,6.1,0,0,1,.3,1.7c0.5-6.3-.8-12.5-1.4-18.7-2.8-8.6-8.2-15.9-11.5-24.2-0.9-2.4-2.8-2.5-4.8-1.6-6.4,2.9-13.2,4.6-19.5,7.7-3.5,1.7-5.4,3.5-3.6,7.6a10.8,10.8,0,0,1,.4,6.9c-1,2.7-.6,5.8-2.2,8.4-1.3.8-2.2,0.1-3-.7s-0.4-4.5.2-6.7,0.7-4.6-2-5.9a1.9,1.9,0,0,1-.6-1.4c0.3-.8,1.1-1.5-0.3-2.2s-2.9-2-1.9-4.2a3.1,3.1,0,0,1,1.5-.5A153.4,153.4,0,0,1,407.2,433c4.4-1.6,8.6-3.6,13.4-2.7,0.6-3.2-3.1-5.6-.9-8.5,4-.8,4.4,3.1,6.5,4.9a10.8,10.8,0,0,1,.9,5.1c-0.3,2.8-.5,5.8-4.2,5.5,1.6,1.2,2.5-.6,3.6-1.7s2.2-1.8,3.7-.8a3,3,0,0,1-.5,1.5c-6.9,3.5-5.7,7.9-1.7,13,6.6,8.5,6.8,18.9,6.9,28.8,0.1,6.5-4.1,11.4-10.3,14.1"/>
        <path class="cls-103" d="M382,364.9v-1.3c-2.4-3.1-2.4-3.1-5.9-1.8,1.9-.2,4.8-3,3.9,1.7-1.4,2.3-3.4,4.3-6,2.8s-0.8-4.1,0-6.2a12.5,12.5,0,0,1,2-4.1c3.5-3.8,4.4-7.4-.3-11a2.1,2.1,0,0,1-.4-2.7c5,2.4,9.4,5.1,4.9,11.6a1.9,1.9,0,0,0-.2,1.7c4.8,4.6,4,12.2,10.1,16.4,14.1,9.7,25,23.1,38.4,33.8,1.4,1.1,3.2,2.3,3.4,4.5-5,.7-7.1-3.8-10.3-6.1-12-10.3-22.9-22-35.4-31.7a9.1,9.1,0,0,1-3.9-7.5"/>
        <path class="cls-104" d="M422,403.4c3.5,1.9,5.5,5.8,9.6,6.8h-0.2c2,3.5,4.9,6.5,5.7,10.7a1.4,1.4,0,0,1-.8,1.9,17.7,17.7,0,0,0-4.5,10.2l-1.8,1.9-3.2,1.2c-1.4-.8-0.1-2.7-1.4-3.5l0.3-6.1c-0.5-.8.1-1.2,0.6-1.7,1.8-3.7-2.3-4.7-3.4-7-1.2-4.7-3.7-9.4-1-14.4"/>
        <path class="cls-105" d="M361.2,258c-0.1-2.9,0-5.8-.3-8.6-0.7-7.8-2.4-9.2-10-10.2-4.3-.6-9.1-0.3-12.2-4.4,5.2,1.1,10.4,2.8,15.8,2.5,3.8-.2,5.8,1.4,6.6,4.9s2,6.7,2.2,10.2c0.7,14.2,1,28.3,1.4,42.5,0.3,1.4,1.2,3-1.4,3.1-2.4-3.2-1.8-7-2.2-10.6-0.9-9.7-1.4-19.5.1-29.3"/>
        <path class="cls-106" d="M363.6,297.9c1-.8,1.1-1.9,1.1-3,2.1,11.6,3,23.4,5.7,34.9,1.1,4.5,2,8.9,4.9,12.6-5.8-1.8-5.8-7.2-6.8-11.6-1.6-6.9-2.5-14-3.7-21-2.4-3.7-3.3-7.6-1.2-11.8"/>
        <path class="cls-107" d="M357.7,193.6h1.1c2.9,7.7,4.3,15.9,7.9,23.4-3.9-5.1-8.9-9-12.8-13.9,3-1.7,3,2.8,5.8,2.4l-2.1-12"/>
        <path class="cls-108" d="M343.3,217c-2.2-1.9-.2-3.7.5-5.1,2.9-5.4,4.5-11.1,6.1-18.7,0.2,3.7,3.9,4.5,1.8,7.5-2.3-1.1-1.9.8-2.3,1.9L343.3,217"/>
        <path class="cls-103" d="M437.2,420.8c-1.8-3.6-5.5-6.2-5.7-10.7,3.6,2.6,6.2,5.8,5.7,10.7"/>
        <path class="cls-103" d="M431.9,432.9c-0.5-5.3,1.3-9.5,4.5-10.2l-4.5,10.2"/>
        <path class="cls-109" d="M233.3,151.4c-1-4.9-2.1-9.7-.4-14.8,0.6-1.8,2.9-5.4-1.7-6.6-1.4-.4,0-1.8.6-2,2.7-1.1,2.9-4.1,4.9-5.7,1.4,4.2,4.2.8,6.3,1.1,3.6,0.5,5-1.5,5.9-4.8s1.2-8.5,4.8-11.4l0.5,0.7c0.7,3.4-1,6.5-1.7,9.7s-1.7,3.9,1.4,4.6a5.8,5.8,0,0,1,2,1.3c1.7,0.2,3.6-.5,5.1,1.5-1.2,2.1-6.1-1.2-5.6,3.5s0.5,7.5,5.3,9.2,9.8,4.5,15.1,6.9c0.6-11.9,1-23.3,5.4-33.9a19.5,19.5,0,0,1,1.1,3.8c0.4,3.9,2.4,5.1,6,3.7s8.9,0.3,13.3.5c2.7,0.1,3.8,0,3.7-3.6-0.1-5.8-3.5-10.7-3.8-17.7,6.4,12.9,9.8,25.4,12.8,38,0.4,1.5.5,3.4,1.4,4.4,5,5.3,1.8,10.5.5,16.1-1.8,7.8-3.9,15.4-7.4,22.6-0.7,1.4-.9,3-2.8,3.2l-0.4-.8c0.5-6.7,4.8-12.2,5.9-18.8s1.4-6.4-5.3-6.6-11.8.9-16.9-3.1c-0.5-.6-1.3-1.6-0.7-2,3.5-2.3,3.1-6.7,5.5-9.6-3.7.8-7.4,2-11.3,2-1.7-.5-2.4-2.3-1.4-3.1,5.9-4.5.1-8.6-.1-12.9-1.4,5.6-2.6,11.2-1.1,17,0.5,1.5,1.6,2.8,1.8,4.5-1.3,2.7-3.4,1.4-4.9.5-5.6-3.1-11.7-5.3-17.3-8.7,0.6,1.6,2,3.6-1.3,3.6-1.6,0-3.1-.1-4.1,1.4s-3.3,4.6-7.5,2.4c1.9,3.4,3.7,4,6.1,2.4s2-2.6,3.9-2.1c2.2,7.1.1,9.6-8.6,9.9-3.9-.7-8.5,1.7-11.7-2.4,0-4.7,4.1-2.7,6.4-3.7-0.5-2.4-2.1-4.2-2.2-6.6s0.5-3-1.6-3-2.4,1.1-3,2.4-0.2,2.7-.4,4,0.2,3.3-2.3,3h0Z"/>
        <path class="cls-110" d="M334.3,166.4c1.7-9.1.6-18.4,1.3-27.6a1,1,0,0,0,.9-0.2c2.2-3.1,2.9-7.2,6.9-9.1s4.3-.8,5.5,1.9c5,10.9-2.4,30.2-13.5,35.2a1.6,1.6,0,0,1-1.1-.2"/>
        <path class="cls-111" d="M334.3,166.4c10.8-6.4,15.6-16,15-28.4-0.1-3.1.1-7.3-2.8-8.2s-5.5,2.6-7.3,5.5c-0.8,1.2-.6,3.2-2.7,3.4-0.3-3.5,2.2-5.8,3.9-8.2s3.9-2.5,6.3-2.2,3.4,2.7,3.7,4.7c1.9,13-.6,24.6-11.4,33.3a6.5,6.5,0,0,1-4.7,1.7v-1.4"/>
        <path class="cls-112" d="M255.7,123.3h-2.7c-2.6-4.3,1.1-8.3.6-12.5-0.1-1.2,1.5-2.4,0-3.6h-0.1c0.1-8.4,5.7-14.8,8-22.5h0c-0.5,8.5-4,16.4-5.1,24.8-0.6,4.6-.5,9.2-0.7,13.8"/>
        <path class="cls-113" d="M221.3,171.4l-0.9,1.2c-3.8-4.5-3.8-10.4-5.6-15.6-1-2.8-3.1-5.1-2.7-8.6,0.7-6.3,4.5-8.8,10.7-6.4l-1.2.9c-3.6,1.4-4.6,4.1-4.4,7.8,0.3,5.3,2,10.2,3.2,15.3,0.4,1.7,2,3.4.8,5.4"/>
        <path class="cls-114" d="M227.5,128.2c0.8-14.8,1.9-29.5,8.5-43-4.6,14-6.4,28.6-8.5,43"/>
        <path class="cls-115" d="M320.7,80.4c-3.5-4.3-5.8-9.4-11-14,6,1.7,7.2,3.4,11,14"/>
        <path class="cls-109" d="M305.8,181.6a3.9,3.9,0,0,0,2.9,1.8h0a57,57,0,0,1-8.6,9.1h0.2c-1.5,1-3.1.5-2.4-1.2,1.7-3.8,2.6-8.5,7.8-9.6h0.1Z"/>
        <path class="cls-116" d="M330.4,224c1.4,1.2,1.9,5.3.8,6.4s-2,.2-3-0.3c-2.5-1.3-1.1-2.5.1-3.7a3.5,3.5,0,0,0,2-2.4"/>
        <path class="cls-117" d="M201.8,124.5a78.7,78.7,0,0,1-3.5,18.7h0c-2.6-6-.9-15.2,3.5-18.8h0.1Z"/>
        <path class="cls-118" d="M332.8,110.4h-0.9c-2.3-3.6-.8-7.8-2.2-11.6,3,3.4,1.7,7.9,3.2,11.6"/>
        <path class="cls-119" d="M261.5,84.6a12.4,12.4,0,0,1,2.6-8.5,14.6,14.6,0,0,1-2.6,8.6h0"/>
        <path class="cls-120" d="M243.5,232.4a4.5,4.5,0,0,0,4.5,2.4c1.7,0.7,1.5,1.3-.1,1.8s-3,3-4.9,4c-2.2,3.5.2,6.1,1.6,9s2.7,4.2,3.8,6.4a11.9,11.9,0,0,1,.2,5.8c-0.4,2.7-1,5.1-4.1,6.1s-2.3,2.9-.9,4.8,2.8,3.3,3.9,5.1,2.3,5.8-1.1,7.6-2.3,2.6-.7,4.4,3.1,4,4.6,6c2,3.6,5,6.6,7.2,10-0.5,8.1-4.4,10.6-11.4,7.3-1.3-.6-2.6-1.8-4.2-0.5a24.1,24.1,0,0,0-5.5,7.3c-1.2,2.6-2.9,4.4-4.7,4s-0.8,1-1.2.4c3.4-1.7,5.2.4,6.8,3a60.8,60.8,0,0,0,5.3,8.1c1.9,3.2,3.6,6.6,5.5,9.8,3.3,4.9,5.9,10.3,10.7,14.1,3.2,2.5.9,4.2-.8,6l-1.4.9c-2.7.7-4.4,2.9-6.7,4.2h-0.8a2.9,2.9,0,0,1-1.5-.7,73.3,73.3,0,0,1-5.5-6.8c-4.7-6.7-9.7-8.5-17.7-5.8s-15.7,5.7-23.5,8.8c-2.9,1.1-4.5,3.6-6.1,6.1-3.2,4.9-6.4,9.8-9.3,14.8-1.8,3.2-1.5,5.3,1.4,7.5s8.6,6,12.2,9.9c-2.7.7-5.5,1.3-8.2,2.2s-6.6,2.7-8.2.5c-3.4-4.7-10.1-7-10.2-14.3-0.1-5.3,1.6-10.3,1.2-15.5,3.5-6.7,1.5-14.3,3.6-21.3a34.4,34.4,0,0,0,.7-3.4c1.2-4.2-.8-8.9,1.5-13s5.6-11.3,8.9-16.8c6.2-10.5,7.8-22.2,8.7-33.9s1.8-25.4,4.1-37.9c1.9-10.2,4.8-11.9,15.7-12.2,8-.2,14.1-4.6,18.9-10.7a0.6,0.6,0,0,1,.8-0.7c2.5,1.3,4,4,6.9,4.7"/>
        <path class="cls-121" d="M221.3,171.4c-3.2-7.5-5.7-15.1-5.8-23.3,0-3.9.9-7.2,6.2-5.1,1.4,1.6,1.4,3.4,1.3,5.4-0.3,7.8-.3,15.5-0.4,23.3a0.6,0.6,0,0,1-.5.3l-0.8-.5"/>
        <path class="cls-122" d="M236.7,227.7l-0.8.7-7,3.7,3.2-12,4.6,7.6"/>
        <path class="cls-123" d="M201.8,124.4a43.1,43.1,0,0,0-3.5,18.8c-3,7.5-1.9,15.8-4.6,23.4-0.9,2.5-1.4,5.1-3,7.8l-1.9-3.1q0-10.5.1-21.1l7-25.8c2.2-8.8,6-16.9,10.2-24.9-0.6,8.5-4.3,16.4-4.3,24.9"/>
        <path class="cls-124" d="M199.2,404.7c-6.7-2.1-11-7.6-16.3-11.7-1.5-1.1-1-2.7,0-4.2,4.2-6.5,8.7-12.9,12.5-19.6,2.9-5.1,8.3-4.7,12.4-6.7a136,136,0,0,1,17.4-6.6c7.5-2.5,13.3-.6,17.6,6,1.9,2.9,5.2,4.8,5.9,8.4-1.5,4.9-6.5,6.2-9.5,9.6a4.4,4.4,0,0,1-1.5.6c-3.6.2-6.2,2.4-9.2,4.1a13.4,13.4,0,0,0-6.2,7.6c-3.2,1-4.3,4.2-6.7,6.1-4.9,3.9-10.7,4.9-16.4,6.3"/>
        <path class="cls-125" d="M220.4,482.9c-1.7,2.4.5,7.4-4.9,7.5-0.6-1.8.7-2.7,1.8-3.8,2.7-3.8.2-8.3,1.9-12.2,0.7,2.8-.8,5.9,1.2,8.6"/>
        <path class="cls-126" d="M449.9,523.7c-6.6,11.1-15,20.9-23.2,30.8-2.8-1.5-2.3-3.7-1.1-6,2.1-4.1,7.1-5.4,9.5-9.2,5.4-3.8,8-9.8,11.8-14.9a3.6,3.6,0,0,1,2-1.8l1.1,1.1"/>
        <path class="cls-127" d="M365.8,511.1c1.2-3.9,5.1-5.3,7.9-7.3,8.6-6.2,16.5-13.1,24.6-19.9a9.9,9.9,0,0,1,2.6-1.1c0.9,4.8-2.7,5.7-6,6.9l-12.5,10.8c-2.3,2-1.6,4-.1,6l3.4,4.6a1.8,1.8,0,0,1,0,2.5c-2.6-.4-3.3-2.9-4.8-4.5s-5.7-4.3-9.1-.5c-1.5,1.6-3.3,3.3-6,2.6"/>
        <path class="cls-128" d="M420.8,497.3l-0.2,14.2c-3-5.3-5.4-.6-7.4.8s-6.1,5.6-9.2,8.4c-0.6.5-.9,2.1-2,0.8s-0.5-1.6.4-2.4a32.9,32.9,0,0,0,6.8-10.4c5.1,2.1,6.7-1.1,8.3-5,0.9-2.2-.4-5.6,3.3-6.4"/>
        <path class="cls-129" d="M385.7,513.5V511c5.8,2.8,6.8,9.5,11.3,13.6a122.3,122.3,0,0,1,8.8,9.7,1.7,1.7,0,0,1-1.4,1.4,60.1,60.1,0,0,1-18.7-22.2"/>
        <path class="cls-130" d="M435.1,539.3c-0.7,4.9-6.1,5.8-8.4,9.3-1.2.2-2.3,1.2-3.5,0a9,9,0,0,0-6.1-4.6c-1.9-.4-1.2-1.4-0.9-2.5,2.9-2.4,5.7.1,8.5,0s7.2-.1,10.3-2.2"/>
        <path class="cls-131" d="M394.9,489.7c1.9-2.4,5.5-3.3,6-6.9l1.5-2c3.5-.4,5.2,1.2,5.4,4.6-2.6.1-5.9-2.2-6.4,3.3-0.2,2.5-4.2,1-6.5,1"/>
        <path class="cls-132" d="M424.8,541.5c-2.9,1.5-5.7-.8-8.5,0h0c-1.9-1.9-5.1-.2-6.9-2.4l-4.8-3.3,1.4-1.4,18.9,7.2"/>
        <path class="cls-133" d="M431.1,460.8c0.7,7.4,2.9,14.7-.4,22.3l-2.5-9.1c-2.9,4.9,3.5,9.7-1.1,13.7-2.3-3.4-.5-7.6-3.7-11.3-0.9,5.6,3.4,11-.5,15.7l-3.4,3.1c2.4-7.6-.6-13.3-2.6-19.3,2.4,11.2,2.3,21.9-4.7,31.7,4.8-13-4.2-24-5.1-36.1-0.1-1.4-1.3-2.3-2.3-3.2-4.8-1-9.6-.5-14.4-0.6-1.1,0-2.4.6-2.4-1.3s0.3-6.3,1.7-9.2a13.6,13.6,0,0,1,10.7,1.5c7.5,4.5,16.3,4.8,24.2,8,2.6,1.1,4,.5,4.4-2.5,0.2-1.4.1-3.3,2.3-3.5"/>
        <path class="cls-134" d="M387.8,466.4c4.4,0.1,8.7.2,13.1,0.1,1.7,0,3,.1,3.8,1.8l-0.2,3.1c-1.3-2.4-3.7-2.7-6-2.6-9.2.3-18.6-.8-27.4,3.4-1.5.7-3.4,2-6,.9,3.2-2.8,6.8-3.5,10.4-4.5,6.4-1.8,6.9-2.8,4.6-9.3-0.4-1.1-.6-2.2-0.9-3.4a1.9,1.9,0,0,1,1.5-.4c2.4,1.2,2.5,3.7,3.2,5.9s0,3.7,2.5,4.1l1.6,0.9"/>
        <path class="cls-40" d="M181,546.3c-1.9-2.1-3.6-4.7-6.9-1.9-0.4.3-2.5,0.6-2.5-1.2s1-1.5,2-1.6c4-.2,8.8.7,7.6-6,4-.1,8-2.4,12,0.1-2.2,5.7-7,8.4-12.2,10.7"/>
        <path class="cls-135" d="M204.2,512.4c-2.6,3-6.4,3.2-10.4,4.1,3.8,6.8,12.1,7.6,16.2,13.4-3.4,1.1-6.6,2.9-10.3,2.8a0.9,0.9,0,0,1-.3-1.5v-0.3c3.5-2.9.4-4.6-1.1-6.6s-4.8-2.4-6.1-4.9c-1.4-.9-1.9-2-1.1-3.6s4-1.8,6.1-2.5,4.4-3.3,7.1-.9"/>
        <path class="cls-40" d="M217.3,486.6l-1.8,3.8a1,1,0,0,0-.9,1.3,6.3,6.3,0,0,1-4.5,3.3c-1.9-4.4-3-8.8.4-13.1,0.8-1,1.6-2.5,3.3-1.8s0.8,2,.9,3.1-1,4.4,2.6,3.4"/>
        <path class="cls-136" d="M199.5,531.1l0.2,1.7a1.2,1.2,0,0,1-.1,1.8L182,548.7q-1.8.4-1.4-1.4a1.6,1.6,0,0,0,.4-0.9l12.2-10.7c1.6-2.3,4-3.4,6.3-4.6"/>
        <path class="cls-137" d="M210.1,495c1.6-1,2.4-3.1,4.5-3.3,1.1,2.6-1.4,3.2-2.6,4.5-4.3,4.5-6.6,9.7-5.6,16.1a1.2,1.2,0,0,1-.2.5L205,512c-1.2-1.7-2.3-3.5-.9-5.7-0.3-5,2.5-8.4,6-11.4"/>
        <path class="cls-138" d="M180.6,547.2l1.4,1.4c-1.4,3.8-5,6.9-3.6,11.5-0.9.2-1.8,0.2-2.2,1.2l-2.3-1.4v-2a2.4,2.4,0,0,1,.7-2.5c1.5-3.1,2.5-6.6,6-8.3"/>
        <path class="cls-40" d="M204.1,506.4a9,9,0,0,1,.9,5.7,0.8,0.8,0,0,0-.8.3l-7.1.9c0.7-1.8,1.9-3.5,2-5.4,0.5-5.2,2.2-4.7,5-1.5"/>
        <path class="cls-40" d="M198.2,524.2l6.7,3.3c-2.2,1.6-3.4,3.1-5.6,3.3-1-2.1-3-2.2-5-2.2,0.4-2.6,3.3-2.4,3.9-4.3"/>
        <path class="cls-40" d="M191,515.7l1.1,3.6c-1.7,1-3.5,1.9-5.2.2s-1.2-1.9-.9-2.5c1.1-2.2,3.3-.9,5.1-1.3"/>
        <path class="cls-40" d="M174.6,555.5L174,558c-2.2-.3-4-1.6-2.6-3.6s2.2,0.7,3.3,1.2"/>
        <path class="cls-139" d="M187.6,567.5c3.5-.3,7.8-1.8,7.1,4.5-2.9-.6-5.5-1.8-7.1-4.5"/>
        <path class="cls-139" d="M180.8,562.5c3.5-.1,6.2,1.1,6.8,4.9-3.4,0-5.4-2.1-6.8-4.9"/>
        <path class="cls-140" d="M423.2,548.6c1.2,0.3,2.3-1.2,3.5,0a4.6,4.6,0,0,0,0,5.9,41.6,41.6,0,0,1-14.9,17.3c-2.5,1.7-2.6,1.6-3.8-1,8.7-2.3,11.7-9.7,16-17.3-4.6-.3-5.4,3.9-8.3,4.5-2.3-2.7.4-3.9,1.8-5.2s3.3-3.7,5.9-4.2h0Z"/>
        <path class="cls-141" d="M369.4,581.4c1.9-3.6,5.9-4.6,8.9-7-3.4-1.9-5,2.5-7.9,1.9,2.4-3.6,4.9-7.2,9.9-6.6,1.8,0.2,4.3-2.5,5,.2s-1.1,5.1-2.7,5.8c-4.4,1.9-7.8,6.3-13.2,5.7"/>
        <path class="cls-142" d="M344.8,541.4c-4.1-5.4-4.9-12.1-6.8-18.4,0.8-1.9,3.2-1.2,4.4-2.6h-0.1c1.9-.9,4-0.8,6-1.2s5.7-1.1,8.1,1.2c-3,1.1-5.5,3.4-9.4,2.5s-6.3,4.4-4.1,7.9,1.7,7,1.9,10.6"/>
        <path class="cls-142" d="M351.7,546.2c-0.2-2.5,3.8-3.3,2.7-6.4-4.3.3-4.8,4.1-6.5,7.4l-3.1-5.8c2.1-3.2,6.1-2.3,9-4.2s1.8,4.1,4.8,3.4a3.5,3.5,0,0,1-.9,3.2c-1.6,1.9-3.4,3-6,2.5"/>
        <path class="cls-143" d="M358.7,576.8a59.5,59.5,0,0,1-7.2-18.7c6.1,1.6,5.5,7.5,7.1,11.8,0.7,2.1.1,4.6,0.1,6.9"/>
        <path class="cls-144" d="M423.2,548.6c-1.8,3.7-7.4,4.4-7.6,9.4l-1.8,3.1c-1.3,1-2.7,2-4.5,1.6,2.8-6.5,4.7-14,13.9-14.1"/>
        <path class="cls-145" d="M347.9,520.3l-5.6.2c7.3-4.4,16-5.4,23.5-9.4,0,3.1-2,4.3-4.7,4.7-3.6,3.9-8.5,3.9-13.2,4.5"/>
        <path class="cls-146" d="M347.9,520.3l13.2-4.5c0.1,3.3-2.4,3.9-4.7,4.7h-8.5"/>
        <path class="cls-130" d="M409.3,539c2.5,0.3,5.3-.4,6.9,2.5-2.4-.6-5.9,2.1-6.9-2.5"/>
        <path class="cls-141" d="M219.4,536.1l1,0.8c4,1.1,8.1,1.7,12.1,2.9,7.3,0.6,7.3.6,7.1,6.5a5.6,5.6,0,0,1-1.4,2.4l-3.4,7.8c-3.1,5-5.1,10.6-8.3,15.5h0c-3.8,2.1-3.8,6.9-7,9.4,0.8-6.3,3.9-11.7,6.8-17a91.2,91.2,0,0,0,6.9-14.9c1.1-3,.3-5.8-3.3-6.8s-7.6-2.9-11.6-3.3-3.6-2.2-3.8-4.6l0.5-.7c2-.6,3.2.7,4.4,2"/>
        <path class="cls-141" d="M199.5,534.5v-1.8c3.4-1.1,6.3-4,10.4-2.9H210c1.5,1.6,4.3,1.8,4.9,4.5l-0.4.5c-5-.4-9.9-4.1-14.9-0.2"/>
        <path class="cls-147" d="M323.6,602.3c1.1-5.8,5.8-10.2,5.8-16.3,4-4.8,5.4-11,8.4-16.3s3.8-8.4,6.6-12.2c1-1.4,1.9-2.6,3.6-.8a124,124,0,0,0,8.5,22.6c2.9,6-.9,8.4-4.8,11.3s-11,6.8-15.4,11.7l-2.1.3a13.1,13.1,0,0,0-6.2,2.8c-1.3.9-2.3,3.2-4.3,1.7s-0.8-3.2-.2-4.8"/>
        <path class="cls-97" d="M342.4,520.5c-0.8,2-2.5,2.5-4.4,2.6l-4.1-.3a11.8,11.8,0,0,1,8.4-2.2"/>
        <path class="cls-148" d="M323.6,602.3c0.2,1.3,0,3.2.8,3.8s2.2-.9,3.1-1.7,3.8-3.7,6.8-1.8c-1.2,2.6-4.2,2.6-6.1,4.3s-4.1,3.8-6.1,2-0.1-4.6,1.4-6.6"/>
        <path class="cls-149" d="M238.1,548.6v-2.3c0.8-4.4,3.4-6.1,7.8-5.4,9,1.6,18.3,1.4,27.3,2.9h-0.1c1.4,2.9,7.3-.8,7,4.7-8-4.6-17.2-.8-25.7-4.1-3.4-1.3-10.1-3.7-12.7,3.5-0.2.6-2.5,0.5-3.8,0.7"/>
        <path class="cls-150" d="M280.5,590.7q0-14-.1-28.1a80.4,80.4,0,0,1,.1,28.1"/>
        <path class="cls-151" d="M306.7,532.2c4.7-4.8,10.9-5.2,17-5.9-4.9,4.2-11.5,3.6-17,5.9"/>
        <path class="cls-152" d="M226.4,572c1.7-5.8,3.7-11.4,8.3-15.5-0.5,5.7-4.6,10-6,15.4h-2.3"/>
        <path class="cls-153" d="M286,439.3c-2.8,3.3-5.2,4.2-7.5-.6-0.7-1.5-2.4-2.5-3.6-3.7a5.7,5.7,0,0,1-1.7-5.8c1.5-7.2.9-14.3-.3-21.4s0-15.9-.1-23.8-0.9-15.5-1.6-23.2c-1.4-4.7.6-8,4.2-10.7a13.2,13.2,0,0,1,4.4-2.7c2.9-1,2.4-2.5,1-4.7s-1.8-5.5,2.9-5,10.2,0.6,15.3.6,9.4-3.5,14.2-.4c-0.3,17.7-.2,35.3,4.3,52.5,0.5,1.9.8,4-.3,5.7-7.1,11-13.4,22.6-22.9,31.9-6.8-2.9-6.8-2.9-6.8,4.8,0,2.2.6,4.7-1.6,6.4"/>
        <path class="cls-153" d="M272.9,433.6c-6.5-7-14.6-12-22.6-17s-9.9-10.9-12.7-17.8a9.6,9.6,0,0,1,.5-8.4c1.8-3.3,1.5-6.3-1.3-8.9,0-.9.9-1.1,1.3-1.6h-0.1c4.4-2.5,7.8-6.4,11.8-9.4h-0.1a36.6,36.6,0,0,1,7.1-4.7h-0.1c2.9-1.6,5-3.2,4.1-7.3s3.4-7.5,7-8,3.1,1.3,3.4,3-0.2,5.5.7,8.1c1.3,7.4-.1,15,1.8,22.3q0,12,0,24.1c0.5,8.5,1.6,17.1-.9,25.5"/>
        <path class="cls-154" d="M323,420.6a244.5,244.5,0,0,1,9.7,37.3c0.8,4.4-2.6,8.4-4.2,12.6-3.3,8.3-5.4,17.1-9.4,25.1-0.7,1.4-1.1,3-2.2,4.1-2.8,2.8-3.3,8.6-8.5,8.2-2.9-.2-6.5-11-5.6-14.9,2.2-9.2,4.2-18.5,6.8-27.7,4.2-14.9,9.3-29.6,13.3-44.7"/>
        <path class="cls-154" d="M363.6,297.9l1.2,11.8c0.3,7.2-2.2,14-2.9,22.1a119.9,119.9,0,0,1-14.8-32.1c-3.6-11.9-7-23.7-7.6-36.3-0.2-3.7-.1-5.9,3.1-7.6a24.3,24.3,0,0,0,5.4-3.3c3.5-3.3,5.7-1.6,8,1.4s2.5,4,5.3,4l2.4,39.8"/>
        <path class="cls-155" d="M422,403.4a51.7,51.7,0,0,0,2.6,14.6c-1.3,1.5-2.6,1.7-3.8-.1-5-5.1-12.6-4.8-18.1-9-10.2-7.9-18.9-16.7-19.5-30.7-0.2-4.5-4.4-8.5-1.2-13.3,1.5,4,4.5,6.7,7.8,9.2,11.6,8.8,21.8,19.2,32.2,29.3"/>
        <path class="cls-156" d="M299,339.8c-4.1.2-8.2,0.5-12.2,0.6-1.8,0-4.2.5-4.2-2.5a4.4,4.4,0,0,1-2-2.3c-0.3-1.9-2-1.6-3.2-2.1a1.5,1.5,0,0,1-.6-2c5.5-3.3,11.7-4.1,17.8-4.5s9.2-.7,12.6-3.9c-1,.2-1.9,1.4-3.1,1.9-2.8,1.2-4.2-.6-5.8-2.4s2.1-4,.9-5.2c-3-3.1.3-3.6,1.6-4.9s4-2.4,6-3.5-0.6-1,0-.5-0.1.2-.4,0.4c-2,1.1-3.9,2.6-6.3,2.7a3.9,3.9,0,0,1-1.6-.6c-3.3-4-.4-5.8,2.7-7.6s8.5-3.2,10.7-9.7c-7.1,7.1-15.3,8.4-23,11s-9,1.6-12.6-5.2c-0.8-1.5-1.8-1.9-3.3-1.5s-3.5,1.8-5.5,1.8a2.9,2.9,0,0,1-1.6-.7c-1-2-.5-3.6,1.1-5a4.5,4.5,0,0,1,1.8-.5c7.1-1.2,7-1.5,6.8-8.5s-2.4-13.8,4.6-18.6c4.7-1.9,9.3-.9,13.8.6,0.7,3.1-1.8,2.7-3.4,2.9s-5,.3-7.3,1.7-3.6,3-3,6.2c1.2,6.1-.1,12.4,1.2,18.7,0.8,3.9,2.7,4.9,6.2,3.7s9.2-3.2,13.7-5.1c8-3.4,9.7-6.8,8.4-15.6-0.9-3.4-.2-7.5-3.9-9.9s-8.1.6-11.5-2.1a1.2,1.2,0,0,1,.2-1.7c3.9-1.9,7.9-1,11.9-.9a4.9,4.9,0,0,1,3.1,2.4c3.2,0.2,1.5,2.7,2,4.2s-0.5,4.6,1.5,6.5c2.5,4,2.7,8.3,1.4,12.8s0,11.5-.1,17.3a1.2,1.2,0,0,1-.1,1.7,1.4,1.4,0,0,1-1.6-.3c-0.4-2.4-.2-4.7-0.1-8.1-0.2,3.7.2,6.5-.9,9.1s-5.1,5.2-6.3,8.6c2.7-.2,6.2-3.4,8.6,1.3a4.5,4.5,0,0,1-.4,2.6c-5.2,5.6-11.2,9.5-19.2,9.3a19.3,19.3,0,0,0-6.3.9c-1.3.4-2.7,0.8-2.3,2.6s1.6,1.5,2.8,1.6c3,0.3,6.1-.3,9.1.6a1.8,1.8,0,0,1,1.3,1.9"/>
        <path class="cls-157" d="M311.9,251.6c6.4,2.7-.2,4.8-0.3,7.2s-1.3,6.6-5.6,6.9h-6.8c-6.2,0-6.6-.6-5.6-7.1,2-2.4,4.7-3.9,6.9-6.1s7.4-3.6,11.4-.9"/>
        <path class="cls-158" d="M329.5,290.6c9.5,23,2.1,47.5,5.5,71.2a30.4,30.4,0,0,1-5-17.4c0.2-3.4,2.7-7.4,2.9-11.6,0.4-13,.5-26-3.1-38.7a15.7,15.7,0,0,1-.2-3.4"/>
        <path class="cls-159" d="M314.5,290.8L313.1,278c0.7-4.6,4.5-5.7,8.6-8.1-1.7,8.4-5.1,15.5-5.1,23.3-1.8,0-1-2-2.1-2.4"/>
        <path class="cls-160" d="M287.5,478a29.9,29.9,0,0,1-.3,4.6c-0.7,3.3-2.9,3.7-5,1.6-4.5-4.4-5.6-10.6-6.8-16.3-0.6-2.7,2.9-3.9,5.6-2.4,5,2.6,6.7,7.1,6.5,12.5"/>
        <path class="cls-161" d="M286,439.3c-0.1-3.5-.1-7-0.2-10.5-0.1-1.9-.9-4.5,1.3-5s4.7-.2,6.1,2.4c0.4,0.7.8,1.3,1.2,2,0,3.1-.1,6.2-0.1,9.2s-1.1,7.2-4.3,7.9-2.2-4.1-4-5.9"/>
        <path class="cls-162" d="M299,339.8l-1.6-1.2a1.7,1.7,0,0,1,.8-1.5c4.6-2,10-1.1,14.5-3.6,2.5-4.5.7-9.2,1-13.8s-1.8-6.5.4-9.6l0.4-2c2.4,1.8,1.7,4.5,1.8,6.9,0.3,6.1.4,12.3,0.6,18.4,0.1,2.5-.4,4.6-3.6,4.5-4.9-.5-9.4,1.8-14.3,1.9"/>
        <path class="cls-163" d="M311.9,251.6c-5.3-1.3-9.9-.3-13,4.6-1,1.6-2.7,2-4.4,2.4a2.3,2.3,0,0,1-.8-1.4c7.5-8,14.8-16.2,22.8-23.6l2.2,1c-1,3.3-4.2,4.7-6.3,7.2s-6,6.3-.5,9.9"/>
        <path class="cls-164" d="M382.1,445.6h-1c-3.8-2.6-1.3-6.1-1.3-9.3,0.2-9,8.2-14.6,20.1-14.2q1-.7,1.3.5c-1.2,2.5-3.9,2.2-6,2.9-9.2,3-10.9,5.2-11.4,14.7-0.1,1.9.1,3.9-1.6,5.4"/>
        <path class="cls-91" d="M273.3,543.9c-8,.6-15.8-0.6-23.6-1.9-4.7-.8-9.2-1-11.5,4.4,1.7-5.6-2.7-5.3-5.9-6.1-0.4-.2-0.6-0.4-0.4-0.6a0.5,0.5,0,0,1,.4-0.3l39.2,3.3c0.6,0.1,1.2.8,1.8,1.3"/>
        <path class="cls-165" d="M272.9,433.6l0.5-25.7a0.6,0.6,0,0,1,1.1.1c1.9,9,.7,18,0.3,27.1-0.5,5.1.7,10.5-2.8,15.1h0.1c-0.3-5.5,1.8-11,.8-16.6"/>
        <path class="cls-166" d="M379.8,436.2c0.7,3.1-1.3,6.5,1.3,9.3-0.1,2.4,2.4,2.8,3.5,4.2s-0.6,1.3-1.3,1.7c-3.8-1.9-3.5,1.9-4.8,3.5-5.6-.5-3.8-6.7-3.1-7.2,4.3-3,2.4-7.9,4.4-11.5"/>
        <path class="cls-167" d="M401.3,422.2h-1.4c6.5-3.6,13.9-2.6,20.9-4.1h3.8c5.1,1.4,4.5,4.6,2.7,8.2h-0.5l-0.5-.3c-2.9-6-7.8-5.4-13-3.9s-8,2.7-12.1.1"/>
        <path class="cls-168" d="M351.7,410.5c-1.5-2.5-6.5-2.8-4.2-7.7,1.4-2.9,1.6-6.3,2.8-9.5,1.2,5.6-1.8,11.7,1.6,17.1Z"/>
        <path class="cls-169" d="M372.5,480.1c-4.1,4-8.6,7.7-12.6,11.9l12.6-11.9"/>
        <path class="cls-92" d="M275.6,498.2a59.6,59.6,0,0,1-6.8-15.9c2.8,5.1,7.1,9.6,6.7,15.9h0"/>
        <path class="cls-170" d="M336.7,368.9c2.8,4.7,3.8,9.8,4.6,16.3-3.8-5.7-3.5-11.2-4.6-16.3"/>
        <path class="cls-171" d="M359.9,427.9c1.6,3.8,4.1,6.9,6.6,10.1-4.3-1.3-6.7-4.5-7.9-8.7-0.5-1.4.2-1.6,1.3-1.4"/>
        <path class="cls-172" d="M380,363.5c-1.6-4.2-3,.3-4.8.1,0.4-2.1.4-4.7,3.3-4.5s3.7,2,3.5,4.6l-2-.2"/>
        <path class="cls-173" d="M378.5,454.9c0.9-2.5-.9-4.4-2.5-7.9l7.4,4.4a8.3,8.3,0,0,1,.1.9,14.4,14.4,0,0,1-3.3,3.5H379l-0.5-1.1"/>
        <path class="cls-174" d="M214.8,534.3c-1.7-1.4-4.4-1.7-4.9-4.5,4.1,0.6,7.4,2.5,9.4,6.3l-4.5-1.8"/>
        <path class="cls-175" d="M232.3,539.3q0,0.5,0,.9c-4-.9-8.4-0.8-11.9-3.4,4.4-1.1,8.1,1.1,11.9,2.4"/>
        <path class="cls-176" d="M267.7,480c-3.4-3.4-3.1-7.4-2-11.5,0.6,3.8.4,7.8,2,11.5"/>
        <path class="cls-177" d="M272,450.1a15.9,15.9,0,0,1-3.8,10.9c0.9-3.7,1.6-7.6,3.9-10.8H272"/>
        <path class="cls-178" d="M351.9,410.3c2.8,2.9,2.8,6.8,3.6,10.4l-0.5.4a16.1,16.1,0,0,1-3.3-10.6l0.2-.2"/>
        <path class="cls-179" d="M238.2,379.8c0.2,1.1-.7,1.2-1.3,1.6-2.7,1.1-5.2,3-8.3,3.2a13.6,13.6,0,0,1,9.6-4.8"/>
        <path class="cls-180" d="M307.2,265l4.4-6.3c1.4,3.4-3.4,5.2-2,8.6l-2.5-1.2a0.6,0.6,0,0,1-.2-0.7l0.3-.3"/>
        <path class="cls-178" d="M359.9,427.9l-1.3,1.4c-1.9-2.5-3.4-5-3.6-8.2l0.5-.4,4.4,7.3"/>
        <path class="cls-37" d="M305.7,181.6c-2.4,3.2-5.2,6.2-7.2,9.7s1.1,0.8,1.8,1.1c-3.4,2.9-7.6,3.8-11.7,5a19.1,19.1,0,0,0-11.3-4.2c-13-.9-22-7.3-27.5-19-1.5-3.1-3.7-5.9-5.2-9.1-3.6-7.4-3.5-7.6,4.1-8.8s8.2-1,7.6-8.4c-4.2,1.4-3.7-1-2.9-3.7,1.4-4.5,4.2-1.3,6.7-.9-0.4-2.8-3.1-3.5-4.4-6.5,7.5,3.7,14.3,7.1,21.2,10.3,1.3,0.6,2.5,3.5,4.5.8s2.4-1.5,4-.5,1.6,4.1,4.3,4.2c6.5,3.7,13.7,2.6,20.6,2.3,5-.2,4.4,1.4,3.6,4.7-1.7,8-5,15.4-8.1,22.8"/>
        <path class="cls-181" d="M267.5,235.7c-0.6-3.6-.8-7.4-3.9-10a3.4,3.4,0,0,1-1.1-3.1c0-7.9,0-15.8,0-24.2,6.2,1.7,11,5.9,17.9,3.7s11.3-2.5,17.2-4.6v6.2c-0.4,3.9.7,7.6,0.7,11.5s-1,4.4-3.4,4.6c-11.2,1-15.8,8.5-18.7,18a2.9,2.9,0,0,1-1.6.9c-2.7-.3-5.7.1-7.1-3.1"/>
        <path class="cls-182" d="M316.5,233.5c-6.1,9.1-13.8,16.6-22.2,23.5-2.8-.6-2.1-2.7-1.9-4.6a57.6,57.6,0,0,0,.2-9.8c-1-5.9-1.8-11.9-5.2-17.1-1.7-2.7-.5-4.7,2.4-4.9,5-.5,9.2-2.8,13.5-4.8a16.7,16.7,0,0,0,1.3-3.2c0.4-2.2-.2-5,3.3-5.1s2.6,3.3,3.7,5,0.7,2.2,1.2,3.3c3.2,6.2,3.2,12.1-2,18.3l5.6-.6"/>
        <path class="cls-183" d="M248.6,156.3c-1.3,1.9-3.5,1.2-5.9,1.7,5.2,11.2,10.2,22.3,20.1,29.8a20.2,20.2,0,0,0,12.5,3.6c4.6-.2,8.6,1.9,12.8,3.4,1.4,0.5.4,1.6,0.4,2.5-7.6,3.1-14.9,4.9-22.8,0-5.5-3.4-11.8-5.5-17.9-8a15.2,15.2,0,0,1-8.9-10.2c-2.3-7.9-4.4-15.9-4.2-24.3,0.5-1,1-1.9,2.4-1-0.5,2.5,1.4,2.2,2.8,2.2l8.6,0.2"/>
        <path class="cls-184" d="M247.9,236.7c0.8-.6.3-1.2,0.1-1.8l3.9-.6-6.1-5.5c4.6-.2,8.5.6,11.5-2.3a2.9,2.9,0,0,0-.6-1c-2.4.1-5.3,1.3-6.8-1.4s0.3-5,1.4-7.1c2.1-4,5.9-6.4,9.9-10.3,0,3.4.9,6.5-.2,7.6-3.7,3.7-.6,7.3-0.6,10.8,0.1,5.2-4,8.9-5.1,13.8-0.1.6-3.9,0.3-6.1,0.5s-2-1.1-1.6-2.6"/>
        <path class="cls-185" d="M303.4,215.8c-3.8,6-10.7,3.9-16.2,6.5,4.6,5.5,5.8,12.3,7,19.1a2.3,2.3,0,0,1-2.2,1,3.6,3.6,0,0,1-3-2.8,4.9,4.9,0,0,1,.1-1.7,4,4,0,0,0,.3-1.1c-0.2-3.9-.3-8.9-4.3-9.6s-4.2,4.5-5.5,7.5-1,3.7-2.3,5.2-2.3-.4-1.7-2.1c1.5-10.6,6.5-17.9,18-19.2,2.2-.2,4.1-0.6,3.3-4.2a17.3,17.3,0,0,1,.8-10.8l1.1,2.6c1.7,0.9,1.6,2.6,1.6,4s0.3,3.4,2.2,4.2l0.9,1.1"/>
        <path class="cls-186" d="M237.2,153.9l-2.4,1-1.4-3.5c2-.9,1.3-2.8.9-4-1.7-4.3,1.1-5.9,4.1-7.1s5.6-2.2,3.7,3,2.1,6.6,3.3,9.9c-2.6,1.7-5.6-1.4-8.2.6"/>
        <path class="cls-187" d="M260.9,203c0,2.1-1.6,2.8-2.6,3.9-3.8,4-8.9,7.1-10,13.2-0.1.8-.6,2.2-1.9,1.5a8.4,8.4,0,0,1-3.3-3.1c-0.9-1.8.8-.8,1.5-1a1.7,1.7,0,0,0,1.2-1c-1.3-9.3,7-10.2,12.1-14,1.2-.9,2.4-1.4,3,0.4"/>
        <path class="cls-188" d="M247.4,256c-3.4-2.9-4.9-7-6.7-10.9-0.9-1.9-.9-4.2,2.3-4.4l13.8-.2c2,0.6,4.2-1,6,.7a2.5,2.5,0,0,1,.4,2.4c-3.9,3-8.2-.3-12.6,1.1s-4.2,1.5-2.4,4.6a6.9,6.9,0,0,1,.5,4.5,3.1,3.1,0,0,1-1.3,2.1"/>
        <path class="cls-189" d="M258.1,239.2a8.8,8.8,0,0,1,.3-2.8c1.3-2.7,1.6-7.2,4.3-7.4s1.8,4.7,3.7,6.8c2.4,4.3-1.2,4.7-3.7,5.2a4.5,4.5,0,0,1-4.6-1.8"/>
        <path class="cls-190" d="M316.6,220.6c-1.9-5.2-3.7-10-5.5-14.8-0.5-1.2.2-1.8,1-2.3s1.6,0.1,2.2.9c3.3,4.7,6.3,9.4,2.3,16.2"/>
        <path class="cls-191" d="M302.5,214.7c-0.9.7-1.8,2-2.6,2s-0.9-1.8-1-2.8-0.1-4.9-.2-7.4,2.9-4.1,5.3-2.9-0.2,3.1-.8,4.4-2,4.3-.7,6.7"/>
        <path class="cls-192" d="M298.5,202.6c1.8-3.3-.1-7.5,4.7-6.5,1.7,0.4,5.3-.1,4.9,2.7-0.7,5.2-5.2,1.9-9.6,3.7"/>
        <path class="cls-185" d="M258.1,239.2c3.9,1.4,7.5,2.5,8.3-3.5h1.2c1.7,2.4,5.2.1,6.8,2.5a0.9,0.9,0,0,1,.3.9,0.6,0.6,0,0,1-.3.5c-3.2.3-5.6,2.9-8.8,3.2a4.8,4.8,0,0,1-3.1-1.1c-1.9-.5-4.1.1-5.8-1.2l1.3-1.3"/>
        <path class="cls-193" d="M300.1,192.5c2.1-3.7,4.6-7.1,8.6-9.1a3.7,3.7,0,0,1,1.1-.2c0.7,0.1,1,.4.3,1-3.2,3-5.6,6.8-10,8.3"/>
        <path class="cls-194" d="M431.1,460.8c-2.2,2.5.9,6.8-2.4,8.5s-5.1-2.3-8-2.5c-11.1-.9-20.4-7.6-31.2-9.5-0.1-1.5.4-3.3-.3-4.5-3.5-6.3-.5-8.6,5.2-11s13.6-5.3,20.4-8c2.2-.9,3.4-0.9,4.3,2,2.8,8.9,9,16.1,11.9,25"/>
        <path class="cls-195" d="M401.3,422.2l13-1.6c1.8-.2,4-1.3,4.9,1.5l4.5,10.1a13.9,13.9,0,0,0-10.8.3c-7.4,2.9-15,5.1-22,9-2.2,1.2-5.6,1.3-5.5,5.1,0,0.7-.4.7-3.3-1a14.5,14.5,0,0,1,0-3.5c1.1-4.5-2.9-10.3,3.2-13.5,4.4-2.3,8.4-5.6,13.8-5.5a5.8,5.8,0,0,0,2.1-.9"/>
        <path class="cls-196" d="M380.1,455.8c-0.7-2.8.7-3.7,3.3-3.5s5.5,1.3,3.9,5.6c-0.9,2.3-2.4,4.9-1.1,7.7-2.6.6-2.5,0.6-3.1-1.3s-0.6-6.1-3-8.4"/>
        <path class="cls-197" d="M419.2,422.1c-1.4-1.3-3.2-1.3-4.9-1.5,2.6-1.6,5.3-.6,7.9-0.5s5.8,1.7,4.1,5.8a0.7,0.7,0,0,0-.5.5c-1.9.6-2.7-.4-3.4-2s-1-3.2-3.2-2.4"/>
        <path class="cls-198" d="M425.5,432.5c1.5,0.8,1.2,2.2,1.4,3.5-3.1,4-5.1,3.4-6.4-1.5,2.6-1.2,1.1,3.9,3.7,2.2s1.2-2.7,1.2-4.2"/>
        <path class="cls-199" d="M305.2,133.9c-5.4-1.7-10.5-5.2-16.7-2.7-2.4.9-3.8-1.4-3.4-3.4s-3.7-5.4.9-6.9c6.1-1.9,12.6-2.3,18.2.6,3.9,2,3.6,7.4,5.4,11.2-0.7,3-2.7,1.6-4.3,1.2"/>
        <path class="cls-200" d="M289.6,151.7c-2.8,1.6-3.4-1.1-4.6-2.4s-1.6-3.4-3.7-1.2c-1.2-.8-2.8-1.4-2.4-3.4s2.8-1.1,3.6-2.4c3.9-2.5,8.5-1.3,13-2.7a36.3,36.3,0,0,0-1.9,3.9c-0.9,2.8.2,6.9-4.7,7l0.6,1.3"/>
        <path class="cls-201" d="M282.6,142.2c0.3,3-3,.8-3.6,2.4-1.6-7.1-.7-18.2,1.9-22.3,4.6,2.9-.7,11.7,6.8,12.4l-5,7.5"/>
        <path class="cls-202" d="M235.9,132.2c-1-6.9,4.6-5.2,7.6-6.4,1.3-.5,2.4,0,2.3,2.1-0.2,5.8-2,7.6-7.8,7.8-3.6.1-1.7-2.5-2.1-3.4"/>
        <path class="cls-203" d="M254,134.7l-7.4-.5c1.7-3.3-1-9.5,4.6-9.3s0.7,6.5,2.8,9.8"/>
        <path class="cls-204" d="M304.8,145.3c0.7-3.6,3.6-2.9,5.8-2.4s4.5,4.4,4.4,8.3a11.4,11.4,0,0,1-6.3-3.1c-2.6.9-4,.2-3.9-2.8"/>
        <path class="cls-205" d="M253.3,144.2c0.2,1.8.4,3.6,2.9,3.7-1.8,2.5-3,6.3-7.3,4.5s-4.7-3.8-3.3-8c2.8,3.7,5.6,5,7.7-.2"/>
        <path class="cls-206" d="M304.8,145.3c0.6,1.9,2.1,2.6,3.9,2.8-2.5,4.3-6.2,3.8-10,2.2s-1.8-4-1.8-6.8c2.8,1.1,4.6,5.7,7.9,1.8"/>
        <path class="cls-207" d="M253.6,107.1c0.4-.6.7-1.7,1.2-1.8s0.9,0.9.8,1.5c-0.8,5.5-1.7,10.9-2.5,16.3-3.4.5-4-1.1-3.1-4s2.4-8,3.6-12.1"/>
        <path class="cls-208" d="M305.2,133.9l4.3-1.2c4.9,0.1,1.3,4.7,3.6,6.3-2.5-2.2-5.4-3.4-8-5.1"/>
        <path class="cls-209" d="M187.9,344.7c5.2-20.9,12.4-41,27.3-58.2,3.3,25.7-3,46.1-27.3,58.2"/>
        <path class="cls-210" d="M265.9,298.9h1.6c-1,5.2-5.2,8.4-8.2,12.3-4.5,5.8-4.5,5.8,1.6,10l2.3,1.7a10.5,10.5,0,0,1,2.3,2.6c2.5,4.4,5.8,7.2,11.3,6.6l1.4,1c-6.3,3.5-3.5,9.5-4.1,14.6-0.2,2.1,1.8,1.7,2.6,2.6-1.8,3-6.2,4.7-4.6,9.3,0.5,1.2.1,1.6-1.1,1.4-0.3-3.1-.4-6.2-2.1-9.8-2.8,2.7-8,2.6-6.4,9.2,0.8,3.4-2,5.6-5.8,5.5,3-2.7,2.1-4.8-.7-7.1s-6.6-7.9-8.8-12.6a1.4,1.4,0,0,1-.1-1.5c4-.3,4.4,3.3,5.8,5.6,2.3,3.8,4.6,4.4,8.5,2,9.9-6,10.1-6.5,5-16.8s-13-13.8-20.2-19.8c-1.3-1.1-3.1-1.7-4.3-3l-0.4-.7c1.6-5.2,3.6-.5,4.7.1,5.8,3.4,9.7,1.3,10.3-5.8a3.6,3.6,0,0,1,1-1.2c3.5-1,3.7-6.5,8.3-6.1"/>
        <path class="cls-211" d="M262.6,241.8h3.8c0.7,3.4,3.3,5.1,5.9,6.8,0.5,2.3-2.4,3.4-2.2,5.6a10.8,10.8,0,0,1-3.8,8.8l-4.1,3.9c-1.6,1.3-3.5,2.2-4.6,4.1-2.6,3.9-6.2,2.7-9.7,1.9-1.4-1.1-2.7-4.3-4.2-.1a2.3,2.3,0,0,1-1.1,1c-2.9-2.8-4.2-5.6,1-6.8,2.8-.6,2.6-3.2,4.2-4.5,5.8,4.8,5.8,4.8,12.5-.6,2.4-2,4.5-4.2,4.5-7.6s-3.6-6.2-2.3-10l0.2-2.4"/>
        <path class="cls-212" d="M266.1,254.4c-0.6,3.9-10.1,15-13.2,14.7s-3.8-4.1-5.1-6.6l-0.4-6.5,0.2-2.7c4.4-1,3.2,2.6,3.7,4.6s0.2,3.7,2.2,4.4,3.3-1.2,4.7-2.5,3.8-5.8,8-5.4"/>
        <path class="cls-213" d="M249.7,296.7c-3.2-1.7-4.4-5.3-7-7.6s-1.1-3.4,1-4c6.4-1.6,4.2-4.6,1.4-7.7-1-1.1-2.4-2-2.5-3.8a3.8,3.8,0,0,0,.4-1c2.4,0,3.5,2,5,3.3l2.8,2.7c1.4,1.7,4.6,2.2,3.8,5.5s-4.9,2.9-7.5,3.8c0.5,3.2,3.9,4.8,3.2,8.1l-0.5.6"/>
        <path class="cls-214" d="M203.5,342.8c-3.5,7.1-3.5,7.1-12.2,7.1,3.2-4.1,9.3-2.9,12.2-7.1"/>
        <path class="cls-215" d="M236.6,328.6c-2-2.3-4-4.5-7.7-4.4,3.7-.1,5.2-2.4,6.7-5s2.5-6.1,6-7.3l0.4,0.3c0.9,2.6-1,4.3-2.2,6.1a13.2,13.2,0,0,0-2.2,9.1,1.8,1.8,0,0,1-1,1.2"/>
        <path class="cls-216" d="M226.4,300.1c-4.1-8.9-1.9-18.3-1.4-27.5l1.3,27.6h0.1Z"/>
        <path class="cls-217" d="M249.9,370.5c-3.2,4-6.1,8.5-11.8,9.4a54.6,54.6,0,0,1,10.6-9.6l1.2,0.2"/>
        <path class="cls-218" d="M258,305.8l-1.4.3a18.4,18.4,0,0,1-6.9-9.5h0.1c4.8,1.2,7.2,4.6,8.2,9.2"/>
        <path class="cls-219" d="M247.7,344.3l-0.4,1.9-5.6-9.7a2.1,2.1,0,0,1,1.6-.6c3.3,1.8,5.1,4.5,4.4,8.4"/>
        <path class="cls-220" d="M228.4,309.5l-1.1,12c-0.8-4.5-1.8-8.9.1-13.3a1.7,1.7,0,0,1,.9,1.3"/>
        <path class="cls-221" d="M243.3,336.3l-1.5.2a19.4,19.4,0,0,1-5.1-7.9l0.7-.6c4,1.3,6,4.1,6,8.3"/>
        <path class="cls-222" d="M256.9,365.8c-1.2,3.3-4.4,3.7-7.1,4.7,1.7-2.6,3.4-5.2,7.1-4.7"/>
        <path class="cls-223" d="M228.4,309.5l-0.9-1.3c-0.4-2.7-1.6-5.3-1-8.1h-0.1a9.8,9.8,0,0,1,2,9.3"/>
        <path class="cls-224" d="M276.8,350.3c-1.8-.5-3.1,2.5-4.7,1s1.3-2.7,1.2-4.4,0.4-2.5-.2-3.4c-3.8-6.2,0-8.6,5-10.4,2-.5,3.7-0.5,3.1,2.4s-2.9,5.5.7,8.4-1.2,3.2-1.8,5l-3.4,1.4"/>
        <path class="cls-225" d="M289.9,392.8c0.1,2.4-1.1,4.4-3.4,4.6s-3-2.2-3.6-3.9c-1.6-4.3-1.7-8.9-3.8-13.1-0.7-1.5.4-3.2,1.8-3.9s4.8-1.5,6.8.7a2.2,2.2,0,0,1-1,1.2c-4.5,2.9-3.4,11,1.9,13.8a2.2,2.2,0,0,1,1.4.6"/>
        <path class="cls-226" d="M271.1,361l1.1-1.4c2.2,7.8,1,15.9,2,23.8-0.3.5-.6,0.5-1,0-2.4-7.3-.3-15.1-2.1-22.5"/>
        <path class="cls-227" d="M289.9,392.8h-1.2c-1.1-4.9-.3-10-1.6-14.8l0.6-.8c4.6,3.9,5.3,8.4,2.3,15.6"/>
        <path class="cls-228" d="M280.3,348.8c1.1-2.3,2.4-4.2-.7-6.6s1-4.5,1.8-6.8l1.1,2.4c-2,1-3.4,2.3-.9,4.1,4.7,3.4,3.5,5.4-1.3,6.9"/>
        <path class="cls-229" d="M273.3,383.5h1l0.3,24.5h-1.1l-0.2-24.4"/>
        <path class="cls-230" d="M310.9,278.9c2.3,9.3-.2,14.6-8.9,17.9-4.9,1.9-10,3.3-14.9,5.1s-6.5,1.1-7.2-4.2c-1-7.7-.4-15.6-1.4-23.3-0.2-1.6,4-5.5,8.1-5.7s5.5,0.7,7.9-1.1h0c4.3,0.9,8.8-1.5,12.9.9a2.7,2.7,0,0,1-1.1,2.9l-1,.6c-2.4,1.2-4.2,2.9-2.8,5.8s3.9,0.7,5.9.5a3.3,3.3,0,0,1,2.4.5"/>
        <path class="cls-231" d="M262.4,323.8c-9.6-6.9-9.5-6.9-2.1-15.8,2.5-3,4.8-6,7.3-9,1.8-.8,3.6-1.5,5.2-2.4,3.5-2,5.5-1.5,5.3,3s3.8,6,7.2,4.7c9.5-3.4,20.3-4.2,27.2-13.6,1,8.1.2,9.2-11.3,14.2-3.1,1.4-4.7,2.7-2.2,5.8,0.7,2.4-.5,4-2.6,4.3-10.8,1.7-20.8,6.1-31.2,8.8a4.9,4.9,0,0,1-2.9-.1"/>
        <path class="cls-232" d="M262.4,323.8c10.9-4,21.6-8.5,33.3-9.7,2.3-.2,2.5-2,3.4-3.4h1.1c1,0.5,1.9,1,1.3,2.4s-2.6,1.1-2.7,2.9c1.6,1.3,2.6-1.3,4.5-.5,0.1,3.5-3.9,3-5.2,5,3.6,8,8.3-.7,13.3.8-5.3,3.5-9.4,7.1-15.9,6.9s-12.6,1.6-18.7,3.8-8.3,2-10.6-3.4c-0.8-1.9-2.5-3.3-3.8-4.9"/>
        <path class="cls-233" d="M280.3,267.4c-6,6-3.3,13.2-2.9,20.1s-2.8,8.3-8.9,7c-3.5-4.3-4.1-9.1-2.4-14.3,2.7-8.5,5.5-17,5.8-26.1,0.1-1.8.6-3.7,2.6-4.2s3.2,1.8,4.4,3.1c2.4,4.6,4.6,9.2,1.4,14.4"/>
        <path class="cls-234" d="M258,305.8c-2.5-3.3-4.9-6.7-8.2-9.2-0.4-3.9-4.2-5.8-5.6-9.5l10.1-2.9c2-.6,3.6.6,5.3,1.3,4,1.7,9.2,2.4,7.5,8.9l-1.4,4.5c-3.4,1.4-3.9,6.2-7.9,6.9"/>
        <path class="cls-235" d="M314,335.2a75.9,75.9,0,0,1-16,2.5c-3.2,1.1-6.4.4-9.7,0.5-1.6.1-3.6,0.6-3.9-2.1s0.6-3.6,2.8-4.2a9.3,9.3,0,0,1,6.1-1.3c8.2,0.8,14.3-3.3,19.8-8.6,2.9,4.2,2,8.7,1,13.3"/>
        <path class="cls-236" d="M267.2,294.3c0-5.7-5.4-5.8-8.6-8.3,4.9-.8,5.5-5,6.8-8.6a37.2,37.2,0,0,0,1.8-6.6,13.7,13.7,0,0,1,.4-1.6c1.6-5.2,3.2-10.3.9-15.7-0.6-2.9,2.4-3.2,3.5-4.9,2.9-2.5.1-6.3,2.1-9l0.2-1.4,1.1-.3c0.4,0.5-.6,2.5,1.3,1.1a1.7,1.7,0,0,1,1.5,0,2.8,2.8,0,0,1,1.3,1.9,4.3,4.3,0,0,1-.3,1.5c-2.4,3.7.8,7.6-.3,11.3a1.2,1.2,0,0,1-1.4-.2l-2.7-3.3a2.1,2.1,0,0,0-.9.6c-0.7,11.4-3.6,22.3-7.2,33.1-1.3,3.9,2.7,6.7,1.8,10.5h-1.3"/>
        <path class="cls-237" d="M291.9,241.7l2.2-.2c0.2,4.6,1,9.2-.9,13.7-0.4.9-.5,1.9,1.1,1.9v1.5c-1.5,5.7,1.2,7.2,6.4,6.5a46,46,0,0,1,6.4,0,4.5,4.5,0,0,1-.1,1.1l-12.7.3c-1.9.8-3.4-.1-4.9-1a13.9,13.9,0,0,1-.1-12.8c2.5-3.3-.2-7.8,2.7-11"/>
        <path class="cls-238" d="M314,310.1v9.8h-0.3c-4.5-2.9-7.8,1.4-11.9,2,4-3.1,3.4-9.7,9-11.3,1,0,1.1-1.7,2.4-1.2l0.9,0.7"/>
        <path class="cls-180" d="M289.7,265.1l4.6,1.3a8.8,8.8,0,0,0,.1,1.2h0c-4.7.4-9.4-1.4-14.1-.2,0.2-4.9.2-9.7-2.8-13.9l1.6-.2c2.9-.1,3.1,2.6,4.3,4.1s3.6,5.5,6.3,7.6"/>
        <path class="cls-231" d="M301.5,313.2l-1.3-2.4c2.8-2,6.4-2.7,8.7-5.7,1,5.8-4.2,6-7.4,8.1"/>
        <path class="cls-239" d="M287.2,331.9c-1.1,1.3-2.8,2.3-1.9,4.4s2.6,1.3,4,1.4H298l-0.6.9c-3.5.1-7,0-10.4,0.2s-3.2-1.1-3.2-3.5,0.5-4.2,3.5-3.4"/>
        <path class="cls-240" d="M306,271.1l1.4-2.6c3.4,2.7,3.1,6.7,3.4,10.4l-2.3.3c-2-2.4-2.4-5.2-2.5-8.1"/>
        <path class="cls-241" d="M313.6,319.9h0.3c1.5,5.1,2.9,10.2.1,15.4,0.2-4.5.9-8.9-1-13.2l0.5-2.1"/>
        <path class="cls-242" d="M313.1,309.3c-1.1-.2-0.6,2.7-2.4,1.2l1.6-9.4h0.8v8.2Z"/>
        <path class="cls-243" d="M286.2,477.8c-0.2,2.1.4,4.5-1.7,4.9s-2.7-1.8-3.4-3.3a74,74,0,0,1-2.9-8.1c-0.4-1.2-1-3,.2-3.7s3.1,0.1,4.1,1.3a13.6,13.6,0,0,1,3.6,9"/>
        <path class="cls-244" d="M289.5,443.6c-2.2-5.5-2.1-10.4-2.2-15.3,0-1-.4-2.4,1.3-2.7s3,0.4,3,2c0.3,5.2,1.6,10.5-2.2,16"/>
        <path class="cls-245" d="M272.2,184.3c-3.4.1-4.6-1.8-4.7-4.9,0-1,0-1.9-.1-2.9s-2.8-5.1,0-6.9,5.1,0.8,7.4,1.9,5.3,3.3,6.3,6.5,0.5,5-3,5.3h-0.6c-1-1.5,0-4.8-3.6-4.2s-0.2,3.7-1.6,5.1"/>
        <path class="cls-246" d="M272.2,184.3c-1.3-2-4.1-4.5-2.1-6.3s6.2-.7,8.6.7-0.7,2.6-1.5,3.9a0.7,0.7,0,0,0,.3.4l0.5,0.2c-1.7,1.7-3.6,2.4-5.8,1"/>
        <path class="cls-247" d="M278,239.4l-1.2-.4c1.3-4.2,1.9-8.7,4.7-12.2s4.9-3.3,6.6.5a76.5,76.5,0,0,1,3.3,9.8c0.5,1.5-1,1.2-1.8,1.4-3.7,2.1-7.7,1.2-11.6,1"/>
        <path class="cls-248" d="M291.9,241.7c-0.7,4,2.1,8.6-2,12a2.1,2.1,0,0,1-1.4-1c-0.9-2.3-7.7-10.2-9.7-11.1l0.2-1c3.2-3,6.8-1.9,10.4-1l2.3,2.2"/>
        <path class="cls-249" d="M289.6,239.4c-3.5.4-7.1-.7-10.4,1l-1.1-1.1c3.7-2.1,7.7-1.6,11.6-1,0,0.3,0,.7-0.1,1"/>
        <path class="cls-250" d="M266.1,254.4c-2.2,2.7-5.7,3.8-7.4,7.2-0.9,1.8-3,4-5.7,3.1s-3-3.1-3.2-5.7,1.1-4.9-2.3-5.8c-0.7-4.9,1.3-7.9,6.1-10,3.2-1.3,5.8,1.1,8.7.9,0.7,3.6,4.9,5.9,3.7,10.2"/>
        <path class="cls-251" d="M274.2,239.7c1.3,3.5,3.3,7.1-2.1,9-4.4-.3-7.7-1.5-5.8-7,2.5-1.1,4.6-3.8,7.9-2"/>
        <path class="cls-252" d="M243.3,336.3a33.8,33.8,0,0,0-6-8.3c-2.6-3.9-.9-7.2,1.5-10.4,1.2-1.7,2.1-3.6,3.2-5.4,13.5,7,24.8,16.1,29.6,31.3a3.5,3.5,0,0,1-1.1,4.1c-3.7,3.5-8.5,5.4-12.5,8.5-1.8,1.4-2.5-.4-3.1-1.3-2.5-3.4-4.8-7-7.2-10.5a26.1,26.1,0,0,0-4.4-8"/>
        <path class="cls-253" d="M268.6,269.8a3.1,3.1,0,0,1-.2,1.1c-1.3,3.2-2.3,6.5-3.7,9.6s-4.1,5.1-7.8,2.5a43.2,43.2,0,0,0-7.1-3.9,3.7,3.7,0,0,1-2.4-2.4,4.9,4.9,0,0,1,.1-5c3.3,0.4,7,2.3,9.3-2a5.6,5.6,0,0,0,4.7-3.5,8.6,8.6,0,0,1,3.5-3.6c5-.3,5-0.2,3.6,7.1"/>
        <path class="cls-254" d="M268.6,269.8c-0.9-2.5,1.9-6.9-3.6-7.1,2.4-2.6,4.2-5.4,3.6-9.1,1.4-.3,2.3.1,2.2,1.7-0.2,4.9.8,10.1-2.2,14.6"/>
        <path class="cls-255" d="M247.5,271.7c0.8,1.7.3,3.3-.1,5l-4.5-3.9c-0.5-2.4-.1-4.5,2.6-4.8s1.7,2.2,2,3.7"/>
        <path class="cls-254" d="M261.5,266.2c0.1,3.4-.8,5.4-4.7,3.5,0.8-2.2,3-2.4,4.7-3.5"/>
        <path class="cls-256" d="M249.9,279.1a9,9,0,0,1,5.9,1.7c3.7,2.3,6.8,3.2,8.7-2.6,0.8-2.3.9-5.8,3.9-7.2-0.2,3.9-2.2,7.3-3.1,11.1s-2.9,5.3-6.7,4.1l-4.2-1.9c-0.1-3-3.9-2.6-4.6-5.1"/>
        <path class="cls-257" d="M287,377.9c3.8,4.6,2.8,9.7,1.6,14.8-1.3,2-2.5,4.1-3.9,0s-1.5-6.4-2.5-9.5c-1.7-5.2-.1-6.5,4.8-5.3"/>
        <path class="cls-258" d="M306,271.1c2.3,2.2,2.5,5.1,2.5,8.1-1.8,1.4-3.6,3.4-6,1.6a5.2,5.2,0,0,1-2-6.1c0.8-2.7,2.4-4.4,5.5-3.6"/>
        <path class="cls-259" d="M278.9,241.5c10.3,0.4,10.2.4,10.3,10.6a4.7,4.7,0,0,0,.7,1.6c-1.2,3.8.1,7.6-.2,11.4-4,1.1-4.5-2.5-6.1-4.6s-3-4.7-4.5-7.1c-2-3.9-3.9-7.8-.3-11.8"/>
        <path class="cls-260" d="M268.2,170.7c3.2,2.2,6.6,1.6,8.6,5.5-3.6-.7-7.4.8-8.6-5.5"/>
        <path class="cls-261" d="M305,278.1c-1.3-.1-2.5-0.3-2.5-1.8s0.1-2.9,1.8-3,1.7,1.3,1.7,2.4,0.7,2.4-1.1,2.4"/>
      </g>
    </g>
  </g>
  <rect class="cls-262" x="214.7" y="133.8" width="123.9" height="22.96" transform="translate(-8.2 16.7) rotate(-3.4)"/>
</svg>
